<?xml version="1.0" encoding="iso-8859-1"?>
<!-- Generator: Adobe Illustrator 19.0.0, SVG Export Plug-In . SVG Version: 6.00 Build 0)  -->
<svg xmlns="http://www.w3.org/2000/svg" xmlns:xlink="http://www.w3.org/1999/xlink" version="1.1" id="Capa_1" x="0px" y="0px" viewBox="0 0 480 480" style="enable-background:new 0 0 480 480;" xml:space="preserve" width="512px" height="512px">
<g>
	<g>
		<g>
			<path d="M361.848,96.224c-0.605-0.146-1.225-0.221-1.848-0.224H132.8l-2.888-19.512c-1.8-11.729-11.854-20.413-23.72-20.488H80     c-4.418,0-8,3.582-8,8s3.582,8,8,8h26.192c3.96,0.021,7.318,2.917,7.92,6.832l3.896,26.336l24.056,162.344     c1.801,11.738,11.869,20.425,23.744,20.488h3.328c4.339,17.046,21.674,27.347,38.719,23.008     c11.304-2.877,20.131-11.704,23.009-23.008h34.272c4.418,17.112,21.872,27.402,38.984,22.984s27.402-21.872,22.984-38.984     c-4.418-17.112-21.872-27.402-38.984-22.984c-11.272,2.91-20.074,11.712-22.984,22.984h-34.272     c-4.339-17.046-21.674-27.347-38.719-23.009c-11.304,2.877-20.131,11.704-23.009,23.009h-3.328     c-3.969,0.003-7.34-2.905-7.92-6.832L154.16,240h149.6c18.476,0.043,34.562-12.61,38.872-30.576l25.112-103.544     C368.782,101.585,366.143,97.262,361.848,96.224z M296,264c8.837,0,16,7.163,16,16s-7.163,16-16,16s-16-7.163-16-16     S287.163,264,296,264z M200,264c8.837,0,16,7.163,16,16s-7.163,16-16,16s-16-7.163-16-16S191.163,264,200,264z M327.12,205.656     c-2.592,10.777-12.243,18.366-23.328,18.344h-152L135.2,112h214.632L327.12,205.656z" fill="#40454a"/>
			<path d="M456,24H24C10.745,24,0,34.745,0,48v304c0,13.255,10.745,24,24,24h168v32h-48c-13.255,0-24,10.745-24,24v16     c0,4.418,3.582,8,8,8h224c4.418,0,8-3.582,8-8v-16c0-13.255-10.745-24-24-24h-48v-32h168c13.255,0,24-10.745,24-24V48     C480,34.745,469.255,24,456,24z M336,424c4.418,0,8,3.582,8,8v8H136v-8c0-4.418,3.582-8,8-8H336z M208,408v-32h64v32H208z      M464,352c0,4.418-3.582,8-8,8H24c-4.418,0-8-3.582-8-8v-8h448V352z M464,328H16V48c0-4.418,3.582-8,8-8h432c4.418,0,8,3.582,8,8     V328z" fill="#40454a"/>
		</g>
	</g>
</g>
<g>
</g>
<g>
</g>
<g>
</g>
<g>
</g>
<g>
</g>
<g>
</g>
<g>
</g>
<g>
</g>
<g>
</g>
<g>
</g>
<g>
</g>
<g>
</g>
<g>
</g>
<g>
</g>
<g>
</g>
</svg>
