<?xml version="1.0" encoding="iso-8859-1"?>
<!-- Generator: Adobe Illustrator 19.0.0, SVG Export Plug-In . SVG Version: 6.00 Build 0)  -->
<svg version="1.1" id="Capa_1" xmlns="http://www.w3.org/2000/svg" xmlns:xlink="http://www.w3.org/1999/xlink" x="0px" y="0px"
	 viewBox="0 0 511.908 511.908" style="enable-background:new 0 0 511.908 511.908;" xml:space="preserve">
<path style="fill:#656D78;" d="M379.932,166.127v53.834h-31.994v-55.99v-59.989c0-37.517-30.479-67.987-67.987-67.987
	c-37.591,0-67.988,30.471-67.988,67.987v59.989v55.99h-31.994v-53.834v-62.146C179.969,48.788,224.684,4,279.951,4
	c55.192,0,99.981,44.788,99.981,99.981L379.932,166.127L379.932,166.127z"/>
<g style="opacity:0.2;">
	<path d="M379.932,166.127v53.834h-31.994v-55.99v-59.989c0-37.517-30.479-67.987-67.987-67.987
		c-37.591,0-67.988,30.471-67.988,67.987v59.989v55.99h-31.994v-53.834v-62.146C179.969,48.788,224.684,4,279.951,4
		c55.192,0,99.981,44.788,99.981,99.981L379.932,166.127L379.932,166.127z"/>
</g>
<path style="fill:#AC92EC;" d="M507.909,483.913c0,12.475-9.437,22.629-21.512,23.832c-0.805,0.078-1.688,0.164-2.484,0.164H75.986
	c-13.274,0-23.995-10.725-23.995-23.996v-167.97c0-71.589,49.351-131.5,115.979-147.661l11.998-2.155v53.834h31.994v-55.99h11.998
	c0,0,81.204,0,111.979,0c30.776,0,43.992,2.156,43.992,2.156l11.998,2.155c10.404,2.562,20.402,6.163,29.838,10.639
	c50.944,24.559,86.142,76.627,86.142,137.022V483.913z"/>
<g style="opacity:0.2;">
	<path d="M507.909,483.913c0,12.475-9.437,22.629-21.512,23.832c-0.805,0.078-1.688,0.164-2.484,0.164H75.986
		c-13.274,0-23.995-10.725-23.995-23.996v-167.97c0-71.589,49.351-131.5,115.979-147.661l11.998-2.155v53.834h31.994v-55.99h11.998
		c0,0,81.204,0,111.979,0c30.776,0,43.992,2.156,43.992,2.156l11.998,2.155c10.404,2.562,20.402,6.163,29.838,10.639
		c50.944,24.559,86.142,76.627,86.142,137.022V483.913z"/>
</g>
<path style="fill:#AC92EC;" d="M459.918,483.913c0,12.475-9.437,22.629-21.512,23.832c-0.805,0.078-1.688,0.164-2.484,0.164H27.995
	C14.721,507.909,4,497.184,4,483.913v-167.97c0-71.589,49.35-131.5,115.979-147.661l11.998-2.155v53.834h31.994v-55.99h11.998
	h111.979h11.998v55.99h31.994v-53.834l11.998,2.155c10.404,2.562,20.402,6.163,29.839,10.639
	c50.943,24.559,86.141,76.627,86.141,137.022L459.918,483.913L459.918,483.913z"/>
<g style="opacity:0.3;">
	<path style="fill:#FFFFFF;" d="M19.997,483.913v-167.97c0-70.128,47.409-128.945,111.979-146.513v-3.304l-11.998,2.155
		C53.35,184.443,4,244.354,4,315.943v167.97c0,13.271,10.721,23.996,23.995,23.996h15.997
		C30.718,507.909,19.997,497.184,19.997,483.913z"/>
</g>
<g style="opacity:0.2;">
	<path d="M443.92,483.913v-167.97c0-70.128-47.413-128.945-111.979-146.513v-3.304l11.998,2.155
		c66.629,16.161,115.979,76.072,115.979,147.661v167.97c0,13.271-10.717,23.996-23.996,23.996h-15.997
		C433.203,507.909,443.92,497.184,443.92,483.913z"/>
</g>
<path style="fill:#FFCE54;" d="M267.952,359.935c0,19.91-16.157,35.993-35.994,35.993c-19.914,0-35.993-16.083-35.993-35.993
	c0-19.84,16.079-35.994,35.993-35.994C251.795,323.941,267.952,340.096,267.952,359.935z"/>
<g style="opacity:0.5;">
	<path style="fill:#FFFFFF;" d="M203.964,359.935c0-18.473,13.993-33.572,31.986-35.588c-1.328-0.148-2.625-0.406-3.992-0.406
		c-19.914,0-35.993,16.154-35.993,35.994c0,19.91,16.079,35.993,35.993,35.993c1.367,0,2.664-0.249,3.992-0.405
		C217.957,393.516,203.964,378.471,203.964,359.935z"/>
</g>
<g style="opacity:0.2;">
	<path d="M259.953,359.935c0,18.473-13.993,33.572-31.986,35.588c1.328,0.148,2.625,0.405,3.991,0.405
		c19.915,0,35.994-16.153,35.994-35.993c0-19.91-16.079-35.994-35.994-35.994c-1.366,0-2.663,0.25-3.991,0.406
		C245.96,326.355,259.953,341.4,259.953,359.935z"/>
</g>
<path style="fill:#656D78;" d="M331.94,166.127v53.834h-31.994v-55.99v-59.989c0-37.517-30.479-67.987-67.988-67.987
	c-37.591,0-67.987,30.471-67.987,67.987v59.989v55.99h-31.994v-53.834v-62.146C131.977,48.788,176.692,4,231.958,4
	c55.194,0,99.982,44.788,99.982,99.981V166.127z"/>
<g style="opacity:0.2;">
	<path style="fill:#FFFFFF;" d="M139.975,103.981c0-53.842,42.587-97.662,95.979-99.778C234.618,4.148,233.309,4,231.958,4
		c-55.267,0-99.981,44.788-99.981,99.981v62.146v53.834h7.998v-53.834V103.981z"/>
</g>
<g style="opacity:0.2;">
	<path d="M323.941,103.981c0-53.842-42.586-97.662-95.979-99.778C229.298,4.148,230.607,4,231.957,4
		c55.272,0,99.982,44.788,99.982,99.981v62.146v53.834h-7.999v-53.834v-62.146H323.941z"/>
</g>
<g>
	<path style="fill:#3A3847;" d="M27.995,511.908C12.56,511.908,0,499.347,0,483.913c0-2.21,1.789-3.999,4-3.999
		c2.21,0,3.999,1.789,3.999,3.999c0,11.029,8.971,19.997,19.996,19.997c2.211,0,3.999,1.788,3.999,3.999
		C31.994,510.119,30.206,511.908,27.995,511.908z"/>
	<path style="fill:#3A3847;" d="M435.922,511.908c-2.211,0-3.999-1.789-3.999-3.999c0-2.211,1.788-3.999,3.999-3.999
		c11.029,0,19.996-8.968,19.996-19.997c0-2.21,1.789-3.999,4-3.999c2.21,0,3.999,1.789,3.999,3.999
		C463.917,499.348,451.356,511.908,435.922,511.908z"/>
	<path style="fill:#3A3847;" d="M435.922,511.908H27.995c-2.21,0-3.999-1.789-3.999-3.999c0-2.211,1.789-3.999,3.999-3.999h407.927
		c2.211,0,3.999,1.788,3.999,3.999C439.921,510.119,438.133,511.908,435.922,511.908z"/>
	<path style="fill:#3A3847;" d="M4,487.912c-2.211,0-4-1.788-4-3.999v-167.97c0-2.211,1.789-3.999,4-3.999
		c2.21,0,3.999,1.788,3.999,3.999v167.97C7.999,486.124,6.21,487.912,4,487.912z"/>
	<path style="fill:#3A3847;" d="M4,319.942c-2.211,0-4-1.788-4-3.999c0-72.253,48.948-134.585,119.037-151.582
		c2.16-0.469,4.309,0.805,4.827,2.944c0.52,2.148-0.796,4.312-2.944,4.836C54.435,188.256,7.999,247.393,7.999,315.943
		C7.999,318.154,6.21,319.942,4,319.942z"/>
	<path style="fill:#3A3847;" d="M459.918,319.942c-2.211,0-4-1.788-4-3.999c0-68.542-46.429-127.68-112.917-143.802
		c-2.14-0.523-3.46-2.688-2.937-4.836c0.516-2.147,2.687-3.405,4.827-2.944c70.081,17.005,119.025,79.329,119.025,151.582
		C463.917,318.154,462.128,319.942,459.918,319.942z"/>
	<path style="fill:#3A3847;" d="M459.918,487.912c-2.211,0-4-1.788-4-3.999v-167.97c0-2.211,1.789-3.999,4-3.999
		c2.21,0,3.999,1.788,3.999,3.999v167.97C463.917,486.124,462.128,487.912,459.918,487.912z"/>
	<path style="fill:#3A3847;" d="M287.948,167.97H175.969c-2.211,0-3.999-1.788-3.999-3.999s1.788-3.999,3.999-3.999h111.979
		c2.211,0,3.999,1.788,3.999,3.999S290.159,167.97,287.948,167.97z"/>
	<path style="fill:#3A3847;" d="M483.913,511.908c-2.21,0-3.999-1.789-3.999-3.999c0-2.211,1.789-3.999,3.999-3.999
		c11.029,0,19.997-8.968,19.997-19.997c0-2.21,1.788-3.999,3.999-3.999c2.21,0,3.999,1.789,3.999,3.999
		C511.908,499.348,499.348,511.908,483.913,511.908z"/>
	<path style="fill:#3A3847;" d="M507.909,319.942c-2.211,0-3.999-1.788-3.999-3.999c0-76.713-56.912-140.334-132.383-147.997
		c-2.195-0.219-3.797-2.179-3.578-4.382c0.234-2.187,2.156-3.78,4.391-3.569c79.563,8.068,139.568,75.111,139.568,155.948
		C511.908,318.154,510.119,319.942,507.909,319.942z"/>
	<path style="fill:#3A3847;" d="M507.909,487.912c-2.211,0-3.999-1.788-3.999-3.999v-167.97c0-2.211,1.788-3.999,3.999-3.999
		c2.21,0,3.999,1.788,3.999,3.999v167.97C511.908,486.124,510.119,487.912,507.909,487.912z"/>
	<path style="fill:#3A3847;" d="M483.913,511.908h-23.995c-2.211,0-4-1.789-4-3.999c0-2.211,1.789-3.999,4-3.999h23.995
		c2.211,0,3.999,1.788,3.999,3.999C487.912,510.119,486.124,511.908,483.913,511.908z"/>
	<path style="fill:#3A3847;" d="M339.939,223.96h-47.992c-2.21,0-3.999-1.789-3.999-3.999c0-2.211,1.789-4,3.999-4h47.992
		c2.21,0,3.999,1.789,3.999,4C343.938,222.171,342.149,223.96,339.939,223.96z"/>
	<path style="fill:#3A3847;" d="M171.97,223.96h-47.992c-2.21,0-3.999-1.789-3.999-3.999c0-2.211,1.789-4,3.999-4h47.992
		c2.21,0,3.999,1.789,3.999,4C175.969,222.171,174.18,223.96,171.97,223.96z"/>
	<path style="fill:#3A3847;" d="M131.976,215.961c-2.211,0-3.999-1.788-3.999-3.999v-107.98c0-2.21,1.788-3.999,3.999-3.999
		s3.999,1.789,3.999,3.999v107.98C135.975,214.173,134.187,215.961,131.976,215.961z"/>
	<path style="fill:#3A3847;" d="M331.94,215.961c-2.21,0-3.999-1.788-3.999-3.999v-107.98c0-2.21,1.789-3.999,3.999-3.999
		c2.211,0,3.999,1.789,3.999,3.999v107.98C335.939,214.173,334.151,215.961,331.94,215.961z"/>
	<path style="fill:#3A3847;" d="M331.94,107.98c-2.21,0-3.999-1.788-3.999-3.999c0-52.928-43.055-95.982-95.983-95.982
		c-52.924,0-95.982,43.055-95.982,95.982c0,2.211-1.788,3.999-3.999,3.999s-3.999-1.788-3.999-3.999
		C127.978,46.648,174.622,0,231.958,0c57.334,0,103.981,46.648,103.981,103.981C335.939,106.192,334.151,107.98,331.94,107.98z"/>
	<path style="fill:#3A3847;" d="M299.946,107.98c-2.21,0-3.999-1.788-3.999-3.999c0-35.282-28.706-63.988-63.989-63.988
		c-35.282,0-63.988,28.706-63.988,63.988c0,2.211-1.788,3.999-3.999,3.999s-3.999-1.788-3.999-3.999
		c0-39.696,32.295-71.987,71.986-71.987c39.696,0,71.987,32.291,71.987,71.987C303.945,106.192,302.157,107.98,299.946,107.98z"/>
	<path style="fill:#3A3847;" d="M163.971,215.961c-2.211,0-3.999-1.788-3.999-3.999v-107.98c0-2.21,1.788-3.999,3.999-3.999
		s3.999,1.789,3.999,3.999v107.98C167.97,214.173,166.182,215.961,163.971,215.961z"/>
	<path style="fill:#3A3847;" d="M299.946,215.961c-2.21,0-3.999-1.788-3.999-3.999v-107.98c0-2.21,1.789-3.999,3.999-3.999
		c2.211,0,3.999,1.789,3.999,3.999v107.98C303.945,214.173,302.157,215.961,299.946,215.961z"/>
	<path style="fill:#3A3847;" d="M179.968,151.973c-2.211,0-3.999-1.788-3.999-3.999v-43.992c0-2.21,1.788-3.999,3.999-3.999
		s3.999,1.789,3.999,3.999v43.992C183.967,150.184,182.179,151.973,179.968,151.973z"/>
	<path style="fill:#3A3847;" d="M379.932,153.004c-2.21,0-3.999-1.789-3.999-3.999v-45.023c0-2.21,1.789-3.999,3.999-3.999
		c2.211,0,4,1.789,4,3.999v45.023C383.932,151.215,382.142,153.004,379.932,153.004z"/>
	<path style="fill:#3A3847;" d="M379.932,107.98c-2.21,0-3.999-1.788-3.999-3.999c0-51.662-41.992-94.709-93.608-95.951
		c-2.21-0.055-3.952-1.891-3.905-4.093c0.055-2.211,1.656-3.906,4.093-3.906c55.928,1.352,101.42,47.983,101.42,103.95
		C383.932,106.192,382.142,107.98,379.932,107.98z"/>
	<path style="fill:#3A3847;" d="M179.968,107.98c-2.211,0-3.999-1.788-3.999-3.999c0-10.459,1.551-20.785,4.608-30.689
		c0.645-2.109,2.874-3.32,4.999-2.641c2.109,0.648,3.292,2.891,2.641,4.999c-2.82,9.14-4.25,18.669-4.25,28.331
		C183.967,106.192,182.179,107.98,179.968,107.98z"/>
	<path style="fill:#3A3847;" d="M347.937,107.98c-2.211,0-3.999-1.788-3.999-3.999c0-11.498-3.077-22.77-8.905-32.604
		c-1.124-1.898-0.499-4.351,1.398-5.476c1.914-1.133,4.352-0.492,5.476,1.398c6.562,11.068,10.03,23.746,10.03,36.681
		C351.937,106.192,350.148,107.98,347.937,107.98z"/>
	<path style="fill:#3A3847;" d="M211.962,107.98c-2.21,0-3.999-1.788-3.999-3.999c0-23.184,11.279-45.086,30.166-58.591
		c1.801-1.297,4.301-0.875,5.581,0.922c1.285,1.796,0.871,4.296-0.926,5.577c-16.797,12.014-26.823,31.486-26.823,52.092
		C215.961,106.192,214.173,107.98,211.962,107.98z"/>
	<path style="fill:#3A3847;" d="M211.962,151.973c-2.21,0-3.999-1.788-3.999-3.999v-43.992c0-2.21,1.789-3.999,3.999-3.999
		c2.211,0,3.999,1.789,3.999,3.999v43.992C215.961,150.184,214.173,151.973,211.962,151.973z"/>
	<path style="fill:#3A3847;" d="M347.937,155.348c-2.211,0-3.999-1.789-3.999-4v-47.366c0-2.21,1.788-3.999,3.999-3.999
		s4,1.789,4,3.999v47.366C351.937,153.558,350.148,155.348,347.937,155.348z"/>
	<path style="fill:#3A3847;" d="M435.922,495.911H27.995c-2.21,0-3.999-1.789-3.999-3.999c0-2.211,1.789-4,3.999-4h407.927
		c2.211,0,3.999,1.789,3.999,4C439.921,494.122,438.133,495.911,435.922,495.911z"/>
	<path style="fill:#3A3847;" d="M483.913,487.912c-2.21,0-3.999-1.788-3.999-3.999v-167.97c0-2.211,1.789-3.999,3.999-3.999
		c2.211,0,3.999,1.788,3.999,3.999v167.97C487.912,486.124,486.124,487.912,483.913,487.912z"/>
	<path style="fill:#3A3847;" d="M483.913,319.942c-2.21,0-3.999-1.788-3.999-3.999c0-31.127-11.021-61.341-31.041-85.078
		c-1.422-1.688-1.203-4.211,0.484-5.632c1.694-1.43,4.21-1.211,5.639,0.477c21.223,25.175,32.916,57.224,32.916,90.233
		C487.912,318.154,486.124,319.942,483.913,319.942z"/>
	<path style="fill:#3A3847;" d="M231.958,399.928c-22.05,0-39.992-17.941-39.992-39.992s17.942-39.993,39.992-39.993
		c22.051,0,39.993,17.942,39.993,39.993S254.009,399.928,231.958,399.928z M231.958,327.941c-17.641,0-31.994,14.349-31.994,31.994
		s14.354,31.994,31.994,31.994c17.642,0,31.995-14.349,31.995-31.994S249.6,327.941,231.958,327.941z"/>
	<path style="fill:#3A3847;" d="M219.965,359.935c-1.293,0-2.562-0.625-3.332-1.781c-1.226-1.835-0.73-4.319,1.109-5.546
		l23.996-15.997c1.839-1.227,4.319-0.734,5.546,1.109c1.226,1.836,0.73,4.319-1.109,5.546l-23.996,15.997
		C221.495,359.717,220.726,359.935,219.965,359.935z"/>
	<path style="fill:#3A3847;" d="M243.956,367.933c-0.418,0-0.844-0.062-1.265-0.203l-23.996-7.998
		c-2.094-0.703-3.226-2.969-2.527-5.062c0.699-2.086,2.941-3.226,5.058-2.53l23.996,7.998c2.094,0.703,3.226,2.969,2.527,5.062
		C247.19,366.872,245.632,367.933,243.956,367.933z"/>
	<path style="fill:#3A3847;" d="M219.965,383.932c-1.293,0-2.562-0.625-3.332-1.781c-1.226-1.836-0.73-4.319,1.109-5.546
		l23.996-15.997c1.839-1.234,4.319-0.734,5.546,1.109c1.226,1.835,0.73,4.319-1.109,5.546l-23.996,15.997
		C221.495,383.713,220.726,383.932,219.965,383.932z"/>
	<path style="fill:#3A3847;" d="M259.953,223.96h-55.989c-2.211,0-4-1.789-4-3.999c0-2.211,1.789-4,4-4h55.989c2.211,0,4,1.789,4,4
		C263.953,222.171,262.164,223.96,259.953,223.96z"/>
</g>
<g>
</g>
<g>
</g>
<g>
</g>
<g>
</g>
<g>
</g>
<g>
</g>
<g>
</g>
<g>
</g>
<g>
</g>
<g>
</g>
<g>
</g>
<g>
</g>
<g>
</g>
<g>
</g>
<g>
</g>
</svg>
