<?xml version="1.0" encoding="iso-8859-1"?>
<!-- Generator: Adobe Illustrator 19.0.0, SVG Export Plug-In . SVG Version: 6.00 Build 0)  -->
<svg version="1.1" id="Capa_1" xmlns="http://www.w3.org/2000/svg" xmlns:xlink="http://www.w3.org/1999/xlink" x="0px" y="0px"
	 viewBox="0 0 511.908 511.908" style="enable-background:new 0 0 511.908 511.908;" xml:space="preserve">
<polygon style="fill:#965353;" points="279.95,27.995 256.513,108.379 255.075,107.98 231.721,27.995 231.958,27.995 "/>
<g style="opacity:0.2;">
	<polygon points="279.95,27.995 256.513,108.379 255.075,107.98 231.721,27.995 231.958,27.995 	"/>
</g>
<path style="fill:#656D78;" d="M256.513,108.379l23.438-80.384h-47.992h-0.238l23.354,79.985L256.513,108.379z M319.942,51.991
	l7.999,7.998L223.96,241.476V219.96l17.438-59.829l-0.16-0.082l-57.349-100.06l8.077-7.998l-7.999-7.999
	c0,0,31.994-39.992,39.993-39.992h63.988c7.999,0,39.993,39.992,39.993,39.992L319.942,51.991z"/>
<g style="opacity:0.2;">
	<path d="M327.941,43.992c0,0-31.994-39.992-39.993-39.992h-15.997c7.999,0,39.993,39.992,39.993,39.992l-7.999,7.999l7.999,7.998
		L227.76,206.924l-3.8,13.037v21.516L327.941,59.989l-7.999-7.998L327.941,43.992z"/>
</g>
<g style="opacity:0.2;">
	<path style="fill:#FFFFFF;" d="M241.379,132.375l-41.493-72.386l8.077-7.998l-7.999-7.999c0,0,31.994-39.992,39.993-39.992H223.96
		c-7.999,0-39.993,39.992-39.993,39.992l7.999,7.999l-8.077,7.998l52.034,90.78L241.379,132.375z"/>
</g>
<path style="fill:#965353;" d="M407.927,379.932v31.994h-39.993v95.983H223.96V241.476L327.941,59.989h15.997h23.995
	c22.152,0,39.993,17.919,39.993,39.993L407.927,379.932L407.927,379.932z"/>
<path style="fill:#7F4545;" d="M183.889,59.989l57.349,100.061l0.16,0.082l-17.438,59.829v21.516V507.91h-79.985v-95.983h-39.993
	v-31.994V99.982c0-22.074,17.919-39.993,39.993-39.993h23.996H183.889z"/>
<g style="opacity:0.1;">
	<path style="fill:#FFFFFF;" d="M119.978,99.982c0-22.074,17.919-39.993,39.993-39.993h-15.997
		c-22.074,0-39.993,17.919-39.993,39.993v279.949v31.994h15.997v-31.994C119.978,379.931,119.978,99.982,119.978,99.982z"/>
	<rect x="143.974" y="132.124" style="fill:#FFFFFF;" width="15.997" height="375.79"/>
</g>
<g style="opacity:0.2;">
	<path d="M391.93,99.982c0-22.074-17.918-39.993-39.992-39.993h15.996c22.074,0,39.993,17.919,39.993,39.993v279.949v31.994H391.93
		v-31.994V99.982z"/>
	<rect x="351.934" y="132.124" width="15.996" height="375.79"/>
</g>
<g style="opacity:0.2;">
	<polygon points="251.857,96.787 248.502,108.297 248.483,108.293 235.962,150.711 241.266,159.968 241.426,160.05 256.54,108.297 
		255.102,107.898 	"/>
</g>
<g style="opacity:0.2;">
	<rect x="135.974" y="131.974" width="7.999" height="279.95"/>
</g>
<g style="opacity:0.2;">
	<rect x="367.934" y="131.974" width="7.999" height="279.95"/>
</g>
<g>
	<path style="fill:#3A3847;" d="M288.183,191.966c-2.202,0-4.03-1.789-4.03-3.999c0-2.211,1.75-4,3.952-4h0.078
		c2.219,0,3.999,1.789,3.999,4C292.182,190.177,290.401,191.966,288.183,191.966z"/>
	<path style="fill:#3A3847;" d="M288.183,255.954c-2.202,0-4.03-1.789-4.03-3.999c0-2.211,1.75-3.999,3.952-3.999h0.078
		c2.219,0,3.999,1.788,3.999,3.999C292.182,254.165,290.401,255.954,288.183,255.954z"/>
	<path style="fill:#3A3847;" d="M288.183,319.942c-2.202,0-4.03-1.788-4.03-3.999s1.75-3.999,3.952-3.999h0.078
		c2.219,0,3.999,1.788,3.999,3.999S290.401,319.942,288.183,319.942z"/>
	<path style="fill:#3A3847;" d="M240.195,319.942c-2.207,0-4.038-1.788-4.038-3.999s1.75-3.999,3.96-3.999h0.078
		c2.211,0,3.999,1.788,3.999,3.999S242.406,319.942,240.195,319.942z"/>
	<path style="fill:#3A3847;" d="M240.195,255.954c-2.207,0-4.038-1.789-4.038-3.999c0-2.211,1.75-3.999,3.96-3.999h0.078
		c2.211,0,3.999,1.788,3.999,3.999C244.194,254.165,242.406,255.954,240.195,255.954z"/>
	<path style="fill:#3A3847;" d="M400.162,399.928c-2.202,0-4.03-1.788-4.03-3.999c0-2.21,1.75-3.999,3.952-3.999h0.078
		c2.219,0,4,1.789,4,3.999C404.162,398.14,402.381,399.928,400.162,399.928z"/>
	<path style="fill:#3A3847;" d="M112.219,399.928c-2.207,0-4.039-1.788-4.039-3.999c0-2.21,1.75-3.999,3.96-3.999h0.078
		c2.21,0,3.999,1.789,3.999,3.999C116.218,398.14,114.429,399.928,112.219,399.928z"/>
	<path style="fill:#3A3847;" d="M287.948,7.999H223.96c-2.21,0-3.999-1.789-3.999-3.999c0-2.211,1.789-4,3.999-4h63.988
		c2.211,0,3.999,1.789,3.999,4C291.947,6.21,290.159,7.999,287.948,7.999z"/>
	<path style="fill:#3A3847;" d="M279.95,31.994h-47.992c-2.21,0-4-1.788-4-3.999c0-2.21,1.789-3.999,4-3.999h47.992
		c2.21,0,3.999,1.789,3.999,3.999C283.949,30.206,282.16,31.994,279.95,31.994z"/>
	<path style="fill:#3A3847;" d="M223.96,223.96c-0.367,0-0.746-0.051-1.121-0.16c-2.12-0.617-3.335-2.839-2.718-4.96l55.986-191.966
		c0.616-2.116,2.796-3.354,4.967-2.718c2.117,0.617,3.328,2.839,2.719,4.96l-55.994,191.965
		C227.291,222.827,225.694,223.96,223.96,223.96z"/>
	<path style="fill:#3A3847;" d="M249.564,93.257c-1.733,0-3.331-1.133-3.839-2.878l-17.872-61.263
		c-0.617-2.121,0.598-4.343,2.719-4.96c2.132-0.637,4.343,0.602,4.96,2.718l17.872,61.263c0.617,2.121-0.598,4.343-2.719,4.96
		C250.31,93.206,249.932,93.257,249.564,93.257z"/>
	<path style="fill:#3A3847;" d="M183.963,47.991c-0.875,0-1.757-0.284-2.496-0.874c-1.723-1.383-2.004-3.898-0.625-5.624
		C193.242,25.996,215.328,0,223.959,0c2.211,0,3.999,1.789,3.999,4c0,2.163-1.718,3.925-3.862,3.995
		c-4.714,1.102-22.844,20.793-37.005,38.497C186.299,47.476,185.139,47.991,183.963,47.991z"/>
	<path style="fill:#3A3847;" d="M191.966,55.99c-1.023,0-2.047-0.391-2.828-1.172l-7.999-7.998c-1.562-1.562-1.562-4.094,0-5.655
		c1.562-1.562,4.093-1.562,5.655,0l7.999,7.998c1.562,1.562,1.562,4.093,0,5.655C194.012,55.6,192.989,55.99,191.966,55.99z"/>
	<path style="fill:#3A3847;" d="M327.941,47.991c-1.172,0-2.328-0.511-3.125-1.499C310.6,28.721,292.392,8.948,287.76,7.983
		c-2.21,0-3.905-1.781-3.905-3.991c0-2.207,1.883-3.992,4.093-3.992c8.632,0,30.714,25.996,43.117,41.493
		c1.375,1.726,1.094,4.241-0.624,5.624C329.707,47.707,328.816,47.991,327.941,47.991z"/>
	<path style="fill:#3A3847;" d="M319.942,55.99c-1.022,0-2.046-0.391-2.827-1.172c-1.562-1.562-1.562-4.093,0-5.655l7.998-7.998
		c1.562-1.562,4.094-1.562,5.655,0c1.562,1.562,1.562,4.093,0,5.655l-7.998,7.998C321.989,55.6,320.966,55.99,319.942,55.99z"/>
	<path style="fill:#3A3847;" d="M231.689,231.958c-0.676,0-1.359-0.171-1.984-0.53c-1.917-1.098-2.582-3.539-1.48-5.456
		l96.248-167.97c1.094-1.922,3.547-2.582,5.453-1.48c1.921,1.098,2.585,3.538,1.483,5.456l-96.248,167.97
		C234.423,231.236,233.076,231.958,231.689,231.958z"/>
	<path style="fill:#3A3847;" d="M233.095,149.942c-1.386,0-2.734-0.723-3.472-2.012l-49.257-85.953
		c-1.102-1.918-0.438-4.358,1.48-5.456c1.914-1.094,4.358-0.438,5.456,1.48l49.257,85.953c1.101,1.917,0.438,4.358-1.48,5.456
		C234.454,149.77,233.77,149.942,233.095,149.942z"/>
	<path style="fill:#3A3847;" d="M223.96,503.91c-2.21,0-3.999-1.789-3.999-4V219.961c0-2.211,1.789-4,3.999-4
		c2.211,0,3.999,1.789,3.999,4V499.91C227.959,502.121,226.171,503.91,223.96,503.91z"/>
	<path style="fill:#3A3847;" d="M407.927,103.981c-2.21,0-3.999-1.789-3.999-3.999c0-19.848-16.146-35.993-35.994-35.993
		c-2.21,0-3.999-1.789-3.999-4c0-2.21,1.789-3.999,3.999-3.999c24.262,0,43.992,19.734,43.992,43.992
		C411.926,102.192,410.138,103.981,407.927,103.981z"/>
	<path style="fill:#3A3847;" d="M407.927,415.926c-2.21,0-3.999-1.789-3.999-4V99.982c0-2.211,1.789-3.999,3.999-3.999
		c2.211,0,3.999,1.788,3.999,3.999v311.943C411.926,414.137,410.138,415.926,407.927,415.926z"/>
	<path style="fill:#3A3847;" d="M407.927,415.926h-31.994c-2.21,0-3.999-1.789-3.999-4c0-2.21,1.789-3.999,3.999-3.999h31.994
		c2.211,0,3.999,1.789,3.999,3.999C411.926,414.137,410.138,415.926,407.927,415.926z"/>
	<path style="fill:#3A3847;" d="M367.933,511.908c-2.21,0-3.999-1.789-3.999-3.999V131.976c0-2.211,1.789-3.999,3.999-3.999
		c2.211,0,4,1.788,4,3.999v375.933C371.933,510.119,370.144,511.908,367.933,511.908z"/>
	<path style="fill:#3A3847;" d="M143.975,511.908c-2.211,0-4-1.789-4-3.999V131.976c0-2.211,1.789-3.999,4-3.999
		c2.21,0,3.999,1.788,3.999,3.999v375.933C147.974,510.119,146.185,511.908,143.975,511.908z"/>
	<path style="fill:#3A3847;" d="M367.933,63.989h-23.995c-2.211,0-3.999-1.789-3.999-4c0-2.21,1.788-3.999,3.999-3.999h23.995
		c2.211,0,4,1.789,4,3.999C371.933,62.2,370.144,63.989,367.933,63.989z"/>
	<path style="fill:#3A3847;" d="M103.981,103.981c-2.21,0-3.999-1.789-3.999-3.999c0-24.258,19.734-43.992,43.992-43.992
		c2.21,0,3.999,1.789,3.999,3.999c0,2.211-1.789,4-3.999,4c-19.848,0-35.994,16.146-35.994,35.993
		C107.981,102.192,106.192,103.981,103.981,103.981z"/>
	<path style="fill:#3A3847;" d="M103.981,415.926c-2.21,0-3.999-1.789-3.999-4V99.982c0-2.211,1.789-3.999,3.999-3.999
		c2.211,0,4,1.788,4,3.999v311.943C107.981,414.137,106.192,415.926,103.981,415.926z"/>
	<path style="fill:#3A3847;" d="M135.975,415.926h-31.994c-2.21,0-3.999-1.789-3.999-4c0-2.21,1.789-3.999,3.999-3.999h31.994
		c2.211,0,4,1.789,4,3.999C139.975,414.137,138.186,415.926,135.975,415.926z"/>
	<path style="fill:#3A3847;" d="M167.97,63.989h-23.996c-2.211,0-4-1.789-4-4c0-2.21,1.789-3.999,4-3.999h23.996
		c2.21,0,4,1.789,4,3.999C171.97,62.2,170.181,63.989,167.97,63.989z"/>
	<path style="fill:#3A3847;" d="M367.933,511.908H143.975c-2.211,0-4-1.789-4-3.999c0-2.211,1.789-3.999,4-3.999h223.959
		c2.211,0,4,1.788,4,3.999C371.933,510.119,370.144,511.908,367.933,511.908z"/>
	<path style="fill:#3A3847;" d="M407.927,383.932H391.93c-2.211,0-3.999-1.789-3.999-4c0-2.21,1.788-3.999,3.999-3.999h15.997
		c2.211,0,3.999,1.789,3.999,3.999S410.138,383.932,407.927,383.932z"/>
	<path style="fill:#3A3847;" d="M119.978,383.932h-15.997c-2.21,0-3.999-1.789-3.999-4c0-2.21,1.789-3.999,3.999-3.999h15.997
		c2.211,0,4,1.789,4,3.999S122.189,383.932,119.978,383.932z"/>
</g>
<g>
</g>
<g>
</g>
<g>
</g>
<g>
</g>
<g>
</g>
<g>
</g>
<g>
</g>
<g>
</g>
<g>
</g>
<g>
</g>
<g>
</g>
<g>
</g>
<g>
</g>
<g>
</g>
<g>
</g>
</svg>
