<?xml version="1.0" encoding="iso-8859-1"?>
<!-- Generator: Adobe Illustrator 19.0.0, SVG Export Plug-In . SVG Version: 6.00 Build 0)  -->
<svg version="1.1" id="Capa_1" xmlns="http://www.w3.org/2000/svg" xmlns:xlink="http://www.w3.org/1999/xlink" x="0px" y="0px"
	 viewBox="0 0 511.908 511.908" style="enable-background:new 0 0 511.908 511.908;" xml:space="preserve">
<path style="fill:#ED5565;" d="M279.95,51.972c39.992,0,15.997,63.988-23.996,63.988s-63.988-63.988-23.996-63.988
	C231.958,51.972,279.95,51.972,279.95,51.972z"/>
<g style="opacity:0.2;">
	<path d="M279.95,51.972c39.992,0,15.997,63.988-23.996,63.988s-63.988-63.988-23.996-63.988
		C231.958,51.972,279.95,51.972,279.95,51.972z"/>
</g>
<path style="fill:#ED5565;" d="M295.947,3.98c52.631,0.16,72.861,37.595,69.347,79.345c-4.397,52.791-46.788,112.62-109.34,112.62
	c-62.547,0-104.942-59.829-109.34-112.62C143.095,41.575,163.33,4.14,215.961,3.98C215.961,3.98,295.947,3.98,295.947,3.98z
	 M255.954,115.96c39.993,0,63.988-63.988,23.996-63.988h-47.992C191.966,51.972,215.961,115.96,255.954,115.96z"/>
<g style="opacity:0.3;">
	<path style="fill:#FFFFFF;" d="M162.612,83.325c-3.519-41.75,16.715-79.185,69.347-79.345h-15.997
		c-52.631,0.16-72.866,37.595-69.347,79.345c4.398,52.791,46.793,112.62,109.34,112.62c2.723,0,5.354-0.258,7.999-0.477
		C205.838,190.61,166.818,133.82,162.612,83.325z"/>
</g>
<g style="opacity:0.2;">
	<path d="M349.297,83.325c3.515-41.75-16.716-79.185-69.347-79.345h15.997c52.631,0.16,72.861,37.595,69.347,79.345
		c-4.397,52.791-46.788,112.62-109.34,112.62c-2.722,0-5.354-0.258-7.998-0.477C306.07,190.61,345.095,133.82,349.297,83.325z"/>
</g>
<path style="fill:#656D78;" d="M447.92,163.951v-23.996c0-4.397-3.602-7.998-7.999-7.998c0-26.476-21.434-47.991-47.991-47.991
	h-15.997l-10.639-0.641c-4.397,52.791-46.788,112.62-109.34,112.62c-62.547,0-104.942-59.829-109.34-112.62l-10.639,0.641h-15.997
	c-26.554,0-47.991,21.516-47.991,47.991c-4.397,0-7.998,3.601-7.998,7.998v23.996c0,4.479,3.601,7.999,7.998,7.999
	c-4.397,0-7.998,3.601-7.998,7.998v23.996c0,4.479,3.601,7.998,7.998,7.998c-4.397,0-7.998,3.602-7.998,7.999v23.995
	c0,4.479,3.601,7.999,7.998,7.999c-4.397,0-7.998,3.601-7.998,7.998v24c0,4.476,3.601,7.998,7.998,7.998
	c-4.397,0-7.998,3.594-7.998,7.999v23.996c0,4.476,3.601,7.998,7.998,7.998c-4.397,0-7.998,3.593-7.998,7.999v23.995
	c0,4.476,3.601,7.999,7.998,7.999c-4.397,0-7.998,3.593-7.998,7.998v23.996c0,4.476,3.601,7.998,7.998,7.998
	c0,8.874,7.12,15.998,15.997,15.998h33.662l-1.027,4.873c-0.402,0.961-0.641,2-0.641,3.125v23.996v23.995
	c0,13.279,9.518,23.996,23.996,23.996h111.98h111.979c14.482,0,23.996-10.717,23.996-23.996v-23.995v-23.996
	c0-4.405-3.601-7.92-7.998-7.92v-0.078h15.996h23.996c8.873,0,15.997-7.124,15.997-15.998c4.397,0,7.999-3.522,7.999-7.998v-23.996
	c0-4.405-3.602-7.998-7.999-7.998c4.397,0,7.999-3.523,7.999-7.999v-23.994c0-4.406-3.602-7.999-7.999-7.999
	c4.397,0,7.999-3.522,7.999-7.998v-23.996c0-4.405-3.602-7.999-7.999-7.999c4.397,0,7.999-3.522,7.999-7.998v-24
	c0-4.397-3.602-7.998-7.999-7.998c4.397,0,7.999-3.52,7.999-7.999v-23.995c0-4.397-3.602-7.999-7.999-7.999
	c4.397,0,7.999-3.519,7.999-7.998v-23.996c0-4.397-3.602-7.998-7.999-7.998C444.318,171.95,447.92,168.431,447.92,163.951z"/>
<path style="fill:#FFFFFF;" d="M146.614,83.325l-10.639,0.641h10.721C146.677,83.755,146.63,83.536,146.614,83.325z"/>
<g style="opacity:0.2;">
	<path style="fill:#FFFFFF;" d="M87.984,411.91c-4.397,0-7.998-3.522-7.998-7.998v-23.996c0-4.405,3.601-7.998,7.998-7.998
		c-4.397,0-7.998-3.523-7.998-7.999v-23.995c0-4.406,3.601-7.999,7.998-7.999c-4.397,0-7.998-3.522-7.998-7.998v-23.996
		c0-4.405,3.601-7.999,7.998-7.999c-4.397,0-7.998-3.522-7.998-7.998v-24c0-4.397,3.601-7.998,7.998-7.998
		c-4.397,0-7.998-3.52-7.998-7.999v-23.995c0-4.397,3.601-7.999,7.998-7.999c-4.397,0-7.998-3.519-7.998-7.998v-23.996
		c0-4.397,3.601-7.998,7.998-7.998c-4.397,0-7.998-3.52-7.998-7.999v-23.996c0-4.397,3.601-7.998,7.998-7.998
		c0-26.476,21.438-47.991,47.991-47.991h-15.997c-26.554,0-47.991,21.516-47.991,47.991c-4.397,0-7.998,3.601-7.998,7.998v23.996
		c0,4.479,3.601,7.999,7.998,7.999c-4.397,0-7.998,3.601-7.998,7.998v23.996c0,4.479,3.601,7.998,7.998,7.998
		c-4.397,0-7.998,3.602-7.998,7.999v23.995c0,4.479,3.601,7.999,7.998,7.999c-4.397,0-7.998,3.601-7.998,7.998v24
		c0,4.476,3.601,7.998,7.998,7.998c-4.397,0-7.998,3.594-7.998,7.999v23.996c0,4.476,3.601,7.998,7.998,7.998
		c-4.397,0-7.998,3.593-7.998,7.999v23.995c0,4.476,3.601,7.999,7.998,7.999c-4.397,0-7.998,3.593-7.998,7.998v23.996
		c0,4.476,3.601,7.998,7.998,7.998c0,8.874,7.12,15.998,15.997,15.998h15.997C95.104,427.908,87.984,420.784,87.984,411.91z"/>
</g>
<g style="opacity:0.2;">
	<path style="fill:#FFFFFF;" d="M135.975,483.936v-7.257h-0.004v-0.836c0-4.132,3.227-7.459,7.269-7.842h0.738
		c0-0.008,0-0.023-0.004-0.031h0.004c0-0.023-0.004-0.055-0.008-0.07h-0.117c-4.339-0.07-7.882-3.546-7.882-7.982v-23.996
		c0-4.39,3.602-7.998,7.999-7.998c-4.397,0-7.999-3.516-7.999-7.999v-23.996c0-4.171,3.285-7.537,7.386-7.873h0.621
		c0-0.023-0.008-0.047-0.008-0.078c-4.397,0-7.999-3.515-7.999-7.999v-23.995c0-4.397,3.602-7.999,7.999-7.999
		c-4.397,0-7.999-3.515-7.999-7.998v-23.996c0-4.397,3.602-7.998,7.999-7.998c-4.397,0-7.999-3.516-7.999-7.999v-23.995
		c0-4.398,3.602-7.999,7.999-7.999c-4.397,0-7.999-3.515-7.999-7.999v-23.995c0-4.397,3.602-7.999,7.999-7.999
		c-4.397,0-7.999-3.519-7.999-7.998v-23.996c0-0.008,0.004-0.016,0.004-0.023h-15.997c0,0.008-0.004,0.016-0.004,0.023v23.996
		c0,4.479,3.602,7.998,7.999,7.998c-4.397,0-7.999,3.602-7.999,7.999v23.995c0,4.484,3.602,7.999,7.999,7.999
		c-4.397,0-7.999,3.601-7.999,7.999v23.995c0,4.483,3.602,7.999,7.999,7.999c-4.397,0-7.999,3.601-7.999,7.998v23.996
		c0,4.483,3.602,7.998,7.999,7.998c-4.397,0-7.999,3.602-7.999,7.999v23.995c0,4.484,3.602,7.999,7.999,7.999
		c0,0.031,0.008,0.055,0.008,0.078h-0.621c-4.101,0.336-7.386,3.702-7.386,7.873v23.996c0,4.483,3.602,7.999,7.999,7.999
		c-4.397,0-7.999,3.608-7.999,7.998v23.996c0,4.483,3.602,7.998,7.999,7.998c0,0.016,0.004,0.039,0.004,0.055h-0.617
		c-4.101,0.336-7.386,3.694-7.386,7.873v3.586h0.004v4.507c0,13.279,9.518,23.996,23.996,23.996h15.997
		C145.494,507.933,135.975,497.216,135.975,483.936z"/>
</g>
<g style="opacity:0.2;">
	<path d="M423.924,411.91c4.397,0,7.999-3.522,7.999-7.998v-23.996c0-4.405-3.602-7.998-7.999-7.998
		c4.397,0,7.999-3.523,7.999-7.999v-23.995c0-4.406-3.602-7.999-7.999-7.999c4.397,0,7.999-3.522,7.999-7.998v-23.996
		c0-4.405-3.602-7.999-7.999-7.999c4.397,0,7.999-3.522,7.999-7.998v-24c0-4.397-3.602-7.998-7.999-7.998
		c4.397,0,7.999-3.52,7.999-7.999v-23.995c0-4.397-3.602-7.999-7.999-7.999c4.397,0,7.999-3.519,7.999-7.998v-23.996
		c0-4.397-3.602-7.998-7.999-7.998c4.397,0,7.999-3.52,7.999-7.999v-23.996c0-4.397-3.602-7.998-7.999-7.998
		c0-26.476-21.434-47.991-47.991-47.991h15.997c26.558,0,47.991,21.516,47.991,47.991c4.397,0,7.999,3.601,7.999,7.998v23.996
		c0,4.479-3.602,7.999-7.999,7.999c4.397,0,7.999,3.601,7.999,7.998v23.996c0,4.479-3.602,7.998-7.999,7.998
		c4.397,0,7.999,3.602,7.999,7.999v23.995c0,4.479-3.602,7.999-7.999,7.999c4.397,0,7.999,3.601,7.999,7.998v24
		c0,4.476-3.602,7.998-7.999,7.998c4.397,0,7.999,3.594,7.999,7.999v23.996c0,4.476-3.602,7.998-7.999,7.998
		c4.397,0,7.999,3.593,7.999,7.999v23.995c0,4.476-3.602,7.999-7.999,7.999c4.397,0,7.999,3.593,7.999,7.998v23.996
		c0,4.476-3.602,7.998-7.999,7.998c0,8.874-7.124,15.998-15.997,15.998h-15.997C416.801,427.908,423.924,420.784,423.924,411.91z"/>
</g>
<g style="opacity:0.2;">
	<path d="M375.933,483.936v-7.257l0,0v-0.836c0-4.132-3.218-7.459-7.265-7.842h-0.734c0-0.008,0-0.023,0-0.031l0,0
		c0-0.023,0-0.055,0-0.07h0.125c4.336-0.07,7.874-3.546,7.874-7.982v-23.996c0-4.39-3.593-7.998-7.999-7.998
		c4.406,0,7.999-3.516,7.999-7.999v-23.996c0-4.171-3.28-7.537-7.382-7.873h-0.617c0-0.023,0-0.047,0-0.078
		c4.406,0,7.999-3.515,7.999-7.999v-23.995c0-4.397-3.593-7.999-7.999-7.999c4.406,0,7.999-3.515,7.999-7.998v-23.996
		c0-4.397-3.593-7.998-7.999-7.998c4.406,0,7.999-3.516,7.999-7.999v-23.995c0-4.398-3.593-7.999-7.999-7.999
		c4.406,0,7.999-3.515,7.999-7.999v-23.995c0-4.397-3.593-7.999-7.999-7.999c4.406,0,7.999-3.519,7.999-7.998v-23.996
		c0-0.008,0-0.016,0-0.023h15.997c0,0.008,0,0.016,0,0.023v23.996c0,4.479-3.593,7.998-7.998,7.998c4.405,0,7.998,3.602,7.998,7.999
		v23.995c0,4.484-3.593,7.999-7.998,7.999c4.405,0,7.998,3.601,7.998,7.999v23.995c0,4.483-3.593,7.999-7.998,7.999
		c4.405,0,7.998,3.601,7.998,7.998v23.996c0,4.483-3.593,7.998-7.998,7.998c4.405,0,7.998,3.602,7.998,7.999v23.995
		c0,4.484-3.593,7.999-7.998,7.999c0,0.031,0,0.055,0,0.078h0.617c4.101,0.336,7.381,3.702,7.381,7.873v23.996
		c0,4.483-3.593,7.999-7.998,7.999c4.405,0,7.998,3.608,7.998,7.998v23.996c0,4.483-3.593,7.998-7.998,7.998
		c0,0.016,0,0.039,0,0.055h0.617c4.101,0.336,7.381,3.694,7.381,7.873v3.586l0,0v4.507c0,13.279-9.514,23.996-23.996,23.996h-15.996
		C366.419,507.933,375.933,497.216,375.933,483.936z"/>
</g>
<g>
	<path style="fill:#3A3847;" d="M160.21,127.977c-2.207,0-4.039-1.789-4.039-4c0-2.21,1.75-3.999,3.96-3.999h0.078
		c2.21,0,3.999,1.789,3.999,3.999C164.209,126.188,162.42,127.977,160.21,127.977z"/>
	<path style="fill:#3A3847;" d="M176.207,143.975c-2.207,0-4.038-1.789-4.038-4c0-2.21,1.749-3.999,3.96-3.999h0.078
		c2.21,0,3.999,1.789,3.999,3.999C180.206,142.185,178.417,143.975,176.207,143.975z"/>
	<path style="fill:#3A3847;" d="M160.21,95.983c-2.207,0-4.039-1.789-4.039-4c0-2.21,1.75-3.999,3.96-3.999h0.078
		c2.21,0,3.999,1.789,3.999,3.999C164.209,94.194,162.42,95.983,160.21,95.983z"/>
	<path style="fill:#3A3847;" d="M176.207,111.98c-2.207,0-4.038-1.789-4.038-4c0-2.21,1.749-3.999,3.96-3.999h0.078
		c2.21,0,3.999,1.789,3.999,3.999C180.206,110.191,178.417,111.98,176.207,111.98z"/>
	<path style="fill:#3A3847;" d="M192.204,127.977c-2.207,0-4.038-1.789-4.038-4c0-2.21,1.749-3.999,3.96-3.999h0.078
		c2.21,0,3.999,1.789,3.999,3.999C196.203,126.188,194.414,127.977,192.204,127.977z"/>
	<path style="fill:#3A3847;" d="M208.201,143.975c-2.207,0-4.038-1.789-4.038-4c0-2.21,1.75-3.999,3.96-3.999h0.078
		c2.21,0,3.999,1.789,3.999,3.999C212.2,142.185,210.412,143.975,208.201,143.975z"/>
	<path style="fill:#3A3847;" d="M160.21,63.989c-2.207,0-4.039-1.789-4.039-4c0-2.21,1.75-3.999,3.96-3.999h0.078
		c2.21,0,3.999,1.789,3.999,3.999C164.209,62.2,162.42,63.989,160.21,63.989z"/>
	<path style="fill:#3A3847;" d="M176.207,79.986c-2.207,0-4.038-1.789-4.038-4c0-2.21,1.749-3.999,3.96-3.999h0.078
		c2.21,0,3.999,1.789,3.999,3.999C180.206,78.197,178.417,79.986,176.207,79.986z"/>
	<path style="fill:#3A3847;" d="M192.204,95.983c-2.207,0-4.038-1.789-4.038-4c0-2.21,1.749-3.999,3.96-3.999h0.078
		c2.21,0,3.999,1.789,3.999,3.999C196.203,94.194,194.414,95.983,192.204,95.983z"/>
	<path style="fill:#3A3847;" d="M208.201,111.98c-2.207,0-4.038-1.789-4.038-4c0-2.21,1.75-3.999,3.96-3.999h0.078
		c2.21,0,3.999,1.789,3.999,3.999C212.2,110.191,210.412,111.98,208.201,111.98z"/>
	<path style="fill:#3A3847;" d="M224.198,127.977c-2.207,0-4.038-1.789-4.038-4c0-2.21,1.75-3.999,3.96-3.999h0.078
		c2.211,0,3.999,1.789,3.999,3.999C228.197,126.188,226.409,127.977,224.198,127.977z"/>
	<path style="fill:#3A3847;" d="M240.195,143.975c-2.207,0-4.038-1.789-4.038-4c0-2.21,1.75-3.999,3.96-3.999h0.078
		c2.211,0,3.999,1.789,3.999,3.999C244.194,142.185,242.406,143.975,240.195,143.975z"/>
	<path style="fill:#3A3847;" d="M176.207,47.991c-2.207,0-4.038-1.788-4.038-3.999c0-2.21,1.749-3.999,3.96-3.999h0.078
		c2.21,0,3.999,1.789,3.999,3.999C180.206,46.203,178.417,47.991,176.207,47.991z"/>
	<path style="fill:#3A3847;" d="M192.204,63.989c-2.207,0-4.038-1.789-4.038-4c0-2.21,1.749-3.999,3.96-3.999h0.078
		c2.21,0,3.999,1.789,3.999,3.999C196.203,62.2,194.414,63.989,192.204,63.989z"/>
	<path style="fill:#3A3847;" d="M208.201,79.986c-2.207,0-4.038-1.789-4.038-4c0-2.21,1.75-3.999,3.96-3.999h0.078
		c2.21,0,3.999,1.789,3.999,3.999C212.2,78.197,210.412,79.986,208.201,79.986z"/>
	<path style="fill:#3A3847;" d="M256.192,127.977c-2.207,0-4.038-1.789-4.038-4c0-2.21,1.75-3.999,3.96-3.999h0.078
		c2.211,0,3.999,1.789,3.999,3.999C260.191,126.188,258.403,127.977,256.192,127.977z"/>
	<path style="fill:#3A3847;" d="M272.185,143.975c-2.203,0-4.03-1.789-4.03-4c0-2.21,1.749-3.999,3.952-3.999h0.078
		c2.219,0,4,1.789,4,3.999C276.185,142.185,274.404,143.975,272.185,143.975z"/>
	<path style="fill:#3A3847;" d="M192.204,31.994c-2.207,0-4.038-1.788-4.038-3.999c0-2.21,1.749-3.999,3.96-3.999h0.078
		c2.21,0,3.999,1.789,3.999,3.999C196.203,30.206,194.414,31.994,192.204,31.994z"/>
	<path style="fill:#3A3847;" d="M208.201,47.991c-2.207,0-4.038-1.788-4.038-3.999c0-2.21,1.75-3.999,3.96-3.999h0.078
		c2.21,0,3.999,1.789,3.999,3.999C212.2,46.203,210.412,47.991,208.201,47.991z"/>
	<path style="fill:#3A3847;" d="M288.183,127.977c-2.202,0-4.03-1.789-4.03-4c0-2.21,1.75-3.999,3.952-3.999h0.078
		c2.219,0,3.999,1.789,3.999,3.999C292.182,126.188,290.401,127.977,288.183,127.977z"/>
	<path style="fill:#3A3847;" d="M304.18,143.975c-2.202,0-4.03-1.789-4.03-4c0-2.21,1.75-3.999,3.952-3.999h0.078
		c2.219,0,4,1.789,4,3.999C308.18,142.185,306.398,143.975,304.18,143.975z"/>
	<path style="fill:#3A3847;" d="M208.201,15.997c-2.207,0-4.038-1.788-4.038-3.999c0-2.21,1.75-3.999,3.96-3.999h0.078
		c2.21,0,3.999,1.789,3.999,3.999C212.2,14.209,210.412,15.997,208.201,15.997z"/>
	<path style="fill:#3A3847;" d="M224.198,31.994c-2.207,0-4.038-1.788-4.038-3.999c0-2.21,1.75-3.999,3.96-3.999h0.078
		c2.211,0,3.999,1.789,3.999,3.999C228.197,30.206,226.409,31.994,224.198,31.994z"/>
	<path style="fill:#3A3847;" d="M240.195,47.991c-2.207,0-4.038-1.788-4.038-3.999c0-2.21,1.75-3.999,3.96-3.999h0.078
		c2.211,0,3.999,1.789,3.999,3.999C244.194,46.203,242.406,47.991,240.195,47.991z"/>
	<path style="fill:#3A3847;" d="M304.18,111.98c-2.202,0-4.03-1.789-4.03-4c0-2.21,1.75-3.999,3.952-3.999h0.078
		c2.219,0,4,1.789,4,3.999C308.18,110.191,306.398,111.98,304.18,111.98z"/>
	<path style="fill:#3A3847;" d="M320.177,127.977c-2.202,0-4.03-1.789-4.03-4c0-2.21,1.75-3.999,3.952-3.999h0.078
		c2.219,0,3.999,1.789,3.999,3.999C324.176,126.188,322.395,127.977,320.177,127.977z"/>
	<path style="fill:#3A3847;" d="M336.174,143.975c-2.202,0-4.03-1.789-4.03-4c0-2.21,1.75-3.999,3.952-3.999h0.078
		c2.219,0,4,1.789,4,3.999C340.174,142.185,338.392,143.975,336.174,143.975z"/>
	<path style="fill:#3A3847;" d="M240.195,15.997c-2.207,0-4.038-1.788-4.038-3.999c0-2.21,1.75-3.999,3.96-3.999h0.078
		c2.211,0,3.999,1.789,3.999,3.999C244.194,14.209,242.406,15.997,240.195,15.997z"/>
	<path style="fill:#3A3847;" d="M256.192,31.994c-2.207,0-4.038-1.788-4.038-3.999c0-2.21,1.75-3.999,3.96-3.999h0.078
		c2.211,0,3.999,1.789,3.999,3.999C260.191,30.206,258.403,31.994,256.192,31.994z"/>
	<path style="fill:#3A3847;" d="M272.185,47.991c-2.203,0-4.03-1.788-4.03-3.999c0-2.21,1.749-3.999,3.952-3.999h0.078
		c2.219,0,4,1.789,4,3.999C276.185,46.203,274.404,47.991,272.185,47.991z"/>
	<path style="fill:#3A3847;" d="M304.18,79.986c-2.202,0-4.03-1.789-4.03-4c0-2.21,1.75-3.999,3.952-3.999h0.078
		c2.219,0,4,1.789,4,3.999C308.18,78.197,306.398,79.986,304.18,79.986z"/>
	<path style="fill:#3A3847;" d="M320.177,95.983c-2.202,0-4.03-1.789-4.03-4c0-2.21,1.75-3.999,3.952-3.999h0.078
		c2.219,0,3.999,1.789,3.999,3.999C324.176,94.194,322.395,95.983,320.177,95.983z"/>
	<path style="fill:#3A3847;" d="M336.174,111.98c-2.202,0-4.03-1.789-4.03-4c0-2.21,1.75-3.999,3.952-3.999h0.078
		c2.219,0,4,1.789,4,3.999C340.174,110.191,338.392,111.98,336.174,111.98z"/>
	<path style="fill:#3A3847;" d="M352.172,127.977c-2.203,0-4.031-1.789-4.031-4c0-2.21,1.75-3.999,3.953-3.999h0.078
		c2.218,0,3.999,1.789,3.999,3.999C356.171,126.188,354.39,127.977,352.172,127.977z"/>
	<path style="fill:#3A3847;" d="M272.185,15.997c-2.203,0-4.03-1.788-4.03-3.999c0-2.21,1.749-3.999,3.952-3.999h0.078
		c2.219,0,4,1.789,4,3.999C276.185,14.209,274.404,15.997,272.185,15.997z"/>
	<path style="fill:#3A3847;" d="M288.183,31.994c-2.202,0-4.03-1.788-4.03-3.999c0-2.21,1.75-3.999,3.952-3.999h0.078
		c2.219,0,3.999,1.789,3.999,3.999C292.182,30.206,290.401,31.994,288.183,31.994z"/>
	<path style="fill:#3A3847;" d="M304.18,47.991c-2.202,0-4.03-1.788-4.03-3.999c0-2.21,1.75-3.999,3.952-3.999h0.078
		c2.219,0,4,1.789,4,3.999C308.18,46.203,306.398,47.991,304.18,47.991z"/>
	<path style="fill:#3A3847;" d="M320.177,63.989c-2.202,0-4.03-1.789-4.03-4c0-2.21,1.75-3.999,3.952-3.999h0.078
		c2.219,0,3.999,1.789,3.999,3.999C324.176,62.2,322.395,63.989,320.177,63.989z"/>
	<path style="fill:#3A3847;" d="M336.174,79.986c-2.202,0-4.03-1.789-4.03-4c0-2.21,1.75-3.999,3.952-3.999h0.078
		c2.219,0,4,1.789,4,3.999C340.174,78.197,338.392,79.986,336.174,79.986z"/>
	<path style="fill:#3A3847;" d="M352.172,95.983c-2.203,0-4.031-1.789-4.031-4c0-2.21,1.75-3.999,3.953-3.999h0.078
		c2.218,0,3.999,1.789,3.999,3.999C356.171,94.194,354.39,95.983,352.172,95.983z"/>
	<path style="fill:#3A3847;" d="M304.18,15.997c-2.202,0-4.03-1.788-4.03-3.999c0-2.21,1.75-3.999,3.952-3.999h0.078
		c2.219,0,4,1.789,4,3.999C308.18,14.209,306.398,15.997,304.18,15.997z"/>
	<path style="fill:#3A3847;" d="M320.177,31.994c-2.202,0-4.03-1.788-4.03-3.999c0-2.21,1.75-3.999,3.952-3.999h0.078
		c2.219,0,3.999,1.789,3.999,3.999C324.176,30.206,322.395,31.994,320.177,31.994z"/>
	<path style="fill:#3A3847;" d="M336.174,47.991c-2.202,0-4.03-1.788-4.03-3.999c0-2.21,1.75-3.999,3.952-3.999h0.078
		c2.219,0,4,1.789,4,3.999C340.174,46.203,338.392,47.991,336.174,47.991z"/>
	<path style="fill:#3A3847;" d="M352.172,63.989c-2.203,0-4.031-1.789-4.031-4c0-2.21,1.75-3.999,3.953-3.999h0.078
		c2.218,0,3.999,1.789,3.999,3.999C356.171,62.2,354.39,63.989,352.172,63.989z"/>
	<path style="fill:#3A3847;" d="M192.204,159.972c-2.207,0-4.038-1.789-4.038-3.999c0-2.211,1.749-4,3.96-4h0.078
		c2.21,0,3.999,1.789,3.999,4C196.203,158.183,194.414,159.972,192.204,159.972z"/>
	<path style="fill:#3A3847;" d="M224.198,159.972c-2.207,0-4.038-1.789-4.038-3.999c0-2.211,1.75-4,3.96-4h0.078
		c2.211,0,3.999,1.789,3.999,4C228.197,158.183,226.409,159.972,224.198,159.972z"/>
	<path style="fill:#3A3847;" d="M256.192,159.972c-2.207,0-4.038-1.789-4.038-3.999c0-2.211,1.75-4,3.96-4h0.078
		c2.211,0,3.999,1.789,3.999,4C260.191,158.183,258.403,159.972,256.192,159.972z"/>
	<path style="fill:#3A3847;" d="M288.183,159.972c-2.202,0-4.03-1.789-4.03-3.999c0-2.211,1.75-4,3.952-4h0.078
		c2.219,0,3.999,1.789,3.999,4C292.182,158.183,290.401,159.972,288.183,159.972z"/>
	<path style="fill:#3A3847;" d="M320.177,159.972c-2.202,0-4.03-1.789-4.03-3.999c0-2.211,1.75-4,3.952-4h0.078
		c2.219,0,3.999,1.789,3.999,4C324.176,158.183,322.395,159.972,320.177,159.972z"/>
	<path style="fill:#3A3847;" d="M208.201,175.969c-2.207,0-4.038-1.789-4.038-3.999c0-2.211,1.75-4,3.96-4h0.078
		c2.21,0,3.999,1.789,3.999,4C212.2,174.18,210.412,175.969,208.201,175.969z"/>
	<path style="fill:#3A3847;" d="M240.195,175.969c-2.207,0-4.038-1.789-4.038-3.999c0-2.211,1.75-4,3.96-4h0.078
		c2.211,0,3.999,1.789,3.999,4C244.194,174.18,242.406,175.969,240.195,175.969z"/>
	<path style="fill:#3A3847;" d="M272.185,175.969c-2.203,0-4.03-1.789-4.03-3.999c0-2.211,1.749-4,3.952-4h0.078
		c2.219,0,4,1.789,4,4C276.185,174.18,274.404,175.969,272.185,175.969z"/>
	<path style="fill:#3A3847;" d="M304.18,175.969c-2.202,0-4.03-1.789-4.03-3.999c0-2.211,1.75-4,3.952-4h0.078c2.219,0,4,1.789,4,4
		C308.18,174.18,306.398,175.969,304.18,175.969z"/>
	<path style="fill:#3A3847;" d="M224.198,191.966c-2.207,0-4.038-1.789-4.038-3.999c0-2.211,1.75-4,3.96-4h0.078
		c2.211,0,3.999,1.789,3.999,4C228.197,190.177,226.409,191.966,224.198,191.966z"/>
	<path style="fill:#3A3847;" d="M256.192,191.966c-2.207,0-4.038-1.789-4.038-3.999c0-2.211,1.75-4,3.96-4h0.078
		c2.211,0,3.999,1.789,3.999,4C260.191,190.177,258.403,191.966,256.192,191.966z"/>
	<path style="fill:#3A3847;" d="M288.183,191.966c-2.202,0-4.03-1.789-4.03-3.999c0-2.211,1.75-4,3.952-4h0.078
		c2.219,0,3.999,1.789,3.999,4C292.182,190.177,290.401,191.966,288.183,191.966z"/>
	<path style="fill:#3A3847;" d="M295.947,7.999h-79.986c-2.21,0-4-1.789-4-3.999c0-2.211,1.789-4,4-4h79.986
		c2.211,0,3.999,1.789,3.999,4C299.946,6.21,298.158,7.999,295.947,7.999z"/>
	<path style="fill:#3A3847;" d="M255.954,199.964c-66.925,0-113.659-66.159-113.741-125.539C142.166,38.544,161.51,0.149,215.95,0
		c0.004,0,0.008,0,0.012,0c2.203,0,3.992,1.785,4,3.988c0.008,2.21-1.781,4.003-3.988,4.011
		c-41.235,0.113-65.816,24.94-65.761,66.418c0.098,69.272,55.806,117.549,105.742,117.549c2.211,0,3.999,1.789,3.999,3.999
		C259.953,198.176,258.165,199.964,255.954,199.964z"/>
	<path style="fill:#3A3847;" d="M255.954,199.964c-2.21,0-3.999-1.788-3.999-3.999c0-2.21,1.789-3.999,3.999-3.999
		c49.944,0,105.653-48.276,105.747-117.553c0.055-41.474-24.527-66.301-65.77-66.414c-2.203-0.008-3.992-1.801-3.984-4.011
		c0.008-2.203,1.797-3.988,4-3.988c0,0,0.008,0,0.016,0c54.443,0.148,73.783,38.544,73.736,74.425
		C369.621,133.805,322.88,199.964,255.954,199.964z"/>
	<path style="fill:#3A3847;" d="M279.95,55.99h-47.992c-2.21,0-4-1.789-4-3.999c0-2.211,1.789-4,4-4h47.992
		c2.21,0,3.999,1.789,3.999,4C283.949,54.201,282.16,55.99,279.95,55.99z"/>
	<path style="fill:#3A3847;" d="M255.954,119.978c-26.894,0-48.546-26.776-48.546-48.948c0-6.644,2.07-12.283,5.983-16.313
		c4.343-4.46,10.588-6.726,18.567-6.726c2.21,0,4,1.789,4,4c0,2.21-1.789,3.999-4,3.999c-5.737,0-10.053,1.449-12.83,4.304
		c-3.078,3.164-3.722,7.585-3.722,10.736c0,16.489,17.024,40.95,40.547,40.95c2.211,0,3.999,1.788,3.999,3.999
		C259.953,118.189,258.165,119.978,255.954,119.978z"/>
	<path style="fill:#3A3847;" d="M255.954,119.978c-2.21,0-3.999-1.789-3.999-3.999c0-2.211,1.789-3.999,3.999-3.999
		c23.527,0,40.548-24.461,40.548-40.95c0-3.151-0.648-7.572-3.727-10.736c-2.772-2.854-7.092-4.304-12.825-4.304
		c-2.211,0-3.999-1.789-3.999-3.999c0-2.211,1.788-4,3.999-4c7.982,0,14.224,2.266,18.566,6.726c3.913,4.03,5.983,9.67,5.983,16.313
		C304.5,93.202,282.848,119.978,255.954,119.978z"/>
	<path style="fill:#3A3847;" d="M367.933,511.908H255.954c-2.21,0-3.999-1.789-3.999-3.999c0-2.211,1.789-3.999,3.999-3.999h111.979
		c2.211,0,4,1.788,4,3.999C371.933,510.119,370.144,511.908,367.933,511.908z"/>
	<path style="fill:#3A3847;" d="M255.954,511.908H143.975c-2.211,0-4-1.789-4-3.999c0-2.211,1.789-3.999,4-3.999h111.979
		c2.211,0,3.999,1.788,3.999,3.999C259.953,510.119,258.165,511.908,255.954,511.908z"/>
	<path style="fill:#3A3847;" d="M255.954,503.91c-2.21,0-3.999-1.789-3.999-4V211.962c0-2.21,1.789-3.999,3.999-3.999
		c2.211,0,3.999,1.789,3.999,3.999V499.91C259.953,502.121,258.165,503.91,255.954,503.91z"/>
	<path style="fill:#3A3847;" d="M71.987,135.975c-2.21,0-3.999-1.788-3.999-3.999c0-28.667,23.324-51.99,51.99-51.99
		c2.211,0,4,1.788,4,3.999c0,2.21-1.789,3.999-4,3.999c-24.257,0-43.992,19.734-43.992,43.992
		C75.987,134.187,74.198,135.975,71.987,135.975z"/>
	<path style="fill:#3A3847;" d="M87.984,431.923c-11.025,0-19.996-8.968-19.996-19.997c0-2.21,1.789-3.999,3.999-3.999
		c2.211,0,4,1.789,4,3.999c0,6.616,5.382,11.998,11.998,11.998c2.211,0,4,1.789,4,4C91.984,430.134,90.195,431.923,87.984,431.923z"
		/>
	<path style="fill:#3A3847;" d="M111.98,431.923H87.984c-2.21,0-3.999-1.789-3.999-3.999c0-2.211,1.789-4,3.999-4h23.996
		c2.21,0,3.999,1.789,3.999,4C115.979,430.134,114.19,431.923,111.98,431.923z"/>
	<path style="fill:#3A3847;" d="M135.975,87.984h-15.997c-2.21,0-3.999-1.789-3.999-3.999c0-2.211,1.789-3.999,3.999-3.999h15.997
		c2.211,0,4,1.788,4,3.999C139.975,86.195,138.186,87.984,135.975,87.984z"/>
	<path style="fill:#3A3847;" d="M71.987,415.926c-6.616,0-11.998-5.382-11.998-11.998c0-2.211,1.789-4,4-4
		c2.21,0,3.999,1.789,3.999,4c0,2.203,1.792,3.999,3.999,3.999c2.211,0,4,1.789,4,3.999
		C75.987,414.137,74.198,415.926,71.987,415.926z"/>
	<path style="fill:#3A3847;" d="M63.989,383.932c-2.211,0-4-1.789-4-4c0-6.615,5.382-11.998,11.998-11.998c2.211,0,4,1.789,4,4
		c0,2.21-1.789,3.999-4,3.999c-2.207,0-3.999,1.797-3.999,3.999C67.988,382.142,66.199,383.932,63.989,383.932z"/>
	<path style="fill:#3A3847;" d="M63.989,407.927c-2.211,0-4-1.788-4-3.999v-23.996c0-2.21,1.789-3.999,4-3.999
		c2.21,0,3.999,1.789,3.999,3.999v23.996C67.988,406.139,66.199,407.927,63.989,407.927z"/>
	<path style="fill:#3A3847;" d="M79.986,415.926h-7.999c-2.21,0-3.999-1.789-3.999-4c0-2.21,1.789-3.999,3.999-3.999h7.999
		c2.21,0,3.999,1.789,3.999,3.999C83.985,414.137,82.196,415.926,79.986,415.926z"/>
	<path style="fill:#3A3847;" d="M71.987,375.933c-6.616,0-11.998-5.382-11.998-11.998c0-2.21,1.789-3.999,4-3.999
		c2.21,0,3.999,1.789,3.999,3.999c0,2.203,1.792,3.999,3.999,3.999c2.211,0,4,1.789,4,4
		C75.987,374.143,74.198,375.933,71.987,375.933z"/>
	<path style="fill:#3A3847;" d="M63.989,343.938c-2.211,0-4-1.789-4-3.999c0-6.616,5.382-11.998,11.998-11.998
		c2.211,0,4,1.789,4,3.999c0,2.211-1.789,3.999-4,3.999c-2.207,0-3.999,1.797-3.999,4C67.988,342.149,66.199,343.938,63.989,343.938
		z"/>
	<path style="fill:#3A3847;" d="M63.989,367.933c-2.211,0-4-1.788-4-3.999v-23.995c0-2.211,1.789-4,4-4c2.21,0,3.999,1.789,3.999,4
		v23.995C67.988,366.145,66.199,367.933,63.989,367.933z"/>
	<path style="fill:#3A3847;" d="M79.986,375.933h-7.999c-2.21,0-3.999-1.789-3.999-3.999c0-2.211,1.789-4,3.999-4h7.999
		c2.21,0,3.999,1.789,3.999,4C83.985,374.143,82.196,375.933,79.986,375.933z"/>
	<path style="fill:#3A3847;" d="M71.987,335.939c-6.616,0-11.998-5.381-11.998-11.998c0-2.21,1.789-3.999,4-3.999
		c2.21,0,3.999,1.789,3.999,3.999c0,2.203,1.792,4,3.999,4c2.211,0,4,1.789,4,3.999C75.987,334.151,74.198,335.939,71.987,335.939z"
		/>
	<path style="fill:#3A3847;" d="M63.989,303.945c-2.211,0-4-1.788-4-3.999c0-6.616,5.382-11.998,11.998-11.998
		c2.211,0,4,1.789,4,3.999c0,2.211-1.789,4-4,4c-2.207,0-3.999,1.797-3.999,3.999C67.988,302.157,66.199,303.945,63.989,303.945z"/>
	<path style="fill:#3A3847;" d="M63.989,327.941c-2.211,0-4-1.789-4-4v-23.995c0-2.21,1.789-3.999,4-3.999
		c2.21,0,3.999,1.789,3.999,3.999v23.995C67.988,326.152,66.199,327.941,63.989,327.941z"/>
	<path style="fill:#3A3847;" d="M79.986,335.939h-7.999c-2.21,0-3.999-1.788-3.999-3.999c0-2.21,1.789-3.999,3.999-3.999h7.999
		c2.21,0,3.999,1.789,3.999,3.999C83.985,334.151,82.196,335.939,79.986,335.939z"/>
	<path style="fill:#3A3847;" d="M71.987,295.947c-6.616,0-11.998-5.382-11.998-11.998c0-2.211,1.789-3.999,4-3.999
		c2.21,0,3.999,1.788,3.999,3.999c0,2.203,1.792,3.999,3.999,3.999c2.211,0,4,1.789,4,3.999
		C75.987,294.158,74.198,295.947,71.987,295.947z"/>
	<path style="fill:#3A3847;" d="M63.989,263.953c-2.211,0-4-1.789-4-4c0-6.615,5.382-11.997,11.998-11.997c2.211,0,4,1.788,4,3.999
		c0,2.21-1.789,3.999-4,3.999c-2.207,0-3.999,1.793-3.999,3.999C67.988,262.164,66.199,263.953,63.989,263.953z"/>
	<path style="fill:#3A3847;" d="M63.989,287.948c-2.211,0-4-1.788-4-3.999v-23.996c0-2.21,1.789-3.999,4-3.999
		c2.21,0,3.999,1.789,3.999,3.999v23.996C67.988,286.16,66.199,287.948,63.989,287.948z"/>
	<path style="fill:#3A3847;" d="M79.986,295.947h-7.999c-2.21,0-3.999-1.789-3.999-4c0-2.21,1.789-3.999,3.999-3.999h7.999
		c2.21,0,3.999,1.789,3.999,3.999C83.985,294.158,82.196,295.947,79.986,295.947z"/>
	<path style="fill:#3A3847;" d="M71.987,255.954c-6.616,0-11.998-5.382-11.998-11.998c0-2.21,1.789-3.999,4-3.999
		c2.21,0,3.999,1.789,3.999,3.999c0,2.207,1.792,4,3.999,4c2.211,0,4,1.788,4,3.999C75.987,254.165,74.198,255.954,71.987,255.954z"
		/>
	<path style="fill:#3A3847;" d="M63.989,223.96c-2.211,0-4-1.789-4-3.999c0-6.616,5.382-11.998,11.998-11.998
		c2.211,0,4,1.789,4,3.999c0,2.211-1.789,3.999-4,3.999c-2.207,0-3.999,1.793-3.999,4C67.988,222.171,66.199,223.96,63.989,223.96z"
		/>
	<path style="fill:#3A3847;" d="M63.989,247.956c-2.211,0-4-1.789-4-4v-23.995c0-2.211,1.789-4,4-4c2.21,0,3.999,1.789,3.999,4
		v23.995C67.988,246.167,66.199,247.956,63.989,247.956z"/>
	<path style="fill:#3A3847;" d="M79.986,255.954h-7.999c-2.21,0-3.999-1.789-3.999-3.999c0-2.211,1.789-3.999,3.999-3.999h7.999
		c2.21,0,3.999,1.788,3.999,3.999C83.985,254.165,82.196,255.954,79.986,255.954z"/>
	<path style="fill:#3A3847;" d="M71.987,215.961c-6.616,0-11.998-5.382-11.998-11.997c0-2.211,1.789-4,4-4
		c2.21,0,3.999,1.789,3.999,4c0,2.206,1.792,3.999,3.999,3.999c2.211,0,4,1.789,4,3.999
		C75.987,214.173,74.198,215.961,71.987,215.961z"/>
	<path style="fill:#3A3847;" d="M63.989,183.967c-2.211,0-4-1.788-4-3.999c0-6.616,5.382-11.998,11.998-11.998c2.211,0,4,1.789,4,4
		c0,2.21-1.789,3.999-4,3.999c-2.207,0-3.999,1.792-3.999,3.999C67.988,182.179,66.199,183.967,63.989,183.967z"/>
	<path style="fill:#3A3847;" d="M63.989,207.963c-2.211,0-4-1.789-4-3.999v-23.996c0-2.211,1.789-3.999,4-3.999
		c2.21,0,3.999,1.788,3.999,3.999v23.996C67.988,206.174,66.199,207.963,63.989,207.963z"/>
	<path style="fill:#3A3847;" d="M79.986,215.961h-7.999c-2.21,0-3.999-1.788-3.999-3.999c0-2.21,1.789-3.999,3.999-3.999h7.999
		c2.21,0,3.999,1.789,3.999,3.999C83.985,214.173,82.196,215.961,79.986,215.961z"/>
	<path style="fill:#3A3847;" d="M71.987,175.969c-6.616,0-11.998-5.382-11.998-11.998c0-2.211,1.789-3.999,4-3.999
		c2.21,0,3.999,1.788,3.999,3.999c0,2.207,1.792,3.999,3.999,3.999c2.211,0,4,1.789,4,4
		C75.987,174.18,74.198,175.969,71.987,175.969z"/>
	<path style="fill:#3A3847;" d="M63.989,143.975c-2.211,0-4-1.789-4-4c0-6.615,5.382-11.997,11.998-11.997c2.211,0,4,1.788,4,3.999
		s-1.789,3.999-4,3.999c-2.207,0-3.999,1.793-3.999,3.999C67.988,142.185,66.199,143.975,63.989,143.975z"/>
	<path style="fill:#3A3847;" d="M63.989,167.97c-2.211,0-4-1.788-4-3.999v-23.996c0-2.21,1.789-3.999,4-3.999
		c2.21,0,3.999,1.789,3.999,3.999v23.996C67.988,166.182,66.199,167.97,63.989,167.97z"/>
	<path style="fill:#3A3847;" d="M79.986,175.969h-7.999c-2.21,0-3.999-1.789-3.999-3.999c0-2.211,1.789-4,3.999-4h7.999
		c2.21,0,3.999,1.789,3.999,4C83.985,174.18,82.196,175.969,79.986,175.969z"/>
	<path style="fill:#3A3847;" d="M79.986,135.975h-7.999c-2.21,0-3.999-1.788-3.999-3.999s1.789-3.999,3.999-3.999h7.999
		c2.21,0,3.999,1.788,3.999,3.999S82.196,135.975,79.986,135.975z"/>
	<path style="fill:#3A3847;" d="M439.921,135.975c-2.21,0-3.999-1.788-3.999-3.999c0-24.258-19.73-43.992-43.992-43.992
		c-2.211,0-3.999-1.789-3.999-3.999c0-2.211,1.788-3.999,3.999-3.999c28.667,0,51.99,23.323,51.99,51.99
		C443.92,134.187,442.132,135.975,439.921,135.975z"/>
	<path style="fill:#3A3847;" d="M423.924,431.923c-2.211,0-3.999-1.789-3.999-3.999c0-2.211,1.788-4,3.999-4
		c6.616,0,11.998-5.382,11.998-11.998c0-2.21,1.789-3.999,3.999-3.999c2.211,0,3.999,1.789,3.999,3.999
		C443.92,422.955,434.953,431.923,423.924,431.923z"/>
	<path style="fill:#3A3847;" d="M423.924,431.923h-23.996c-2.21,0-3.999-1.789-3.999-3.999c0-2.211,1.789-4,3.999-4h23.996
		c2.211,0,4,1.789,4,4C427.924,430.134,426.135,431.923,423.924,431.923z"/>
	<path style="fill:#3A3847;" d="M439.921,415.926c-2.21,0-3.999-1.789-3.999-4c0-2.21,1.789-3.999,3.999-3.999
		c2.203,0,3.999-1.796,3.999-3.999c0-2.211,1.789-4,4-4c2.21,0,3.999,1.789,3.999,4
		C451.919,410.544,446.537,415.926,439.921,415.926z"/>
	<path style="fill:#3A3847;" d="M447.92,383.932c-2.211,0-4-1.789-4-4c0-2.202-1.796-3.999-3.999-3.999
		c-2.21,0-3.999-1.789-3.999-3.999c0-2.211,1.789-4,3.999-4c6.616,0,11.998,5.383,11.998,11.998
		C451.919,382.142,450.13,383.932,447.92,383.932z"/>
	<path style="fill:#3A3847;" d="M447.92,407.927c-2.211,0-4-1.788-4-3.999v-23.996c0-2.21,1.789-3.999,4-3.999
		c2.21,0,3.999,1.789,3.999,3.999v23.996C451.919,406.139,450.13,407.927,447.92,407.927z"/>
	<path style="fill:#3A3847;" d="M439.921,415.926h-7.998c-2.211,0-3.999-1.789-3.999-4c0-2.21,1.788-3.999,3.999-3.999h7.998
		c2.211,0,3.999,1.789,3.999,3.999C443.92,414.137,442.132,415.926,439.921,415.926z"/>
	<path style="fill:#3A3847;" d="M439.921,375.933c-2.21,0-3.999-1.789-3.999-3.999c0-2.211,1.789-4,3.999-4
		c2.203,0,3.999-1.796,3.999-3.999c0-2.21,1.789-3.999,4-3.999c2.21,0,3.999,1.789,3.999,3.999
		C451.919,370.551,446.537,375.933,439.921,375.933z"/>
	<path style="fill:#3A3847;" d="M447.92,343.938c-2.211,0-4-1.789-4-3.999c0-2.203-1.796-4-3.999-4c-2.21,0-3.999-1.788-3.999-3.999
		c0-2.21,1.789-3.999,3.999-3.999c6.616,0,11.998,5.382,11.998,11.998C451.919,342.149,450.13,343.938,447.92,343.938z"/>
	<path style="fill:#3A3847;" d="M447.92,367.933c-2.211,0-4-1.788-4-3.999v-23.995c0-2.211,1.789-4,4-4c2.21,0,3.999,1.789,3.999,4
		v23.995C451.919,366.145,450.13,367.933,447.92,367.933z"/>
	<path style="fill:#3A3847;" d="M439.921,375.933h-7.998c-2.211,0-3.999-1.789-3.999-3.999c0-2.211,1.788-4,3.999-4h7.998
		c2.211,0,3.999,1.789,3.999,4C443.92,374.143,442.132,375.933,439.921,375.933z"/>
	<path style="fill:#3A3847;" d="M439.921,335.939c-2.21,0-3.999-1.788-3.999-3.999c0-2.21,1.789-3.999,3.999-3.999
		c2.203,0,3.999-1.797,3.999-4c0-2.21,1.789-3.999,4-3.999c2.21,0,3.999,1.789,3.999,3.999
		C451.919,330.558,446.537,335.939,439.921,335.939z"/>
	<path style="fill:#3A3847;" d="M447.92,303.945c-2.211,0-4-1.788-4-3.999c0-2.202-1.796-3.999-3.999-3.999
		c-2.21,0-3.999-1.789-3.999-4c0-2.21,1.789-3.999,3.999-3.999c6.616,0,11.998,5.382,11.998,11.998
		C451.919,302.157,450.13,303.945,447.92,303.945z"/>
	<path style="fill:#3A3847;" d="M447.92,327.941c-2.211,0-4-1.789-4-4v-23.995c0-2.21,1.789-3.999,4-3.999
		c2.21,0,3.999,1.789,3.999,3.999v23.995C451.919,326.152,450.13,327.941,447.92,327.941z"/>
	<path style="fill:#3A3847;" d="M439.921,335.939h-7.998c-2.211,0-3.999-1.788-3.999-3.999c0-2.21,1.788-3.999,3.999-3.999h7.998
		c2.211,0,3.999,1.789,3.999,3.999C443.92,334.151,442.132,335.939,439.921,335.939z"/>
	<path style="fill:#3A3847;" d="M439.921,295.947c-2.21,0-3.999-1.789-3.999-4c0-2.21,1.789-3.999,3.999-3.999
		c2.203,0,3.999-1.796,3.999-3.999c0-2.211,1.789-3.999,4-3.999c2.21,0,3.999,1.788,3.999,3.999
		C451.919,290.565,446.537,295.947,439.921,295.947z"/>
	<path style="fill:#3A3847;" d="M447.92,263.953c-2.211,0-4-1.789-4-4c0-2.206-1.796-3.999-3.999-3.999
		c-2.21,0-3.999-1.789-3.999-3.999c0-2.211,1.789-3.999,3.999-3.999c6.616,0,11.998,5.382,11.998,11.997
		C451.919,262.164,450.13,263.953,447.92,263.953z"/>
	<path style="fill:#3A3847;" d="M447.92,287.948c-2.211,0-4-1.788-4-3.999v-23.996c0-2.21,1.789-3.999,4-3.999
		c2.21,0,3.999,1.789,3.999,3.999v23.996C451.919,286.16,450.13,287.948,447.92,287.948z"/>
	<path style="fill:#3A3847;" d="M439.921,295.947h-7.998c-2.211,0-3.999-1.789-3.999-4c0-2.21,1.788-3.999,3.999-3.999h7.998
		c2.211,0,3.999,1.789,3.999,3.999C443.92,294.158,442.132,295.947,439.921,295.947z"/>
	<path style="fill:#3A3847;" d="M439.921,255.954c-2.21,0-3.999-1.789-3.999-3.999c0-2.211,1.789-3.999,3.999-3.999
		c2.203,0,3.999-1.793,3.999-4c0-2.21,1.789-3.999,4-3.999c2.21,0,3.999,1.789,3.999,3.999
		C451.919,250.572,446.537,255.954,439.921,255.954z"/>
	<path style="fill:#3A3847;" d="M447.92,223.96c-2.211,0-4-1.789-4-3.999c0-2.207-1.796-4-3.999-4c-2.21,0-3.999-1.788-3.999-3.999
		c0-2.21,1.789-3.999,3.999-3.999c6.616,0,11.998,5.382,11.998,11.998C451.919,222.171,450.13,223.96,447.92,223.96z"/>
	<path style="fill:#3A3847;" d="M447.92,247.956c-2.211,0-4-1.789-4-4v-23.995c0-2.211,1.789-4,4-4c2.21,0,3.999,1.789,3.999,4
		v23.995C451.919,246.167,450.13,247.956,447.92,247.956z"/>
	<path style="fill:#3A3847;" d="M439.921,255.954h-7.998c-2.211,0-3.999-1.789-3.999-3.999c0-2.211,1.788-3.999,3.999-3.999h7.998
		c2.211,0,3.999,1.788,3.999,3.999C443.92,254.165,442.132,255.954,439.921,255.954z"/>
	<path style="fill:#3A3847;" d="M439.921,215.961c-2.21,0-3.999-1.788-3.999-3.999c0-2.21,1.789-3.999,3.999-3.999
		c2.203,0,3.999-1.793,3.999-3.999c0-2.211,1.789-4,4-4c2.21,0,3.999,1.789,3.999,4
		C451.919,210.579,446.537,215.961,439.921,215.961z"/>
	<path style="fill:#3A3847;" d="M447.92,183.967c-2.211,0-4-1.788-4-3.999c0-2.207-1.796-3.999-3.999-3.999
		c-2.21,0-3.999-1.789-3.999-3.999c0-2.211,1.789-4,3.999-4c6.616,0,11.998,5.382,11.998,11.998
		C451.919,182.179,450.13,183.967,447.92,183.967z"/>
	<path style="fill:#3A3847;" d="M447.92,207.963c-2.211,0-4-1.789-4-3.999v-23.996c0-2.211,1.789-3.999,4-3.999
		c2.21,0,3.999,1.788,3.999,3.999v23.996C451.919,206.174,450.13,207.963,447.92,207.963z"/>
	<path style="fill:#3A3847;" d="M439.921,215.961h-7.998c-2.211,0-3.999-1.788-3.999-3.999c0-2.21,1.788-3.999,3.999-3.999h7.998
		c2.211,0,3.999,1.789,3.999,3.999C443.92,214.173,442.132,215.961,439.921,215.961z"/>
	<path style="fill:#3A3847;" d="M439.921,175.969c-2.21,0-3.999-1.789-3.999-3.999c0-2.211,1.789-4,3.999-4
		c2.203,0,3.999-1.792,3.999-3.999c0-2.211,1.789-3.999,4-3.999c2.21,0,3.999,1.788,3.999,3.999
		C451.919,170.587,446.537,175.969,439.921,175.969z"/>
	<path style="fill:#3A3847;" d="M447.92,143.975c-2.211,0-4-1.789-4-4c0-2.206-1.796-3.999-3.999-3.999
		c-2.21,0-3.999-1.788-3.999-3.999s1.789-3.999,3.999-3.999c6.616,0,11.998,5.382,11.998,11.997
		C451.919,142.185,450.13,143.975,447.92,143.975z"/>
	<path style="fill:#3A3847;" d="M447.92,167.97c-2.211,0-4-1.788-4-3.999v-23.996c0-2.21,1.789-3.999,4-3.999
		c2.21,0,3.999,1.789,3.999,3.999v23.996C451.919,166.182,450.13,167.97,447.92,167.97z"/>
	<path style="fill:#3A3847;" d="M439.921,175.969h-7.998c-2.211,0-3.999-1.789-3.999-3.999c0-2.211,1.788-4,3.999-4h7.998
		c2.211,0,3.999,1.789,3.999,4C443.92,174.18,442.132,175.969,439.921,175.969z"/>
	<path style="fill:#3A3847;" d="M439.921,135.975h-7.998c-2.211,0-3.999-1.788-3.999-3.999s1.788-3.999,3.999-3.999h7.998
		c2.211,0,3.999,1.788,3.999,3.999S442.132,135.975,439.921,135.975z"/>
	<path style="fill:#3A3847;" d="M391.93,87.984h-15.997c-2.21,0-3.999-1.789-3.999-3.999c0-2.211,1.789-3.999,3.999-3.999h15.997
		c2.211,0,3.999,1.788,3.999,3.999C395.929,86.195,394.141,87.984,391.93,87.984z"/>
	<path style="fill:#3A3847;" d="M143.975,511.908c-15.958,0-27.995-12.037-27.995-27.995c0-2.21,1.789-3.999,3.999-3.999
		c2.211,0,4,1.789,4,3.999c0,11.592,8.409,19.997,19.997,19.997c2.21,0,3.999,1.788,3.999,3.999
		C147.974,510.119,146.185,511.908,143.975,511.908z"/>
	<path style="fill:#3A3847;" d="M127.977,231.958c-6.616,0-11.998-5.382-11.998-11.997c0-2.211,1.789-4,3.999-4c2.211,0,4,1.789,4,4
		c0,2.206,1.792,3.999,4,3.999c2.21,0,3.999,1.789,3.999,3.999C131.976,230.17,130.188,231.958,127.977,231.958z"/>
	<path style="fill:#3A3847;" d="M119.978,223.96c-2.21,0-3.999-1.789-3.999-3.999v-23.996c0-2.21,1.789-3.999,3.999-3.999
		c2.211,0,4,1.789,4,3.999v23.996C123.978,222.171,122.189,223.96,119.978,223.96z"/>
	<path style="fill:#3A3847;" d="M159.972,231.958h-31.994c-2.211,0-4-1.788-4-3.999c0-2.21,1.789-3.999,4-3.999h31.994
		c2.21,0,3.999,1.789,3.999,3.999C163.971,230.17,162.182,231.958,159.972,231.958z"/>
	<path style="fill:#3A3847;" d="M127.977,271.951c-6.616,0-11.998-5.382-11.998-11.998c0-2.21,1.789-3.999,3.999-3.999
		c2.211,0,4,1.789,4,3.999c0,2.207,1.792,4,4,4c2.21,0,3.999,1.788,3.999,3.999C131.976,270.162,130.188,271.951,127.977,271.951z"
		/>
	<path style="fill:#3A3847;" d="M119.978,239.957c-2.21,0-3.999-1.789-3.999-3.999c0-6.616,5.382-11.998,11.998-11.998
		c2.21,0,3.999,1.789,3.999,3.999c0,2.211-1.789,3.999-3.999,3.999c-2.207,0-4,1.793-4,4
		C123.978,238.168,122.189,239.957,119.978,239.957z"/>
	<path style="fill:#3A3847;" d="M119.978,263.953c-2.21,0-3.999-1.789-3.999-4v-23.995c0-2.211,1.789-4,3.999-4c2.211,0,4,1.789,4,4
		v23.995C123.978,262.164,122.189,263.953,119.978,263.953z"/>
	<path style="fill:#3A3847;" d="M159.972,271.951h-31.994c-2.211,0-4-1.789-4-3.999c0-2.211,1.789-3.999,4-3.999h31.994
		c2.21,0,3.999,1.788,3.999,3.999C163.971,270.162,162.182,271.951,159.972,271.951z"/>
	<path style="fill:#3A3847;" d="M127.977,311.944c-6.616,0-11.998-5.382-11.998-11.998c0-2.21,1.789-3.999,3.999-3.999
		c2.211,0,4,1.789,4,3.999c0,2.203,1.792,3.999,4,3.999c2.21,0,3.999,1.789,3.999,4
		C131.976,310.155,130.188,311.944,127.977,311.944z"/>
	<path style="fill:#3A3847;" d="M119.978,279.95c-2.21,0-3.999-1.789-3.999-3.999c0-6.608,5.382-11.99,11.998-11.99
		c2.21,0,3.999,1.788,3.999,3.999c0,2.21-1.789,3.999-3.999,3.999c-2.207,0-4,1.789-4,3.992
		C123.978,278.161,122.189,279.95,119.978,279.95z"/>
	<path style="fill:#3A3847;" d="M119.978,303.945c-2.21,0-3.999-1.788-3.999-3.999v-23.995c0-2.211,1.789-4,3.999-4
		c2.211,0,4,1.789,4,4v23.995C123.978,302.157,122.189,303.945,119.978,303.945z"/>
	<path style="fill:#3A3847;" d="M159.972,311.944h-31.994c-2.211,0-4-1.789-4-3.999c0-2.211,1.789-4,4-4h31.994
		c2.21,0,3.999,1.789,3.999,4C163.971,310.155,162.182,311.944,159.972,311.944z"/>
	<path style="fill:#3A3847;" d="M127.977,351.937c-6.616,0-11.998-5.383-11.998-11.998c0-2.211,1.789-4,3.999-4c2.211,0,4,1.789,4,4
		c0,2.202,1.792,3.999,4,3.999c2.21,0,3.999,1.788,3.999,3.999S130.188,351.937,127.977,351.937z"/>
	<path style="fill:#3A3847;" d="M119.978,319.942c-2.21,0-3.999-1.788-3.999-3.999c0-6.608,5.382-11.99,11.998-11.99
		c2.21,0,3.999,1.789,3.999,4c0,2.21-1.789,3.999-3.999,3.999c-2.207,0-4,1.788-4,3.991
		C123.978,318.154,122.189,319.942,119.978,319.942z"/>
	<path style="fill:#3A3847;" d="M119.978,343.938c-2.21,0-3.999-1.789-3.999-3.999v-23.996c0-2.211,1.789-3.999,3.999-3.999
		c2.211,0,4,1.788,4,3.999v23.996C123.978,342.149,122.189,343.938,119.978,343.938z"/>
	<path style="fill:#3A3847;" d="M159.972,351.937h-31.994c-2.211,0-4-1.789-4-4s1.789-3.999,4-3.999h31.994
		c2.21,0,3.999,1.788,3.999,3.999S162.182,351.937,159.972,351.937z"/>
	<path style="fill:#3A3847;" d="M127.977,391.93c-6.616,0-11.998-5.382-11.998-11.998c0-2.21,1.789-3.999,3.999-3.999
		c2.211,0,4,1.789,4,3.999c0,2.203,1.792,4,4,4c2.21,0,3.999,1.788,3.999,3.999C131.976,390.141,130.188,391.93,127.977,391.93z"/>
	<path style="fill:#3A3847;" d="M119.978,359.935c-2.21,0-3.999-1.789-3.999-3.999c0-6.608,5.382-11.982,11.998-11.982
		c2.21,0,3.999,1.788,3.999,3.999s-1.789,4-3.999,4c-2.207,0-4,1.788-4,3.983C123.978,358.146,122.189,359.935,119.978,359.935z"/>
	<path style="fill:#3A3847;" d="M119.978,383.932c-2.21,0-3.999-1.789-3.999-4v-23.995c0-2.211,1.789-3.999,3.999-3.999
		c2.211,0,4,1.788,4,3.999v23.995C123.978,382.142,122.189,383.932,119.978,383.932z"/>
	<path style="fill:#3A3847;" d="M159.972,391.93h-31.994c-2.211,0-4-1.789-4-3.999c0-2.211,1.789-3.999,4-3.999h31.994
		c2.21,0,3.999,1.788,3.999,3.999C163.971,390.141,162.182,391.93,159.972,391.93z"/>
	<path style="fill:#3A3847;" d="M127.977,431.923c-6.616,0-11.998-5.382-11.998-11.998c0-2.211,1.789-3.999,3.999-3.999
		c2.211,0,4,1.788,4,3.999c0,2.202,1.792,3.999,4,3.999c2.21,0,3.999,1.789,3.999,4
		C131.976,430.134,130.188,431.923,127.977,431.923z"/>
	<path style="fill:#3A3847;" d="M119.978,399.928c-2.21,0-3.999-1.788-3.999-3.999c0-6.608,5.382-11.981,11.998-11.981
		c2.21,0,3.999,1.788,3.999,3.999c0,2.21-1.789,3.999-3.999,3.999c-2.207,0-4,1.789-4,3.983
		C123.978,398.14,122.189,399.928,119.978,399.928z"/>
	<path style="fill:#3A3847;" d="M119.978,423.924c-2.21,0-3.999-1.789-3.999-3.999v-23.996c0-2.21,1.789-3.999,3.999-3.999
		c2.211,0,4,1.789,4,3.999v23.996C123.978,422.135,122.189,423.924,119.978,423.924z"/>
	<path style="fill:#3A3847;" d="M159.972,431.923h-31.994c-2.211,0-4-1.789-4-3.999c0-2.211,1.789-4,4-4h31.994
		c2.21,0,3.999,1.789,3.999,4C163.971,430.134,162.182,431.923,159.972,431.923z"/>
	<path style="fill:#3A3847;" d="M127.977,471.915c-6.616,0-11.998-5.382-11.998-11.997c0-2.211,1.789-4,3.999-4c2.211,0,4,1.789,4,4
		c0,2.202,1.792,3.999,4,3.999c2.21,0,3.999,1.788,3.999,3.999S130.188,471.915,127.977,471.915z"/>
	<path style="fill:#3A3847;" d="M119.978,439.921c-2.21,0-3.999-1.788-3.999-3.999c0-6.608,5.382-11.982,11.998-11.982
		c2.21,0,3.999,1.789,3.999,4c0,2.21-1.789,3.999-3.999,3.999c-2.207,0-4,1.788-4,3.983
		C123.978,438.133,122.189,439.921,119.978,439.921z"/>
	<path style="fill:#3A3847;" d="M119.978,463.917c-2.21,0-3.999-1.789-3.999-3.999v-23.996c0-2.211,1.789-3.999,3.999-3.999
		c2.211,0,4,1.788,4,3.999v23.996C123.978,462.128,122.189,463.917,119.978,463.917z"/>
	<path style="fill:#3A3847;" d="M159.972,471.915h-31.994c-2.211,0-4-1.788-4-3.999s1.789-3.999,4-3.999h31.994
		c2.21,0,3.999,1.788,3.999,3.999S162.182,471.915,159.972,471.915z"/>
	<path style="fill:#3A3847;" d="M119.978,487.912c-2.21,0-3.999-1.788-3.999-3.999v-23.995c0-2.211,1.789-4,3.999-4
		c2.211,0,4,1.789,4,4v23.995C123.978,486.124,122.189,487.912,119.978,487.912z"/>
	<path style="fill:#3A3847;" d="M367.933,511.908c-2.21,0-3.999-1.789-3.999-3.999c0-2.211,1.789-3.999,3.999-3.999
		c11.592,0,19.997-8.405,19.997-19.997c0-2.21,1.788-3.999,3.999-3.999s3.999,1.789,3.999,3.999
		C395.929,499.871,383.892,511.908,367.933,511.908z"/>
	<path style="fill:#3A3847;" d="M383.932,231.958c-2.211,0-4-1.788-4-3.999c0-2.21,1.789-3.999,4-3.999
		c2.202,0,3.999-1.793,3.999-3.999c0-2.211,1.788-4,3.999-4s3.999,1.789,3.999,4C395.929,226.576,390.547,231.958,383.932,231.958z"
		/>
	<path style="fill:#3A3847;" d="M391.93,223.96c-2.211,0-3.999-1.789-3.999-3.999v-23.996c0-2.21,1.788-3.999,3.999-3.999
		s3.999,1.789,3.999,3.999v23.996C395.929,222.171,394.141,223.96,391.93,223.96z"/>
	<path style="fill:#3A3847;" d="M383.932,231.958h-31.994c-2.211,0-4-1.788-4-3.999c0-2.21,1.789-3.999,4-3.999h31.994
		c2.21,0,3.999,1.789,3.999,3.999C387.931,230.17,386.142,231.958,383.932,231.958z"/>
	<path style="fill:#3A3847;" d="M383.932,271.951c-2.211,0-4-1.789-4-3.999c0-2.211,1.789-3.999,4-3.999
		c2.202,0,3.999-1.793,3.999-4c0-2.21,1.788-3.999,3.999-3.999s3.999,1.789,3.999,3.999
		C395.929,266.569,390.547,271.951,383.932,271.951z"/>
	<path style="fill:#3A3847;" d="M391.93,239.957c-2.211,0-3.999-1.789-3.999-3.999c0-2.207-1.797-4-3.999-4
		c-2.211,0-4-1.788-4-3.999c0-2.21,1.789-3.999,4-3.999c6.615,0,11.997,5.382,11.997,11.998
		C395.929,238.168,394.141,239.957,391.93,239.957z"/>
	<path style="fill:#3A3847;" d="M391.93,263.953c-2.211,0-3.999-1.789-3.999-4v-23.995c0-2.211,1.788-4,3.999-4s3.999,1.789,3.999,4
		v23.995C395.929,262.164,394.141,263.953,391.93,263.953z"/>
	<path style="fill:#3A3847;" d="M383.932,271.951h-31.994c-2.211,0-4-1.789-4-3.999c0-2.211,1.789-3.999,4-3.999h31.994
		c2.21,0,3.999,1.788,3.999,3.999C387.931,270.162,386.142,271.951,383.932,271.951z"/>
	<path style="fill:#3A3847;" d="M383.932,311.944c-2.211,0-4-1.789-4-3.999c0-2.211,1.789-4,4-4c2.202,0,3.999-1.796,3.999-3.999
		c0-2.21,1.788-3.999,3.999-3.999s3.999,1.789,3.999,3.999C395.929,306.562,390.547,311.944,383.932,311.944z"/>
	<path style="fill:#3A3847;" d="M391.93,279.95c-2.211,0-3.999-1.789-3.999-3.999c0-2.203-1.797-3.992-3.999-3.992
		c-2.211,0-4-1.789-4-3.999c0-2.211,1.789-3.999,4-3.999c6.615,0,11.997,5.382,11.997,11.99
		C395.929,278.161,394.141,279.95,391.93,279.95z"/>
	<path style="fill:#3A3847;" d="M391.93,303.945c-2.211,0-3.999-1.788-3.999-3.999v-23.995c0-2.211,1.788-4,3.999-4
		s3.999,1.789,3.999,4v23.995C395.929,302.157,394.141,303.945,391.93,303.945z"/>
	<path style="fill:#3A3847;" d="M383.932,311.944h-31.994c-2.211,0-4-1.789-4-3.999c0-2.211,1.789-4,4-4h31.994
		c2.21,0,3.999,1.789,3.999,4C387.931,310.155,386.142,311.944,383.932,311.944z"/>
	<path style="fill:#3A3847;" d="M383.932,351.937c-2.211,0-4-1.789-4-4s1.789-3.999,4-3.999c2.202,0,3.999-1.797,3.999-3.999
		c0-2.211,1.788-4,3.999-4s3.999,1.789,3.999,4C395.929,346.555,390.547,351.937,383.932,351.937z"/>
	<path style="fill:#3A3847;" d="M391.93,319.942c-2.211,0-3.999-1.788-3.999-3.999c0-2.203-1.797-3.991-3.999-3.991
		c-2.211,0-4-1.789-4-3.999c0-2.211,1.789-4,4-4c6.615,0,11.997,5.382,11.997,11.99C395.929,318.154,394.141,319.942,391.93,319.942
		z"/>
	<path style="fill:#3A3847;" d="M391.93,343.938c-2.211,0-3.999-1.789-3.999-3.999v-23.996c0-2.211,1.788-3.999,3.999-3.999
		s3.999,1.788,3.999,3.999v23.996C395.929,342.149,394.141,343.938,391.93,343.938z"/>
	<path style="fill:#3A3847;" d="M383.932,351.937h-31.994c-2.211,0-4-1.789-4-4s1.789-3.999,4-3.999h31.994
		c2.21,0,3.999,1.788,3.999,3.999S386.142,351.937,383.932,351.937z"/>
	<path style="fill:#3A3847;" d="M383.932,391.93c-2.211,0-4-1.789-4-3.999c0-2.211,1.789-3.999,4-3.999c2.202,0,3.999-1.797,3.999-4
		c0-2.21,1.788-3.999,3.999-3.999s3.999,1.789,3.999,3.999C395.929,386.548,390.547,391.93,383.932,391.93z"/>
	<path style="fill:#3A3847;" d="M391.93,359.935c-2.211,0-3.999-1.789-3.999-3.999c0-2.195-1.797-3.983-3.999-3.983
		c-2.211,0-4-1.789-4-4s1.789-3.999,4-3.999c6.615,0,11.997,5.374,11.997,11.982C395.929,358.146,394.141,359.935,391.93,359.935z"
		/>
	<path style="fill:#3A3847;" d="M391.93,383.932c-2.211,0-3.999-1.789-3.999-4v-23.995c0-2.211,1.788-3.999,3.999-3.999
		s3.999,1.788,3.999,3.999v23.995C395.929,382.142,394.141,383.932,391.93,383.932z"/>
	<path style="fill:#3A3847;" d="M383.932,391.93h-31.994c-2.211,0-4-1.789-4-3.999c0-2.211,1.789-3.999,4-3.999h31.994
		c2.21,0,3.999,1.788,3.999,3.999C387.931,390.141,386.142,391.93,383.932,391.93z"/>
	<path style="fill:#3A3847;" d="M383.932,431.923c-2.211,0-4-1.789-4-3.999c0-2.211,1.789-4,4-4c2.202,0,3.999-1.797,3.999-3.999
		c0-2.211,1.788-3.999,3.999-3.999s3.999,1.788,3.999,3.999C395.929,426.541,390.547,431.923,383.932,431.923z"/>
	<path style="fill:#3A3847;" d="M391.93,399.928c-2.211,0-3.999-1.788-3.999-3.999c0-2.194-1.797-3.983-3.999-3.983
		c-2.211,0-4-1.789-4-3.999c0-2.211,1.789-3.999,4-3.999c6.615,0,11.997,5.373,11.997,11.981
		C395.929,398.14,394.141,399.928,391.93,399.928z"/>
	<path style="fill:#3A3847;" d="M391.93,423.924c-2.211,0-3.999-1.789-3.999-3.999v-23.996c0-2.21,1.788-3.999,3.999-3.999
		s3.999,1.789,3.999,3.999v23.996C395.929,422.135,394.141,423.924,391.93,423.924z"/>
	<path style="fill:#3A3847;" d="M383.932,431.923h-31.994c-2.211,0-4-1.789-4-3.999c0-2.211,1.789-4,4-4h31.994
		c2.21,0,3.999,1.789,3.999,4C387.931,430.134,386.142,431.923,383.932,431.923z"/>
	<path style="fill:#3A3847;" d="M383.932,471.915c-2.211,0-4-1.788-4-3.999s1.789-3.999,4-3.999c2.202,0,3.999-1.797,3.999-3.999
		c0-2.211,1.788-4,3.999-4s3.999,1.789,3.999,4C395.929,466.533,390.547,471.915,383.932,471.915z"/>
	<path style="fill:#3A3847;" d="M391.93,439.921c-2.211,0-3.999-1.788-3.999-3.999c0-2.195-1.797-3.983-3.999-3.983
		c-2.211,0-4-1.789-4-3.999c0-2.211,1.789-4,4-4c6.615,0,11.997,5.374,11.997,11.982
		C395.929,438.133,394.141,439.921,391.93,439.921z"/>
	<path style="fill:#3A3847;" d="M391.93,463.917c-2.211,0-3.999-1.789-3.999-3.999v-23.996c0-2.211,1.788-3.999,3.999-3.999
		s3.999,1.788,3.999,3.999v23.996C395.929,462.128,394.141,463.917,391.93,463.917z"/>
	<path style="fill:#3A3847;" d="M383.932,471.915h-31.994c-2.211,0-4-1.788-4-3.999s1.789-3.999,4-3.999h31.994
		c2.21,0,3.999,1.788,3.999,3.999S386.142,471.915,383.932,471.915z"/>
	<path style="fill:#3A3847;" d="M391.93,487.912c-2.211,0-3.999-1.788-3.999-3.999v-23.995c0-2.211,1.788-4,3.999-4
		s3.999,1.789,3.999,4v23.995C395.929,486.124,394.141,487.912,391.93,487.912z"/>
</g>
<g style="opacity:0.2;">
	<rect x="111.984" y="195.964" width="7.998" height="231.96"/>
</g>
<g style="opacity:0.2;">
	<rect x="391.934" y="195.964" width="7.998" height="231.96"/>
</g>
<g>
</g>
<g>
</g>
<g>
</g>
<g>
</g>
<g>
</g>
<g>
</g>
<g>
</g>
<g>
</g>
<g>
</g>
<g>
</g>
<g>
</g>
<g>
</g>
<g>
</g>
<g>
</g>
<g>
</g>
</svg>
