<?xml version="1.0" encoding="iso-8859-1"?>
<!-- Generator: Adobe Illustrator 19.0.0, SVG Export Plug-In . SVG Version: 6.00 Build 0)  -->
<svg version="1.1" id="Capa_1" xmlns="http://www.w3.org/2000/svg" xmlns:xlink="http://www.w3.org/1999/xlink" x="0px" y="0px"
	 viewBox="0 0 512 512" style="enable-background:new 0 0 512 512;" xml:space="preserve">
<path style="fill:#656D78;" d="M92.099,304.146C78.585,325.501,84.1,408.127,84.1,408.127H68.103c0,0-1.758-109.979-31.994-135.976
	c-8.952-10.236-18.231-25.835-23.91-36.231c14.638,20.074,47.827,31.436,91.023,50.479L92.099,304.146z"/>
<path id="SVGCleanerId_0" style="fill:#ED5565;" d="M388.046,304.146c0,0,119.979,25.996,119.979,47.992
	c0,39.992-219.477,67.987-231.958,51.037c-62.224-64.238-123.979-95.342-172.845-116.775
	c-43.196-19.044-76.385-30.405-91.023-50.479c-0.086-0.078-0.086-0.156-0.164-0.242c-2.554-4.64-4.397-8.233-5.194-9.678
	c-0.242-0.555-0.406-0.797-0.406-0.797c-8.232-23.277,3.367-57.748,43.117-119.58c13.756-21.355,154.691,145.013,217.157,190.524
	C329.182,341.654,388.046,304.146,388.046,304.146z"/>
<g>
	<path id="SVGCleanerId_0_1_" style="fill:#ED5565;" d="M388.046,304.146c0,0,119.979,25.996,119.979,47.992
		c0,39.992-219.477,67.987-231.958,51.037c-62.224-64.238-123.979-95.342-172.845-116.775
		c-43.196-19.044-76.385-30.405-91.023-50.479c-0.086-0.078-0.086-0.156-0.164-0.242c-2.554-4.64-4.397-8.233-5.194-9.678
		c-0.242-0.555-0.406-0.797-0.406-0.797c-8.232-23.277,3.367-57.748,43.117-119.58c13.756-21.355,154.691,145.013,217.157,190.524
		C329.182,341.654,388.046,304.146,388.046,304.146z"/>
</g>
<g style="opacity:0.2;">
	<path d="M388.046,304.146l-15.286,7.202c0,0,119.268,26.792,119.268,48.788c0,6.093-5.141,11.904-13.818,17.325
		c18.083-7.546,29.815-16.106,29.815-25.323C508.024,330.142,388.046,304.146,388.046,304.146z"/>
</g>
<g style="opacity:0.2;">
	<path d="M95.34,298.975l7.881-12.575c-43.196-19.044-76.385-30.405-91.023-50.479c5.522,10.107,14.443,25.097,23.168,35.341
		C50.833,280.338,71.399,288.617,95.34,298.975z"/>
</g>
<g style="opacity:0.2;">
	<path style="fill:#FFFFFF;" d="M29.172,251.292L29.172,251.292c-1.57-1.047-3.054-2.125-4.499-3.21
		C26.103,249.167,27.61,250.245,29.172,251.292z"/>
	<path style="fill:#FFFFFF;" d="M19.432,243.793c-0.664-0.586-1.242-1.21-1.859-1.812C18.182,242.591,18.784,243.208,19.432,243.793
		z"/>
	<path style="fill:#FFFFFF;" d="M35.367,271.261c-8.725-10.244-17.646-25.233-23.168-35.341
		c5.679,10.396,14.958,25.995,23.91,36.231c30.236,25.996,31.994,135.976,31.994,135.976h4.843c0,0,1.625-94.64-22.746-129.055
		C44.865,276.479,39.874,273.901,35.367,271.261z"/>
</g>
<g style="opacity:0.3;">
	<path style="fill:#FFFFFF;" d="M28.196,243.918c-0.086-0.078-0.086-0.156-0.164-0.242c-2.554-4.64-4.397-8.233-5.194-9.678
		c-0.242-0.555-0.406-0.796-0.406-0.796c-8.232-23.277,3.367-57.748,43.117-119.58c0.914-1.414,2.414-1.953,4.39-1.812
		c-10.475-7.46-17.762-10.264-20.387-6.187c-39.75,61.833-51.35,96.303-43.117,119.58c0,0,0.164,0.242,0.406,0.797
		c0.797,1.445,2.641,5.038,5.194,9.678c0.078,0.086,0.078,0.164,0.164,0.242c8.624,11.826,23.824,20.637,43.586,29.765
		C43.818,259.149,34.312,252.308,28.196,243.918z"/>
</g>
<g>
	<path style="fill:#3A3847;" d="M305.951,412.22L305.951,412.22c-25.004,0-30.838-3.577-33.127-6.701
		C202.36,332.922,132.248,303.021,81.046,281.196c-41.165-17.555-70.909-30.232-78.955-56.454
		c-7.678-25.035,5.515-61.286,44.133-121.236c1.539-2.397,4.085-3.726,7.155-3.726c15.466,0,53.124,36.751,113.292,97.271
		c37.798,38.009,76.884,77.318,102.388,95.893c19.832,14.436,41.336,21.762,63.895,21.746c30.752,0,52.701-13.747,52.92-13.888
		c0.891-0.578,1.984-0.766,2.992-0.531C417.751,306.521,512,328.767,512,352.169c0,16.527-27.073,31.291-80.462,43.851
		C391.021,405.565,339.383,412.22,305.951,412.22z M53.379,107.779c-37.634,57.818-50.553,92.077-43.64,114.612
		c6.959,22.667,35.267,34.736,74.439,51.448c51.826,22.09,122.806,52.35,194.739,126.539c0.453,0.531,3.663,3.844,27.034,3.844
		c32.877,0,83.773-6.577,123.751-15.981c54.779-12.904,74.3-27.089,74.3-36.071c0-11.498-59.537-31.542-115.284-43.758
		c-5.655,3.265-26.956,14.278-55.764,14.278c-24.292,0.016-47.374-7.827-68.597-23.277c-26.027-18.949-65.34-58.485-103.357-96.721
		C116.766,158.199,66.634,107.779,53.379,107.779z"/>
	<path style="fill:#3A3847;" d="M84.069,412.157c-2.086,0-3.843-1.624-3.983-3.733c-0.227-3.437-5.421-84.204,8.607-106.387
		c1.195-1.875,3.671-2.406,5.522-1.25c1.867,1.188,2.421,3.655,1.242,5.53c-10.506,16.591-8.897,78.938-7.39,101.575
		c0.148,2.203-1.523,4.108-3.726,4.249C84.249,412.157,84.163,412.157,84.069,412.157z"/>
	<path style="fill:#3A3847;" d="M68.08,412.157c-2.18,0-3.96-1.749-4-3.937c-0.016-1.078-2.062-108.48-30.604-133.007
		c-1.671-1.438-1.867-3.969-0.422-5.64c1.438-1.672,3.96-1.859,5.64-0.422c31.245,26.854,33.314,134.382,33.385,138.943
		c0.031,2.203-1.726,4.015-3.937,4.062C68.119,412.157,68.103,412.157,68.08,412.157z"/>
	<path style="fill:#3A3847;" d="M84.077,412.157H68.08c-2.211,0-4-1.796-4-3.999c0-2.218,1.789-3.999,4-3.999h15.997
		c2.21,0,3.999,1.781,3.999,3.999C88.076,410.361,86.287,412.157,84.077,412.157z"/>
</g>
<g>
</g>
<g>
</g>
<g>
</g>
<g>
</g>
<g>
</g>
<g>
</g>
<g>
</g>
<g>
</g>
<g>
</g>
<g>
</g>
<g>
</g>
<g>
</g>
<g>
</g>
<g>
</g>
<g>
</g>
</svg>
