<?xml version="1.0" encoding="iso-8859-1"?>
<!-- Generator: Adobe Illustrator 19.0.0, SVG Export Plug-In . SVG Version: 6.00 Build 0)  -->
<svg version="1.1" id="Capa_1" xmlns="http://www.w3.org/2000/svg" xmlns:xlink="http://www.w3.org/1999/xlink" x="0px" y="0px"
	 viewBox="0 0 511.908 511.908" style="enable-background:new 0 0 511.908 511.908;" xml:space="preserve">
<g>
	<polygon style="fill:#656D78;" points="119.978,427.924 119.978,451.919 103.981,451.919 87.984,451.919 71.987,451.919 
		71.987,427.924 	"/>
	<polygon style="fill:#656D78;" points="391.93,427.924 439.921,427.924 439.921,451.919 423.924,451.919 407.927,451.919 
		391.93,451.919 	"/>
	<polygon style="fill:#656D78;" points="127.977,491.912 255.954,491.912 383.932,491.912 383.932,507.909 359.935,507.909 
		343.938,507.909 327.941,507.909 311.944,507.909 295.947,507.909 279.95,507.909 263.953,507.909 247.956,507.909 
		231.958,507.909 215.961,507.909 199.964,507.909 183.967,507.909 167.97,507.909 151.973,507.909 127.977,507.909 	"/>
	<path style="fill:#656D78;" d="M119.978,43.992C119.978,27.995,159.971,4,255.954,4S391.93,27.995,391.93,43.992
		c-5.038,0.398-9.842,0.879-14.481,1.68v-0.078l-9.679-6.562c-14.076-7.916-47.187-19.035-111.816-19.035
		c-64.473,0-97.506,11.037-111.659,19.035l-9.678,6.562v0.078C129.899,44.953,125.016,44.391,119.978,43.992z"/>
</g>
<g style="opacity:0.2;">
	<path d="M119.978,43.992C119.978,27.995,159.971,4,255.954,4S391.93,27.995,391.93,43.992c-5.038,0.398-9.842,0.879-14.481,1.68
		v-0.078l-9.679-6.562c-14.076-7.916-47.187-19.035-111.816-19.035c-64.473,0-97.506,11.037-111.659,19.035l-9.678,6.562v0.078
		C129.899,44.953,125.016,44.391,119.978,43.992z"/>
</g>
<path style="fill:#656D78;" d="M247.956,123.977c0,0-21.676-65.109-113.339-78.306v-0.077l9.678-6.562
	c14.153-7.998,47.186-19.035,111.659-19.035c64.629,0,97.74,11.119,111.815,19.035l9.679,6.562v0.078
	c-91.741,13.118-113.495,78.306-113.495,78.306h-7.999L247.956,123.977L247.956,123.977z"/>
<g style="opacity:0.2;">
	<path d="M247.956,123.977c0,0-21.676-65.109-113.339-78.306v-0.077l9.678-6.562c14.153-7.998,47.186-19.035,111.659-19.035
		c64.629,0,97.74,11.119,111.815,19.035l9.679,6.562v0.078c-91.741,13.118-113.495,78.306-113.495,78.306h-7.999L247.956,123.977
		L247.956,123.977z"/>
</g>
<path style="fill:#656D78;" d="M134.617,45.672c91.664,13.196,113.339,78.306,113.339,78.306s-74.385,0-117.417-55.989
	c-3.843-4.878-7.357-10.236-10.561-15.997v-7.999C125.016,44.391,129.899,44.953,134.617,45.672z"/>
<g style="opacity:0.2;">
	<path style="fill:#FFFFFF;" d="M138.538,59.989c-3.617-4.589-6.913-9.635-9.967-15.013c-2.844-0.344-5.632-0.75-8.593-0.984v7.999
		c3.203,5.761,6.718,11.119,10.561,15.997c43.032,55.989,117.417,55.989,117.417,55.989s-1.211-3.479-4.031-8.846
		C221.132,112.562,170.954,102.165,138.538,59.989z"/>
</g>
<path style="fill:#656D78;" d="M377.448,45.672c4.64-0.801,9.443-1.281,14.481-1.68v7.999c-3.202,5.761-6.718,11.037-10.561,15.919
	c-42.953,56.067-117.416,56.067-117.416,56.067S285.707,58.79,377.448,45.672z"/>
<g style="opacity:0.2;">
	<path d="M373.371,59.989c3.616-4.589,6.912-9.635,9.967-15.013c2.843-0.344,5.631-0.75,8.592-0.984v7.999
		c-3.202,5.761-6.718,11.119-10.561,15.997c-43.031,55.989-117.416,55.989-117.416,55.989s1.211-3.479,4.03-8.846
		C290.776,112.562,340.955,102.165,373.371,59.989z"/>
</g>
<path style="fill:#AC92EC;" d="M391.766,71.589l-10.318-3.601l-0.078-0.078c-42.953,56.067-117.416,56.067-117.416,56.067h-8h-7.998
	c0,0-74.385,0-117.417-55.989l-10.404,3.601c-32.549,10.076-56.146,40.392-56.146,76.385v279.95h7.998h47.991v23.995v39.993h7.999
	h127.977h127.978h7.998v-39.993v-23.995h47.991h7.999v-279.95C447.92,111.98,424.322,81.665,391.766,71.589z"/>
<g style="opacity:0.3;">
	<path style="fill:#FFFFFF;" d="M134.195,72.276c-1.211-1.441-2.484-2.766-3.656-4.288l-10.404,3.601
		c-32.549,10.076-56.146,40.392-56.146,76.385v279.95h7.998h7.999v-279.95C79.986,112.707,102.662,82.942,134.195,72.276z"/>
	<polygon style="fill:#FFFFFF;" points="135.975,179.968 119.978,179.968 119.978,451.919 119.978,491.912 127.977,491.912 
		135.975,491.912 135.975,451.919 	"/>
</g>
<g style="opacity:0.2;">
	<path d="M377.714,72.276c1.21-1.441,2.483-2.766,3.655-4.288l10.404,3.601c32.549,10.076,56.146,40.392,56.146,76.385v279.95
		h-7.999h-7.998v-279.95C431.923,112.707,409.247,82.942,377.714,72.276z"/>
	<polygon points="375.933,179.968 391.93,179.968 391.93,451.919 391.93,491.912 383.932,491.912 375.933,491.912 375.933,451.919 	
		"/>
</g>
<g style="opacity:0.2;">
	<rect x="112.014" y="179.964" width="7.967" height="271.95"/>
</g>
<g style="opacity:0.2;">
	<rect x="391.934" y="179.964" width="7.967" height="271.95"/>
</g>
<g style="opacity:0.2;">
	<rect x="71.984" y="427.924" width="40.02" height="7.998"/>
</g>
<g style="opacity:0.3;">
	<rect x="71.984" y="435.924" style="fill:#FFFFFF;" width="15.997" height="15.997"/>
</g>
<g style="opacity:0.2;">
	<rect x="399.914" y="427.924" width="40.02" height="7.998"/>
</g>
<g style="opacity:0.2;">
	<rect x="423.944" y="435.924" width="15.997" height="15.997"/>
</g>
<g style="opacity:0.2;">
	<rect x="127.974" y="491.914" width="255.95" height="7.998"/>
</g>
<g style="opacity:0.3;">
	<rect x="127.974" y="499.914" style="fill:#FFFFFF;" width="16.03" height="7.999"/>
</g>
<g style="opacity:0.2;">
	<rect x="367.914" y="499.914" width="16.03" height="7.999"/>
</g>
<g style="opacity:0.3;">
	<rect x="247.954" y="123.974" style="fill:#FFFFFF;" width="7.998" height="367.94"/>
</g>
<g>
	<path style="fill:#3A3847;" d="M391.93,495.911H119.978c-2.21,0-3.999-1.789-3.999-3.999c0-2.211,1.789-4,3.999-4h271.951
		c2.211,0,3.999,1.789,3.999,4C395.929,494.122,394.141,495.911,391.93,495.911z"/>
	<path style="fill:#3A3847;" d="M255.954,487.912c-2.21,0-3.999-1.788-3.999-3.999V131.976c0-2.211,1.789-3.999,3.999-3.999
		c2.211,0,3.999,1.788,3.999,3.999v351.937C259.953,486.124,258.165,487.912,255.954,487.912z"/>
	<path style="fill:#3A3847;" d="M119.978,495.911c-2.21,0-3.999-1.789-3.999-3.999V179.968c0-2.211,1.789-3.999,3.999-3.999
		c2.211,0,4,1.788,4,3.999v311.944C123.978,494.122,122.189,495.911,119.978,495.911z"/>
	<path style="fill:#3A3847;" d="M63.989,151.973c-2.211,0-4-1.788-4-3.999c0-37.044,23.699-69.28,58.974-80.212
		c2.156-0.637,4.351,0.531,5.007,2.636c0.656,2.109-0.523,4.352-2.632,5.003c-31.908,9.89-53.35,39.056-53.35,72.573
		C67.988,150.184,66.199,151.973,63.989,151.973z"/>
	<path style="fill:#3A3847;" d="M63.989,431.923c-2.211,0-4-1.789-4-3.999v-279.95c0-2.211,1.789-3.999,4-3.999
		c2.21,0,3.999,1.788,3.999,3.999v279.95C67.988,430.134,66.199,431.923,63.989,431.923z"/>
	<path style="fill:#3A3847;" d="M111.98,431.923H63.989c-2.211,0-4-1.789-4-3.999c0-2.211,1.789-4,4-4h47.991
		c2.21,0,3.999,1.789,3.999,4C115.979,430.134,114.19,431.923,111.98,431.923z"/>
	<path style="fill:#3A3847;" d="M71.987,455.918c-2.21,0-3.999-1.789-3.999-3.999v-15.997c0-2.211,1.789-3.999,3.999-3.999
		c2.211,0,4,1.788,4,3.999v15.997C75.987,454.129,74.198,455.918,71.987,455.918z"/>
	<path style="fill:#3A3847;" d="M111.98,455.918H71.987c-2.21,0-3.999-1.789-3.999-3.999s1.789-3.999,3.999-3.999h39.993
		c2.21,0,3.999,1.789,3.999,3.999S114.19,455.918,111.98,455.918z"/>
	<path style="fill:#3A3847;" d="M87.984,455.918c-2.21,0-3.999-1.789-3.999-3.999v-7.999c0-2.21,1.789-3.999,3.999-3.999
		c2.211,0,4,1.789,4,3.999v7.999C91.984,454.129,90.195,455.918,87.984,455.918z"/>
	<path style="fill:#3A3847;" d="M103.981,455.918c-2.21,0-3.999-1.789-3.999-3.999v-7.999c0-2.21,1.789-3.999,3.999-3.999
		c2.211,0,4,1.789,4,3.999v7.999C107.981,454.129,106.192,455.918,103.981,455.918z"/>
	<path style="fill:#3A3847;" d="M263.953,167.97c-1.461,0-2.875-0.809-3.578-2.21l-7.998-15.997
		c-0.984-1.977-0.188-4.379,1.789-5.366c1.976-0.98,4.375-0.191,5.366,1.788l7.999,15.997c0.984,1.977,0.188,4.379-1.789,5.366
		C265.164,167.833,264.555,167.97,263.953,167.97z"/>
	<path style="fill:#3A3847;" d="M127.977,511.908c-2.211,0-4-1.789-4-3.999v-7.999c0-2.211,1.789-3.999,4-3.999
		c2.21,0,3.999,1.788,3.999,3.999v7.999C131.976,510.119,130.188,511.908,127.977,511.908z"/>
	<path style="fill:#3A3847;" d="M383.932,511.908H127.977c-2.211,0-4-1.789-4-3.999c0-2.211,1.789-3.999,4-3.999h255.954
		c2.21,0,3.999,1.788,3.999,3.999C387.931,510.119,386.142,511.908,383.932,511.908z"/>
	<path style="fill:#3A3847;" d="M383.932,511.908c-2.211,0-4-1.789-4-3.999v-7.999c0-2.211,1.789-3.999,4-3.999
		c2.21,0,3.999,1.788,3.999,3.999v7.999C387.931,510.119,386.142,511.908,383.932,511.908z"/>
	<path style="fill:#3A3847;" d="M359.935,511.908c-2.211,0-3.999-1.789-3.999-3.999v-7.999c0-2.211,1.788-3.999,3.999-3.999
		s3.999,1.788,3.999,3.999v7.999C363.934,510.119,362.146,511.908,359.935,511.908z"/>
	<path style="fill:#3A3847;" d="M343.938,511.908c-2.211,0-3.999-1.789-3.999-3.999v-7.999c0-2.211,1.788-3.999,3.999-3.999
		c2.21,0,3.999,1.788,3.999,3.999v7.999C347.937,510.119,346.148,511.908,343.938,511.908z"/>
	<path style="fill:#3A3847;" d="M327.941,511.908c-2.211,0-4-1.789-4-3.999v-7.999c0-2.211,1.789-3.999,4-3.999
		s3.999,1.788,3.999,3.999v7.999C331.94,510.119,330.152,511.908,327.941,511.908z"/>
	<path style="fill:#3A3847;" d="M311.944,511.908c-2.211,0-3.999-1.789-3.999-3.999v-7.999c0-2.211,1.788-3.999,3.999-3.999
		c2.21,0,3.999,1.788,3.999,3.999v7.999C315.943,510.119,314.154,511.908,311.944,511.908z"/>
	<path style="fill:#3A3847;" d="M295.947,511.908c-2.211,0-4-1.789-4-3.999v-7.999c0-2.211,1.789-3.999,4-3.999
		s3.999,1.788,3.999,3.999v7.999C299.946,510.119,298.158,511.908,295.947,511.908z"/>
	<path style="fill:#3A3847;" d="M279.95,511.908c-2.211,0-3.999-1.789-3.999-3.999v-7.999c0-2.211,1.788-3.999,3.999-3.999
		c2.21,0,3.999,1.788,3.999,3.999v7.999C283.949,510.119,282.16,511.908,279.95,511.908z"/>
	<path style="fill:#3A3847;" d="M263.953,511.908c-2.211,0-4-1.789-4-3.999v-7.999c0-2.211,1.789-3.999,4-3.999
		c2.21,0,3.999,1.788,3.999,3.999v7.999C267.952,510.119,266.163,511.908,263.953,511.908z"/>
	<path style="fill:#3A3847;" d="M247.956,511.908c-2.211,0-4-1.789-4-3.999v-7.999c0-2.211,1.789-3.999,4-3.999
		c2.21,0,3.999,1.788,3.999,3.999v7.999C251.955,510.119,250.166,511.908,247.956,511.908z"/>
	<path style="fill:#3A3847;" d="M231.958,511.908c-2.21,0-4-1.789-4-3.999v-7.999c0-2.211,1.789-3.999,4-3.999s4,1.788,4,3.999
		v7.999C235.958,510.119,234.169,511.908,231.958,511.908z"/>
	<path style="fill:#3A3847;" d="M215.961,511.908c-2.21,0-4-1.789-4-3.999v-7.999c0-2.211,1.789-3.999,4-3.999s4,1.788,4,3.999
		v7.999C219.961,510.119,218.172,511.908,215.961,511.908z"/>
	<path style="fill:#3A3847;" d="M199.964,511.908c-2.21,0-4-1.789-4-3.999v-7.999c0-2.211,1.789-3.999,4-3.999s4,1.788,4,3.999
		v7.999C203.964,510.119,202.175,511.908,199.964,511.908z"/>
	<path style="fill:#3A3847;" d="M183.967,511.908c-2.21,0-4-1.789-4-3.999v-7.999c0-2.211,1.789-3.999,4-3.999s4,1.788,4,3.999
		v7.999C187.967,510.119,186.178,511.908,183.967,511.908z"/>
	<path style="fill:#3A3847;" d="M167.97,511.908c-2.21,0-4-1.789-4-3.999v-7.999c0-2.211,1.789-3.999,4-3.999s4,1.788,4,3.999v7.999
		C171.97,510.119,170.181,511.908,167.97,511.908z"/>
	<path style="fill:#3A3847;" d="M151.973,511.908c-2.21,0-4-1.789-4-3.999v-7.999c0-2.211,1.789-3.999,4-3.999s4,1.788,4,3.999
		v7.999C155.973,510.119,154.183,511.908,151.973,511.908z"/>
	<path style="fill:#3A3847;" d="M247.925,127.977c-0.906,0-90.773-0.848-131.445-74.046c-1.07-1.929-0.375-4.362,1.555-5.437
		c1.921-1.065,4.366-0.387,5.444,1.555c38.344,69.019,123.595,69.929,124.446,69.929c2.21,0.004,3.999,1.793,3.999,4.003
		C251.924,126.188,250.135,127.977,247.925,127.977z"/>
	<path style="fill:#3A3847;" d="M247.925,127.974c-1.672,0-3.227-1.055-3.789-2.727c-0.234-0.695-24.573-69.585-124.462-77.268
		c-2.202-0.168-3.851-2.093-3.679-4.296c0.164-2.21,2.32-3.851,4.288-3.679c54.936,4.226,87.688,26.343,105.489,44.152
		c19.434,19.441,25.69,37.786,25.948,38.56c0.695,2.089-0.438,4.351-2.531,5.05C248.776,127.907,248.346,127.974,247.925,127.974z"
		/>
	<path style="fill:#3A3847;" d="M391.93,495.911c-2.211,0-3.999-1.789-3.999-3.999V179.968c0-2.211,1.788-3.999,3.999-3.999
		s3.999,1.788,3.999,3.999v311.944C395.929,494.122,394.141,495.911,391.93,495.911z"/>
	<path style="fill:#3A3847;" d="M447.92,151.973c-2.211,0-4-1.788-4-3.999c0-33.518-21.441-62.684-53.35-72.573
		c-2.108-0.651-3.288-2.894-2.632-5.003c0.648-2.104,2.851-3.288,5.007-2.636c35.274,10.932,58.974,43.168,58.974,80.212
		C451.919,150.184,450.13,151.973,447.92,151.973z"/>
	<path style="fill:#3A3847;" d="M447.92,431.923c-2.211,0-4-1.789-4-3.999v-279.95c0-2.211,1.789-3.999,4-3.999
		c2.21,0,3.999,1.788,3.999,3.999v279.95C451.919,430.134,450.13,431.923,447.92,431.923z"/>
	<path style="fill:#3A3847;" d="M447.92,431.923h-47.992c-2.21,0-3.999-1.789-3.999-3.999c0-2.211,1.789-4,3.999-4h47.992
		c2.21,0,3.999,1.789,3.999,4C451.919,430.134,450.13,431.923,447.92,431.923z"/>
	<path style="fill:#3A3847;" d="M439.921,455.918c-2.21,0-3.999-1.789-3.999-3.999v-15.997c0-2.211,1.789-3.999,3.999-3.999
		c2.211,0,3.999,1.788,3.999,3.999v15.997C443.92,454.129,442.132,455.918,439.921,455.918z"/>
	<path style="fill:#3A3847;" d="M439.921,455.918h-39.993c-2.21,0-3.999-1.789-3.999-3.999s1.789-3.999,3.999-3.999h39.993
		c2.211,0,3.999,1.789,3.999,3.999S442.132,455.918,439.921,455.918z"/>
	<path style="fill:#3A3847;" d="M423.924,455.918c-2.211,0-3.999-1.789-3.999-3.999v-7.999c0-2.21,1.788-3.999,3.999-3.999
		s4,1.789,4,3.999v7.999C427.924,454.129,426.135,455.918,423.924,455.918z"/>
	<path style="fill:#3A3847;" d="M407.927,455.918c-2.21,0-3.999-1.789-3.999-3.999v-7.999c0-2.21,1.789-3.999,3.999-3.999
		c2.211,0,3.999,1.789,3.999,3.999v7.999C411.926,454.129,410.138,455.918,407.927,455.918z"/>
	<path style="fill:#3A3847;" d="M263.953,127.977c-2.211,0-4-1.789-4-3.996c0-2.21,1.789-3.999,4-4.003
		c0.852,0,86.133-0.91,124.478-69.929c1.077-1.941,3.522-2.628,5.444-1.555c1.929,1.074,2.624,3.508,1.555,5.437
		C354.757,127.13,264.859,127.977,263.953,127.977z"/>
	<path style="fill:#3A3847;" d="M263.953,127.977c-0.422,0-0.844-0.066-1.266-0.207c-2.094-0.695-3.227-2.961-2.531-5.058
		c0.258-0.77,6.522-19.114,25.965-38.556c17.809-17.81,50.568-39.927,105.504-44.152c1.992-0.219,4.124,1.469,4.288,3.679
		c0.172,2.203-1.476,4.128-3.679,4.296c-100.17,7.706-124.259,76.568-124.485,77.264
		C267.186,126.919,265.625,127.977,263.953,127.977z"/>
	<path style="fill:#3A3847;" d="M391.93,47.991c-2.211,0-3.999-1.788-3.999-3.999c0-12.552-38.712-35.993-131.977-35.993
		c-93.264,0-131.976,23.441-131.976,35.993c0,2.211-1.789,3.999-4,3.999c-2.21,0-3.999-1.788-3.999-3.999
		C115.979,22.133,164.056,0,255.954,0s139.975,22.133,139.975,43.992C395.929,46.203,394.141,47.991,391.93,47.991z"/>
	<path style="fill:#3A3847;" d="M367.793,43.047c-0.671,0-1.343-0.164-1.968-0.516c-9.873-5.573-40.352-18.535-109.871-18.535
		c-69.378,0-99.865,12.928-109.753,18.484c-1.914,1.078-4.359,0.398-5.444-1.526c-1.085-1.926-0.398-4.366,1.523-5.448
		c12.966-7.284,44.968-19.509,113.674-19.509c68.847,0,100.849,12.26,113.808,19.567c1.922,1.086,2.602,3.526,1.516,5.448
		C370.543,42.317,369.183,43.047,367.793,43.047z"/>
	<path style="fill:#3A3847;" d="M287.948,183.967c-2.21,0-3.999-1.788-3.999-3.999v-47.991c0-2.211,1.789-3.999,3.999-3.999
		c2.211,0,3.999,1.788,3.999,3.999v47.991C291.947,182.179,290.159,183.967,287.948,183.967z"/>
	<path style="fill:#3A3847;" d="M223.96,183.967c-2.21,0-3.999-1.788-3.999-3.999v-47.991c0-2.211,1.789-3.999,3.999-3.999
		c2.211,0,3.999,1.788,3.999,3.999v47.991C227.959,182.179,226.171,183.967,223.96,183.967z"/>
	<path style="fill:#3A3847;" d="M387.415,391.93c-1.461,0-2.874-0.812-3.577-2.211l-31.994-63.988
		c-0.984-1.976-0.188-4.382,1.788-5.366c1.984-0.983,4.374-0.188,5.366,1.789l31.994,63.988c0.984,1.977,0.188,4.382-1.789,5.366
		C388.626,391.789,388.016,391.93,387.415,391.93z"/>
	<path style="fill:#3A3847;" d="M131.461,391.93c-0.602,0-1.21-0.141-1.789-0.422c-1.976-0.984-2.773-3.39-1.789-5.366
		l31.994-63.988c0.992-1.977,3.397-2.765,5.366-1.789c1.976,0.984,2.773,3.391,1.789,5.366l-31.994,63.988
		C134.336,391.117,132.922,391.93,131.461,391.93z"/>
</g>
<g>
</g>
<g>
</g>
<g>
</g>
<g>
</g>
<g>
</g>
<g>
</g>
<g>
</g>
<g>
</g>
<g>
</g>
<g>
</g>
<g>
</g>
<g>
</g>
<g>
</g>
<g>
</g>
<g>
</g>
</svg>
