<?xml version="1.0" encoding="iso-8859-1"?>
<!-- Generator: Adobe Illustrator 19.0.0, SVG Export Plug-In . SVG Version: 6.00 Build 0)  -->
<svg version="1.1" id="Capa_1" xmlns="http://www.w3.org/2000/svg" xmlns:xlink="http://www.w3.org/1999/xlink" x="0px" y="0px"
	 viewBox="0 0 511.908 511.908" style="enable-background:new 0 0 511.908 511.908;" xml:space="preserve">
<polygon style="fill:#5D9CEC;" points="299.946,35.994 255.954,199.405 211.961,35.994 "/>
<g style="opacity:0.2;">
	<polygon points="299.946,35.994 255.954,199.405 211.961,35.994 	"/>
</g>
<path style="fill:#E6E9ED;" d="M255.954,199.405l43.992-163.411h-87.985L255.954,199.405z M323.94,51.991l15.998,7.998
	l-87.984,191.966h-7.999v-7.999l4.878-18.156l-1.039-0.32L171.968,59.99l15.997-7.998l-7.999-7.999c0,0,23.996-39.992,31.994-39.992
	h87.985c7.998,0,31.994,39.992,31.994,39.992L323.94,51.991z"/>
<g style="opacity:0.2;">
	<path d="M323.94,51.991l8-7.999c0,0-23.996-39.992-31.994-39.992h-15.998c7.998,0,31.994,39.992,31.994,39.992l-7.998,7.999
		l14.014,12.665l-78.002,179.3v7.999h7.998l87.984-191.966L323.94,51.991z"/>
</g>
<path style="fill:#FFFFFF;" d="M187.965,63.657l15.997-11.666l-7.999-7.999c0,0,23.996-39.992,31.994-39.992h-15.997
	c-7.998,0-31.994,39.992-31.994,39.992l7.999,7.999l-15.997,7.998l75.826,165.49l1.039,0.32l2.839-10.561L187.965,63.657z"/>
<path style="fill:#5D9CEC;" d="M379.931,459.918v47.991h-15.997c-46.711,0-87.109-26.558-106.859-65.426
	c-8.401-16.403-13.119-34.955-13.119-54.553V251.955h7.998l87.984-191.966h39.992c23.199,0,47.992,29.437,47.992,55.99v311.945
	v31.994H379.931z"/>
<path style="fill:#4A89DC;" d="M247.795,225.479l1.039,0.32l-4.878,18.156v7.999V387.93c0,19.598,4.718,38.149,13.119,54.553
	l-0.082,0.078l-10.479,13.841c-21.676,31.189-57.748,51.507-98.541,51.507h-15.997v-47.991H83.985v-31.994V107.98
	c0-26.554,24.714-47.991,47.991-47.991h39.993L247.795,225.479z"/>
<g style="opacity:0.3;">
	<path style="fill:#FFFFFF;" d="M99.982,107.98c0-26.554,24.714-47.991,47.991-47.991h-15.997
		c-23.277,0-47.991,21.438-47.991,47.991v319.944v31.994h15.997v-31.994C99.982,427.924,99.982,107.98,99.982,107.98z"/>
	<rect x="131.974" y="179.964" style="fill:#FFFFFF;" width="15.997" height="327.94"/>
</g>
<g style="opacity:0.2;">
	<path d="M411.925,107.98c0-26.554-24.713-47.991-47.99-47.991h15.996c23.277,0,47.992,21.438,47.992,47.991v319.944v31.994h-15.998
		v-31.994L411.925,107.98L411.925,107.98z"/>
	<rect x="363.934" y="179.964" width="15.996" height="327.94"/>
</g>
<g style="opacity:0.2;">
	<rect x="123.974" y="179.964" width="7.999" height="279.95"/>
</g>
<g style="opacity:0.2;">
	<rect x="379.934" y="179.964" width="8" height="279.95"/>
</g>
<g>
	<path style="fill:#3A3847;" d="M260.19,279.95c-2.205,0-4.038-1.789-4.038-3.999c0-2.211,1.75-4,3.959-4h0.078
		c2.211,0,3.996,1.789,3.996,4C264.186,278.161,262.401,279.95,260.19,279.95z"/>
	<path style="fill:#3A3847;" d="M260.19,343.938c-2.205,0-4.038-1.789-4.038-3.999c0-2.211,1.75-4,3.959-4h0.078
		c2.211,0,3.996,1.789,3.996,4C264.186,342.149,262.401,343.938,260.19,343.938z"/>
	<path style="fill:#3A3847;" d="M92.222,447.92c-2.207,0-4.039-1.789-4.039-4c0-2.21,1.75-3.999,3.96-3.999h0.078
		c2.21,0,4,1.789,4,3.999C96.221,446.131,94.432,447.92,92.222,447.92z"/>
	<path style="fill:#3A3847;" d="M420.159,447.92c-2.203,0-4.031-1.789-4.031-4c0-2.21,1.75-3.999,3.953-3.999h0.078
		c2.217,0,3.998,1.789,3.998,3.999C424.157,446.131,422.376,447.92,420.159,447.92z"/>
	<path style="fill:#3A3847;" d="M299.946,7.999h-87.985c-2.21,0-3.999-1.789-3.999-3.999c0-2.211,1.789-4,3.999-4h87.985
		c2.211,0,3.998,1.789,3.998,4C303.944,6.21,302.157,7.999,299.946,7.999z"/>
	<path style="fill:#3A3847;" d="M331.94,47.991c-1.359,0-2.68-0.69-3.43-1.94c-10.475-17.458-24.551-36.923-28.814-38.075
		c-2.203,0-3.875-1.781-3.875-3.987c0-2.211,1.914-3.988,4.125-3.988c8.482,0,23.949,22.805,35.422,41.935
		c1.133,1.894,0.523,4.351-1.365,5.487C333.354,47.808,332.643,47.991,331.94,47.991z"/>
	<path style="fill:#3A3847;" d="M339.938,63.989c-0.609,0-1.219-0.137-1.789-0.422l-15.996-7.999
		c-1.977-0.988-2.773-3.39-1.789-5.366s3.391-2.772,5.365-1.789l15.998,7.999c1.977,0.988,2.773,3.39,1.789,5.366
		C342.813,63.181,341.407,63.989,339.938,63.989z"/>
	<path style="fill:#3A3847;" d="M251.951,255.954c-0.555,0-1.121-0.117-1.664-0.363c-2.007-0.922-2.89-3.296-1.968-5.304
		l87.979-191.965c0.922-2.004,3.281-2.875,5.312-1.969c2,0.922,2.891,3.296,1.969,5.304L255.59,253.622
		C254.918,255.091,253.465,255.954,251.951,255.954z"/>
	<path style="fill:#3A3847;" d="M299.946,39.993h-87.985c-2.21,0-3.999-1.789-3.999-3.999c0-2.211,1.789-4,3.999-4h87.985
		c2.211,0,3.998,1.789,3.998,4C303.944,38.204,302.157,39.993,299.946,39.993z"/>
	<path style="fill:#3A3847;" d="M243.96,247.956c-0.348,0-0.695-0.043-1.043-0.137c-2.132-0.574-3.398-2.77-2.824-4.902
		l55.994-207.962c0.57-2.141,2.789-3.402,4.898-2.824c2.131,0.574,3.396,2.77,2.818,4.901l-55.985,207.963
		C247.338,246.78,245.721,247.956,243.96,247.956z"/>
	<path style="fill:#3A3847;" d="M243.956,391.93c-2.21,0-4-1.789-4-3.999V243.956c0-2.21,1.789-3.999,4-3.999s4,1.789,4,3.999
		v143.975C247.955,390.141,246.166,391.93,243.956,391.93z"/>
	<path style="fill:#3A3847;" d="M363.934,511.908c-68.363,0-123.978-55.615-123.978-123.978c0-2.211,1.789-3.999,4-3.999
		s4,1.788,4,3.999c0,63.949,52.03,115.979,115.979,115.979c2.211,0,3.998,1.788,3.998,3.999S366.145,511.908,363.934,511.908z"/>
	<path style="fill:#3A3847;" d="M379.931,511.908c-2.209,0-3.998-1.789-3.998-3.999V179.968c0-2.211,1.789-3.999,3.998-3.999
		c2.211,0,4,1.788,4,3.999v327.941C383.931,510.119,382.142,511.908,379.931,511.908z"/>
	<path style="fill:#3A3847;" d="M379.931,511.908h-15.997c-2.211,0-4-1.789-4-3.999c0-2.211,1.789-3.999,4-3.999h15.996
		c2.211,0,4,1.788,4,3.999C383.931,510.119,382.142,511.908,379.931,511.908z"/>
	<path style="fill:#3A3847;" d="M427.923,463.917h-39.992c-2.211,0-4-1.789-4-3.999c0-2.211,1.789-4,4-4h39.992c2.211,0,4,1.789,4,4
		C431.923,462.128,430.134,463.917,427.923,463.917z"/>
	<path style="fill:#3A3847;" d="M427.923,463.917c-2.211,0-4-1.789-4-3.999V115.979c0-2.211,1.789-3.999,4-3.999s4,1.788,4,3.999
		v343.938C431.923,462.128,430.134,463.917,427.923,463.917z"/>
	<path style="fill:#3A3847;" d="M427.923,119.978c-2.211,0-4-1.789-4-3.999c0-24.781-23.027-51.99-43.992-51.99
		c-2.209,0-3.998-1.789-3.998-4c0-2.21,1.789-3.999,3.998-3.999c25.262,0,51.992,30.834,51.992,59.989
		C431.923,118.189,430.134,119.978,427.923,119.978z"/>
	<path style="fill:#3A3847;" d="M379.931,63.989h-23.994c-2.211,0-4-1.789-4-4c0-2.21,1.789-3.999,4-3.999h23.994
		c2.211,0,4,1.789,4,3.999C383.931,62.2,382.142,63.989,379.931,63.989z"/>
	<path style="fill:#3A3847;" d="M147.973,511.908c-2.21,0-3.999-1.789-3.999-3.999c0-2.211,1.789-3.999,3.999-3.999
		c37.966,0,73.581-18.606,95.264-49.773c1.261-1.827,3.75-2.265,5.569-0.999c1.812,1.257,2.261,3.749,1,5.562
		C226.623,492.021,188.556,511.908,147.973,511.908z"/>
	<path style="fill:#3A3847;" d="M131.976,511.908c-2.21,0-3.999-1.789-3.999-3.999V179.968c0-2.211,1.789-3.999,3.999-3.999
		c2.211,0,3.999,1.788,3.999,3.999v327.941C135.975,510.119,134.187,511.908,131.976,511.908z"/>
	<path style="fill:#3A3847;" d="M147.973,511.908h-15.997c-2.21,0-3.999-1.789-3.999-3.999c0-2.211,1.789-3.999,3.999-3.999h15.997
		c2.211,0,4,1.788,4,3.999C151.973,510.119,150.184,511.908,147.973,511.908z"/>
	<path style="fill:#3A3847;" d="M123.977,463.917H83.985c-2.211,0-3.999-1.789-3.999-3.999c0-2.211,1.788-4,3.999-4h39.993
		c2.21,0,4,1.789,4,4C127.977,462.128,126.188,463.917,123.977,463.917z"/>
	<path style="fill:#3A3847;" d="M83.985,463.917c-2.211,0-3.999-1.789-3.999-3.999V107.98c0-2.21,1.788-3.999,3.999-3.999
		c2.21,0,3.999,1.789,3.999,3.999v351.938C87.984,462.128,86.195,463.917,83.985,463.917z"/>
	<path style="fill:#3A3847;" d="M83.985,111.98c-2.211,0-3.999-1.789-3.999-4c0-29.756,27.448-51.99,51.99-51.99
		c2.211,0,3.999,1.789,3.999,3.999c0,2.211-1.788,4-3.999,4c-20.344,0-43.992,19.215-43.992,43.991
		C87.984,110.191,86.195,111.98,83.985,111.98z"/>
	<path style="fill:#3A3847;" d="M155.972,63.989h-23.996c-2.21,0-3.999-1.789-3.999-4c0-2.21,1.789-3.999,3.999-3.999h23.996
		c2.21,0,3.999,1.789,3.999,3.999C159.971,62.2,158.182,63.989,155.972,63.989z"/>
	<path style="fill:#3A3847;" d="M179.963,47.991c-0.699,0-1.41-0.184-2.054-0.569c-1.894-1.137-2.507-3.594-1.371-5.487
		C188.017,22.805,203.478,0,211.961,0c2.211,0,4,1.789,4,4c0,2.147-1.695,3.901-3.82,3.995c-4.343,1.34-18.324,20.691-28.745,38.056
		C182.646,47.301,181.323,47.991,179.963,47.991z"/>
	<path style="fill:#3A3847;" d="M171.973,63.989c-1.469,0-2.879-0.809-3.582-2.211c-0.988-1.977-0.187-4.378,1.789-5.366
		l15.997-7.999c1.984-0.983,4.374-0.188,5.366,1.789c0.988,1.977,0.188,4.378-1.789,5.366l-15.998,7.999
		C173.183,63.852,172.574,63.989,171.973,63.989z"/>
	<path style="fill:#3A3847;" d="M238.098,208.252c-1.515,0-2.968-0.863-3.64-2.332L168.332,61.657
		c-0.921-2.008-0.039-4.382,1.969-5.304c2.039-0.906,4.39-0.035,5.304,1.969l66.125,144.263c0.922,2.008,0.039,4.382-1.969,5.304
		C239.218,208.135,238.652,208.252,238.098,208.252z"/>
	<path style="fill:#3A3847;" d="M247.651,172.578c-1.762,0-3.379-1.175-3.859-2.96L208.099,37.032
		c-0.574-2.132,0.691-4.327,2.824-4.901c2.121-0.582,4.328,0.691,4.901,2.824l35.693,132.585c0.574,2.133-0.691,4.328-2.824,4.901
		C248.346,172.535,247.995,172.578,247.651,172.578z"/>
	<path style="fill:#3A3847;" d="M427.923,431.923h-15.998c-2.209,0-3.998-1.789-3.998-3.999c0-2.211,1.789-4,3.998-4h15.998
		c2.211,0,4,1.789,4,4C431.923,430.134,430.134,431.923,427.923,431.923z"/>
	<path style="fill:#3A3847;" d="M99.982,431.923H83.985c-2.211,0-3.999-1.789-3.999-3.999c0-2.211,1.788-4,3.999-4h15.997
		c2.21,0,3.999,1.789,3.999,4C103.981,430.134,102.192,431.923,99.982,431.923z"/>
</g>
<g>
</g>
<g>
</g>
<g>
</g>
<g>
</g>
<g>
</g>
<g>
</g>
<g>
</g>
<g>
</g>
<g>
</g>
<g>
</g>
<g>
</g>
<g>
</g>
<g>
</g>
<g>
</g>
<g>
</g>
</svg>
