<?xml version="1.0" encoding="iso-8859-1"?>
<!-- Generator: Adobe Illustrator 19.0.0, SVG Export Plug-In . SVG Version: 6.00 Build 0)  -->
<svg version="1.1" id="Capa_1" xmlns="http://www.w3.org/2000/svg" xmlns:xlink="http://www.w3.org/1999/xlink" x="0px" y="0px"
	 viewBox="0 0 511.908 511.908" style="enable-background:new 0 0 511.908 511.908;" xml:space="preserve">
<polygon style="fill:#656D78;" points="439.921,427.947 439.921,451.942 423.924,451.942 407.927,451.942 391.93,451.942 
	391.93,427.947 "/>
<path style="fill:#FC6E51;" d="M327.941,16.02c0,6.64-32.229,11.998-71.987,11.998c-39.75,0-71.987-5.358-71.987-11.998
	c0-6.639,32.236-11.997,71.987-11.997C295.713,4.023,327.941,9.382,327.941,16.02z"/>
<g style="opacity:0.2;">
	<path d="M327.941,16.02c0,6.64-32.229,11.998-71.987,11.998c-39.75,0-71.987-5.358-71.987-11.998
		c0-6.639,32.236-11.997,71.987-11.997C295.713,4.023,327.941,9.382,327.941,16.02z"/>
</g>
<g>
	<polygon style="fill:#656D78;" points="119.978,427.947 119.978,451.942 103.981,451.942 87.984,451.942 71.987,451.942 
		71.987,427.947 	"/>
	<polygon style="fill:#656D78;" points="127.977,491.935 255.954,491.935 383.932,491.935 383.932,507.933 359.935,507.933 
		343.938,507.933 327.941,507.933 311.944,507.933 295.947,507.933 279.95,507.933 263.953,507.933 247.956,507.933 
		231.958,507.933 215.961,507.933 199.964,507.933 183.967,507.933 167.97,507.933 151.973,507.933 127.977,507.933 	"/>
</g>
<path style="fill:#FC6E51;" d="M367.933,52.015h-31.994c-4.483,0-7.998-3.602-7.998-7.999V16.02c0,6.64-32.229,11.998-71.987,11.998
	c-39.75,0-71.987-5.358-71.987-11.998v27.995c0,4.397-3.597,7.999-7.999,7.999h-31.994c-44.312,0-79.985,35.673-79.985,79.985
	v295.947h7.998h47.991v23.995v39.993h7.999h127.977h127.978h7.998v-39.993v-23.995h47.991h7.999V132
	C447.92,87.687,412.168,52.015,367.933,52.015z"/>
<g style="opacity:0.3;">
	<polygon style="fill:#FFFFFF;" points="135.975,163.994 119.978,163.994 119.978,451.942 119.978,491.935 127.977,491.935 
		135.975,491.935 135.975,451.942 	"/>
	<path style="fill:#FFFFFF;" d="M159.972,52.015h-15.997C99.663,52.015,63.99,87.688,63.99,132v295.947h7.998h7.999V132
		C79.986,87.687,115.659,52.015,159.972,52.015z"/>
</g>
<g style="opacity:0.3;">
	<polygon style="fill:#FFFFFF;" points="375.933,163.994 391.93,163.994 391.93,451.942 391.93,491.935 383.932,491.935 
		375.933,491.935 375.933,451.942 	"/>
	<path style="fill:#FFFFFF;" d="M351.937,52.015h15.996c44.312,0,79.986,35.673,79.986,79.985v295.947h-7.999h-7.998V132
		C431.923,87.687,396.249,52.015,351.937,52.015z"/>
</g>
<g style="opacity:0.2;">
	<rect x="111.984" y="163.994" width="7.998" height="287.95"/>
</g>
<g style="opacity:0.2;">
	<rect x="391.934" y="163.994" width="7.998" height="287.95"/>
</g>
<g style="opacity:0.2;">
	<rect x="127.974" y="491.934" width="255.95" height="7.998"/>
</g>
<g style="opacity:0.2;">
	<rect x="71.984" y="435.944" style="fill:#FFFFFF;" width="15.997" height="15.997"/>
</g>
<g style="opacity:0.2;">
	<rect x="423.924" y="435.944" width="15.997" height="15.997"/>
</g>
<g style="opacity:0.2;">
	<rect x="71.984" y="427.944" width="39.993" height="7.998"/>
</g>
<g style="opacity:0.2;">
	<rect x="399.924" y="427.944" width="39.993" height="7.998"/>
</g>
<g style="opacity:0.2;">
	<rect x="127.974" y="499.934" style="fill:#FFFFFF;" width="15.97" height="7.999"/>
</g>
<g style="opacity:0.2;">
	<rect x="367.954" y="499.934" width="15.967" height="7.999"/>
</g>
<g style="opacity:0.3;">
	<path style="fill:#FFFFFF;" d="M247.956,27.94v463.995h7.998V28.018C253.248,28.018,250.584,27.987,247.956,27.94z"/>
</g>
<g>
	<path style="fill:#3A3847;" d="M391.93,495.911H119.978c-2.21,0-3.999-1.789-3.999-3.999c0-2.211,1.789-4,3.999-4h271.951
		c2.211,0,3.999,1.789,3.999,4C395.929,494.122,394.141,495.911,391.93,495.911z"/>
	<path style="fill:#3A3847;" d="M183.967,47.991c-2.21,0-4-1.788-4-3.999V15.997c0-2.21,1.789-3.999,4-3.999s4,1.789,4,3.999v27.995
		C187.967,46.203,186.178,47.991,183.967,47.991z"/>
	<path style="fill:#3A3847;" d="M327.941,47.991c-2.211,0-4-1.788-4-3.999V15.997c0-2.21,1.789-3.999,4-3.999
		s3.999,1.789,3.999,3.999v27.995C331.94,46.203,330.152,47.991,327.941,47.991z"/>
	<path style="fill:#3A3847;" d="M255.954,31.994c-12.689,0-75.986-0.769-75.986-15.997S243.265,0,255.954,0
		c12.686,0,75.986,0.77,75.986,15.997C331.94,31.225,268.64,31.994,255.954,31.994z M188.908,15.997
		c5.608,3.145,28.233,7.999,67.046,7.999s61.442-4.854,67.051-7.999c-5.608-3.144-28.237-7.998-67.051-7.998
		S194.516,12.853,188.908,15.997z"/>
	<path style="fill:#3A3847;" d="M255.954,487.912c-2.21,0-3.999-1.788-3.999-3.999V35.994c0-2.211,1.789-4,3.999-4
		c2.211,0,3.999,1.789,3.999,4v447.919C259.953,486.124,258.165,487.912,255.954,487.912z"/>
	<path style="fill:#3A3847;" d="M335.939,55.99c-6.615,0-11.998-5.382-11.998-11.998c0-2.21,1.789-3.999,4-3.999
		s3.999,1.789,3.999,3.999c0,2.207,1.797,3.999,3.999,3.999c2.211,0,4,1.789,4,4C339.939,54.201,338.15,55.99,335.939,55.99z"/>
	<path style="fill:#3A3847;" d="M175.969,55.99c-2.211,0-3.999-1.789-3.999-3.999c0-2.211,1.788-4,3.999-4
		c2.207,0,3.999-1.792,3.999-3.999c0-2.21,1.789-3.999,4-3.999s4,1.789,4,3.999C187.967,50.608,182.585,55.99,175.969,55.99z"/>
	<path style="fill:#3A3847;" d="M119.978,495.911c-2.21,0-3.999-1.789-3.999-3.999V163.971c0-2.211,1.789-3.999,3.999-3.999
		c2.211,0,4,1.788,4,3.999v327.941C123.978,494.122,122.189,495.911,119.978,495.911z"/>
	<path style="fill:#3A3847;" d="M63.989,135.975c-2.211,0-4-1.788-4-3.999c0-46.308,37.677-83.985,83.985-83.985
		c2.21,0,3.999,1.789,3.999,4c0,2.21-1.789,3.999-3.999,3.999c-41.899,0-75.986,34.088-75.986,75.986
		C67.988,134.187,66.199,135.975,63.989,135.975z"/>
	<path style="fill:#3A3847;" d="M175.969,55.99h-31.994c-2.211,0-4-1.789-4-3.999c0-2.211,1.789-4,4-4h31.994
		c2.21,0,3.999,1.789,3.999,4C179.968,54.201,178.179,55.99,175.969,55.99z"/>
	<path style="fill:#3A3847;" d="M63.989,431.923c-2.211,0-4-1.789-4-3.999V131.976c0-2.211,1.789-3.999,4-3.999
		c2.21,0,3.999,1.788,3.999,3.999v295.948C67.988,430.134,66.199,431.923,63.989,431.923z"/>
	<path style="fill:#3A3847;" d="M111.98,431.923H63.989c-2.211,0-4-1.789-4-3.999c0-2.211,1.789-4,4-4h47.991
		c2.21,0,3.999,1.789,3.999,4C115.979,430.134,114.19,431.923,111.98,431.923z"/>
	<path style="fill:#3A3847;" d="M71.987,455.918c-2.21,0-3.999-1.789-3.999-3.999v-15.997c0-2.211,1.789-3.999,3.999-3.999
		c2.211,0,4,1.788,4,3.999v15.997C75.987,454.129,74.198,455.918,71.987,455.918z"/>
	<path style="fill:#3A3847;" d="M111.98,455.918H71.987c-2.21,0-3.999-1.789-3.999-3.999s1.789-3.999,3.999-3.999h39.993
		c2.21,0,3.999,1.789,3.999,3.999S114.19,455.918,111.98,455.918z"/>
	<path style="fill:#3A3847;" d="M87.984,455.918c-2.21,0-3.999-1.789-3.999-3.999v-7.999c0-2.21,1.789-3.999,3.999-3.999
		c2.211,0,4,1.789,4,3.999v7.999C91.984,454.129,90.195,455.918,87.984,455.918z"/>
	<path style="fill:#3A3847;" d="M103.981,455.918c-2.21,0-3.999-1.789-3.999-3.999v-7.999c0-2.21,1.789-3.999,3.999-3.999
		c2.211,0,4,1.789,4,3.999v7.999C107.981,454.129,106.192,455.918,103.981,455.918z"/>
	<path style="fill:#3A3847;" d="M391.93,495.911c-2.211,0-3.999-1.789-3.999-3.999V163.971c0-2.211,1.788-3.999,3.999-3.999
		s3.999,1.788,3.999,3.999v327.941C395.929,494.122,394.141,495.911,391.93,495.911z"/>
	<path style="fill:#3A3847;" d="M447.92,135.975c-2.211,0-4-1.788-4-3.999c0-41.898-34.087-75.986-75.986-75.986
		c-2.21,0-3.999-1.789-3.999-3.999c0-2.211,1.789-4,3.999-4c46.312,0,83.985,37.678,83.985,83.985
		C451.919,134.187,450.13,135.975,447.92,135.975z"/>
	<path style="fill:#3A3847;" d="M367.933,55.99h-31.994c-2.21,0-3.999-1.789-3.999-3.999c0-2.211,1.789-4,3.999-4h31.994
		c2.211,0,4,1.789,4,4C371.933,54.201,370.144,55.99,367.933,55.99z"/>
	<path style="fill:#3A3847;" d="M447.92,431.923c-2.211,0-4-1.789-4-3.999V131.976c0-2.211,1.789-3.999,4-3.999
		c2.21,0,3.999,1.788,3.999,3.999v295.948C451.919,430.134,450.13,431.923,447.92,431.923z"/>
	<path style="fill:#3A3847;" d="M447.92,431.923h-47.992c-2.21,0-3.999-1.789-3.999-3.999c0-2.211,1.789-4,3.999-4h47.992
		c2.21,0,3.999,1.789,3.999,4C451.919,430.134,450.13,431.923,447.92,431.923z"/>
	<path style="fill:#3A3847;" d="M439.921,455.918c-2.21,0-3.999-1.789-3.999-3.999v-15.997c0-2.211,1.789-3.999,3.999-3.999
		c2.211,0,3.999,1.788,3.999,3.999v15.997C443.92,454.129,442.132,455.918,439.921,455.918z"/>
	<path style="fill:#3A3847;" d="M439.921,455.918h-39.993c-2.21,0-3.999-1.789-3.999-3.999s1.789-3.999,3.999-3.999h39.993
		c2.211,0,3.999,1.789,3.999,3.999S442.132,455.918,439.921,455.918z"/>
	<path style="fill:#3A3847;" d="M423.924,455.918c-2.211,0-3.999-1.789-3.999-3.999v-7.999c0-2.21,1.788-3.999,3.999-3.999
		s4,1.789,4,3.999v7.999C427.924,454.129,426.135,455.918,423.924,455.918z"/>
	<path style="fill:#3A3847;" d="M407.927,455.918c-2.21,0-3.999-1.789-3.999-3.999v-7.999c0-2.21,1.789-3.999,3.999-3.999
		c2.211,0,3.999,1.789,3.999,3.999v7.999C411.926,454.129,410.138,455.918,407.927,455.918z"/>
	<path style="fill:#3A3847;" d="M431.923,407.927c-2.211,0-3.999-1.788-3.999-3.999V131.976c0-2.211,1.788-3.999,3.999-3.999
		c2.21,0,3.999,1.788,3.999,3.999v271.951C435.922,406.139,434.133,407.927,431.923,407.927z"/>
	<path style="fill:#3A3847;" d="M79.986,407.927c-2.211,0-4-1.788-4-3.999V131.976c0-2.211,1.789-3.999,4-3.999
		c2.21,0,3.999,1.788,3.999,3.999v271.951C83.985,406.139,82.196,407.927,79.986,407.927z"/>
	<path style="fill:#3A3847;" d="M263.953,63.989c-1.461,0-2.875-0.809-3.578-2.211l-7.998-15.997
		c-0.988-1.977-0.188-4.378,1.789-5.366c1.972-0.98,4.375-0.188,5.366,1.789l7.999,15.997c0.984,1.976,0.188,4.378-1.789,5.366
		C265.164,63.852,264.555,63.989,263.953,63.989z"/>
	<path style="fill:#3A3847;" d="M127.977,511.908c-2.211,0-4-1.789-4-3.999v-7.999c0-2.211,1.789-3.999,4-3.999
		c2.21,0,3.999,1.788,3.999,3.999v7.999C131.976,510.119,130.188,511.908,127.977,511.908z"/>
	<path style="fill:#3A3847;" d="M383.932,511.908H127.977c-2.211,0-4-1.789-4-3.999c0-2.211,1.789-3.999,4-3.999h255.954
		c2.21,0,3.999,1.788,3.999,3.999C387.931,510.119,386.142,511.908,383.932,511.908z"/>
	<path style="fill:#3A3847;" d="M383.932,511.908c-2.211,0-4-1.789-4-3.999v-7.999c0-2.211,1.789-3.999,4-3.999
		c2.21,0,3.999,1.788,3.999,3.999v7.999C387.931,510.119,386.142,511.908,383.932,511.908z"/>
	<path style="fill:#3A3847;" d="M359.935,511.908c-2.211,0-3.999-1.789-3.999-3.999v-7.999c0-2.211,1.788-3.999,3.999-3.999
		s3.999,1.788,3.999,3.999v7.999C363.934,510.119,362.146,511.908,359.935,511.908z"/>
	<path style="fill:#3A3847;" d="M343.938,511.908c-2.211,0-3.999-1.789-3.999-3.999v-7.999c0-2.211,1.788-3.999,3.999-3.999
		c2.21,0,3.999,1.788,3.999,3.999v7.999C347.937,510.119,346.148,511.908,343.938,511.908z"/>
	<path style="fill:#3A3847;" d="M327.941,511.908c-2.211,0-4-1.789-4-3.999v-7.999c0-2.211,1.789-3.999,4-3.999
		s3.999,1.788,3.999,3.999v7.999C331.94,510.119,330.152,511.908,327.941,511.908z"/>
	<path style="fill:#3A3847;" d="M311.944,511.908c-2.211,0-3.999-1.789-3.999-3.999v-7.999c0-2.211,1.788-3.999,3.999-3.999
		c2.21,0,3.999,1.788,3.999,3.999v7.999C315.943,510.119,314.154,511.908,311.944,511.908z"/>
	<path style="fill:#3A3847;" d="M295.947,511.908c-2.211,0-4-1.789-4-3.999v-7.999c0-2.211,1.789-3.999,4-3.999
		s3.999,1.788,3.999,3.999v7.999C299.946,510.119,298.158,511.908,295.947,511.908z"/>
	<path style="fill:#3A3847;" d="M279.95,511.908c-2.211,0-3.999-1.789-3.999-3.999v-7.999c0-2.211,1.788-3.999,3.999-3.999
		c2.21,0,3.999,1.788,3.999,3.999v7.999C283.949,510.119,282.16,511.908,279.95,511.908z"/>
	<path style="fill:#3A3847;" d="M263.953,511.908c-2.211,0-4-1.789-4-3.999v-7.999c0-2.211,1.789-3.999,4-3.999
		c2.21,0,3.999,1.788,3.999,3.999v7.999C267.952,510.119,266.163,511.908,263.953,511.908z"/>
	<path style="fill:#3A3847;" d="M247.956,511.908c-2.211,0-4-1.789-4-3.999v-7.999c0-2.211,1.789-3.999,4-3.999
		c2.21,0,3.999,1.788,3.999,3.999v7.999C251.955,510.119,250.166,511.908,247.956,511.908z"/>
	<path style="fill:#3A3847;" d="M231.958,511.908c-2.21,0-4-1.789-4-3.999v-7.999c0-2.211,1.789-3.999,4-3.999s4,1.788,4,3.999
		v7.999C235.958,510.119,234.169,511.908,231.958,511.908z"/>
	<path style="fill:#3A3847;" d="M215.961,511.908c-2.21,0-4-1.789-4-3.999v-7.999c0-2.211,1.789-3.999,4-3.999s4,1.788,4,3.999
		v7.999C219.961,510.119,218.172,511.908,215.961,511.908z"/>
	<path style="fill:#3A3847;" d="M199.964,511.908c-2.21,0-4-1.789-4-3.999v-7.999c0-2.211,1.789-3.999,4-3.999s4,1.788,4,3.999
		v7.999C203.964,510.119,202.175,511.908,199.964,511.908z"/>
	<path style="fill:#3A3847;" d="M183.967,511.908c-2.21,0-4-1.789-4-3.999v-7.999c0-2.211,1.789-3.999,4-3.999s4,1.788,4,3.999
		v7.999C187.967,510.119,186.178,511.908,183.967,511.908z"/>
	<path style="fill:#3A3847;" d="M167.97,511.908c-2.21,0-4-1.789-4-3.999v-7.999c0-2.211,1.789-3.999,4-3.999s4,1.788,4,3.999v7.999
		C171.97,510.119,170.181,511.908,167.97,511.908z"/>
	<path style="fill:#3A3847;" d="M151.973,511.908c-2.21,0-4-1.789-4-3.999v-7.999c0-2.211,1.789-3.999,4-3.999s4,1.788,4,3.999
		v7.999C155.973,510.119,154.183,511.908,151.973,511.908z"/>
</g>
<g>
</g>
<g>
</g>
<g>
</g>
<g>
</g>
<g>
</g>
<g>
</g>
<g>
</g>
<g>
</g>
<g>
</g>
<g>
</g>
<g>
</g>
<g>
</g>
<g>
</g>
<g>
</g>
<g>
</g>
</svg>
