<?xml version="1.0" encoding="iso-8859-1"?>
<!-- Generator: Adobe Illustrator 19.0.0, SVG Export Plug-In . SVG Version: 6.00 Build 0)  -->
<svg version="1.1" id="Capa_1" xmlns="http://www.w3.org/2000/svg" xmlns:xlink="http://www.w3.org/1999/xlink" x="0px" y="0px"
	 viewBox="0 0 511.908 511.908" style="enable-background:new 0 0 511.908 511.908;" xml:space="preserve">
<path style="fill:#5D9CEC;" d="M367.769,4c4.398,0,7.999,3.601,7.999,7.998s-3.601,7.999-7.999,7.999h-23.995h-39.993H255.63
	h-47.831h-39.993H143.81c-4.397,0-7.999-3.602-7.999-7.999S139.413,4,143.81,4C143.81,4,367.769,4,367.769,4z"/>
<g style="opacity:0.2;">
	<path d="M367.769,4c4.398,0,7.999,3.601,7.999,7.998s-3.601,7.999-7.999,7.999h-23.995h-39.993H255.63h-47.831h-39.993H143.81
		c-4.397,0-7.999-3.602-7.999-7.999S139.413,4,143.81,4C143.81,4,367.769,4,367.769,4z"/>
</g>
<g style="opacity:0.2;">
	<path d="M367.769,11.998h-23.995h-39.993H255.63h-47.831h-39.993H143.81c-2.914,0-5.362-1.656-6.765-3.999
		c-0.711,1.195-1.234,2.515-1.234,3.999c0,4.397,3.602,7.999,7.999,7.999h23.996h39.993h47.831h48.151h39.993h23.995
		c4.398,0,7.999-3.602,7.999-7.999c0-1.484-0.523-2.804-1.234-3.999C373.137,10.342,370.683,11.998,367.769,11.998z"/>
</g>
<g>
	<path style="fill:#5D9CEC;" d="M367.769,19.997c4.398,0,7.999-3.602,7.999-7.999v23.996c0,4.397-3.601,7.998-7.999,7.998h-23.995
		V19.997H367.769z"/>
	<rect x="303.784" y="19.994" style="fill:#5D9CEC;" width="39.993" height="23.995"/>
	<polygon style="fill:#5D9CEC;" points="303.781,19.997 303.781,43.992 271.787,43.992 255.63,43.992 255.63,19.997 	"/>
	<rect x="207.794" y="19.994" style="fill:#5D9CEC;" width="47.831" height="23.995"/>
	<rect x="167.804" y="19.994" style="fill:#5D9CEC;" width="39.993" height="23.995"/>
	<path style="fill:#5D9CEC;" d="M135.811,11.998c0,4.397,3.602,7.999,7.999,7.999h23.996v23.995H143.81
		c-4.397,0-7.999-3.601-7.999-7.998V11.998z"/>
	<path style="fill:#5D9CEC;" d="M207.799,43.992v7.999c0,13.278-10.717,23.995-23.996,23.995h-47.992V35.994
		c0,4.397,3.602,7.998,7.999,7.998h23.996C167.806,43.992,207.799,43.992,207.799,43.992z"/>
	<path style="fill:#5D9CEC;" d="M375.768,35.994v39.992h-47.991c-13.279,0-23.996-10.717-23.996-23.995v-7.999h39.993h23.995
		C372.168,43.992,375.768,40.392,375.768,35.994z"/>
</g>
<g style="opacity:0.2;">
	<path d="M207.799,43.992v7.999c0,13.278-10.717,23.995-23.996,23.995h-47.992V35.994c0,4.397,3.602,7.998,7.999,7.998h23.996
		C167.806,43.992,207.799,43.992,207.799,43.992z"/>
</g>
<g style="opacity:0.2;">
	<path d="M375.768,35.994v39.992h-47.991c-13.279,0-23.996-10.717-23.996-23.995v-7.999h39.993h23.995
		C372.168,43.992,375.768,40.392,375.768,35.994z"/>
</g>
<g style="opacity:0.2;">
	<path d="M183.803,67.988h-47.992v7.998h47.992c13.279,0,23.996-10.717,23.996-23.995v-7.999
		C207.799,57.271,197.082,67.988,183.803,67.988z"/>
</g>
<g style="opacity:0.2;">
	<path d="M303.781,43.992v7.999c0,13.278,10.717,23.995,23.996,23.995h47.991v-7.998h-47.991
		C314.498,67.988,303.781,57.271,303.781,43.992z"/>
</g>
<g>
	<rect x="135.814" y="491.914" style="fill:#5D9CEC;" width="111.98" height="15.997"/>
	<rect x="263.784" y="491.914" style="fill:#5D9CEC;" width="111.98" height="15.997"/>
</g>
<g style="opacity:0.3;">
	<rect x="135.814" y="491.914" style="fill:#FFFFFF;" width="111.98" height="15.997"/>
</g>
<g style="opacity:0.3;">
	<rect x="263.784" y="491.914" style="fill:#FFFFFF;" width="111.98" height="15.997"/>
</g>
<path style="fill:#5D9CEC;" d="M255.63,99.904V43.992h16.157v39.915v0.078c-0.078,8.799-7.115,15.919-15.997,15.919
	C255.79,99.904,255.63,99.904,255.63,99.904z"/>
<g style="opacity:0.3;">
	<path style="fill:#FFFFFF;" d="M255.63,99.904V43.992h16.157v39.915v0.078c-0.078,8.799-7.115,15.919-15.997,15.919
		C255.79,99.904,255.63,99.904,255.63,99.904z"/>
</g>
<path style="fill:#5D9CEC;" d="M327.777,75.986c-13.279,0-23.996-10.717-23.996-23.995v-7.999h-31.994v39.915v0.078
	c-0.078,8.799-7.115,15.919-15.997,15.919h-0.16V43.992h-47.831v7.999c0,13.278-10.717,23.995-23.996,23.995h-47.992v415.926h111.98
	V171.97h-0.16c0.082-4.398,3.601-7.921,7.998-7.921c4.401,0,7.917,3.522,7.995,7.921h0.164v319.942h111.979V75.986H327.777z"/>
<g style="opacity:0.3;">
	<rect x="135.814" y="75.984" style="fill:#FFFFFF;" width="15.998" height="431.92"/>
</g>
<g style="opacity:0.2;">
	<rect x="359.774" y="75.984" width="15.997" height="431.92"/>
</g>
<g style="opacity:0.3;">
	<path style="fill:#FFFFFF;" d="M143.81,43.992h7.999V19.997h-7.999c-4.397,0-7.999-3.602-7.999-7.999v23.996
		C135.811,40.392,139.413,43.992,143.81,43.992z"/>
</g>
<g style="opacity:0.2;">
	<path d="M367.769,43.992h-7.998V19.997h7.998c4.398,0,7.999-3.602,7.999-7.999v23.996
		C375.768,40.392,372.168,43.992,367.769,43.992z"/>
</g>
<g>
	<path style="fill:#3A3847;" d="M272.193,35.994c-2.211,0-4.038-1.789-4.038-4c0-2.21,1.749-3.999,3.952-3.999h0.086
		c2.203,0,4,1.789,4,3.999C276.193,34.205,274.396,35.994,272.193,35.994z"/>
	<path style="fill:#3A3847;" d="M247.956,511.908h-111.98c-2.21,0-3.999-1.789-3.999-3.999c0-2.211,1.789-3.999,3.999-3.999h111.98
		c2.21,0,3.999,1.788,3.999,3.999C251.955,510.119,250.166,511.908,247.956,511.908z"/>
	<path style="fill:#3A3847;" d="M135.975,511.908c-2.21,0-3.999-1.789-3.999-3.999V11.998c0-2.21,1.789-3.999,3.999-3.999
		c2.211,0,4,1.789,4,3.999v495.911C139.975,510.119,138.186,511.908,135.975,511.908z"/>
	<path style="fill:#3A3847;" d="M247.956,511.908c-2.211,0-4-1.789-4-3.999V171.97c0-2.211,1.789-4,4-4c2.21,0,3.999,1.789,3.999,4
		v335.939C251.955,510.119,250.166,511.908,247.956,511.908z"/>
	<path style="fill:#3A3847;" d="M375.933,511.908h-111.98c-2.211,0-4-1.789-4-3.999c0-2.211,1.789-3.999,4-3.999h111.979
		c2.21,0,3.999,1.788,3.999,3.999C379.932,510.119,378.142,511.908,375.933,511.908z"/>
	<path style="fill:#3A3847;" d="M263.953,511.908c-2.211,0-4-1.789-4-3.999V171.97c0-2.211,1.789-4,4-4c2.21,0,3.999,1.789,3.999,4
		v335.939C267.952,510.119,266.163,511.908,263.953,511.908z"/>
	<path style="fill:#3A3847;" d="M375.933,511.908c-2.21,0-3.999-1.789-3.999-3.999V11.998c0-2.21,1.789-3.999,3.999-3.999
		s3.999,1.789,3.999,3.999v495.911C379.932,510.119,378.142,511.908,375.933,511.908z"/>
	<path style="fill:#3A3847;" d="M263.789,176.055c-2.211,0-4-1.789-4-3.999c0-2.207-1.792-4-3.999-4s-3.999,1.793-3.999,4
		c0,2.21-1.789,3.999-3.999,3.999c-2.211,0-4-1.789-4-3.999c0-6.616,5.382-11.998,11.998-11.998c6.616,0,11.998,5.382,11.998,11.998
		C267.788,174.266,265.999,176.055,263.789,176.055z"/>
	<path style="fill:#3A3847;" d="M143.975,23.996c-6.616,0-11.998-5.382-11.998-11.998S137.359,0,143.975,0
		c2.21,0,3.999,1.789,3.999,4c0,2.21-1.789,3.999-3.999,3.999c-2.207,0-4,1.793-4,3.999c0,2.207,1.792,3.999,4,3.999
		c2.21,0,3.999,1.789,3.999,4C147.974,22.207,146.185,23.996,143.975,23.996z"/>
	<path style="fill:#3A3847;" d="M367.933,23.996c-2.21,0-3.999-1.789-3.999-3.999c0-2.211,1.789-4,3.999-4c2.203,0,4-1.792,4-3.999
		c0-2.206-1.797-3.999-4-3.999c-2.21,0-3.999-1.789-3.999-3.999c0-2.211,1.789-4,3.999-4c6.616,0,11.998,5.382,11.998,11.998
		S374.55,23.996,367.933,23.996z"/>
	<path style="fill:#3A3847;" d="M367.933,23.996H143.975c-2.211,0-4-1.789-4-3.999c0-2.211,1.789-4,4-4h223.959c2.211,0,4,1.789,4,4
		C371.933,22.207,370.144,23.996,367.933,23.996z"/>
	<path style="fill:#3A3847;" d="M143.975,47.991c-6.616,0-11.998-5.382-11.998-11.997c0-2.211,1.789-4,3.999-4c2.211,0,4,1.789,4,4
		c0,2.206,1.792,3.999,4,3.999c2.21,0,3.999,1.789,3.999,3.999C147.974,46.203,146.185,47.991,143.975,47.991z"/>
	<path style="fill:#3A3847;" d="M367.933,47.991c-2.21,0-3.999-1.788-3.999-3.999c0-2.21,1.789-3.999,3.999-3.999
		c2.203,0,4-1.793,4-3.999c0-2.211,1.789-4,3.999-4s3.999,1.789,3.999,4C379.932,42.609,374.55,47.991,367.933,47.991z"/>
	<path style="fill:#3A3847;" d="M367.933,47.991H143.975c-2.211,0-4-1.788-4-3.999c0-2.21,1.789-3.999,4-3.999h223.959
		c2.211,0,4,1.789,4,3.999C371.933,46.203,370.144,47.991,367.933,47.991z"/>
	<path style="fill:#3A3847;" d="M367.933,7.999H143.975c-2.211,0-4-1.789-4-3.999c0-2.211,1.789-4,4-4h223.959c2.211,0,4,1.789,4,4
		C371.933,6.21,370.144,7.999,367.933,7.999z"/>
	<path style="fill:#3A3847;" d="M255.79,103.981c-2.21,0-3.999-1.789-3.999-3.999V19.997c0-2.211,1.789-4,3.999-4
		c2.211,0,3.999,1.789,3.999,4v79.985C259.789,102.192,258.001,103.981,255.79,103.981z"/>
	<path style="fill:#3A3847;" d="M271.951,87.984c-2.21,0-3.999-1.789-3.999-3.999V51.991c0-2.211,1.789-4,3.999-4
		c2.211,0,4,1.789,4,4v31.994C275.951,86.195,274.162,87.984,271.951,87.984z"/>
	<path style="fill:#3A3847;" d="M255.954,103.895c-2.21,0-3.999-1.789-3.999-3.999c0-2.211,1.789-3.999,3.999-3.999
		c6.616,0,11.998-5.382,11.998-11.998c0-2.211,1.789-3.999,3.999-3.999c2.211,0,4,1.788,4,3.999
		C275.951,94.925,266.983,103.895,255.954,103.895z"/>
	<path style="fill:#3A3847;" d="M167.97,47.991c-2.21,0-4-1.788-4-3.999V19.997c0-2.211,1.789-4,4-4s4,1.789,4,4v23.995
		C171.97,46.203,170.181,47.991,167.97,47.991z"/>
	<path style="fill:#3A3847;" d="M207.963,47.991c-2.21,0-3.999-1.788-3.999-3.999V19.997c0-2.211,1.789-4,3.999-4
		c2.211,0,3.999,1.789,3.999,4v23.995C211.962,46.203,210.174,47.991,207.963,47.991z"/>
	<path style="fill:#3A3847;" d="M303.945,47.991c-2.21,0-3.999-1.788-3.999-3.999V19.997c0-2.211,1.789-4,3.999-4
		c2.211,0,4,1.789,4,4v23.995C307.945,46.203,306.156,47.991,303.945,47.991z"/>
	<path style="fill:#3A3847;" d="M343.938,47.991c-2.211,0-3.999-1.788-3.999-3.999V19.997c0-2.211,1.788-4,3.999-4
		c2.21,0,3.999,1.789,3.999,4v23.995C347.937,46.203,346.148,47.991,343.938,47.991z"/>
	<path style="fill:#3A3847;" d="M327.941,79.986c-15.435,0-27.995-12.561-27.995-27.995c0-2.211,1.789-4,3.999-4
		c2.211,0,4,1.789,4,4c0,11.025,8.967,19.996,19.996,19.996c2.211,0,3.999,1.789,3.999,3.999
		C331.94,78.197,330.152,79.986,327.941,79.986z"/>
	<path style="fill:#3A3847;" d="M367.933,79.986h-39.992c-2.211,0-4-1.789-4-4c0-2.21,1.789-3.999,4-3.999h39.992
		c2.211,0,4,1.789,4,3.999C371.933,78.197,370.144,79.986,367.933,79.986z"/>
	<path style="fill:#3A3847;" d="M183.967,79.986c-2.21,0-4-1.789-4-4c0-2.21,1.789-3.999,4-3.999
		c11.025,0,19.997-8.971,19.997-19.996c0-2.211,1.789-4,3.999-4c2.211,0,3.999,1.789,3.999,4
		C211.962,67.426,199.402,79.986,183.967,79.986z"/>
	<path style="fill:#3A3847;" d="M183.967,79.986h-39.993c-2.211,0-4-1.789-4-4c0-2.21,1.789-3.999,4-3.999h39.993
		c2.21,0,4,1.789,4,3.999C187.967,78.197,186.178,79.986,183.967,79.986z"/>
	<path style="fill:#3A3847;" d="M191.966,63.989h-39.993c-2.21,0-4-1.789-4-4c0-2.21,1.789-3.999,4-3.999h39.993
		c2.21,0,3.999,1.789,3.999,3.999C195.965,62.2,194.176,63.989,191.966,63.989z"/>
	<path style="fill:#3A3847;" d="M375.933,495.911h-111.98c-2.211,0-4-1.789-4-3.999c0-2.211,1.789-4,4-4h111.979
		c2.21,0,3.999,1.789,3.999,4C379.932,494.122,378.142,495.911,375.933,495.911z"/>
	<path style="fill:#3A3847;" d="M247.956,495.911h-111.98c-2.21,0-3.999-1.789-3.999-3.999c0-2.211,1.789-4,3.999-4h111.98
		c2.21,0,3.999,1.789,3.999,4C251.955,494.122,250.166,495.911,247.956,495.911z"/>
	<path style="fill:#3A3847;" d="M255.954,151.973c-2.21,0-3.999-1.788-3.999-3.999V115.98c0-2.211,1.789-3.999,3.999-3.999
		c2.211,0,3.999,1.788,3.999,3.999v31.994C259.953,150.184,258.165,151.973,255.954,151.973z"/>
</g>
<g>
</g>
<g>
</g>
<g>
</g>
<g>
</g>
<g>
</g>
<g>
</g>
<g>
</g>
<g>
</g>
<g>
</g>
<g>
</g>
<g>
</g>
<g>
</g>
<g>
</g>
<g>
</g>
<g>
</g>
</svg>
