<?xml version="1.0" encoding="iso-8859-1"?>
<!-- Generator: Adobe Illustrator 19.0.0, SVG Export Plug-In . SVG Version: 6.00 Build 0)  -->
<svg version="1.1" id="Capa_1" xmlns="http://www.w3.org/2000/svg" xmlns:xlink="http://www.w3.org/1999/xlink" x="0px" y="0px"
	 viewBox="0 0 511.908 511.908" style="enable-background:new 0 0 511.908 511.908;" xml:space="preserve">
<g>
	<polygon style="fill:#656D78;" points="119.978,387.931 119.978,411.926 103.981,411.926 87.984,411.926 71.987,411.926 
		55.99,411.926 55.99,387.931 	"/>
	<polygon style="fill:#656D78;" points="455.917,387.931 455.917,411.926 439.921,411.926 423.923,411.926 407.927,411.926 
		391.929,411.926 391.929,387.931 	"/>
</g>
<path style="fill:#48CFAD;" d="M187.967,4h135.974c0,35.435-30.314,63.988-67.986,63.988C218.359,67.988,187.967,39.434,187.967,4z"
	/>
<g style="opacity:0.2;">
	<path d="M187.967,4h135.974c0,35.435-30.314,63.988-67.986,63.988C218.359,67.988,187.967,39.434,187.967,4z"/>
</g>
<g style="opacity:0.2;">
	<path d="M255.954,59.989c-34.713,0-63.23-24.362-67.401-55.989h-0.586c0,35.435,30.393,63.988,67.987,63.988
		c37.672,0,67.986-28.554,67.986-63.988h-0.576C319.192,35.627,290.737,59.989,255.954,59.989z"/>
</g>
<path style="fill:#48CFAD;" d="M391.929,411.926v95.983h-271.95v-95.983v-23.995H55.99V83.985C55.99,39.673,91.663,4,135.975,4
	h47.991h4c0,35.435,30.393,63.988,67.987,63.988c37.672,0,67.986-28.554,67.986-63.988h4h47.992
	c44.312,0,79.984,35.673,79.984,79.985V387.93h-63.988v23.996H391.929z"/>
<g style="opacity:0.4;">
	<path style="fill:#FFFFFF;" d="M151.973,4h-15.997C91.664,4,55.991,39.673,55.991,83.985V387.93h15.997V83.985
		C71.987,39.673,107.66,4,151.973,4z"/>
	<polygon style="fill:#FFFFFF;" points="135.975,171.97 119.978,171.97 119.978,411.926 119.978,507.909 135.975,507.909 
		135.975,411.926 	"/>
</g>
<g style="opacity:0.2;">
	<path d="M359.934,4h15.998c44.312,0,79.984,35.673,79.984,79.985V387.93H439.92V83.985C439.921,39.673,404.247,4,359.934,4z"/>
	<polygon points="375.933,171.97 391.929,171.97 391.929,411.926 391.929,507.909 375.933,507.909 375.933,411.926 	"/>
</g>
<g style="opacity:0.2;">
	<rect x="111.984" y="171.974" width="7.998" height="239.96"/>
</g>
<g style="opacity:0.2;">
	<rect x="391.934" y="171.974" width="7.998" height="239.96"/>
</g>
<g style="opacity:0.2;">
	<rect x="55.994" y="387.934" style="fill:#FFFFFF;" width="15.997" height="23.995"/>
</g>
<g style="opacity:0.2;">
	<rect x="439.924" y="387.934" width="15.996" height="23.995"/>
</g>
<g>
	<path style="fill:#3A3847;" d="M455.917,415.926c-2.209,0-3.998-1.789-3.998-4V83.985c0-2.211,1.789-3.999,3.998-3.999
		c2.211,0,4,1.788,4,3.999v327.94C459.917,414.137,458.128,415.926,455.917,415.926z"/>
	<path style="fill:#3A3847;" d="M255.954,71.987c-39.696,0-71.987-30.498-71.987-67.987c0-2.211,1.789-4,4-4
		c2.21,0,3.999,1.789,3.999,4c0,33.079,28.706,59.989,63.988,59.989c2.211,0,3.998,1.788,3.998,3.999
		C259.952,70.198,258.165,71.987,255.954,71.987z"/>
	<path style="fill:#3A3847;" d="M255.97,71.987c-2.211,0-3.999-1.789-3.999-3.999c0-2.211,1.788-3.999,3.999-3.999
		c35.275,0,63.973-26.91,63.973-59.989c0-2.211,1.789-4,3.998-4c2.211,0,4,1.789,4,4C327.94,41.489,295.657,71.987,255.97,71.987z"
		/>
	<path style="fill:#3A3847;" d="M391.929,511.908h-271.95c-2.21,0-3.999-1.789-3.999-3.999c0-2.211,1.789-3.999,3.999-3.999h271.95
		c2.211,0,4,1.788,4,3.999C395.929,510.119,394.14,511.908,391.929,511.908z"/>
	<path style="fill:#3A3847;" d="M391.929,511.908c-2.211,0-3.998-1.789-3.998-3.999V171.97c0-2.211,1.787-4,3.998-4s4,1.789,4,4
		v335.939C395.929,510.119,394.14,511.908,391.929,511.908z"/>
	<path style="fill:#3A3847;" d="M119.978,511.908c-2.21,0-3.999-1.789-3.999-3.999V171.97c0-2.211,1.789-4,3.999-4
		c2.211,0,3.999,1.789,3.999,4v335.939C123.977,510.119,122.189,511.908,119.978,511.908z"/>
	<path style="fill:#3A3847;" d="M55.99,87.984c-2.211,0-3.999-1.789-3.999-3.999C51.991,37.676,89.664,0,135.975,0
		c2.211,0,3.999,1.789,3.999,4c0,2.21-1.788,3.999-3.999,3.999c-41.898,0-75.986,34.088-75.986,75.986
		C59.989,86.195,58.201,87.984,55.99,87.984z"/>
	<path style="fill:#3A3847;" d="M187.967,7.999h-51.991c-2.21,0-3.999-1.789-3.999-3.999c0-2.211,1.789-4,3.999-4h51.991
		c2.21,0,3.999,1.789,3.999,4C191.966,6.21,190.177,7.999,187.967,7.999z"/>
	<path style="fill:#3A3847;" d="M55.99,415.926c-2.211,0-3.999-1.789-3.999-4V83.985c0-2.211,1.788-3.999,3.999-3.999
		c2.211,0,3.999,1.788,3.999,3.999v327.94C59.989,414.137,58.201,415.926,55.99,415.926z"/>
	<path style="fill:#3A3847;" d="M111.98,415.926H55.99c-2.211,0-3.999-1.789-3.999-4c0-2.21,1.788-3.999,3.999-3.999h55.99
		c2.21,0,3.999,1.789,3.999,3.999C115.979,414.137,114.19,415.926,111.98,415.926z"/>
	<path style="fill:#3A3847;" d="M455.917,87.984c-2.209,0-3.998-1.789-3.998-3.999c0-41.898-34.088-75.986-75.986-75.986
		c-2.211,0-4-1.789-4-3.999c0-2.211,1.789-4,4-4c46.311,0,83.984,37.677,83.984,83.985
		C459.917,86.195,458.128,87.984,455.917,87.984z"/>
	<path style="fill:#3A3847;" d="M375.933,7.999h-51.992c-2.209,0-3.998-1.789-3.998-3.999c0-2.211,1.789-4,3.998-4h51.992
		c2.209,0,3.998,1.789,3.998,4C379.931,6.21,378.142,7.999,375.933,7.999z"/>
	<path style="fill:#3A3847;" d="M455.917,415.926h-55.99c-2.209,0-3.998-1.789-3.998-4c0-2.21,1.789-3.999,3.998-3.999h55.99
		c2.211,0,4,1.789,4,3.999C459.917,414.137,458.128,415.926,455.917,415.926z"/>
	<path style="fill:#3A3847;" d="M311.944,7.999h-111.98c-2.21,0-3.999-1.789-3.999-3.999c0-2.211,1.789-4,3.999-4h111.98
		c2.209,0,3.998,1.789,3.998,4C315.942,6.21,314.153,7.999,311.944,7.999z"/>
	<path style="fill:#3A3847;" d="M455.917,391.93h-55.99c-2.209,0-3.998-1.789-3.998-3.999c0-2.211,1.789-3.999,3.998-3.999h55.99
		c2.211,0,4,1.788,4,3.999C459.917,390.141,458.128,391.93,455.917,391.93z"/>
	<path style="fill:#3A3847;" d="M407.927,415.926c-2.211,0-4-1.789-4-4v-7.998c0-2.211,1.789-4,4-4s3.998,1.789,3.998,4v7.998
		C411.925,414.137,410.138,415.926,407.927,415.926z"/>
	<path style="fill:#3A3847;" d="M423.923,415.926c-2.211,0-3.998-1.789-3.998-4v-7.998c0-2.211,1.787-4,3.998-4s4,1.789,4,4v7.998
		C427.923,414.137,426.134,415.926,423.923,415.926z"/>
	<path style="fill:#3A3847;" d="M439.936,415.926c-2.211,0-4-1.789-4-4v-7.998c0-2.211,1.789-4,4-4s3.998,1.789,3.998,4v7.998
		C443.934,414.137,442.147,415.926,439.936,415.926z"/>
	<path style="fill:#3A3847;" d="M111.98,391.93H55.99c-2.211,0-3.999-1.789-3.999-3.999c0-2.211,1.788-3.999,3.999-3.999h55.99
		c2.21,0,3.999,1.788,3.999,3.999C115.979,390.141,114.19,391.93,111.98,391.93z"/>
	<path style="fill:#3A3847;" d="M71.987,415.926c-2.211,0-3.999-1.789-3.999-4v-7.998c0-2.211,1.788-4,3.999-4s3.999,1.789,3.999,4
		v7.998C75.986,414.137,74.198,415.926,71.987,415.926z"/>
	<path style="fill:#3A3847;" d="M87.984,415.926c-2.211,0-3.999-1.789-3.999-4v-7.998c0-2.211,1.788-4,3.999-4s3.999,1.789,3.999,4
		v7.998C91.983,414.137,90.195,415.926,87.984,415.926z"/>
	<path style="fill:#3A3847;" d="M103.981,415.926c-2.21,0-3.999-1.789-3.999-4v-7.998c0-2.211,1.789-4,3.999-4
		c2.211,0,3.999,1.789,3.999,4v7.998C107.98,414.137,106.192,415.926,103.981,415.926z"/>
	<path style="fill:#3A3847;" d="M71.987,127.196c-1.023,0-2.047-0.391-2.827-1.172c-1.562-1.562-1.562-4.093,0-5.655L171.11,18.411
		c1.562-1.562,4.093-1.562,5.655,0s1.562,4.093,0,5.655L74.815,126.024C74.034,126.806,73.011,127.196,71.987,127.196z"/>
	<path style="fill:#3A3847;" d="M71.987,206.369c-1.023,0-2.047-0.391-2.827-1.172c-1.562-1.562-1.562-4.093,0-5.655L203.558,65.16
		c1.562-1.562,4.093-1.562,5.655,0c1.562,1.562,1.562,4.094,0,5.655L74.815,205.197C74.034,205.978,73.011,206.369,71.987,206.369z"
		/>
	<path style="fill:#3A3847;" d="M71.987,285.558c-1.023,0-2.047-0.391-2.827-1.172c-1.562-1.562-1.562-4.093,0-5.655l31.994-31.994
		c1.562-1.562,4.093-1.562,5.655,0c1.562,1.562,1.562,4.093,0,5.655l-31.994,31.994C74.034,285.168,73.011,285.558,71.987,285.558z"
		/>
	<path style="fill:#3A3847;" d="M135.975,221.577c-1.023,0-2.046-0.391-2.827-1.171c-1.562-1.562-1.562-4.094,0-5.655L267.991,79.9
		c1.562-1.562,4.092-1.562,5.654,0c1.562,1.562,1.562,4.093,0,5.655L138.804,220.406
		C138.022,221.186,136.999,221.577,135.975,221.577z"/>
	<path style="fill:#3A3847;" d="M71.987,364.731c-1.023,0-2.047-0.391-2.827-1.172c-1.562-1.562-1.562-4.093,0-5.655l31.994-31.994
		c1.562-1.562,4.093-1.562,5.655,0s1.562,4.094,0,5.655l-31.994,31.994C74.034,364.341,73.011,364.731,71.987,364.731z"/>
	<path style="fill:#3A3847;" d="M135.975,300.743c-1.023,0-2.046-0.391-2.827-1.172c-1.562-1.562-1.562-4.093,0-5.655L402.653,24.41
		c1.562-1.562,4.094-1.562,5.656,0s1.562,4.093,0,5.655L138.804,299.571C138.022,300.352,136.999,300.743,135.975,300.743z"/>
	<path style="fill:#3A3847;" d="M135.975,379.932c-1.023,0-2.046-0.391-2.827-1.172c-1.562-1.562-1.562-4.093,0-5.654L436.14,70.112
		c1.562-1.562,4.094-1.562,5.656,0c1.561,1.562,1.561,4.094,0,5.655L138.804,378.76
		C138.022,379.541,136.999,379.932,135.975,379.932z"/>
	<path style="fill:#3A3847;" d="M135.983,459.121c-1.023,0-2.046-0.391-2.827-1.172c-1.562-1.562-1.562-4.093,0-5.655
		l239.948-239.965c1.562-1.562,4.094-1.562,5.654,0c1.562,1.562,1.562,4.093,0,5.655L138.811,457.949
		C138.03,458.73,137.007,459.121,135.983,459.121z"/>
	<path style="fill:#3A3847;" d="M407.927,187.162c-1.023,0-2.047-0.391-2.828-1.172c-1.562-1.562-1.562-4.093,0-5.655l31.994-31.994
		c1.562-1.562,4.094-1.562,5.656,0c1.561,1.562,1.561,4.093,0,5.655l-31.996,31.994C409.974,186.771,408.95,187.162,407.927,187.162
		z"/>
	<path style="fill:#3A3847;" d="M178.358,495.911c-1.022,0-2.046-0.391-2.827-1.172c-1.562-1.562-1.562-4.093,0-5.655
		L373.096,291.51c1.562-1.562,4.094-1.562,5.654,0c1.562,1.562,1.562,4.094,0,5.656L181.186,494.739
		C180.405,495.52,179.382,495.911,178.358,495.911z"/>
	<path style="fill:#3A3847;" d="M407.927,266.343c-1.023,0-2.047-0.391-2.828-1.171c-1.562-1.562-1.562-4.094,0-5.656l31.994-31.994
		c1.562-1.562,4.094-1.562,5.656,0c1.561,1.562,1.561,4.094,0,5.655l-31.996,31.995C409.974,265.952,408.95,266.343,407.927,266.343
		z"/>
	<path style="fill:#3A3847;" d="M257.548,495.911c-1.023,0-2.047-0.391-2.828-1.172c-1.562-1.562-1.562-4.093,0-5.655
		l118.384-118.385c1.562-1.562,4.094-1.562,5.654,0c1.562,1.562,1.562,4.093,0,5.655L260.374,494.739
		C259.593,495.52,258.571,495.911,257.548,495.911z"/>
	<path style="fill:#3A3847;" d="M407.927,345.532c-1.023,0-2.047-0.391-2.828-1.172c-1.562-1.562-1.562-4.093,0-5.655l31.994-31.994
		c1.562-1.562,4.094-1.562,5.656,0c1.561,1.562,1.561,4.093,0,5.655l-31.996,31.994C409.974,345.142,408.95,345.532,407.927,345.532
		z"/>
	<path style="fill:#3A3847;" d="M336.727,495.911c-1.023,0-2.045-0.391-2.826-1.172c-1.562-1.562-1.562-4.093,0-5.655l39.203-39.212
		c1.562-1.562,4.094-1.562,5.654,0c1.562,1.562,1.562,4.093,0,5.655l-39.203,39.212C338.774,495.52,337.751,495.911,336.727,495.911
		z"/>
	<path style="fill:#3A3847;" d="M439.921,127.196c-1.023,0-2.047-0.391-2.828-1.172L335.134,24.066
		c-1.561-1.562-1.561-4.093,0-5.655c1.562-1.562,4.094-1.562,5.656,0l101.959,101.958c1.561,1.562,1.561,4.093,0,5.655
		C441.968,126.806,440.944,127.196,439.921,127.196z"/>
	<path style="fill:#3A3847;" d="M439.952,206.4c-1.023,0-2.047-0.391-2.828-1.172L303.022,71.136c-1.561-1.562-1.561-4.093,0-5.655
		c1.562-1.562,4.094-1.562,5.656,0L442.78,199.574c1.561,1.562,1.561,4.094,0,5.655C441.999,206.01,440.975,206.4,439.952,206.4z"/>
	<path style="fill:#3A3847;" d="M375.917,221.554c-1.023,0-2.047-0.391-2.828-1.171L238.277,85.579
		c-1.562-1.562-1.562-4.094,0-5.655c1.562-1.562,4.094-1.562,5.655,0l134.811,134.804c1.562,1.562,1.562,4.093,0,5.655
		C377.964,221.163,376.94,221.554,375.917,221.554z"/>
	<path style="fill:#3A3847;" d="M439.897,285.527c-1.023,0-2.047-0.391-2.828-1.172L405.106,252.4c-1.562-1.562-1.562-4.094,0-5.655
		c1.562-1.562,4.094-1.562,5.654,0l31.965,31.955c1.561,1.562,1.561,4.093,0,5.655C441.944,285.137,440.921,285.527,439.897,285.527
		z"/>
	<path style="fill:#3A3847;" d="M375.933,300.743c-1.023,0-2.047-0.391-2.828-1.172L103.583,30.058
		c-1.562-1.562-1.562-4.093,0-5.655s4.093-1.562,5.655,0l269.521,269.514c1.562,1.562,1.562,4.094,0,5.655
		C377.979,300.352,376.956,300.743,375.933,300.743z"/>
	<path style="fill:#3A3847;" d="M439.936,364.755c-1.023,0-2.047-0.391-2.828-1.172l-32.01-32.01c-1.562-1.562-1.562-4.093,0-5.655
		s4.094-1.562,5.654,0l32.012,32.01c1.561,1.562,1.561,4.094,0,5.655C441.983,364.364,440.96,364.755,439.936,364.755z"/>
	<path style="fill:#3A3847;" d="M375.925,379.924c-1.023,0-2.047-0.391-2.828-1.172L70.112,75.767c-1.562-1.562-1.562-4.093,0-5.655
		s4.094-1.562,5.655,0L378.75,373.097c1.562,1.562,1.562,4.093,0,5.654C377.972,379.533,376.948,379.924,375.925,379.924z"/>
	<path style="fill:#3A3847;" d="M103.997,187.178c-1.023,0-2.047-0.391-2.827-1.172l-32.01-32.01c-1.562-1.562-1.562-4.093,0-5.655
		c1.562-1.562,4.093-1.562,5.655,0l32.01,32.01c1.562,1.562,1.562,4.093,0,5.655C106.044,186.787,105.02,187.178,103.997,187.178z"
		/>
	<path style="fill:#3A3847;" d="M375.948,459.129c-1.023,0-2.047-0.391-2.828-1.172l-239.987-239.98
		c-1.562-1.562-1.562-4.093,0-5.655c1.562-1.562,4.093-1.562,5.655,0l239.986,239.98c1.562,1.562,1.562,4.093,0,5.655
		C377.995,458.738,376.972,459.129,375.948,459.129z"/>
	<path style="fill:#3A3847;" d="M103.95,266.311c-1.023,0-2.046-0.391-2.827-1.171l-31.986-31.987c-1.562-1.562-1.562-4.093,0-5.655
		c1.562-1.562,4.093-1.562,5.655,0l31.986,31.986c1.562,1.562,1.562,4.094,0,5.656C105.997,265.921,104.974,266.311,103.95,266.311z
		"/>
	<path style="fill:#3A3847;" d="M333.526,495.888c-1.023,0-2.047-0.391-2.828-1.172L133.164,297.182
		c-1.562-1.562-1.562-4.094,0-5.656s4.093-1.562,5.655,0l197.533,197.535c1.562,1.562,1.562,4.094,0,5.655
		C335.571,495.497,334.55,495.888,333.526,495.888z"/>
	<path style="fill:#3A3847;" d="M103.981,345.516c-1.023,0-2.047-0.391-2.827-1.172L69.152,312.35c-1.562-1.562-1.562-4.093,0-5.655
		s4.093-1.562,5.655,0l32.002,31.994c1.562,1.562,1.562,4.093,0,5.655C106.028,345.126,105.005,345.516,103.981,345.516z"/>
	<path style="fill:#3A3847;" d="M254.376,495.911c-1.022,0-2.046-0.391-2.827-1.172L133.164,376.354
		c-1.562-1.562-1.562-4.093,0-5.655s4.093-1.562,5.655,0l118.385,118.385c1.562,1.562,1.562,4.093,0,5.655
		C256.423,495.52,255.399,495.911,254.376,495.911z"/>
	<path style="fill:#3A3847;" d="M175.164,495.895c-1.023,0-2.047-0.391-2.828-1.172l-39.172-39.165
		c-1.562-1.562-1.562-4.093,0-5.655s4.093-1.562,5.655,0l39.172,39.165c1.562,1.562,1.562,4.094,0,5.655
		C177.211,495.505,176.187,495.895,175.164,495.895z"/>
</g>
<g>
</g>
<g>
</g>
<g>
</g>
<g>
</g>
<g>
</g>
<g>
</g>
<g>
</g>
<g>
</g>
<g>
</g>
<g>
</g>
<g>
</g>
<g>
</g>
<g>
</g>
<g>
</g>
<g>
</g>
</svg>
