<?xml version="1.0" encoding="iso-8859-1"?>
<!-- Generator: Adobe Illustrator 19.0.0, SVG Export Plug-In . SVG Version: 6.00 Build 0)  -->
<svg version="1.1" id="Capa_1" xmlns="http://www.w3.org/2000/svg" xmlns:xlink="http://www.w3.org/1999/xlink" x="0px" y="0px"
	 viewBox="0 0 511.908 511.908" style="enable-background:new 0 0 511.908 511.908;" xml:space="preserve">
<path style="fill:#48CFAD;" d="M75.986,71.738h327.941c17.676,0,31.994,14.318,31.994,31.994c0,17.677-14.318,31.995-31.994,31.995
	H75.986V71.738z"/>
<rect x="75.984" y="71.738" style="fill:#FFCE54;" width="20.66" height="111.98"/>
<g>
	<path style="fill:#48CFAD;" d="M435.922,103.982v127.977c0-17.676-14.318-31.994-31.994-31.994H35.994
		C18.395,199.964,4,185.646,4,167.97s14.396-31.995,31.994-31.995h39.992h327.941C421.603,135.975,435.922,121.659,435.922,103.982z
		"/>
	<path style="fill:#48CFAD;" d="M435.922,231.958v95.983H35.994C18.395,327.941,4,313.624,4,295.948
		c0-17.677,14.396-31.994,31.994-31.994h367.934C421.603,263.953,435.922,249.635,435.922,231.958z"/>
	<path style="fill:#48CFAD;" d="M4,295.698c0,17.676,14.396,31.994,31.994,31.994h399.928v111.979H35.994
		C18.395,439.671,4,425.354,4,407.677C4,407.677,4,295.698,4,295.698z"/>
</g>
<g style="opacity:0.3;">
	<path style="fill:#FFFFFF;" d="M434.789,111.731c0.664-2.57,1.133-5.218,1.133-7.999c0-17.676-14.318-31.994-31.994-31.994H75.986
		v15.997h327.941C418.823,87.735,431.227,97.952,434.789,111.731z"/>
</g>
<g style="opacity:0.2;">
	<path d="M403.928,119.729H75.986v15.998h327.941c17.676,0,31.994-14.318,31.994-31.995c0-2.78-0.469-5.429-1.133-7.998
		C431.227,109.513,418.823,119.729,403.928,119.729z"/>
</g>
<path style="fill:#48CFAD;" d="M4,167.721c0,17.676,14.396,31.994,31.994,31.994h367.934c17.676,0,31.994,14.318,31.994,31.995
	c0,17.676-14.318,31.994-31.994,31.994H35.994C18.395,263.703,4,278.02,4,295.697C4,295.697,4,167.721,4,167.721z"/>
<g style="opacity:0.3;">
	<path style="fill:#FFFFFF;" d="M35.994,215.712h367.934c14.896,0,27.3,10.217,30.861,23.996c0.664-2.569,1.133-5.218,1.133-7.998
		c0-17.677-14.318-31.995-31.994-31.995H35.994C18.395,199.715,4,185.397,4,167.721v15.997C4,201.393,18.395,215.712,35.994,215.712
		z"/>
</g>
<g style="opacity:0.2;">
	<path d="M403.928,247.706H35.994C18.395,247.706,4,262.023,4,279.701v15.997c0-17.677,14.396-31.994,31.994-31.994h367.934
		c17.676,0,31.994-14.318,31.994-31.994c0-2.781-0.469-5.429-1.133-7.999C431.227,237.49,418.823,247.706,403.928,247.706z"/>
</g>
<g style="opacity:0.2;">
	<path d="M435.922,103.732V231.71c0-17.677-14.318-31.995-31.994-31.995H35.994C18.395,199.715,4,185.397,4,167.721
		s14.396-31.994,31.994-31.994h39.992h327.941C421.603,135.727,435.922,121.409,435.922,103.732z"/>
</g>
<g style="opacity:0.3;">
	<path style="fill:#FFFFFF;" d="M403.928,135.727H75.986H35.994C18.395,135.727,4,150.044,4,167.721
		c0,2.781,0.468,5.429,1.136,7.999c3.582-13.779,16.024-23.996,30.858-23.996h39.992h327.941c17.676,0,31.994-14.318,31.994-31.995
		v-15.997C435.922,121.409,421.603,135.727,403.928,135.727z"/>
</g>
<g style="opacity:0.2;">
	<path d="M403.928,183.717H35.994c-14.834,0-27.276-10.217-30.858-23.996C4.468,162.292,4,164.939,4,167.72
		c0,17.676,14.396,31.994,31.994,31.994h367.934c17.676,0,31.994,14.318,31.994,31.995v-15.998
		C435.922,198.035,421.603,183.717,403.928,183.717z"/>
</g>
<g style="opacity:0.2;">
	<path d="M435.922,231.71v95.982H35.994C18.395,327.691,4,313.374,4,295.698c0-17.677,14.396-31.994,31.994-31.994h367.934
		C421.603,263.703,435.922,249.385,435.922,231.71z"/>
</g>
<g style="opacity:0.3;">
	<path style="fill:#FFFFFF;" d="M403.928,263.703H35.994C18.395,263.703,4,278.02,4,295.697c0,2.78,0.468,5.429,1.136,7.998
		C8.718,289.917,21.16,279.7,35.994,279.7h367.934c17.676,0,31.994-14.317,31.994-31.994v-15.997
		C435.922,249.385,421.603,263.703,403.928,263.703z"/>
</g>
<g style="opacity:0.2;">
	<path d="M5.136,287.698C4.468,290.268,4,292.916,4,295.697c0,17.676,14.396,31.994,31.994,31.994h399.928v-15.997H35.994
		C21.16,311.694,8.718,301.478,5.136,287.698z"/>
</g>
<rect x="415.264" y="327.944" style="fill:#FFCE54;" width="20.66" height="111.98"/>
<g style="opacity:0.3;">
	<path style="fill:#FFFFFF;" d="M35.994,327.691C18.395,327.691,4,313.374,4,295.698v15.997c0,17.677,14.396,31.994,31.994,31.994
		h399.928v-15.997H35.994z"/>
</g>
<g style="opacity:0.2;">
	<path d="M4,391.681v15.997c0,17.677,14.396,31.994,31.994,31.994h399.928v-15.997H35.994C18.395,423.674,4,409.357,4,391.681z"/>
</g>
<g>
	<path style="fill:#3A3847;" d="M24.234,395.93c-2.207,0-4.038-1.788-4.038-3.999s1.749-3.999,3.96-3.999h0.078
		c2.21,0,3.999,1.788,3.999,3.999S26.444,395.93,24.234,395.93z"/>
	<path style="fill:#3A3847;" d="M40.231,411.926c-2.207,0-4.038-1.788-4.038-3.999c0-2.21,1.749-3.999,3.96-3.999h0.078
		c2.21,0,3.999,1.789,3.999,3.999C44.23,410.138,42.441,411.926,40.231,411.926z"/>
	<path style="fill:#3A3847;" d="M56.228,427.924c-2.207,0-4.038-1.789-4.038-4s1.749-3.999,3.96-3.999h0.078
		c2.211,0,3.999,1.788,3.999,3.999S58.439,427.924,56.228,427.924z"/>
	<path style="fill:#3A3847;" d="M24.234,363.935c-2.207,0-4.038-1.788-4.038-3.999s1.749-3.999,3.96-3.999h0.078
		c2.21,0,3.999,1.788,3.999,3.999S26.444,363.935,24.234,363.935z"/>
	<path style="fill:#3A3847;" d="M40.231,379.932c-2.207,0-4.038-1.789-4.038-3.999s1.749-3.999,3.96-3.999h0.078
		c2.21,0,3.999,1.789,3.999,3.999S42.441,379.932,40.231,379.932z"/>
	<path style="fill:#3A3847;" d="M56.228,395.93c-2.207,0-4.038-1.788-4.038-3.999s1.749-3.999,3.96-3.999h0.078
		c2.211,0,3.999,1.788,3.999,3.999S58.439,395.93,56.228,395.93z"/>
	<path style="fill:#3A3847;" d="M72.225,411.926c-2.207,0-4.038-1.788-4.038-3.999c0-2.21,1.749-3.999,3.96-3.999h0.078
		c2.211,0,3.999,1.789,3.999,3.999C76.225,410.138,74.436,411.926,72.225,411.926z"/>
	<path style="fill:#3A3847;" d="M88.223,427.924c-2.207,0-4.038-1.789-4.038-4s1.749-3.999,3.96-3.999h0.078
		c2.211,0,3.999,1.788,3.999,3.999S90.433,427.924,88.223,427.924z"/>
	<path style="fill:#3A3847;" d="M40.231,347.938c-2.207,0-4.038-1.789-4.038-3.999c0-2.211,1.749-3.999,3.96-3.999h0.078
		c2.21,0,3.999,1.788,3.999,3.999C44.23,346.148,42.441,347.938,40.231,347.938z"/>
	<path style="fill:#3A3847;" d="M56.228,363.935c-2.207,0-4.038-1.788-4.038-3.999s1.749-3.999,3.96-3.999h0.078
		c2.211,0,3.999,1.788,3.999,3.999S58.439,363.935,56.228,363.935z"/>
	<path style="fill:#3A3847;" d="M72.225,379.932c-2.207,0-4.038-1.789-4.038-3.999s1.749-3.999,3.96-3.999h0.078
		c2.211,0,3.999,1.789,3.999,3.999S74.436,379.932,72.225,379.932z"/>
	<path style="fill:#3A3847;" d="M88.223,395.93c-2.207,0-4.038-1.788-4.038-3.999s1.749-3.999,3.96-3.999h0.078
		c2.211,0,3.999,1.788,3.999,3.999S90.433,395.93,88.223,395.93z"/>
	<path style="fill:#3A3847;" d="M104.22,411.926c-2.207,0-4.038-1.788-4.038-3.999c0-2.21,1.749-3.999,3.96-3.999h0.078
		c2.211,0,3.999,1.789,3.999,3.999C108.219,410.138,106.431,411.926,104.22,411.926z"/>
	<path style="fill:#3A3847;" d="M120.217,427.924c-2.206,0-4.038-1.789-4.038-4s1.75-3.999,3.96-3.999h0.078
		c2.211,0,3.999,1.788,3.999,3.999S122.428,427.924,120.217,427.924z"/>
	<path style="fill:#3A3847;" d="M72.225,347.938c-2.207,0-4.038-1.789-4.038-3.999c0-2.211,1.749-3.999,3.96-3.999h0.078
		c2.211,0,3.999,1.788,3.999,3.999C76.225,346.148,74.436,347.938,72.225,347.938z"/>
	<path style="fill:#3A3847;" d="M88.223,363.935c-2.207,0-4.038-1.788-4.038-3.999s1.749-3.999,3.96-3.999h0.078
		c2.211,0,3.999,1.788,3.999,3.999S90.433,363.935,88.223,363.935z"/>
	<path style="fill:#3A3847;" d="M104.22,379.932c-2.207,0-4.038-1.789-4.038-3.999s1.749-3.999,3.96-3.999h0.078
		c2.211,0,3.999,1.789,3.999,3.999S106.431,379.932,104.22,379.932z"/>
	<path style="fill:#3A3847;" d="M120.217,395.93c-2.206,0-4.038-1.788-4.038-3.999s1.75-3.999,3.96-3.999h0.078
		c2.211,0,3.999,1.788,3.999,3.999S122.428,395.93,120.217,395.93z"/>
	<path style="fill:#3A3847;" d="M136.214,411.926c-2.206,0-4.038-1.788-4.038-3.999c0-2.21,1.75-3.999,3.96-3.999h0.078
		c2.211,0,3.999,1.789,3.999,3.999C140.213,410.138,138.425,411.926,136.214,411.926z"/>
	<path style="fill:#3A3847;" d="M152.211,427.924c-2.206,0-4.038-1.789-4.038-4s1.75-3.999,3.96-3.999h0.078
		c2.211,0,3.999,1.788,3.999,3.999S154.422,427.924,152.211,427.924z"/>
	<path style="fill:#3A3847;" d="M104.22,347.938c-2.207,0-4.038-1.789-4.038-3.999c0-2.211,1.749-3.999,3.96-3.999h0.078
		c2.211,0,3.999,1.788,3.999,3.999C108.219,346.148,106.431,347.938,104.22,347.938z"/>
	<path style="fill:#3A3847;" d="M120.217,363.935c-2.206,0-4.038-1.788-4.038-3.999s1.75-3.999,3.96-3.999h0.078
		c2.211,0,3.999,1.788,3.999,3.999S122.428,363.935,120.217,363.935z"/>
	<path style="fill:#3A3847;" d="M136.214,379.932c-2.206,0-4.038-1.789-4.038-3.999s1.75-3.999,3.96-3.999h0.078
		c2.211,0,3.999,1.789,3.999,3.999S138.425,379.932,136.214,379.932z"/>
	<path style="fill:#3A3847;" d="M152.211,395.93c-2.206,0-4.038-1.788-4.038-3.999s1.75-3.999,3.96-3.999h0.078
		c2.211,0,3.999,1.788,3.999,3.999S154.422,395.93,152.211,395.93z"/>
	<path style="fill:#3A3847;" d="M168.208,411.926c-2.206,0-4.038-1.788-4.038-3.999c0-2.21,1.75-3.999,3.96-3.999h0.078
		c2.211,0,4,1.789,4,3.999C172.208,410.138,170.419,411.926,168.208,411.926z"/>
	<path style="fill:#3A3847;" d="M184.205,427.924c-2.206,0-4.038-1.789-4.038-4s1.75-3.999,3.96-3.999h0.078
		c2.211,0,4,1.788,4,3.999S186.416,427.924,184.205,427.924z"/>
	<path style="fill:#3A3847;" d="M24.234,235.958c-2.207,0-4.038-1.789-4.038-4s1.749-4,3.96-4h0.078c2.21,0,3.999,1.789,3.999,4
		S26.444,235.958,24.234,235.958z"/>
	<path style="fill:#3A3847;" d="M40.231,251.956c-2.207,0-4.038-1.789-4.038-3.999c0-2.211,1.749-4,3.96-4h0.078
		c2.21,0,3.999,1.789,3.999,4C44.23,250.167,42.441,251.956,40.231,251.956z"/>
	<path style="fill:#3A3847;" d="M136.214,347.938c-2.206,0-4.038-1.789-4.038-3.999c0-2.211,1.75-3.999,3.96-3.999h0.078
		c2.211,0,3.999,1.788,3.999,3.999C140.213,346.148,138.425,347.938,136.214,347.938z"/>
	<path style="fill:#3A3847;" d="M152.211,363.935c-2.206,0-4.038-1.788-4.038-3.999s1.75-3.999,3.96-3.999h0.078
		c2.211,0,3.999,1.788,3.999,3.999S154.422,363.935,152.211,363.935z"/>
	<path style="fill:#3A3847;" d="M168.208,379.932c-2.206,0-4.038-1.789-4.038-3.999s1.75-3.999,3.96-3.999h0.078
		c2.211,0,4,1.789,4,3.999S170.419,379.932,168.208,379.932z"/>
	<path style="fill:#3A3847;" d="M184.205,395.93c-2.206,0-4.038-1.788-4.038-3.999s1.75-3.999,3.96-3.999h0.078
		c2.211,0,4,1.788,4,3.999S186.416,395.93,184.205,395.93z"/>
	<path style="fill:#3A3847;" d="M200.202,411.926c-2.206,0-4.038-1.788-4.038-3.999c0-2.21,1.75-3.999,3.96-3.999h0.078
		c2.211,0,4,1.789,4,3.999C204.202,410.138,202.413,411.926,200.202,411.926z"/>
	<path style="fill:#3A3847;" d="M216.199,427.924c-2.206,0-4.038-1.789-4.038-4s1.75-3.999,3.96-3.999h0.078
		c2.211,0,4,1.788,4,3.999S218.41,427.924,216.199,427.924z"/>
	<path style="fill:#3A3847;" d="M40.231,219.962c-2.207,0-4.038-1.789-4.038-4s1.749-4,3.96-4h0.078c2.21,0,3.999,1.789,3.999,4
		S42.441,219.962,40.231,219.962z"/>
	<path style="fill:#3A3847;" d="M56.228,235.958c-2.207,0-4.038-1.789-4.038-4s1.749-4,3.96-4h0.078c2.211,0,3.999,1.789,3.999,4
		S58.439,235.958,56.228,235.958z"/>
	<path style="fill:#3A3847;" d="M72.225,251.956c-2.207,0-4.038-1.789-4.038-3.999c0-2.211,1.749-4,3.96-4h0.078
		c2.211,0,3.999,1.789,3.999,4C76.225,250.167,74.436,251.956,72.225,251.956z"/>
	<path style="fill:#3A3847;" d="M168.208,347.938c-2.206,0-4.038-1.789-4.038-3.999c0-2.211,1.75-3.999,3.96-3.999h0.078
		c2.211,0,4,1.788,4,3.999C172.208,346.148,170.419,347.938,168.208,347.938z"/>
	<path style="fill:#3A3847;" d="M184.205,363.935c-2.206,0-4.038-1.788-4.038-3.999s1.75-3.999,3.96-3.999h0.078
		c2.211,0,4,1.788,4,3.999S186.416,363.935,184.205,363.935z"/>
	<path style="fill:#3A3847;" d="M200.202,379.932c-2.206,0-4.038-1.789-4.038-3.999s1.75-3.999,3.96-3.999h0.078
		c2.211,0,4,1.789,4,3.999S202.413,379.932,200.202,379.932z"/>
	<path style="fill:#3A3847;" d="M216.199,395.93c-2.206,0-4.038-1.788-4.038-3.999s1.75-3.999,3.96-3.999h0.078
		c2.211,0,4,1.788,4,3.999S218.41,395.93,216.199,395.93z"/>
	<path style="fill:#3A3847;" d="M232.196,411.926c-2.206,0-4.038-1.788-4.038-3.999c0-2.21,1.75-3.999,3.96-3.999h0.078
		c2.211,0,4,1.789,4,3.999C236.196,410.138,234.407,411.926,232.196,411.926z"/>
	<path style="fill:#3A3847;" d="M248.193,427.924c-2.206,0-4.038-1.789-4.038-4s1.75-3.999,3.961-3.999h0.077
		c2.211,0,4,1.788,4,3.999S250.404,427.924,248.193,427.924z"/>
	<path style="fill:#3A3847;" d="M72.225,219.962c-2.207,0-4.038-1.789-4.038-4s1.749-4,3.96-4h0.078c2.211,0,3.999,1.789,3.999,4
		S74.436,219.962,72.225,219.962z"/>
	<path style="fill:#3A3847;" d="M88.223,235.958c-2.207,0-4.038-1.789-4.038-4s1.749-4,3.96-4h0.078c2.211,0,3.999,1.789,3.999,4
		S90.433,235.958,88.223,235.958z"/>
	<path style="fill:#3A3847;" d="M104.22,251.956c-2.207,0-4.038-1.789-4.038-3.999c0-2.211,1.749-4,3.96-4h0.078
		c2.211,0,3.999,1.789,3.999,4C108.219,250.167,106.431,251.956,104.22,251.956z"/>
	<path style="fill:#3A3847;" d="M200.202,347.938c-2.206,0-4.038-1.789-4.038-3.999c0-2.211,1.75-3.999,3.96-3.999h0.078
		c2.211,0,4,1.788,4,3.999C204.202,346.148,202.413,347.938,200.202,347.938z"/>
	<path style="fill:#3A3847;" d="M216.199,363.935c-2.206,0-4.038-1.788-4.038-3.999s1.75-3.999,3.96-3.999h0.078
		c2.211,0,4,1.788,4,3.999S218.41,363.935,216.199,363.935z"/>
	<path style="fill:#3A3847;" d="M232.196,379.932c-2.206,0-4.038-1.789-4.038-3.999s1.75-3.999,3.96-3.999h0.078
		c2.211,0,4,1.789,4,3.999S234.407,379.932,232.196,379.932z"/>
	<path style="fill:#3A3847;" d="M248.193,395.93c-2.206,0-4.038-1.788-4.038-3.999s1.75-3.999,3.961-3.999h0.077
		c2.211,0,4,1.788,4,3.999S250.404,395.93,248.193,395.93z"/>
	<path style="fill:#3A3847;" d="M264.195,411.926c-2.211,0-4.043-1.788-4.043-3.999c0-2.21,1.75-3.999,3.957-3.999h0.086
		c2.202,0,3.999,1.789,3.999,3.999C268.194,410.138,266.397,411.926,264.195,411.926z"/>
	<path style="fill:#3A3847;" d="M280.192,427.924c-2.211,0-4.038-1.789-4.038-4s1.749-3.999,3.952-3.999h0.086
		c2.202,0,3.999,1.788,3.999,3.999S282.394,427.924,280.192,427.924z"/>
	<path style="fill:#3A3847;" d="M104.22,219.962c-2.207,0-4.038-1.789-4.038-4s1.749-4,3.96-4h0.078c2.211,0,3.999,1.789,3.999,4
		S106.431,219.962,104.22,219.962z"/>
	<path style="fill:#3A3847;" d="M120.217,235.958c-2.206,0-4.038-1.789-4.038-4s1.75-4,3.96-4h0.078c2.211,0,3.999,1.789,3.999,4
		S122.428,235.958,120.217,235.958z"/>
	<path style="fill:#3A3847;" d="M136.214,251.956c-2.206,0-4.038-1.789-4.038-3.999c0-2.211,1.75-4,3.96-4h0.078
		c2.211,0,3.999,1.789,3.999,4C140.213,250.167,138.425,251.956,136.214,251.956z"/>
	<path style="fill:#3A3847;" d="M232.196,347.938c-2.206,0-4.038-1.789-4.038-3.999c0-2.211,1.75-3.999,3.96-3.999h0.078
		c2.211,0,4,1.788,4,3.999C236.196,346.148,234.407,347.938,232.196,347.938z"/>
	<path style="fill:#3A3847;" d="M248.193,363.935c-2.206,0-4.038-1.788-4.038-3.999s1.75-3.999,3.961-3.999h0.077
		c2.211,0,4,1.788,4,3.999S250.404,363.935,248.193,363.935z"/>
	<path style="fill:#3A3847;" d="M264.195,379.932c-2.211,0-4.043-1.789-4.043-3.999s1.75-3.999,3.957-3.999h0.086
		c2.202,0,3.999,1.789,3.999,3.999S266.397,379.932,264.195,379.932z"/>
	<path style="fill:#3A3847;" d="M280.192,395.93c-2.211,0-4.038-1.788-4.038-3.999s1.749-3.999,3.952-3.999h0.086
		c2.202,0,3.999,1.788,3.999,3.999S282.394,395.93,280.192,395.93z"/>
	<path style="fill:#3A3847;" d="M296.189,411.926c-2.211,0-4.039-1.788-4.039-3.999c0-2.21,1.75-3.999,3.953-3.999h0.086
		c2.202,0,3.999,1.789,3.999,3.999C300.188,410.138,298.392,411.926,296.189,411.926z"/>
	<path style="fill:#3A3847;" d="M312.186,427.924c-2.211,0-4.038-1.789-4.038-4s1.749-3.999,3.952-3.999h0.086
		c2.202,0,3.999,1.788,3.999,3.999S314.389,427.924,312.186,427.924z"/>
	<path style="fill:#3A3847;" d="M136.214,219.962c-2.206,0-4.038-1.789-4.038-4s1.75-4,3.96-4h0.078c2.211,0,3.999,1.789,3.999,4
		S138.425,219.962,136.214,219.962z"/>
	<path style="fill:#3A3847;" d="M152.211,235.958c-2.206,0-4.038-1.789-4.038-4s1.75-4,3.96-4h0.078c2.211,0,3.999,1.789,3.999,4
		S154.422,235.958,152.211,235.958z"/>
	<path style="fill:#3A3847;" d="M168.208,251.956c-2.206,0-4.038-1.789-4.038-3.999c0-2.211,1.75-4,3.96-4h0.078
		c2.211,0,4,1.789,4,4C172.208,250.167,170.419,251.956,168.208,251.956z"/>
	<path style="fill:#3A3847;" d="M264.195,347.938c-2.211,0-4.043-1.789-4.043-3.999c0-2.211,1.75-3.999,3.957-3.999h0.086
		c2.202,0,3.999,1.788,3.999,3.999C268.194,346.148,266.397,347.938,264.195,347.938z"/>
	<path style="fill:#3A3847;" d="M280.192,363.935c-2.211,0-4.038-1.788-4.038-3.999s1.749-3.999,3.952-3.999h0.086
		c2.202,0,3.999,1.788,3.999,3.999S282.394,363.935,280.192,363.935z"/>
	<path style="fill:#3A3847;" d="M296.189,379.932c-2.211,0-4.039-1.789-4.039-3.999s1.75-3.999,3.953-3.999h0.086
		c2.202,0,3.999,1.789,3.999,3.999S298.392,379.932,296.189,379.932z"/>
	<path style="fill:#3A3847;" d="M312.186,395.93c-2.211,0-4.038-1.788-4.038-3.999s1.749-3.999,3.952-3.999h0.086
		c2.202,0,3.999,1.788,3.999,3.999S314.389,395.93,312.186,395.93z"/>
	<path style="fill:#3A3847;" d="M328.183,411.926c-2.211,0-4.039-1.788-4.039-3.999c0-2.21,1.75-3.999,3.953-3.999h0.086
		c2.203,0,3.999,1.789,3.999,3.999C332.183,410.138,330.387,411.926,328.183,411.926z"/>
	<path style="fill:#3A3847;" d="M344.181,427.924c-2.211,0-4.038-1.789-4.038-4s1.749-3.999,3.952-3.999h0.086
		c2.202,0,3.999,1.788,3.999,3.999S346.383,427.924,344.181,427.924z"/>
	<path style="fill:#3A3847;" d="M168.208,219.962c-2.206,0-4.038-1.789-4.038-4s1.75-4,3.96-4h0.078c2.211,0,4,1.789,4,4
		S170.419,219.962,168.208,219.962z"/>
	<path style="fill:#3A3847;" d="M184.205,235.958c-2.206,0-4.038-1.789-4.038-4s1.75-4,3.96-4h0.078c2.211,0,4,1.789,4,4
		S186.416,235.958,184.205,235.958z"/>
	<path style="fill:#3A3847;" d="M200.202,251.956c-2.206,0-4.038-1.789-4.038-3.999c0-2.211,1.75-4,3.96-4h0.078
		c2.211,0,4,1.789,4,4C204.202,250.167,202.413,251.956,200.202,251.956z"/>
	<path style="fill:#3A3847;" d="M296.189,347.938c-2.211,0-4.039-1.789-4.039-3.999c0-2.211,1.75-3.999,3.953-3.999h0.086
		c2.202,0,3.999,1.788,3.999,3.999C300.188,346.148,298.392,347.938,296.189,347.938z"/>
	<path style="fill:#3A3847;" d="M312.186,363.935c-2.211,0-4.038-1.788-4.038-3.999s1.749-3.999,3.952-3.999h0.086
		c2.202,0,3.999,1.788,3.999,3.999S314.389,363.935,312.186,363.935z"/>
	<path style="fill:#3A3847;" d="M328.183,379.932c-2.211,0-4.039-1.789-4.039-3.999s1.75-3.999,3.953-3.999h0.086
		c2.203,0,3.999,1.789,3.999,3.999S330.387,379.932,328.183,379.932z"/>
	<path style="fill:#3A3847;" d="M344.181,395.93c-2.211,0-4.038-1.788-4.038-3.999s1.749-3.999,3.952-3.999h0.086
		c2.202,0,3.999,1.788,3.999,3.999S346.383,395.93,344.181,395.93z"/>
	<path style="fill:#3A3847;" d="M360.178,411.926c-2.211,0-4.038-1.788-4.038-3.999c0-2.21,1.749-3.999,3.952-3.999h0.086
		c2.203,0,3.999,1.789,3.999,3.999C364.177,410.138,362.381,411.926,360.178,411.926z"/>
	<path style="fill:#3A3847;" d="M376.175,427.924c-2.21,0-4.038-1.789-4.038-4s1.75-3.999,3.952-3.999h0.086
		c2.202,0,3.999,1.788,3.999,3.999S378.377,427.924,376.175,427.924z"/>
	<path style="fill:#3A3847;" d="M200.202,219.962c-2.206,0-4.038-1.789-4.038-4s1.75-4,3.96-4h0.078c2.211,0,4,1.789,4,4
		S202.413,219.962,200.202,219.962z"/>
	<path style="fill:#3A3847;" d="M216.199,235.958c-2.206,0-4.038-1.789-4.038-4s1.75-4,3.96-4h0.078c2.211,0,4,1.789,4,4
		S218.41,235.958,216.199,235.958z"/>
	<path style="fill:#3A3847;" d="M232.196,251.956c-2.206,0-4.038-1.789-4.038-3.999c0-2.211,1.75-4,3.96-4h0.078
		c2.211,0,4,1.789,4,4C236.196,250.167,234.407,251.956,232.196,251.956z"/>
	<path style="fill:#3A3847;" d="M328.183,347.938c-2.211,0-4.039-1.789-4.039-3.999c0-2.211,1.75-3.999,3.953-3.999h0.086
		c2.203,0,3.999,1.788,3.999,3.999C332.183,346.148,330.387,347.938,328.183,347.938z"/>
	<path style="fill:#3A3847;" d="M344.181,363.935c-2.211,0-4.038-1.788-4.038-3.999s1.749-3.999,3.952-3.999h0.086
		c2.202,0,3.999,1.788,3.999,3.999S346.383,363.935,344.181,363.935z"/>
	<path style="fill:#3A3847;" d="M360.178,379.932c-2.211,0-4.038-1.789-4.038-3.999s1.749-3.999,3.952-3.999h0.086
		c2.203,0,3.999,1.789,3.999,3.999S362.381,379.932,360.178,379.932z"/>
	<path style="fill:#3A3847;" d="M376.175,395.93c-2.21,0-4.038-1.788-4.038-3.999s1.75-3.999,3.952-3.999h0.086
		c2.202,0,3.999,1.788,3.999,3.999S378.377,395.93,376.175,395.93z"/>
	<path style="fill:#3A3847;" d="M392.172,411.926c-2.211,0-4.038-1.788-4.038-3.999c0-2.21,1.749-3.999,3.952-3.999h0.086
		c2.203,0,3.999,1.789,3.999,3.999C396.171,410.138,394.375,411.926,392.172,411.926z"/>
	<path style="fill:#3A3847;" d="M120.217,107.982c-2.206,0-4.038-1.789-4.038-4c0-2.21,1.75-3.999,3.96-3.999h0.078
		c2.211,0,3.999,1.789,3.999,3.999C124.216,106.193,122.428,107.982,120.217,107.982z"/>
	<path style="fill:#3A3847;" d="M136.214,123.979c-2.206,0-4.038-1.789-4.038-4c0-2.21,1.75-3.999,3.96-3.999h0.078
		c2.211,0,3.999,1.789,3.999,3.999C140.213,122.19,138.425,123.979,136.214,123.979z"/>
	<path style="fill:#3A3847;" d="M232.196,219.962c-2.206,0-4.038-1.789-4.038-4s1.75-4,3.96-4h0.078c2.211,0,4,1.789,4,4
		S234.407,219.962,232.196,219.962z"/>
	<path style="fill:#3A3847;" d="M248.193,235.958c-2.206,0-4.038-1.789-4.038-4s1.75-4,3.961-4h0.077c2.211,0,4,1.789,4,4
		S250.404,235.958,248.193,235.958z"/>
	<path style="fill:#3A3847;" d="M264.195,251.956c-2.211,0-4.043-1.789-4.043-3.999c0-2.211,1.75-4,3.957-4h0.086
		c2.202,0,3.999,1.789,3.999,4C268.194,250.167,266.397,251.956,264.195,251.956z"/>
	<path style="fill:#3A3847;" d="M360.178,347.938c-2.211,0-4.038-1.789-4.038-3.999c0-2.211,1.749-3.999,3.952-3.999h0.086
		c2.203,0,3.999,1.788,3.999,3.999C364.177,346.148,362.381,347.938,360.178,347.938z"/>
	<path style="fill:#3A3847;" d="M376.175,363.935c-2.21,0-4.038-1.788-4.038-3.999s1.75-3.999,3.952-3.999h0.086
		c2.202,0,3.999,1.788,3.999,3.999S378.377,363.935,376.175,363.935z"/>
	<path style="fill:#3A3847;" d="M392.172,379.932c-2.211,0-4.038-1.789-4.038-3.999s1.749-3.999,3.952-3.999h0.086
		c2.203,0,3.999,1.789,3.999,3.999S394.375,379.932,392.172,379.932z"/>
	<path style="fill:#3A3847;" d="M136.214,91.985c-2.206,0-4.038-1.789-4.038-4c0-2.21,1.75-3.999,3.96-3.999h0.078
		c2.211,0,3.999,1.789,3.999,3.999C140.213,90.196,138.425,91.985,136.214,91.985z"/>
	<path style="fill:#3A3847;" d="M152.211,107.982c-2.206,0-4.038-1.789-4.038-4c0-2.21,1.75-3.999,3.96-3.999h0.078
		c2.211,0,3.999,1.789,3.999,3.999C156.21,106.193,154.422,107.982,152.211,107.982z"/>
	<path style="fill:#3A3847;" d="M168.208,123.979c-2.206,0-4.038-1.789-4.038-4c0-2.21,1.75-3.999,3.96-3.999h0.078
		c2.211,0,4,1.789,4,3.999C172.208,122.19,170.419,123.979,168.208,123.979z"/>
	<path style="fill:#3A3847;" d="M264.195,219.962c-2.211,0-4.043-1.789-4.043-4s1.75-4,3.957-4h0.086c2.202,0,3.999,1.789,3.999,4
		S266.397,219.962,264.195,219.962z"/>
	<path style="fill:#3A3847;" d="M280.192,235.958c-2.211,0-4.038-1.789-4.038-4s1.749-4,3.952-4h0.086c2.202,0,3.999,1.789,3.999,4
		S282.394,235.958,280.192,235.958z"/>
	<path style="fill:#3A3847;" d="M296.189,251.956c-2.211,0-4.039-1.789-4.039-3.999c0-2.211,1.75-4,3.953-4h0.086
		c2.202,0,3.999,1.789,3.999,4C300.188,250.167,298.392,251.956,296.189,251.956z"/>
	<path style="fill:#3A3847;" d="M392.172,347.938c-2.211,0-4.038-1.789-4.038-3.999c0-2.211,1.749-3.999,3.952-3.999h0.086
		c2.203,0,3.999,1.788,3.999,3.999C396.171,346.148,394.375,347.938,392.172,347.938z"/>
	<path style="fill:#3A3847;" d="M168.208,91.985c-2.206,0-4.038-1.789-4.038-4c0-2.21,1.75-3.999,3.96-3.999h0.078
		c2.211,0,4,1.789,4,3.999C172.208,90.196,170.419,91.985,168.208,91.985z"/>
	<path style="fill:#3A3847;" d="M184.205,107.982c-2.206,0-4.038-1.789-4.038-4c0-2.21,1.75-3.999,3.96-3.999h0.078
		c2.211,0,4,1.789,4,3.999C188.205,106.193,186.416,107.982,184.205,107.982z"/>
	<path style="fill:#3A3847;" d="M200.202,123.979c-2.206,0-4.038-1.789-4.038-4c0-2.21,1.75-3.999,3.96-3.999h0.078
		c2.211,0,4,1.789,4,3.999C204.202,122.19,202.413,123.979,200.202,123.979z"/>
	<path style="fill:#3A3847;" d="M296.189,219.962c-2.211,0-4.039-1.789-4.039-4s1.75-4,3.953-4h0.086c2.202,0,3.999,1.789,3.999,4
		S298.392,219.962,296.189,219.962z"/>
	<path style="fill:#3A3847;" d="M312.186,235.958c-2.211,0-4.038-1.789-4.038-4s1.749-4,3.952-4h0.086c2.202,0,3.999,1.789,3.999,4
		S314.389,235.958,312.186,235.958z"/>
	<path style="fill:#3A3847;" d="M328.183,251.956c-2.211,0-4.039-1.789-4.039-3.999c0-2.211,1.75-4,3.953-4h0.086
		c2.203,0,3.999,1.789,3.999,4C332.183,250.167,330.387,251.956,328.183,251.956z"/>
	<path style="fill:#3A3847;" d="M200.202,91.985c-2.206,0-4.038-1.789-4.038-4c0-2.21,1.75-3.999,3.96-3.999h0.078
		c2.211,0,4,1.789,4,3.999C204.202,90.196,202.413,91.985,200.202,91.985z"/>
	<path style="fill:#3A3847;" d="M216.199,107.982c-2.206,0-4.038-1.789-4.038-4c0-2.21,1.75-3.999,3.96-3.999h0.078
		c2.211,0,4,1.789,4,3.999C220.199,106.193,218.41,107.982,216.199,107.982z"/>
	<path style="fill:#3A3847;" d="M232.196,123.979c-2.206,0-4.038-1.789-4.038-4c0-2.21,1.75-3.999,3.96-3.999h0.078
		c2.211,0,4,1.789,4,3.999C236.196,122.19,234.407,123.979,232.196,123.979z"/>
	<path style="fill:#3A3847;" d="M328.183,219.962c-2.211,0-4.039-1.789-4.039-4s1.75-4,3.953-4h0.086c2.203,0,3.999,1.789,3.999,4
		S330.387,219.962,328.183,219.962z"/>
	<path style="fill:#3A3847;" d="M344.181,235.958c-2.211,0-4.038-1.789-4.038-4s1.749-4,3.952-4h0.086c2.202,0,3.999,1.789,3.999,4
		S346.383,235.958,344.181,235.958z"/>
	<path style="fill:#3A3847;" d="M360.178,251.956c-2.211,0-4.038-1.789-4.038-3.999c0-2.211,1.749-4,3.952-4h0.086
		c2.203,0,3.999,1.789,3.999,4C364.177,250.167,362.381,251.956,360.178,251.956z"/>
	<path style="fill:#3A3847;" d="M232.196,91.985c-2.206,0-4.038-1.789-4.038-4c0-2.21,1.75-3.999,3.96-3.999h0.078
		c2.211,0,4,1.789,4,3.999C236.196,90.196,234.407,91.985,232.196,91.985z"/>
	<path style="fill:#3A3847;" d="M248.193,107.982c-2.206,0-4.038-1.789-4.038-4c0-2.21,1.75-3.999,3.961-3.999h0.077
		c2.211,0,4,1.789,4,3.999C252.193,106.193,250.404,107.982,248.193,107.982z"/>
	<path style="fill:#3A3847;" d="M264.195,123.979c-2.211,0-4.043-1.789-4.043-4c0-2.21,1.75-3.999,3.957-3.999h0.086
		c2.202,0,3.999,1.789,3.999,3.999C268.194,122.19,266.397,123.979,264.195,123.979z"/>
	<path style="fill:#3A3847;" d="M360.178,219.962c-2.211,0-4.038-1.789-4.038-4s1.749-4,3.952-4h0.086c2.203,0,3.999,1.789,3.999,4
		S362.381,219.962,360.178,219.962z"/>
	<path style="fill:#3A3847;" d="M376.175,235.958c-2.21,0-4.038-1.789-4.038-4s1.75-4,3.952-4h0.086c2.202,0,3.999,1.789,3.999,4
		S378.377,235.958,376.175,235.958z"/>
	<path style="fill:#3A3847;" d="M392.172,251.956c-2.211,0-4.038-1.789-4.038-3.999c0-2.211,1.749-4,3.952-4h0.086
		c2.203,0,3.999,1.789,3.999,4C396.171,250.167,394.375,251.956,392.172,251.956z"/>
	<path style="fill:#3A3847;" d="M264.195,91.985c-2.211,0-4.043-1.789-4.043-4c0-2.21,1.75-3.999,3.957-3.999h0.086
		c2.202,0,3.999,1.789,3.999,3.999C268.194,90.196,266.397,91.985,264.195,91.985z"/>
	<path style="fill:#3A3847;" d="M280.192,107.982c-2.211,0-4.038-1.789-4.038-4c0-2.21,1.749-3.999,3.952-3.999h0.086
		c2.202,0,3.999,1.789,3.999,3.999C284.191,106.193,282.394,107.982,280.192,107.982z"/>
	<path style="fill:#3A3847;" d="M296.189,123.979c-2.211,0-4.039-1.789-4.039-4c0-2.21,1.75-3.999,3.953-3.999h0.086
		c2.202,0,3.999,1.789,3.999,3.999C300.188,122.19,298.392,123.979,296.189,123.979z"/>
	<path style="fill:#3A3847;" d="M392.172,219.962c-2.211,0-4.038-1.789-4.038-4s1.749-4,3.952-4h0.086c2.203,0,3.999,1.789,3.999,4
		S394.375,219.962,392.172,219.962z"/>
	<path style="fill:#3A3847;" d="M408.169,235.958c-2.21,0-4.038-1.789-4.038-4s1.75-4,3.952-4h0.086c2.203,0,3.999,1.789,3.999,4
		S410.372,235.958,408.169,235.958z"/>
	<path style="fill:#3A3847;" d="M296.189,91.985c-2.211,0-4.039-1.789-4.039-4c0-2.21,1.75-3.999,3.953-3.999h0.086
		c2.202,0,3.999,1.789,3.999,3.999C300.188,90.196,298.392,91.985,296.189,91.985z"/>
	<path style="fill:#3A3847;" d="M312.186,107.982c-2.211,0-4.038-1.789-4.038-4c0-2.21,1.749-3.999,3.952-3.999h0.086
		c2.202,0,3.999,1.789,3.999,3.999C316.185,106.193,314.389,107.982,312.186,107.982z"/>
	<path style="fill:#3A3847;" d="M328.183,123.979c-2.211,0-4.039-1.789-4.039-4c0-2.21,1.75-3.999,3.953-3.999h0.086
		c2.203,0,3.999,1.789,3.999,3.999C332.183,122.19,330.387,123.979,328.183,123.979z"/>
	<path style="fill:#3A3847;" d="M328.183,91.985c-2.211,0-4.039-1.789-4.039-4c0-2.21,1.75-3.999,3.953-3.999h0.086
		c2.203,0,3.999,1.789,3.999,3.999C332.183,90.196,330.387,91.985,328.183,91.985z"/>
	<path style="fill:#3A3847;" d="M344.181,107.982c-2.211,0-4.038-1.789-4.038-4c0-2.21,1.749-3.999,3.952-3.999h0.086
		c2.202,0,3.999,1.789,3.999,3.999C348.18,106.193,346.383,107.982,344.181,107.982z"/>
	<path style="fill:#3A3847;" d="M360.178,123.979c-2.211,0-4.038-1.789-4.038-4c0-2.21,1.749-3.999,3.952-3.999h0.086
		c2.203,0,3.999,1.789,3.999,3.999C364.177,122.19,362.381,123.979,360.178,123.979z"/>
	<path style="fill:#3A3847;" d="M360.178,91.985c-2.211,0-4.038-1.789-4.038-4c0-2.21,1.749-3.999,3.952-3.999h0.086
		c2.203,0,3.999,1.789,3.999,3.999C364.177,90.196,362.381,91.985,360.178,91.985z"/>
	<path style="fill:#3A3847;" d="M376.175,107.982c-2.21,0-4.038-1.789-4.038-4c0-2.21,1.75-3.999,3.952-3.999h0.086
		c2.202,0,3.999,1.789,3.999,3.999C380.174,106.193,378.377,107.982,376.175,107.982z"/>
	<path style="fill:#3A3847;" d="M392.172,123.979c-2.211,0-4.038-1.789-4.038-4c0-2.21,1.749-3.999,3.952-3.999h0.086
		c2.203,0,3.999,1.789,3.999,3.999C396.171,122.19,394.375,123.979,392.172,123.979z"/>
	<path style="fill:#3A3847;" d="M392.172,91.985c-2.211,0-4.038-1.789-4.038-4c0-2.21,1.749-3.999,3.952-3.999h0.086
		c2.203,0,3.999,1.789,3.999,3.999C396.171,90.196,394.375,91.985,392.172,91.985z"/>
	<path style="fill:#3A3847;" d="M408.169,107.982c-2.21,0-4.038-1.789-4.038-4c0-2.21,1.75-3.999,3.952-3.999h0.086
		c2.203,0,3.999,1.789,3.999,3.999C412.168,106.193,410.372,107.982,408.169,107.982z"/>
	<path style="fill:#3A3847;" d="M4,411.926c-2.211,0-4-1.788-4-3.999v-111.98c0-2.211,1.789-4,4-4c2.21,0,3.999,1.789,3.999,4
		v111.979C7.999,410.138,6.21,411.926,4,411.926z"/>
	<path style="fill:#3A3847;" d="M435.922,443.921H35.994c-2.211,0-4-1.788-4-3.999c0-2.21,1.789-3.999,4-3.999h399.928
		c2.211,0,3.999,1.789,3.999,3.999C439.921,442.133,438.133,443.921,435.922,443.921z"/>
	<path style="fill:#3A3847;" d="M435.922,331.94H35.994c-2.211,0-4-1.788-4-3.999s1.789-4,4-4h399.928c2.211,0,3.999,1.789,3.999,4
		S438.133,331.94,435.922,331.94z"/>
	<path style="fill:#3A3847;" d="M435.922,443.921c-2.211,0-3.999-1.788-3.999-3.999v-111.98c0-2.211,1.788-4,3.999-4
		s3.999,1.789,3.999,4v111.979C439.921,442.133,438.133,443.921,435.922,443.921z"/>
	<path style="fill:#3A3847;" d="M507.909,443.921H443.92c-2.21,0-3.999-1.788-3.999-3.999c0-2.21,1.789-3.999,3.999-3.999h63.989
		c2.21,0,3.999,1.789,3.999,3.999C511.908,442.133,510.119,443.921,507.909,443.921z"/>
	<path style="fill:#3A3847;" d="M507.909,331.94H443.92c-2.21,0-3.999-1.788-3.999-3.999s1.789-4,3.999-4h63.989
		c2.21,0,3.999,1.789,3.999,4S510.119,331.94,507.909,331.94z"/>
	<path style="fill:#3A3847;" d="M491.912,347.938H443.92c-2.21,0-3.999-1.789-3.999-3.999c0-2.211,1.789-3.999,3.999-3.999h47.992
		c2.21,0,3.999,1.788,3.999,3.999C495.911,346.148,494.122,347.938,491.912,347.938z"/>
	<path style="fill:#3A3847;" d="M475.914,363.935H443.92c-2.21,0-3.999-1.788-3.999-3.999s1.789-3.999,3.999-3.999h31.994
		c2.211,0,4,1.788,4,3.999S478.125,363.935,475.914,363.935z"/>
	<path style="fill:#3A3847;" d="M459.918,379.932H443.92c-2.21,0-3.999-1.789-3.999-3.999s1.789-3.999,3.999-3.999h15.998
		c2.21,0,3.999,1.789,3.999,3.999S462.128,379.932,459.918,379.932z"/>
	<path style="fill:#3A3847;" d="M459.918,395.93H443.92c-2.21,0-3.999-1.788-3.999-3.999s1.789-3.999,3.999-3.999h15.998
		c2.21,0,3.999,1.788,3.999,3.999S462.128,395.93,459.918,395.93z"/>
	<path style="fill:#3A3847;" d="M475.914,411.926H443.92c-2.21,0-3.999-1.788-3.999-3.999c0-2.21,1.789-3.999,3.999-3.999h31.994
		c2.211,0,4,1.789,4,3.999C479.914,410.138,478.125,411.926,475.914,411.926z"/>
	<path style="fill:#3A3847;" d="M491.912,427.924H443.92c-2.21,0-3.999-1.789-3.999-4s1.789-3.999,3.999-3.999h47.992
		c2.21,0,3.999,1.788,3.999,3.999S494.122,427.924,491.912,427.924z"/>
	<path style="fill:#3A3847;" d="M67.988,75.988H4c-2.211,0-4-1.789-4-4c0-2.21,1.789-3.999,4-3.999h63.988
		c2.21,0,3.999,1.789,3.999,3.999C71.987,74.199,70.198,75.988,67.988,75.988z"/>
	<path style="fill:#3A3847;" d="M67.988,123.979H51.991c-2.211,0-4-1.789-4-4c0-2.21,1.789-3.999,4-3.999h15.997
		c2.21,0,3.999,1.789,3.999,3.999C71.987,122.19,70.198,123.979,67.988,123.979z"/>
	<path style="fill:#3A3847;" d="M67.988,107.982H35.994c-2.211,0-4-1.789-4-4c0-2.21,1.789-3.999,4-3.999h31.994
		c2.21,0,3.999,1.789,3.999,3.999C71.987,106.193,70.198,107.982,67.988,107.982z"/>
	<path style="fill:#3A3847;" d="M67.988,91.985H19.997c-2.211,0-4-1.789-4-4c0-2.21,1.789-3.999,4-3.999h47.991
		c2.21,0,3.999,1.789,3.999,3.999C71.987,90.196,70.198,91.985,67.988,91.985z"/>
	<path style="fill:#3A3847;" d="M419.261,355.936c-1.023,0-2.046-0.391-2.827-1.172l-7.999-7.999c-1.562-1.562-1.562-4.093,0-5.654
		c1.562-1.562,4.093-1.562,5.655,0l7.998,7.998c1.562,1.562,1.562,4.093,0,5.655C421.308,355.547,420.284,355.936,419.261,355.936z"
		/>
	<path style="fill:#3A3847;" d="M411.262,363.935c-1.022,0-2.046-0.391-2.827-1.171c-1.562-1.562-1.562-4.094,0-5.656l7.999-7.998
		c1.562-1.562,4.093-1.562,5.654,0c1.562,1.562,1.562,4.093,0,5.655l-7.998,7.999C413.308,363.544,412.285,363.935,411.262,363.935z
		"/>
	<path style="fill:#3A3847;" d="M419.261,339.939c-1.023,0-2.046-0.391-2.827-1.172l-7.999-7.999c-1.562-1.562-1.562-4.093,0-5.655
		s4.093-1.562,5.655,0l7.998,7.999c1.562,1.562,1.562,4.093,0,5.655C421.308,339.549,420.284,339.939,419.261,339.939z"/>
	<path style="fill:#3A3847;" d="M411.262,347.938c-1.022,0-2.046-0.391-2.827-1.172c-1.562-1.562-1.562-4.093,0-5.654l7.999-7.999
		c1.562-1.562,4.093-1.562,5.654,0c1.562,1.562,1.562,4.093,0,5.655l-7.998,7.998C413.308,347.547,412.285,347.938,411.262,347.938z
		"/>
	<path style="fill:#3A3847;" d="M419.261,371.934c-1.023,0-2.046-0.391-2.827-1.172l-7.999-7.998c-1.562-1.562-1.562-4.094,0-5.656
		s4.093-1.562,5.655,0l7.998,7.999c1.562,1.562,1.562,4.093,0,5.655C421.308,371.543,420.284,371.934,419.261,371.934z"/>
	<path style="fill:#3A3847;" d="M411.262,379.932c-1.022,0-2.046-0.391-2.827-1.172c-1.562-1.562-1.562-4.093,0-5.654l7.999-7.999
		c1.562-1.562,4.093-1.562,5.654,0c1.562,1.562,1.562,4.093,0,5.655l-7.998,7.998C413.308,379.542,412.285,379.932,411.262,379.932z
		"/>
	<path style="fill:#3A3847;" d="M419.261,387.931c-1.023,0-2.046-0.391-2.827-1.172l-7.999-7.999c-1.562-1.562-1.562-4.093,0-5.654
		c1.562-1.562,4.093-1.562,5.655,0l7.998,7.998c1.562,1.562,1.562,4.093,0,5.655C421.308,387.54,420.284,387.931,419.261,387.931z"
		/>
	<path style="fill:#3A3847;" d="M411.262,395.93c-1.022,0-2.046-0.39-2.827-1.171c-1.562-1.562-1.562-4.094,0-5.656l7.999-7.998
		c1.562-1.562,4.093-1.562,5.654,0c1.562,1.562,1.562,4.093,0,5.655l-7.998,7.999C413.308,395.539,412.285,395.93,411.262,395.93z"
		/>
	<path style="fill:#3A3847;" d="M419.261,403.928c-1.023,0-2.046-0.391-2.827-1.172l-7.999-7.998c-1.562-1.562-1.562-4.094,0-5.656
		s4.093-1.562,5.655,0l7.998,7.999c1.562,1.562,1.562,4.093,0,5.655C421.308,403.538,420.284,403.928,419.261,403.928z"/>
	<path style="fill:#3A3847;" d="M411.262,411.926c-1.022,0-2.046-0.391-2.827-1.172c-1.562-1.562-1.562-4.093,0-5.654l7.999-7.999
		c1.562-1.562,4.093-1.562,5.654,0c1.562,1.562,1.562,4.093,0,5.655l-7.998,7.998C413.308,411.535,412.285,411.926,411.262,411.926z
		"/>
	<path style="fill:#3A3847;" d="M419.261,419.926c-1.023,0-2.046-0.391-2.827-1.172l-7.999-7.999c-1.562-1.562-1.562-4.093,0-5.654
		c1.562-1.562,4.093-1.562,5.655,0l7.998,7.998c1.562,1.562,1.562,4.094,0,5.655C421.308,419.534,420.284,419.926,419.261,419.926z"
		/>
	<path style="fill:#3A3847;" d="M411.262,427.924c-1.022,0-2.046-0.391-2.827-1.172c-1.562-1.562-1.562-4.094,0-5.655l7.999-7.999
		c1.562-1.562,4.093-1.562,5.654,0c1.562,1.562,1.562,4.094,0,5.655l-7.998,7.999C413.308,427.534,412.285,427.924,411.262,427.924z
		"/>
	<path style="fill:#3A3847;" d="M419.261,435.922c-1.023,0-2.046-0.391-2.827-1.172l-7.999-7.998c-1.562-1.562-1.562-4.094,0-5.655
		c1.562-1.562,4.093-1.562,5.655,0l7.998,7.998c1.562,1.562,1.562,4.093,0,5.655C421.308,435.531,420.284,435.922,419.261,435.922z"
		/>
	<path style="fill:#3A3847;" d="M411.262,443.921c-1.022,0-2.046-0.391-2.827-1.171c-1.562-1.562-1.562-4.093,0-5.655l7.999-7.999
		c1.562-1.562,4.093-1.562,5.654,0c1.562,1.562,1.562,4.093,0,5.655l-7.998,7.999C413.308,443.53,412.285,443.921,411.262,443.921z"
		/>
	<path style="fill:#3A3847;" d="M91.983,99.983c-1.022,0-2.046-0.391-2.827-1.172c-1.562-1.562-1.562-4.093,0-5.655l7.998-7.998
		c1.562-1.562,4.094-1.562,5.655,0c1.562,1.562,1.562,4.093,0,5.655l-7.998,7.998C94.03,99.593,93.007,99.983,91.983,99.983z"/>
	<path style="fill:#3A3847;" d="M99.982,107.982c-1.023,0-2.047-0.391-2.828-1.171l-7.998-7.999c-1.562-1.562-1.562-4.093,0-5.655
		s4.093-1.562,5.655,0l7.998,7.999c1.562,1.562,1.562,4.093,0,5.655C102.028,107.591,101.006,107.982,99.982,107.982z"/>
	<path style="fill:#3A3847;" d="M91.983,83.986c-1.022,0-2.046-0.391-2.827-1.172c-1.562-1.562-1.562-4.093,0-5.655l7.998-7.998
		c1.562-1.562,4.094-1.562,5.655,0c1.562,1.562,1.562,4.093,0,5.655l-7.998,7.998C94.03,83.596,93.007,83.986,91.983,83.986z"/>
	<path style="fill:#3A3847;" d="M99.982,91.985c-1.023,0-2.047-0.391-2.828-1.171l-7.998-7.999c-1.562-1.562-1.562-4.093,0-5.655
		s4.093-1.562,5.655,0l7.998,7.999c1.562,1.562,1.562,4.093,0,5.655C102.028,91.594,101.006,91.985,99.982,91.985z"/>
	<path style="fill:#3A3847;" d="M91.983,115.98c-1.022,0-2.046-0.391-2.827-1.172c-1.562-1.562-1.562-4.093,0-5.655l7.998-7.998
		c1.562-1.562,4.094-1.562,5.655,0c1.562,1.562,1.562,4.093,0,5.655l-7.998,7.998C94.03,115.59,93.007,115.98,91.983,115.98z"/>
	<path style="fill:#3A3847;" d="M99.982,123.979c-1.023,0-2.047-0.391-2.828-1.171l-7.998-7.999c-1.562-1.562-1.562-4.093,0-5.655
		s4.093-1.562,5.655,0l7.998,7.999c1.562,1.562,1.562,4.093,0,5.655C102.028,123.588,101.006,123.979,99.982,123.979z"/>
	<path style="fill:#3A3847;" d="M91.983,131.977c-1.022,0-2.046-0.391-2.827-1.172c-1.562-1.562-1.562-4.093,0-5.655l7.998-7.998
		c1.562-1.562,4.094-1.562,5.655,0c1.562,1.562,1.562,4.093,0,5.655l-7.998,7.998C94.03,131.587,93.007,131.977,91.983,131.977z"/>
	<path style="fill:#3A3847;" d="M99.982,139.975c-1.023,0-2.047-0.39-2.828-1.171l-7.998-7.999c-1.562-1.562-1.562-4.093,0-5.655
		s4.093-1.562,5.655,0l7.998,7.999c1.562,1.562,1.562,4.093,0,5.655C102.028,139.585,101.006,139.975,99.982,139.975z"/>
	<path style="fill:#3A3847;" d="M35.994,331.94C16.145,331.94,0,315.794,0,295.947s16.146-35.994,35.994-35.994
		c2.21,0,3.999,1.789,3.999,4c0,2.21-1.789,3.999-3.999,3.999c-15.435,0-27.995,12.561-27.995,27.995s12.561,27.994,27.995,27.994
		c2.21,0,3.999,1.789,3.999,4S38.204,331.94,35.994,331.94z"/>
	<path style="fill:#3A3847;" d="M35.994,443.921C16.145,443.921,0,427.776,0,407.927c0-2.21,1.789-3.999,4-3.999
		c2.21,0,3.999,1.789,3.999,3.999c0,15.435,12.561,27.995,27.995,27.995c2.21,0,3.999,1.789,3.999,3.999
		C39.993,442.133,38.204,443.921,35.994,443.921z"/>
	<path style="fill:#3A3847;" d="M403.928,139.975c-2.211,0-4-1.789-4-4c0-2.21,1.789-3.999,4-3.999
		c15.435,0,27.995-12.56,27.995-27.995s-12.561-27.995-27.995-27.995c-2.211,0-4-1.789-4-4c0-2.21,1.789-3.999,4-3.999
		c19.848,0,35.993,16.146,35.993,35.993C439.921,123.83,423.775,139.975,403.928,139.975z"/>
	<path style="fill:#3A3847;" d="M35.994,203.964C16.145,203.964,0,187.818,0,167.97s16.146-35.994,35.994-35.994
		c2.21,0,3.999,1.789,3.999,3.999c0,2.211-1.789,4-3.999,4c-15.435,0-27.995,12.56-27.995,27.995s12.561,27.995,27.995,27.995
		c2.21,0,3.999,1.789,3.999,4S38.204,203.964,35.994,203.964z"/>
	<path style="fill:#3A3847;" d="M403.928,267.952c-2.211,0-4-1.789-4-3.999c0-2.211,1.789-4,4-4
		c15.435,0,27.995-12.56,27.995-27.995s-12.561-27.995-27.995-27.995c-2.211,0-4-1.789-4-4s1.789-4,4-4
		c19.848,0,35.993,16.146,35.993,35.994S423.775,267.952,403.928,267.952z"/>
	<path style="fill:#3A3847;" d="M435.922,315.944c-2.211,0-3.999-1.789-3.999-3.999v-79.986c0-2.21,1.788-4,3.999-4
		s3.999,1.789,3.999,4v79.986C439.921,314.155,438.133,315.944,435.922,315.944z"/>
	<path style="fill:#3A3847;" d="M403.928,267.952H35.994c-2.211,0-4-1.789-4-3.999c0-2.211,1.789-4,4-4h367.934
		c2.211,0,3.999,1.789,3.999,4C407.927,266.164,406.139,267.952,403.928,267.952z"/>
	<path style="fill:#3A3847;" d="M403.928,203.964H35.994c-2.211,0-4-1.789-4-4s1.789-4,4-4h367.934c2.211,0,3.999,1.789,3.999,4
		S406.139,203.964,403.928,203.964z"/>
	<path style="fill:#3A3847;" d="M4,267.952c-2.211,0-4-1.789-4-3.999V167.97c0-2.21,1.789-4,4-4c2.21,0,3.999,1.789,3.999,4v95.983
		C7.999,266.164,6.21,267.952,4,267.952z"/>
	<path style="fill:#3A3847;" d="M403.928,139.975H35.994c-2.211,0-4-1.789-4-4c0-2.21,1.789-3.999,4-3.999h367.934
		c2.211,0,3.999,1.789,3.999,3.999C407.927,138.186,406.139,139.975,403.928,139.975z"/>
	<path style="fill:#3A3847;" d="M403.928,75.988H75.986c-2.21,0-3.999-1.789-3.999-4c0-2.21,1.789-3.999,3.999-3.999h327.941
		c2.211,0,3.999,1.789,3.999,3.999C407.927,74.199,406.139,75.988,403.928,75.988z"/>
	<path style="fill:#3A3847;" d="M75.986,123.979c-2.21,0-3.999-1.789-3.999-4V71.988c0-2.21,1.789-3.999,3.999-3.999
		c2.211,0,4,1.789,4,3.999v47.991C79.986,122.19,78.197,123.979,75.986,123.979z"/>
	<path style="fill:#3A3847;" d="M435.922,203.964c-2.211,0-3.999-1.789-3.999-4v-95.983c0-2.21,1.788-3.999,3.999-3.999
		s3.999,1.789,3.999,3.999v95.983C439.921,202.175,438.133,203.964,435.922,203.964z"/>
</g>
<g>
</g>
<g>
</g>
<g>
</g>
<g>
</g>
<g>
</g>
<g>
</g>
<g>
</g>
<g>
</g>
<g>
</g>
<g>
</g>
<g>
</g>
<g>
</g>
<g>
</g>
<g>
</g>
<g>
</g>
</svg>
