<?xml version="1.0" encoding="iso-8859-1"?>
<!-- Generator: Adobe Illustrator 19.0.0, SVG Export Plug-In . SVG Version: 6.00 Build 0)  -->
<svg version="1.1" id="Capa_1" xmlns="http://www.w3.org/2000/svg" xmlns:xlink="http://www.w3.org/1999/xlink" x="0px" y="0px"
	 viewBox="0 0 511.911 511.911" style="enable-background:new 0 0 511.911 511.911;" xml:space="preserve">
<polygon style="fill:#E6E9ED;" points="135.977,387.934 135.977,419.928 79.988,419.928 71.989,387.934 79.988,387.934 "/>
<polygon style="fill:#FFFFFF;" points="79.988,387.934 71.989,387.934 79.988,419.928 95.985,419.928 87.986,387.934 "/>
<polygon style="fill:#E6E9ED;" points="431.925,387.934 439.923,387.934 431.925,419.928 375.935,419.928 375.935,387.934 "/>
<polygon style="fill:#5D9CEC;" points="295.949,27.998 255.956,91.987 215.963,27.998 "/>
<g style="opacity:0.2;">
	<polygon points="295.949,27.998 255.956,91.987 215.963,27.998 	"/>
</g>
<path style="fill:#E6E9ED;" d="M255.956,91.987l39.993-63.989h-79.986L255.956,91.987z M295.949,4.003l31.994,23.995
	c0,4.48-1.68,9.999-4.319,16.075c-11.756,26.718-43.672,63.911-43.672,63.911l-23.996-8.639l-23.996,8.639
	c0,0-31.916-37.193-43.671-63.911c-2.641-6.077-4.32-11.595-4.32-16.075l31.994-23.995C215.963,4.003,295.949,4.003,295.949,4.003z"
	/>
<path style="fill:#FFFFFF;" d="M196.287,44.074c-2.64-6.077-4.101-8.748-4.101-13.228l34.521-26.843h-10.744l-31.994,23.995
	c0,4.48,1.679,9.999,4.32,16.075c11.755,26.718,43.671,63.911,43.671,63.911l6.14-2.21
	C231.195,97.498,206.363,66.976,196.287,44.074z"/>
<g style="opacity:0.2;">
	<path d="M315.625,44.074c2.641-6.077,4.102-8.748,4.102-13.228L285.201,4.003h10.748l31.994,23.995c0,4.48-1.68,9.999-4.319,16.075
		c-11.756,26.718-43.672,63.911-43.672,63.911l-6.14-2.21C280.717,97.498,305.549,66.976,315.625,44.074z"/>
</g>
<path style="fill:#5D9CEC;" d="M375.935,387.934v31.994v55.989c0,0-31.994,31.995-119.979,31.995
	c-87.984,0-119.979-31.995-119.979-31.995v-55.989v-31.994H79.988v-7.999V132.058c0-48.71,39.274-87.984,87.984-87.984h20.317
	c11.755,26.718,43.671,63.911,43.671,63.911l23.996-8.64l23.996,8.639c0,0,31.916-37.193,43.672-63.911h20.316
	c48.71,0,87.984,39.274,87.984,87.984v255.875h-55.989V387.934z"/>
<g style="opacity:0.3;">
	<path style="fill:#FFFFFF;" d="M95.985,132.058c0-48.71,39.274-87.984,87.984-87.984h-15.997c-48.71,0-87.984,39.274-87.984,87.984
		v247.876v7.999h15.997v-7.999C95.985,379.934,95.985,132.058,95.985,132.058z"/>
</g>
<g style="opacity:0.2;">
	<path d="M415.928,132.058c0-48.71-39.274-87.984-87.984-87.984h15.997c48.71,0,87.984,39.274,87.984,87.984v247.876v7.999h-15.997
		v-7.999V132.058z"/>
</g>
<g style="opacity:0.2;">
	<rect x="127.976" y="155.976" width="7.998" height="263.95"/>
</g>
<g style="opacity:0.2;">
	<rect x="375.936" y="155.976" width="7.999" height="263.95"/>
</g>
<g style="opacity:0.2;">
	<polygon points="431.925,387.934 439.923,387.934 431.925,419.928 415.928,419.928 423.926,387.934 	"/>
</g>
<g style="opacity:0.2;">
	<polygon style="fill:#FFFFFF;" points="151.975,486.182 151.975,419.928 151.975,387.934 151.975,155.976 135.977,155.976 
		135.977,387.934 135.977,419.928 135.977,475.917 	"/>
</g>
<g style="opacity:0.2;">
	<polygon points="359.937,486.182 359.937,419.928 359.937,387.934 359.937,155.976 375.935,155.976 375.935,387.934 
		375.935,419.928 375.935,475.917 	"/>
</g>
<g>
	<path style="fill:#3A3847;" d="M256.194,119.982c-2.207,0-4.038-1.789-4.038-3.999s1.75-3.999,3.96-3.999h0.078
		c2.211,0,3.999,1.789,3.999,3.999S258.405,119.982,256.194,119.982z"/>
	<path style="fill:#3A3847;" d="M264.189,151.977c-2.203,0-4.035-1.789-4.035-4c0-2.21,1.75-3.999,3.957-3.999h0.078
		c2.218,0,3.999,1.789,3.999,3.999C268.188,150.188,266.407,151.977,264.189,151.977z"/>
	<path style="fill:#3A3847;" d="M264.189,191.969c-2.203,0-4.035-1.789-4.035-3.999c0-2.211,1.75-4,3.957-4h0.078
		c2.218,0,3.999,1.789,3.999,4C268.188,190.18,266.407,191.969,264.189,191.969z"/>
	<path style="fill:#3A3847;" d="M264.189,231.962c-2.203,0-4.035-1.789-4.035-4c0-2.21,1.75-3.999,3.957-3.999h0.078
		c2.218,0,3.999,1.789,3.999,3.999C268.188,230.173,266.407,231.962,264.189,231.962z"/>
	<path style="fill:#3A3847;" d="M264.189,271.954c-2.203,0-4.035-1.789-4.035-3.999c0-2.211,1.75-3.999,3.957-3.999h0.078
		c2.218,0,3.999,1.788,3.999,3.999C268.188,270.165,266.407,271.954,264.189,271.954z"/>
	<path style="fill:#3A3847;" d="M264.189,311.947c-2.203,0-4.035-1.789-4.035-3.999c0-2.211,1.75-4,3.957-4h0.078
		c2.218,0,3.999,1.789,3.999,4C268.188,310.158,266.407,311.947,264.189,311.947z"/>
	<path style="fill:#3A3847;" d="M264.189,351.94c-2.203,0-4.035-1.789-4.035-4s1.75-3.999,3.957-3.999h0.078
		c2.218,0,3.999,1.788,3.999,3.999S266.407,351.94,264.189,351.94z"/>
	<path style="fill:#3A3847;" d="M264.189,391.933c-2.203,0-4.035-1.789-4.035-3.999c0-2.211,1.75-3.999,3.957-3.999h0.078
		c2.218,0,3.999,1.788,3.999,3.999C268.188,390.144,266.407,391.933,264.189,391.933z"/>
	<path style="fill:#3A3847;" d="M264.189,431.926c-2.203,0-4.035-1.789-4.035-3.999c0-2.211,1.75-4,3.957-4h0.078
		c2.218,0,3.999,1.789,3.999,4C268.188,430.137,266.407,431.926,264.189,431.926z"/>
	<path style="fill:#3A3847;" d="M264.189,471.918c-2.203,0-4.035-1.788-4.035-3.999s1.75-3.999,3.957-3.999h0.078
		c2.218,0,3.999,1.788,3.999,3.999S266.407,471.918,264.189,471.918z"/>
	<path style="fill:#3A3847;" d="M295.949,8.002h-79.986c-2.21,0-4-1.789-4-3.999c0-2.211,1.789-4,4-4h79.986
		c2.211,0,3.999,1.789,3.999,4C299.948,6.213,298.16,8.002,295.949,8.002z"/>
</g>
<path id="SVGCleanerId_0" style="fill:#3A3847;" d="M295.949,31.998h-79.986c-2.21,0-4-1.789-4-4c0-2.21,1.789-3.999,4-3.999h79.986
	c2.211,0,3.999,1.789,3.999,3.999C299.948,30.209,298.16,31.998,295.949,31.998z"/>
<g>
	<path style="fill:#3A3847;" d="M327.943,31.998c-0.844,0-1.68-0.262-2.398-0.8L293.551,7.202c-1.773-1.324-2.132-3.831-0.805-5.597
		c1.328-1.769,3.836-2.117,5.601-0.801L330.342,24.8c1.772,1.324,2.132,3.831,0.804,5.597
		C330.357,31.448,329.162,31.998,327.943,31.998z"/>
	<path style="fill:#3A3847;" d="M279.952,111.984c-0.922,0-1.844-0.316-2.602-0.961c-1.679-1.441-1.874-3.964-0.438-5.64
		c13.084-15.267,47.03-58.923,47.03-77.385c0-2.21,1.789-3.999,4-3.999s3.999,1.789,3.999,3.999c0,25.187-46.96,80.255-48.96,82.587
		C282.201,111.511,281.076,111.984,279.952,111.984z"/>
	<path style="fill:#3A3847;" d="M183.973,31.998c-1.218,0-2.417-0.55-3.203-1.601c-1.328-1.766-0.969-4.273,0.801-5.597
		l31.994-23.996c1.766-1.328,4.269-0.976,5.597,0.801c1.328,1.766,0.969,4.272-0.801,5.597l-31.994,23.996
		C185.648,31.736,184.809,31.998,183.973,31.998z"/>
	<path style="fill:#3A3847;" d="M231.96,111.984c-1.125,0-2.246-0.473-3.035-1.398c-2-2.332-48.956-57.4-48.956-82.587
		c0-2.21,1.789-3.999,4-3.999s4,1.789,4,3.999c0,18.47,33.947,62.122,47.026,77.385c1.441,1.676,1.246,4.198-0.434,5.636
		C233.808,111.667,232.882,111.984,231.96,111.984z"/>
	<path style="fill:#3A3847;" d="M279.952,111.984c-0.453,0-0.906-0.074-1.352-0.234l-23.996-8.624
		c-2.082-0.75-3.16-3.039-2.414-5.117c0.746-2.077,3.034-3.171,5.116-2.413l23.995,8.623c2.086,0.75,3.164,3.039,2.414,5.116
		C283.131,110.968,281.592,111.984,279.952,111.984z"/>
	<path style="fill:#3A3847;" d="M231.96,111.984c-1.64,0-3.179-1.016-3.765-2.648c-0.746-2.077,0.332-4.366,2.414-5.116
		l23.996-8.623c2.07-0.762,4.366,0.332,5.116,2.413c0.746,2.078-0.332,4.367-2.413,5.117l-23.996,8.624
		C232.867,111.91,232.41,111.984,231.96,111.984z"/>
</g>
<g>
	<path id="SVGCleanerId_0_1_" style="fill:#3A3847;" d="M295.949,31.998h-79.986c-2.21,0-4-1.789-4-4c0-2.21,1.789-3.999,4-3.999
		h79.986c2.211,0,3.999,1.789,3.999,3.999C299.948,30.209,298.16,31.998,295.949,31.998z"/>
</g>
<g>
	<path style="fill:#3A3847;" d="M255.952,95.987c-0.723,0-1.457-0.195-2.117-0.609c-1.871-1.168-2.441-3.636-1.269-5.511
		l39.992-63.988c1.172-1.871,3.633-2.445,5.516-1.27c1.866,1.168,2.437,3.636,1.265,5.511l-39.993,63.988
		C258.589,95.323,257.284,95.987,255.952,95.987z"/>
	<path style="fill:#3A3847;" d="M255.96,95.987c-1.332,0-2.636-0.664-3.394-1.879L212.573,30.12
		c-1.171-1.875-0.602-4.343,1.27-5.511c1.875-1.176,4.343-0.602,5.511,1.27l39.992,63.988c1.172,1.875,0.602,4.343-1.269,5.511
		C257.417,95.791,256.683,95.987,255.96,95.987z"/>
	<path style="fill:#3A3847;" d="M255.956,503.913c-2.21,0-3.999-1.789-3.999-4V131.98c0-2.21,1.789-3.999,3.999-3.999
		c2.211,0,3.999,1.789,3.999,3.999v367.933C259.955,502.124,258.167,503.913,255.956,503.913z"/>
	<path style="fill:#3A3847;" d="M88.225,407.93c-2.207,0-4.038-1.788-4.038-3.999s1.75-4,3.96-4h0.078c2.211,0,4,1.789,4,4
		S90.435,407.93,88.225,407.93z"/>
	<path style="fill:#3A3847;" d="M135.977,479.917c-2.21,0-3.999-1.789-3.999-4V155.976c0-2.211,1.789-4,3.999-4c2.211,0,4,1.789,4,4
		v319.941C139.977,478.128,138.188,479.917,135.977,479.917z"/>
	<path style="fill:#3A3847;" d="M79.988,383.935c-2.211,0-4-1.789-4-4V132.027c0-2.21,1.789-3.999,4-3.999
		c2.21,0,3.999,1.789,3.999,3.999v247.908C83.987,382.145,82.198,383.935,79.988,383.935z"/>
	<path style="fill:#3A3847;" d="M127.979,423.927H79.988c-2.211,0-4-1.789-4-3.999c0-2.211,1.789-3.999,4-3.999h47.991
		c2.21,0,3.999,1.788,3.999,3.999C131.978,422.138,130.19,423.927,127.979,423.927z"/>
	<path style="fill:#3A3847;" d="M127.979,391.933h-55.99c-2.21,0-3.999-1.789-3.999-3.999c0-2.211,1.789-3.999,3.999-3.999h55.99
		c2.21,0,3.999,1.788,3.999,3.999C131.978,390.144,130.19,391.933,127.979,391.933z"/>
	<path style="fill:#3A3847;" d="M79.984,423.927c-1.793,0-3.422-1.211-3.875-3.03l-7.999-31.994
		c-0.539-2.141,0.766-4.312,2.909-4.843c2.141-0.547,4.312,0.766,4.847,2.905l7.999,31.994c0.539,2.141-0.766,4.312-2.91,4.851
		C80.632,423.888,80.304,423.927,79.984,423.927z"/>
	<path style="fill:#3A3847;" d="M79.988,136.026c-2.211,0-4-1.788-4-3.999c0-50.721,41.262-91.983,91.983-91.983
		c2.21,0,4,1.789,4,3.999c0,2.211-1.789,4-4,4c-46.308,0-83.985,37.677-83.985,83.985C83.987,134.238,82.198,136.026,79.988,136.026
		z"/>
	<path style="fill:#3A3847;" d="M175.971,48.042h-7.999c-2.21,0-4-1.789-4-4c0-2.21,1.789-3.999,4-3.999h7.999
		c2.21,0,3.999,1.789,3.999,3.999C179.97,46.253,178.181,48.042,175.971,48.042z"/>
	<path style="fill:#3A3847;" d="M424.16,407.93c-2.203,0-4.03-1.788-4.03-3.999s1.749-4,3.952-4h0.078c2.219,0,4,1.789,4,4
		S426.379,407.93,424.16,407.93z"/>
	<path style="fill:#3A3847;" d="M375.935,479.917c-2.21,0-3.999-1.789-3.999-4V155.976c0-2.211,1.789-4,3.999-4s3.999,1.789,3.999,4
		v319.941C379.934,478.128,378.144,479.917,375.935,479.917z"/>
	<path style="fill:#3A3847;" d="M431.925,383.935c-2.211,0-3.999-1.789-3.999-4V132.027c0-2.21,1.788-3.999,3.999-3.999
		c2.21,0,3.999,1.789,3.999,3.999v247.908C435.924,382.145,434.135,383.935,431.925,383.935z"/>
	<path style="fill:#3A3847;" d="M431.925,423.927h-47.991c-2.211,0-4-1.789-4-3.999c0-2.211,1.789-3.999,4-3.999h47.991
		c2.21,0,3.999,1.788,3.999,3.999C435.924,422.138,434.135,423.927,431.925,423.927z"/>
	<path style="fill:#3A3847;" d="M439.923,391.933h-55.989c-2.211,0-4-1.789-4-3.999c0-2.211,1.789-3.999,4-3.999h55.989
		c2.211,0,3.999,1.788,3.999,3.999C443.922,390.144,442.134,391.933,439.923,391.933z"/>
	<path style="fill:#3A3847;" d="M431.925,423.927c-0.312,0-0.641-0.039-0.969-0.117c-2.141-0.539-3.452-2.71-2.905-4.851
		l7.998-31.994c0.531-2.147,2.688-3.46,4.843-2.905c2.141,0.531,3.452,2.702,2.905,4.843l-7.998,31.994
		C435.346,422.716,433.721,423.927,431.925,423.927z"/>
	<path style="fill:#3A3847;" d="M431.925,136.026c-2.211,0-3.999-1.788-3.999-3.999c0-46.308-37.682-83.985-83.985-83.985
		c-2.211,0-3.999-1.789-3.999-4c0-2.21,1.788-3.999,3.999-3.999c50.726,0,91.983,41.262,91.983,91.983
		C435.924,134.238,434.135,136.026,431.925,136.026z"/>
	<path style="fill:#3A3847;" d="M343.94,48.042h-7.999c-2.21,0-3.999-1.789-3.999-4c0-2.21,1.789-3.999,3.999-3.999h7.999
		c2.21,0,3.999,1.789,3.999,3.999C347.939,46.253,346.15,48.042,343.94,48.042z"/>
	<path style="fill:#3A3847;" d="M255.956,511.911c-88.621,0-121.451-31.807-122.806-33.166c-1.559-1.555-1.559-4.077-0.004-5.64
		c1.542-1.562,4.077-1.578,5.651-0.023c0.312,0.305,32.252,30.831,117.158,30.831c85.345,0,116.839-30.511,117.151-30.823
		c1.562-1.562,4.093-1.562,5.654,0c1.562,1.562,1.562,4.093,0,5.655C377.403,480.104,344.581,511.911,255.956,511.911z"/>
</g>
<g>
</g>
<g>
</g>
<g>
</g>
<g>
</g>
<g>
</g>
<g>
</g>
<g>
</g>
<g>
</g>
<g>
</g>
<g>
</g>
<g>
</g>
<g>
</g>
<g>
</g>
<g>
</g>
<g>
</g>
</svg>
