<?xml version="1.0" encoding="iso-8859-1"?>
<!-- Generator: Adobe Illustrator 19.0.0, SVG Export Plug-In . SVG Version: 6.00 Build 0)  -->
<svg version="1.1" id="Capa_1" xmlns="http://www.w3.org/2000/svg" xmlns:xlink="http://www.w3.org/1999/xlink" x="0px" y="0px"
	 viewBox="0 0 511.907 511.907" style="enable-background:new 0 0 511.907 511.907;" xml:space="preserve">
<path style="fill:#FFD2A6;" d="M508.011,307.977c-109.98,51.029-207.322,65.27-343.935,23.995v23.996H4.105v-39.993h3.999h99.982
	h23.996h31.994c81.505,24.637,151.969,30.479,223.956,15.841c36.478-7.28,73.346-19.918,112.222-37.915
	c0.32-0.164,0.719-0.32,1.039-0.477L508.011,307.977z"/>
<g style="opacity:0.2;">
	<path d="M501.293,293.425c-0.32,0.156-0.719,0.312-1.039,0.477c-4.093,1.898-8.154,3.695-12.209,5.476l5.913,14.95l14.053-6.35
		L501.293,293.425z"/>
</g>
<g>
	<path style="fill:#965353;" d="M108.086,307.977v7.998H8.104v-7.998c-9.119-40.235-1.039-106.224,11.998-121.26v25.276
		C20.102,244.949,108.086,259.985,108.086,307.977z"/>
	<path style="fill:#965353;" d="M307.726,220.634c11.678,6.717,23.034,12.076,33.915,16.317l-9.6,7.038
		c-44.227,30.237-183.963-31.995-199.96,63.989v7.998h-23.996v-7.998c0-47.992-87.984-63.028-87.984-95.983v-25.276
		c2.479-2.96,5.198-3.913,7.998-2.476c111.98,58.068,191.966-36.236,199.964-28.237c14.958,15.755,29.515,29.033,43.59,40.07
		c5.757,4.562,11.436,8.726,17.114,12.639C295.174,213.033,301.493,217.032,307.726,220.634z"/>
	<path style="fill:#965353;" d="M388.032,249.909v81.907c-71.987,14.638-142.451,8.796-223.956-15.841h-31.994v-7.998
		c15.997-95.983,155.733-33.752,199.96-63.989l9.6-7.038C358.201,243.434,373.715,247.433,388.032,249.909z"/>
</g>
<g style="opacity:0.1;">
	<path style="fill:#FFFFFF;" d="M108.086,307.977v7.998H8.104v-7.998c-9.119-40.235-1.039-106.224,11.998-121.26v25.276
		C20.102,244.949,108.086,259.985,108.086,307.977z"/>
</g>
<g style="opacity:0.1;">
	<path style="fill:#FFFFFF;" d="M388.032,249.909v81.907c-71.987,14.638-142.451,8.796-223.956-15.841h-31.994v-7.998
		c15.997-95.983,155.733-33.752,199.96-63.989l9.6-7.038C358.201,243.434,373.715,247.433,388.032,249.909z"/>
</g>
<path style="fill:#965353;" d="M500.254,293.901c-38.876,17.997-75.744,30.635-112.222,37.915v-81.907
	c65.348,11.037,107.184-8.881,111.979,34.072v9.443L500.254,293.901z"/>
<g style="opacity:0.2;">
	<path style="fill:#FFFFFF;" d="M35.381,187.741c-2.418-1.125-4.831-2.227-7.28-3.5c-2.8-1.437-5.519-0.484-7.998,2.476
		C7.065,201.754-1.015,267.742,8.104,307.977v7.998h15.997v-7.998C15.154,268.5,22.777,204.355,35.381,187.741z"/>
</g>
<g style="opacity:0.2;">
	<path d="M216.379,160.527c14.958,15.755,33.201,32.51,47.281,43.547c5.753,4.562,11.432,8.725,17.109,12.638
		c6.406,4.32,12.725,8.319,18.958,11.919c11.678,6.718,23.035,12.076,33.916,16.317c16.56,6.483,32.072,10.482,46.39,12.959
		c65.348,11.037,107.184-8.881,111.98,34.071v5.617c2.741-1.227,5.475-2.414,8.24-3.695l-0.242-0.477v-9.443
		c-4.796-42.953-46.632-23.035-111.979-34.072c-14.317-2.476-29.831-6.475-46.391-12.958c-10.881-4.242-22.237-9.6-33.915-16.317
		c-6.233-3.602-12.553-7.601-18.958-11.92c-5.679-3.913-11.357-8.077-17.114-12.639c-14.075-11.037-28.631-24.315-43.59-40.07
		L216.379,160.527z"/>
</g>
<g style="opacity:0.5;">
	<rect x="4.105" y="315.973" style="fill:#FFFFFF;" width="15.997" height="39.993"/>
</g>
<g>
	<path style="fill:#3A3847;" d="M507.909,312.062c-1.508,0-2.953-0.859-3.633-2.32l-6.733-14.513c-0.929-2-0.055-4.374,1.945-5.304
		c2.023-0.945,4.383-0.055,5.312,1.944l6.733,14.514c0.93,2,0.062,4.374-1.945,5.304
		C509.041,311.945,508.471,312.062,507.909,312.062z"/>
	<path style="fill:#3A3847;" d="M311.616,360.39c-46.835,0-95.088-8.264-148.801-24.504c-2.117-0.641-3.312-2.874-2.671-4.983
		c0.641-2.108,2.897-3.304,4.983-2.671c126.321,38.188,221.952,31.518,341.095-23.793c2.015-0.945,4.382-0.055,5.312,1.938
		c0.93,2.008,0.062,4.382-1.945,5.312C439.124,344.408,376.745,360.39,311.616,360.39z"/>
	<path style="fill:#3A3847;" d="M309.804,343.861c-46.483,0-94.373-8.062-146.989-23.973c-2.117-0.64-3.312-2.874-2.671-4.983
		c0.641-2.108,2.897-3.304,4.983-2.671c123.173,37.235,220.038,30.775,334.361-22.309c2.008-0.945,4.383-0.055,5.312,1.937
		c0.93,2.008,0.062,4.383-1.944,5.312C435.43,328.489,373.965,343.861,309.804,343.861z"/>
	<path style="fill:#3A3847;" d="M163.971,360.054c-2.21,0-3.999-1.789-3.999-3.999v-23.996c0-2.21,1.789-3.999,3.999-3.999
		c2.211,0,4,1.789,4,3.999v23.996C167.97,358.265,166.182,360.054,163.971,360.054z"/>
	<path style="fill:#3A3847;" d="M163.971,360.054H4c-2.211,0-4-1.789-4-3.999c0-2.211,1.789-3.999,4-3.999h159.971
		c2.211,0,4,1.788,4,3.999C167.97,358.265,166.182,360.054,163.971,360.054z"/>
	<path style="fill:#3A3847;" d="M4,360.054c-2.211,0-4-1.789-4-3.999v-39.993c0-2.211,1.789-3.999,4-3.999
		c2.21,0,3.999,1.788,3.999,3.999v39.993C7.999,358.265,6.21,360.054,4,360.054z"/>
	<path style="fill:#3A3847;" d="M163.971,320.06H4c-2.211,0-4-1.788-4-3.999s1.789-3.999,4-3.999h159.971c2.211,0,4,1.788,4,3.999
		S166.182,320.06,163.971,320.06z"/>
	<path style="fill:#3A3847;" d="M7.995,312.062c-1.828,0-3.476-1.258-3.897-3.116c-9.557-42.181-0.895-114.589,15.196-127.009
		c3.312-2.555,7.049-2.968,10.545-1.148c82.934,43,147.259,0.734,178.175-19.574c12.736-8.366,18.54-12.201,22.773-7.952
		c89.679,94.772,163.955,96.053,213.102,96.896c32.736,0.57,56.381,0.977,59.998,33.463c0.241,2.203-1.344,4.179-3.539,4.421
		c-2.195,0.273-4.171-1.343-4.413-3.53c-2.727-24.527-17.083-25.745-52.187-26.354c-47.265-0.812-126.266-2.18-217.804-98.381
		c-2.48,0.859-8.323,4.694-13.541,8.124c-29.674,19.497-99.177,65.137-186.248,19.989c-0.437-0.234-0.882-0.453-1.972,0.375
		c-11.318,8.74-21.996,76.057-12.283,118.916c0.488,2.155-0.863,4.296-3.019,4.78C8.585,312.031,8.288,312.062,7.995,312.062z"/>
	<path style="fill:#3A3847;" d="M107.981,312.062c-2.21,0-4-1.789-4-3.999c0-24.02-24.53-39.29-48.253-54.061
		c-20.43-12.724-39.731-24.746-39.731-41.922c0-2.21,1.789-3.999,4-3.999c2.21,0,3.999,1.789,3.999,3.999
		c0,12.732,17.47,23.613,35.962,35.127c24.383,15.185,52.022,32.4,52.022,60.856C111.98,310.273,110.191,312.062,107.981,312.062z"
		/>
	<path style="fill:#3A3847;" d="M387.931,327.958c-2.211,0-3.999-1.789-3.999-4v-66.019c0-2.211,1.788-4,3.999-4
		c2.21,0,3.999,1.789,3.999,4v66.019C391.93,326.169,390.141,327.958,387.931,327.958z"/>
	<path style="fill:#3A3847;" d="M302.695,230.452c-0.929,0-1.858-0.32-2.608-0.969c-1.68-1.445-1.867-3.968-0.422-5.64l4.952-5.749
		c1.438-1.687,3.969-1.859,5.64-0.422c1.672,1.445,1.859,3.968,0.422,5.64l-4.952,5.749
		C304.93,229.983,303.812,230.452,302.695,230.452z"/>
	<path style="fill:#3A3847;" d="M283.754,218.587c-0.93,0-1.859-0.32-2.609-0.969c-1.679-1.445-1.866-3.968-0.422-5.64l4.953-5.749
		c1.445-1.687,3.968-1.858,5.64-0.421c1.671,1.445,1.858,3.968,0.421,5.64l-4.951,5.749
		C285.988,218.118,284.871,218.587,283.754,218.587z"/>
	<path style="fill:#3A3847;" d="M266.616,205.956c-0.929,0-1.858-0.32-2.608-0.969c-1.676-1.445-1.863-3.968-0.422-5.639
		l4.952-5.749c1.437-1.688,3.968-1.859,5.64-0.422c1.672,1.445,1.859,3.968,0.422,5.64l-4.952,5.749
		C268.85,205.488,267.733,205.956,266.616,205.956z"/>
	<path style="fill:#3A3847;" d="M251.31,193.373c-0.926,0-1.855-0.32-2.609-0.969c-1.675-1.445-1.863-3.968-0.422-5.64l4.953-5.749
		c1.441-1.688,3.964-1.859,5.64-0.422c1.675,1.445,1.862,3.968,0.421,5.64l-4.952,5.749
		C253.548,192.904,252.432,193.373,251.31,193.373z"/>
	<path style="fill:#3A3847;" d="M235.571,178.93c-0.926,0-1.855-0.32-2.609-0.969c-1.675-1.445-1.863-3.968-0.422-5.64l4.952-5.749
		c1.445-1.688,3.972-1.859,5.64-0.422c1.675,1.445,1.863,3.968,0.422,5.64l-4.952,5.749
		C237.809,178.461,236.692,178.93,235.571,178.93z"/>
	<path style="fill:#3A3847;" d="M131.98,312.062c-0.219,0-0.438-0.016-0.66-0.055c-2.179-0.359-3.651-2.422-3.288-4.601
		c10.725-64.34,72.943-61.489,127.859-58.998c30.183,1.382,58.692,2.687,73.792-7.639c1.827-1.234,4.312-0.773,5.553,1.047
		c1.25,1.82,0.781,4.312-1.038,5.562c-17.302,11.817-47.108,10.459-78.674,9.021c-54.1-2.453-110.05-5.022-119.604,52.319
		C135.597,310.68,133.902,312.062,131.98,312.062z"/>
</g>
<g>
</g>
<g>
</g>
<g>
</g>
<g>
</g>
<g>
</g>
<g>
</g>
<g>
</g>
<g>
</g>
<g>
</g>
<g>
</g>
<g>
</g>
<g>
</g>
<g>
</g>
<g>
</g>
<g>
</g>
</svg>
