<?xml version="1.0" encoding="iso-8859-1"?>
<!-- Generator: Adobe Illustrator 19.0.0, SVG Export Plug-In . SVG Version: 6.00 Build 0)  -->
<svg version="1.1" id="Capa_1" xmlns="http://www.w3.org/2000/svg" xmlns:xlink="http://www.w3.org/1999/xlink" x="0px" y="0px"
	 viewBox="0 0 511.908 511.908" style="enable-background:new 0 0 511.908 511.908;" xml:space="preserve">
<path style="fill:#FFCE54;" d="M435.924,4c8.795,0,15.997,7.197,15.997,15.997c0,8.799-7.202,15.997-15.997,15.997H75.985
	c-8.877,0-15.998-7.198-15.998-15.997c0-8.8,7.12-15.997,15.998-15.997C75.985,4,435.924,4,435.924,4z"/>
<g style="opacity:0.1;">
	<path d="M435.924,4c8.795,0,15.997,7.197,15.997,15.997c0,8.799-7.202,15.997-15.997,15.997H75.985
		c-8.877,0-15.998-7.198-15.998-15.997c0-8.8,7.12-15.997,15.998-15.997C75.985,4,435.924,4,435.924,4z"/>
</g>
<path style="fill:#FFCE54;" d="M75.985,35.994h359.939c8.795,0,15.997-7.198,15.997-15.997v47.991
	c0,8.799-7.202,15.997-15.997,15.997H279.952h-11.998h-24H75.985c-8.877,0-15.998-7.198-15.998-15.997V19.997
	C59.987,28.796,67.107,35.994,75.985,35.994z"/>
<g style="opacity:0.2;">
	<path d="M435.924,27.995H75.985c-7.475,0-13.65-5.128-15.431-11.998c-0.332,1.285-0.566,2.613-0.566,4
		c0,8.799,7.12,15.997,15.998,15.997h359.938c8.795,0,15.997-7.198,15.997-15.997c0-1.387-0.234-2.715-0.578-4
		C449.547,22.867,443.328,27.995,435.924,27.995z"/>
</g>
<g>
	<path style="fill:#FFCE54;" d="M243.954,472.634v11.279c0,13.279-41.192,23.996-91.983,23.996s-91.984-10.717-91.984-23.996
		v-10.881l7.999,4.726c14.396,8.312,46.55,14.154,83.985,14.154s69.667-5.843,83.985-14.154L243.954,472.634z"/>
	<path style="fill:#FFCE54;" d="M359.937,491.912c37.431,0,69.581-5.843,83.984-14.154l7.999-5.124v11.279
		c0,13.279-41.196,23.996-91.983,23.996c-50.796,0-91.983-10.717-91.983-23.996v-10.881l7.999,4.726
		C290.341,486.069,322.499,491.912,359.937,491.912z"/>
</g>
<path style="fill:#FC6E51;" d="M279.952,83.985h155.972c8.795,0,15.997-7.198,15.997-15.997v404.646l-7.999,5.124
	c-14.403,8.312-46.554,14.154-83.984,14.154c-37.438,0-69.597-5.843-83.984-14.154l-8-4.726V295.947
	c0-6.64-5.362-11.998-12.002-11.998c-6.639,0-11.998,5.358-11.998,11.998v176.687l-7.999,5.124
	c-14.318,8.312-46.55,14.154-83.985,14.154s-69.589-5.843-83.985-14.154l-7.999-4.726V67.988c0,8.799,7.12,15.997,15.998,15.997
	h167.97h24H279.952z"/>
<g style="opacity:0.3;">
	<path style="fill:#FFFFFF;" d="M75.985,497.441v-24.409V83.985c-8.877,0-15.998-7.198-15.998-15.997v405.044c0,0,0,2.882,0,10.881
		S75.985,497.441,75.985,497.441z"/>
</g>
<g style="opacity:0.4;">
	<path style="fill:#FFFFFF;" d="M60.886,487.092c0.422,0.797,0.934,1.57,1.59,2.289c0.016,0.023,0.039,0.039,0.055,0.062
		c2.433,2.641,6.097,4.726,9.014,6.116c1.277,0.594,2.625,1.188,4.089,1.749c0.094,0.039,0.246,0.094,0.27,0.102
		c0.027,0.008,0.059,0.023,0.082,0.031v-16.059c-3.015-1.148-5.78-2.344-7.999-3.625l-7.999-4.726v10.881
		c0,0.969,0.254,1.891,0.664,2.78C60.71,486.826,60.815,486.959,60.886,487.092z"/>
</g>
<g style="opacity:0.2;">
	<path d="M435.924,497.441v-24.409V83.985c8.873,0,15.997-7.198,15.997-15.997v405.044c0,0,0,2.882,0,10.881
		S435.924,497.441,435.924,497.441z"/>
</g>
<g style="opacity:0.4;">
	<path style="fill:#FFFFFF;" d="M75.985,35.994c-8.877,0-15.998-7.198-15.998-15.997v47.991c0,8.799,7.12,15.997,15.998,15.997
		V35.994z"/>
</g>
<g style="opacity:0.2;">
	<path d="M435.924,35.994c8.873,0,15.997-7.198,15.997-15.997v47.991c0,8.799-7.124,15.997-15.997,15.997V35.994z"/>
</g>
<g>
	<path style="fill:#3A3847;" d="M80.223,415.926c-2.207,0-4.039-1.789-4.039-4c0-2.21,1.75-3.999,3.96-3.999h0.078
		c2.21,0,3.999,1.789,3.999,3.999C84.222,414.137,82.433,415.926,80.223,415.926z"/>
	<path style="fill:#3A3847;" d="M96.22,431.923c-2.207,0-4.039-1.789-4.039-3.999c0-2.211,1.75-4,3.96-4h0.078
		c2.21,0,3.999,1.789,3.999,4C100.219,430.134,98.43,431.923,96.22,431.923z"/>
	<path style="fill:#3A3847;" d="M112.217,447.92c-2.207,0-4.039-1.789-4.039-4c0-2.21,1.75-3.999,3.96-3.999h0.078
		c2.21,0,3.999,1.789,3.999,3.999C116.216,446.131,114.427,447.92,112.217,447.92z"/>
	<path style="fill:#3A3847;" d="M80.23,447.92c-2.207,0-4.039-1.789-4.039-4c0-2.21,1.75-3.999,3.96-3.999h0.078
		c2.21,0,3.999,1.789,3.999,3.999C84.229,446.131,82.44,447.92,80.23,447.92z"/>
	<path style="fill:#3A3847;" d="M128.214,463.917c-2.207,0-4.039-1.789-4.039-3.999c0-2.211,1.75-4,3.96-4h0.078
		c2.21,0,3.999,1.789,3.999,4C132.213,462.128,130.424,463.917,128.214,463.917z"/>
	<path style="fill:#3A3847;" d="M96.227,463.917c-2.207,0-4.039-1.789-4.039-3.999c0-2.211,1.75-4,3.96-4h0.078
		c2.21,0,3.999,1.789,3.999,4C100.226,462.128,98.437,463.917,96.227,463.917z"/>
	<path style="fill:#3A3847;" d="M144.211,479.914c-2.207,0-4.039-1.789-4.039-4c0-2.21,1.75-3.999,3.96-3.999h0.078
		c2.21,0,3.999,1.789,3.999,3.999C148.21,478.125,146.421,479.914,144.211,479.914z"/>
	<path style="fill:#3A3847;" d="M112.225,479.914c-2.207,0-4.039-1.789-4.039-4c0-2.21,1.75-3.999,3.96-3.999h0.078
		c2.21,0,3.999,1.789,3.999,3.999C116.224,478.125,114.434,479.914,112.225,479.914z"/>
	<path style="fill:#3A3847;" d="M80.223,383.932c-2.207,0-4.039-1.789-4.039-4c0-2.21,1.75-3.999,3.96-3.999h0.078
		c2.21,0,3.999,1.789,3.999,3.999C84.222,382.142,82.433,383.932,80.223,383.932z"/>
	<path style="fill:#3A3847;" d="M96.22,399.928c-2.207,0-4.039-1.788-4.039-3.999c0-2.21,1.75-3.999,3.96-3.999h0.078
		c2.21,0,3.999,1.789,3.999,3.999C100.219,398.14,98.43,399.928,96.22,399.928z"/>
	<path style="fill:#3A3847;" d="M112.217,415.926c-2.207,0-4.039-1.789-4.039-4c0-2.21,1.75-3.999,3.96-3.999h0.078
		c2.21,0,3.999,1.789,3.999,3.999C116.216,414.137,114.427,415.926,112.217,415.926z"/>
	<path style="fill:#3A3847;" d="M128.214,431.923c-2.207,0-4.039-1.789-4.039-3.999c0-2.211,1.75-4,3.96-4h0.078
		c2.21,0,3.999,1.789,3.999,4C132.213,430.134,130.424,431.923,128.214,431.923z"/>
	<path style="fill:#3A3847;" d="M144.211,447.92c-2.207,0-4.039-1.789-4.039-4c0-2.21,1.75-3.999,3.96-3.999h0.078
		c2.21,0,3.999,1.789,3.999,3.999C148.21,446.131,146.421,447.92,144.211,447.92z"/>
	<path style="fill:#3A3847;" d="M160.208,463.917c-2.207,0-4.039-1.789-4.039-3.999c0-2.211,1.75-4,3.96-4h0.078
		c2.21,0,3.999,1.789,3.999,4C164.207,462.128,162.418,463.917,160.208,463.917z"/>
	<path style="fill:#3A3847;" d="M176.205,479.914c-2.207,0-4.038-1.789-4.038-4c0-2.21,1.749-3.999,3.96-3.999h0.078
		c2.21,0,3.999,1.789,3.999,3.999C180.204,478.125,178.415,479.914,176.205,479.914z"/>
	<path style="fill:#3A3847;" d="M80.223,351.937c-2.207,0-4.039-1.789-4.039-4s1.75-3.999,3.96-3.999h0.078
		c2.21,0,3.999,1.788,3.999,3.999S82.433,351.937,80.223,351.937z"/>
	<path style="fill:#3A3847;" d="M96.22,367.933c-2.207,0-4.039-1.788-4.039-3.999c0-2.21,1.75-3.999,3.96-3.999h0.078
		c2.21,0,3.999,1.789,3.999,3.999C100.219,366.145,98.43,367.933,96.22,367.933z"/>
	<path style="fill:#3A3847;" d="M112.217,383.932c-2.207,0-4.039-1.789-4.039-4c0-2.21,1.75-3.999,3.96-3.999h0.078
		c2.21,0,3.999,1.789,3.999,3.999C116.216,382.142,114.427,383.932,112.217,383.932z"/>
	<path style="fill:#3A3847;" d="M128.214,399.928c-2.207,0-4.039-1.788-4.039-3.999c0-2.21,1.75-3.999,3.96-3.999h0.078
		c2.21,0,3.999,1.789,3.999,3.999C132.213,398.14,130.424,399.928,128.214,399.928z"/>
	<path style="fill:#3A3847;" d="M144.211,415.926c-2.207,0-4.039-1.789-4.039-4c0-2.21,1.75-3.999,3.96-3.999h0.078
		c2.21,0,3.999,1.789,3.999,3.999C148.21,414.137,146.421,415.926,144.211,415.926z"/>
	<path style="fill:#3A3847;" d="M160.208,431.923c-2.207,0-4.039-1.789-4.039-3.999c0-2.211,1.75-4,3.96-4h0.078
		c2.21,0,3.999,1.789,3.999,4C164.207,430.134,162.418,431.923,160.208,431.923z"/>
	<path style="fill:#3A3847;" d="M176.205,447.92c-2.207,0-4.038-1.789-4.038-4c0-2.21,1.749-3.999,3.96-3.999h0.078
		c2.21,0,3.999,1.789,3.999,3.999C180.204,446.131,178.415,447.92,176.205,447.92z"/>
	<path style="fill:#3A3847;" d="M192.202,463.917c-2.207,0-4.038-1.789-4.038-3.999c0-2.211,1.75-4,3.96-4h0.078
		c2.21,0,3.999,1.789,3.999,4C196.201,462.128,194.412,463.917,192.202,463.917z"/>
	<path style="fill:#3A3847;" d="M208.199,479.914c-2.207,0-4.038-1.789-4.038-4c0-2.21,1.75-3.999,3.96-3.999h0.078
		c2.21,0,3.999,1.789,3.999,3.999C212.198,478.125,210.41,479.914,208.199,479.914z"/>
	<path style="fill:#3A3847;" d="M80.223,319.942c-2.207,0-4.039-1.788-4.039-3.999s1.75-3.999,3.96-3.999h0.078
		c2.21,0,3.999,1.788,3.999,3.999S82.433,319.942,80.223,319.942z"/>
	<path style="fill:#3A3847;" d="M96.22,335.939c-2.207,0-4.039-1.788-4.039-3.999c0-2.21,1.75-3.999,3.96-3.999h0.078
		c2.21,0,3.999,1.789,3.999,3.999C100.219,334.151,98.43,335.939,96.22,335.939z"/>
	<path style="fill:#3A3847;" d="M112.217,351.937c-2.207,0-4.039-1.789-4.039-4s1.75-3.999,3.96-3.999h0.078
		c2.21,0,3.999,1.788,3.999,3.999S114.427,351.937,112.217,351.937z"/>
	<path style="fill:#3A3847;" d="M128.214,367.933c-2.207,0-4.039-1.788-4.039-3.999c0-2.21,1.75-3.999,3.96-3.999h0.078
		c2.21,0,3.999,1.789,3.999,3.999C132.213,366.145,130.424,367.933,128.214,367.933z"/>
	<path style="fill:#3A3847;" d="M144.211,383.932c-2.207,0-4.039-1.789-4.039-4c0-2.21,1.75-3.999,3.96-3.999h0.078
		c2.21,0,3.999,1.789,3.999,3.999C148.21,382.142,146.421,383.932,144.211,383.932z"/>
	<path style="fill:#3A3847;" d="M160.208,399.928c-2.207,0-4.039-1.788-4.039-3.999c0-2.21,1.75-3.999,3.96-3.999h0.078
		c2.21,0,3.999,1.789,3.999,3.999C164.207,398.14,162.418,399.928,160.208,399.928z"/>
	<path style="fill:#3A3847;" d="M176.205,415.926c-2.207,0-4.038-1.789-4.038-4c0-2.21,1.749-3.999,3.96-3.999h0.078
		c2.21,0,3.999,1.789,3.999,3.999C180.204,414.137,178.415,415.926,176.205,415.926z"/>
	<path style="fill:#3A3847;" d="M192.202,431.923c-2.207,0-4.038-1.789-4.038-3.999c0-2.211,1.75-4,3.96-4h0.078
		c2.21,0,3.999,1.789,3.999,4C196.201,430.134,194.412,431.923,192.202,431.923z"/>
	<path style="fill:#3A3847;" d="M208.199,447.92c-2.207,0-4.038-1.789-4.038-4c0-2.21,1.75-3.999,3.96-3.999h0.078
		c2.21,0,3.999,1.789,3.999,3.999C212.198,446.131,210.41,447.92,208.199,447.92z"/>
	<path style="fill:#3A3847;" d="M224.196,463.917c-2.207,0-4.038-1.789-4.038-3.999c0-2.211,1.75-4,3.96-4h0.078
		c2.211,0,3.999,1.789,3.999,4C228.195,462.128,226.407,463.917,224.196,463.917z"/>
	<path style="fill:#3A3847;" d="M80.223,287.948c-2.207,0-4.039-1.788-4.039-3.999s1.75-3.999,3.96-3.999h0.078
		c2.21,0,3.999,1.788,3.999,3.999S82.433,287.948,80.223,287.948z"/>
	<path style="fill:#3A3847;" d="M96.22,303.945c-2.207,0-4.039-1.788-4.039-3.999c0-2.21,1.75-3.999,3.96-3.999h0.078
		c2.21,0,3.999,1.789,3.999,3.999C100.219,302.157,98.43,303.945,96.22,303.945z"/>
	<path style="fill:#3A3847;" d="M112.217,319.942c-2.207,0-4.039-1.788-4.039-3.999s1.75-3.999,3.96-3.999h0.078
		c2.21,0,3.999,1.788,3.999,3.999S114.427,319.942,112.217,319.942z"/>
	<path style="fill:#3A3847;" d="M128.214,335.939c-2.207,0-4.039-1.788-4.039-3.999c0-2.21,1.75-3.999,3.96-3.999h0.078
		c2.21,0,3.999,1.789,3.999,3.999C132.213,334.151,130.424,335.939,128.214,335.939z"/>
	<path style="fill:#3A3847;" d="M144.211,351.937c-2.207,0-4.039-1.789-4.039-4s1.75-3.999,3.96-3.999h0.078
		c2.21,0,3.999,1.788,3.999,3.999S146.421,351.937,144.211,351.937z"/>
	<path style="fill:#3A3847;" d="M160.208,367.933c-2.207,0-4.039-1.788-4.039-3.999c0-2.21,1.75-3.999,3.96-3.999h0.078
		c2.21,0,3.999,1.789,3.999,3.999C164.207,366.145,162.418,367.933,160.208,367.933z"/>
	<path style="fill:#3A3847;" d="M176.205,383.932c-2.207,0-4.038-1.789-4.038-4c0-2.21,1.749-3.999,3.96-3.999h0.078
		c2.21,0,3.999,1.789,3.999,3.999C180.204,382.142,178.415,383.932,176.205,383.932z"/>
	<path style="fill:#3A3847;" d="M192.202,399.928c-2.207,0-4.038-1.788-4.038-3.999c0-2.21,1.75-3.999,3.96-3.999h0.078
		c2.21,0,3.999,1.789,3.999,3.999C196.201,398.14,194.412,399.928,192.202,399.928z"/>
	<path style="fill:#3A3847;" d="M208.199,415.926c-2.207,0-4.038-1.789-4.038-4c0-2.21,1.75-3.999,3.96-3.999h0.078
		c2.21,0,3.999,1.789,3.999,3.999C212.198,414.137,210.41,415.926,208.199,415.926z"/>
	<path style="fill:#3A3847;" d="M224.196,431.923c-2.207,0-4.038-1.789-4.038-3.999c0-2.211,1.75-4,3.96-4h0.078
		c2.211,0,3.999,1.789,3.999,4C228.195,430.134,226.407,431.923,224.196,431.923z"/>
	<path style="fill:#3A3847;" d="M80.223,255.954c-2.207,0-4.039-1.789-4.039-3.999c0-2.211,1.75-3.999,3.96-3.999h0.078
		c2.21,0,3.999,1.788,3.999,3.999C84.222,254.165,82.433,255.954,80.223,255.954z"/>
	<path style="fill:#3A3847;" d="M96.22,271.951c-2.207,0-4.039-1.789-4.039-3.999c0-2.211,1.75-3.999,3.96-3.999h0.078
		c2.21,0,3.999,1.788,3.999,3.999C100.219,270.162,98.43,271.951,96.22,271.951z"/>
	<path style="fill:#3A3847;" d="M112.217,287.948c-2.207,0-4.039-1.788-4.039-3.999s1.75-3.999,3.96-3.999h0.078
		c2.21,0,3.999,1.788,3.999,3.999S114.427,287.948,112.217,287.948z"/>
	<path style="fill:#3A3847;" d="M128.214,303.945c-2.207,0-4.039-1.788-4.039-3.999c0-2.21,1.75-3.999,3.96-3.999h0.078
		c2.21,0,3.999,1.789,3.999,3.999C132.213,302.157,130.424,303.945,128.214,303.945z"/>
	<path style="fill:#3A3847;" d="M144.211,319.942c-2.207,0-4.039-1.788-4.039-3.999s1.75-3.999,3.96-3.999h0.078
		c2.21,0,3.999,1.788,3.999,3.999S146.421,319.942,144.211,319.942z"/>
	<path style="fill:#3A3847;" d="M160.208,335.939c-2.207,0-4.039-1.788-4.039-3.999c0-2.21,1.75-3.999,3.96-3.999h0.078
		c2.21,0,3.999,1.789,3.999,3.999C164.207,334.151,162.418,335.939,160.208,335.939z"/>
	<path style="fill:#3A3847;" d="M176.205,351.937c-2.207,0-4.038-1.789-4.038-4s1.749-3.999,3.96-3.999h0.078
		c2.21,0,3.999,1.788,3.999,3.999S178.415,351.937,176.205,351.937z"/>
	<path style="fill:#3A3847;" d="M192.202,367.933c-2.207,0-4.038-1.788-4.038-3.999c0-2.21,1.75-3.999,3.96-3.999h0.078
		c2.21,0,3.999,1.789,3.999,3.999C196.201,366.145,194.412,367.933,192.202,367.933z"/>
	<path style="fill:#3A3847;" d="M208.199,383.932c-2.207,0-4.038-1.789-4.038-4c0-2.21,1.75-3.999,3.96-3.999h0.078
		c2.21,0,3.999,1.789,3.999,3.999S210.41,383.932,208.199,383.932z"/>
	<path style="fill:#3A3847;" d="M224.196,399.928c-2.207,0-4.038-1.788-4.038-3.999c0-2.21,1.75-3.999,3.96-3.999h0.078
		c2.211,0,3.999,1.789,3.999,3.999C228.195,398.14,226.407,399.928,224.196,399.928z"/>
	<path style="fill:#3A3847;" d="M288.184,463.917c-2.202,0-4.038-1.789-4.038-3.999c0-2.211,1.75-4,3.96-4h0.078
		c2.211,0,3.999,1.789,3.999,4C292.183,462.128,290.395,463.917,288.184,463.917z"/>
	<path style="fill:#3A3847;" d="M80.223,223.96c-2.207,0-4.039-1.789-4.039-3.999c0-2.211,1.75-4,3.96-4h0.078
		c2.21,0,3.999,1.789,3.999,4C84.222,222.171,82.433,223.96,80.223,223.96z"/>
	<path style="fill:#3A3847;" d="M96.22,239.957c-2.207,0-4.039-1.789-4.039-3.999c0-2.211,1.75-4,3.96-4h0.078
		c2.21,0,3.999,1.789,3.999,4C100.219,238.168,98.43,239.957,96.22,239.957z"/>
	<path style="fill:#3A3847;" d="M112.217,255.954c-2.207,0-4.039-1.789-4.039-3.999c0-2.211,1.75-3.999,3.96-3.999h0.078
		c2.21,0,3.999,1.788,3.999,3.999C116.216,254.165,114.427,255.954,112.217,255.954z"/>
	<path style="fill:#3A3847;" d="M128.214,271.951c-2.207,0-4.039-1.789-4.039-3.999c0-2.211,1.75-3.999,3.96-3.999h0.078
		c2.21,0,3.999,1.788,3.999,3.999C132.213,270.162,130.424,271.951,128.214,271.951z"/>
	<path style="fill:#3A3847;" d="M144.211,287.948c-2.207,0-4.039-1.788-4.039-3.999s1.75-3.999,3.96-3.999h0.078
		c2.21,0,3.999,1.788,3.999,3.999S146.421,287.948,144.211,287.948z"/>
	<path style="fill:#3A3847;" d="M160.208,303.945c-2.207,0-4.039-1.788-4.039-3.999c0-2.21,1.75-3.999,3.96-3.999h0.078
		c2.21,0,3.999,1.789,3.999,3.999C164.207,302.157,162.418,303.945,160.208,303.945z"/>
	<path style="fill:#3A3847;" d="M176.205,319.942c-2.207,0-4.038-1.788-4.038-3.999s1.749-3.999,3.96-3.999h0.078
		c2.21,0,3.999,1.788,3.999,3.999S178.415,319.942,176.205,319.942z"/>
	<path style="fill:#3A3847;" d="M192.202,335.939c-2.207,0-4.038-1.788-4.038-3.999c0-2.21,1.75-3.999,3.96-3.999h0.078
		c2.21,0,3.999,1.789,3.999,3.999C196.201,334.151,194.412,335.939,192.202,335.939z"/>
	<path style="fill:#3A3847;" d="M208.199,351.937c-2.207,0-4.038-1.789-4.038-4s1.75-3.999,3.96-3.999h0.078
		c2.21,0,3.999,1.788,3.999,3.999S210.41,351.937,208.199,351.937z"/>
	<path style="fill:#3A3847;" d="M224.196,367.933c-2.207,0-4.038-1.788-4.038-3.999c0-2.21,1.75-3.999,3.96-3.999h0.078
		c2.211,0,3.999,1.789,3.999,3.999C228.195,366.145,226.407,367.933,224.196,367.933z"/>
	<path style="fill:#3A3847;" d="M288.184,431.923c-2.202,0-4.038-1.789-4.038-3.999c0-2.211,1.75-4,3.96-4h0.078
		c2.211,0,3.999,1.789,3.999,4C292.183,430.134,290.395,431.923,288.184,431.923z"/>
	<path style="fill:#3A3847;" d="M304.182,447.92c-2.202,0-4.038-1.789-4.038-4c0-2.21,1.75-3.999,3.96-3.999h0.078
		c2.211,0,4,1.789,4,3.999C308.182,446.131,306.392,447.92,304.182,447.92z"/>
	<path style="fill:#3A3847;" d="M320.179,463.917c-2.202,0-4.038-1.789-4.038-3.999c0-2.211,1.75-4,3.96-4h0.078
		c2.211,0,3.999,1.789,3.999,4C324.178,462.128,322.39,463.917,320.179,463.917z"/>
	<path style="fill:#3A3847;" d="M336.176,479.914c-2.202,0-4.038-1.789-4.038-4c0-2.21,1.75-3.999,3.96-3.999h0.078
		c2.211,0,4,1.789,4,3.999C340.176,478.125,338.387,479.914,336.176,479.914z"/>
	<path style="fill:#3A3847;" d="M80.223,191.966c-2.207,0-4.039-1.789-4.039-3.999c0-2.211,1.75-4,3.96-4h0.078
		c2.21,0,3.999,1.789,3.999,4C84.222,190.177,82.433,191.966,80.223,191.966z"/>
	<path style="fill:#3A3847;" d="M96.22,207.963c-2.207,0-4.039-1.789-4.039-3.999c0-2.211,1.75-4,3.96-4h0.078
		c2.21,0,3.999,1.789,3.999,4C100.219,206.174,98.43,207.963,96.22,207.963z"/>
	<path style="fill:#3A3847;" d="M112.217,223.96c-2.207,0-4.039-1.789-4.039-3.999c0-2.211,1.75-4,3.96-4h0.078
		c2.21,0,3.999,1.789,3.999,4C116.216,222.171,114.427,223.96,112.217,223.96z"/>
	<path style="fill:#3A3847;" d="M128.214,239.957c-2.207,0-4.039-1.789-4.039-3.999c0-2.211,1.75-4,3.96-4h0.078
		c2.21,0,3.999,1.789,3.999,4C132.213,238.168,130.424,239.957,128.214,239.957z"/>
	<path style="fill:#3A3847;" d="M144.211,255.954c-2.207,0-4.039-1.789-4.039-3.999c0-2.211,1.75-3.999,3.96-3.999h0.078
		c2.21,0,3.999,1.788,3.999,3.999C148.21,254.165,146.421,255.954,144.211,255.954z"/>
	<path style="fill:#3A3847;" d="M160.208,271.951c-2.207,0-4.039-1.789-4.039-3.999c0-2.211,1.75-3.999,3.96-3.999h0.078
		c2.21,0,3.999,1.788,3.999,3.999C164.207,270.162,162.418,271.951,160.208,271.951z"/>
	<path style="fill:#3A3847;" d="M176.205,287.948c-2.207,0-4.038-1.788-4.038-3.999s1.749-3.999,3.96-3.999h0.078
		c2.21,0,3.999,1.788,3.999,3.999S178.415,287.948,176.205,287.948z"/>
	<path style="fill:#3A3847;" d="M192.202,303.945c-2.207,0-4.038-1.788-4.038-3.999c0-2.21,1.75-3.999,3.96-3.999h0.078
		c2.21,0,3.999,1.789,3.999,3.999C196.201,302.157,194.412,303.945,192.202,303.945z"/>
	<path style="fill:#3A3847;" d="M208.199,319.942c-2.207,0-4.038-1.788-4.038-3.999s1.75-3.999,3.96-3.999h0.078
		c2.21,0,3.999,1.788,3.999,3.999S210.41,319.942,208.199,319.942z"/>
	<path style="fill:#3A3847;" d="M224.196,335.939c-2.207,0-4.038-1.788-4.038-3.999c0-2.21,1.75-3.999,3.96-3.999h0.078
		c2.211,0,3.999,1.789,3.999,3.999C228.195,334.151,226.407,335.939,224.196,335.939z"/>
	<path style="fill:#3A3847;" d="M288.184,399.928c-2.202,0-4.038-1.788-4.038-3.999c0-2.21,1.75-3.999,3.96-3.999h0.078
		c2.211,0,3.999,1.789,3.999,3.999C292.183,398.14,290.395,399.928,288.184,399.928z"/>
	<path style="fill:#3A3847;" d="M304.182,415.926c-2.202,0-4.038-1.789-4.038-4c0-2.21,1.75-3.999,3.96-3.999h0.078
		c2.211,0,4,1.789,4,3.999C308.182,414.137,306.392,415.926,304.182,415.926z"/>
	<path style="fill:#3A3847;" d="M320.179,431.923c-2.202,0-4.038-1.789-4.038-3.999c0-2.211,1.75-4,3.96-4h0.078
		c2.211,0,3.999,1.789,3.999,4C324.178,430.134,322.39,431.923,320.179,431.923z"/>
	<path style="fill:#3A3847;" d="M336.176,447.92c-2.202,0-4.038-1.789-4.038-4c0-2.21,1.75-3.999,3.96-3.999h0.078
		c2.211,0,4,1.789,4,3.999C340.176,446.131,338.387,447.92,336.176,447.92z"/>
	<path style="fill:#3A3847;" d="M352.174,463.917c-2.203,0-4.039-1.789-4.039-3.999c0-2.211,1.75-4,3.961-4h0.078
		c2.21,0,3.999,1.789,3.999,4C356.173,462.128,354.384,463.917,352.174,463.917z"/>
	<path style="fill:#3A3847;" d="M368.17,479.914c-2.202,0-4.038-1.789-4.038-4c0-2.21,1.75-3.999,3.96-3.999h0.078
		c2.211,0,4,1.789,4,3.999C372.17,478.125,370.381,479.914,368.17,479.914z"/>
	<path style="fill:#3A3847;" d="M80.223,159.972c-2.207,0-4.039-1.789-4.039-3.999c0-2.211,1.75-4,3.96-4h0.078
		c2.21,0,3.999,1.789,3.999,4C84.222,158.183,82.433,159.972,80.223,159.972z"/>
	<path style="fill:#3A3847;" d="M96.22,175.969c-2.207,0-4.039-1.789-4.039-3.999c0-2.211,1.75-4,3.96-4h0.078
		c2.21,0,3.999,1.789,3.999,4C100.219,174.18,98.43,175.969,96.22,175.969z"/>
	<path style="fill:#3A3847;" d="M112.217,191.966c-2.207,0-4.039-1.789-4.039-3.999c0-2.211,1.75-4,3.96-4h0.078
		c2.21,0,3.999,1.789,3.999,4C116.216,190.177,114.427,191.966,112.217,191.966z"/>
	<path style="fill:#3A3847;" d="M128.214,207.963c-2.207,0-4.039-1.789-4.039-3.999c0-2.211,1.75-4,3.96-4h0.078
		c2.21,0,3.999,1.789,3.999,4C132.213,206.174,130.424,207.963,128.214,207.963z"/>
	<path style="fill:#3A3847;" d="M144.211,223.96c-2.207,0-4.039-1.789-4.039-3.999c0-2.211,1.75-4,3.96-4h0.078
		c2.21,0,3.999,1.789,3.999,4C148.21,222.171,146.421,223.96,144.211,223.96z"/>
	<path style="fill:#3A3847;" d="M160.208,239.957c-2.207,0-4.039-1.789-4.039-3.999c0-2.211,1.75-4,3.96-4h0.078
		c2.21,0,3.999,1.789,3.999,4C164.207,238.168,162.418,239.957,160.208,239.957z"/>
	<path style="fill:#3A3847;" d="M176.205,255.954c-2.207,0-4.038-1.789-4.038-3.999c0-2.211,1.749-3.999,3.96-3.999h0.078
		c2.21,0,3.999,1.788,3.999,3.999C180.204,254.165,178.415,255.954,176.205,255.954z"/>
	<path style="fill:#3A3847;" d="M192.202,271.951c-2.207,0-4.038-1.789-4.038-3.999c0-2.211,1.75-3.999,3.96-3.999h0.078
		c2.21,0,3.999,1.788,3.999,3.999C196.201,270.162,194.412,271.951,192.202,271.951z"/>
	<path style="fill:#3A3847;" d="M208.199,287.948c-2.207,0-4.038-1.788-4.038-3.999s1.75-3.999,3.96-3.999h0.078
		c2.21,0,3.999,1.788,3.999,3.999S210.41,287.948,208.199,287.948z"/>
	<path style="fill:#3A3847;" d="M224.196,303.945c-2.207,0-4.038-1.788-4.038-3.999c0-2.21,1.75-3.999,3.96-3.999h0.078
		c2.211,0,3.999,1.789,3.999,3.999C228.195,302.157,226.407,303.945,224.196,303.945z"/>
	<path style="fill:#3A3847;" d="M288.184,367.933c-2.202,0-4.038-1.788-4.038-3.999c0-2.21,1.75-3.999,3.96-3.999h0.078
		c2.211,0,3.999,1.789,3.999,3.999C292.183,366.145,290.395,367.933,288.184,367.933z"/>
	<path style="fill:#3A3847;" d="M304.182,383.932c-2.202,0-4.038-1.789-4.038-4c0-2.21,1.75-3.999,3.96-3.999h0.078
		c2.211,0,4,1.789,4,3.999S306.392,383.932,304.182,383.932z"/>
	<path style="fill:#3A3847;" d="M320.179,399.928c-2.202,0-4.038-1.788-4.038-3.999c0-2.21,1.75-3.999,3.96-3.999h0.078
		c2.211,0,3.999,1.789,3.999,3.999C324.178,398.14,322.39,399.928,320.179,399.928z"/>
	<path style="fill:#3A3847;" d="M336.176,415.926c-2.202,0-4.038-1.789-4.038-4c0-2.21,1.75-3.999,3.96-3.999h0.078
		c2.211,0,4,1.789,4,3.999C340.176,414.137,338.387,415.926,336.176,415.926z"/>
	<path style="fill:#3A3847;" d="M352.174,431.923c-2.203,0-4.039-1.789-4.039-3.999c0-2.211,1.75-4,3.961-4h0.078
		c2.21,0,3.999,1.789,3.999,4C356.173,430.134,354.384,431.923,352.174,431.923z"/>
	<path style="fill:#3A3847;" d="M368.17,447.92c-2.202,0-4.038-1.789-4.038-4c0-2.21,1.75-3.999,3.96-3.999h0.078
		c2.211,0,4,1.789,4,3.999C372.17,446.131,370.381,447.92,368.17,447.92z"/>
	<path style="fill:#3A3847;" d="M384.168,463.917c-2.203,0-4.039-1.789-4.039-3.999c0-2.211,1.75-4,3.961-4h0.078
		c2.21,0,3.999,1.789,3.999,4C388.167,462.128,386.378,463.917,384.168,463.917z"/>
	<path style="fill:#3A3847;" d="M400.164,479.914c-2.202,0-4.038-1.789-4.038-4c0-2.21,1.75-3.999,3.96-3.999h0.078
		c2.211,0,4,1.789,4,3.999C404.164,478.125,402.375,479.914,400.164,479.914z"/>
	<path style="fill:#3A3847;" d="M80.223,127.977c-2.207,0-4.039-1.789-4.039-4c0-2.21,1.75-3.999,3.96-3.999h0.078
		c2.21,0,3.999,1.789,3.999,3.999C84.222,126.188,82.433,127.977,80.223,127.977z"/>
	<path style="fill:#3A3847;" d="M96.22,143.975c-2.207,0-4.039-1.789-4.039-4c0-2.21,1.75-3.999,3.96-3.999h0.078
		c2.21,0,3.999,1.789,3.999,3.999C100.219,142.185,98.43,143.975,96.22,143.975z"/>
	<path style="fill:#3A3847;" d="M112.217,159.972c-2.207,0-4.039-1.789-4.039-3.999c0-2.211,1.75-4,3.96-4h0.078
		c2.21,0,3.999,1.789,3.999,4C116.216,158.183,114.427,159.972,112.217,159.972z"/>
	<path style="fill:#3A3847;" d="M128.214,175.969c-2.207,0-4.039-1.789-4.039-3.999c0-2.211,1.75-4,3.96-4h0.078
		c2.21,0,3.999,1.789,3.999,4C132.213,174.18,130.424,175.969,128.214,175.969z"/>
	<path style="fill:#3A3847;" d="M144.211,191.966c-2.207,0-4.039-1.789-4.039-3.999c0-2.211,1.75-4,3.96-4h0.078
		c2.21,0,3.999,1.789,3.999,4C148.21,190.177,146.421,191.966,144.211,191.966z"/>
	<path style="fill:#3A3847;" d="M160.208,207.963c-2.207,0-4.039-1.789-4.039-3.999c0-2.211,1.75-4,3.96-4h0.078
		c2.21,0,3.999,1.789,3.999,4C164.207,206.174,162.418,207.963,160.208,207.963z"/>
	<path style="fill:#3A3847;" d="M176.205,223.96c-2.207,0-4.038-1.789-4.038-3.999c0-2.211,1.749-4,3.96-4h0.078
		c2.21,0,3.999,1.789,3.999,4C180.204,222.171,178.415,223.96,176.205,223.96z"/>
	<path style="fill:#3A3847;" d="M192.202,239.957c-2.207,0-4.038-1.789-4.038-3.999c0-2.211,1.75-4,3.96-4h0.078
		c2.21,0,3.999,1.789,3.999,4C196.201,238.168,194.412,239.957,192.202,239.957z"/>
	<path style="fill:#3A3847;" d="M208.199,255.954c-2.207,0-4.038-1.789-4.038-3.999c0-2.211,1.75-3.999,3.96-3.999h0.078
		c2.21,0,3.999,1.788,3.999,3.999C212.198,254.165,210.41,255.954,208.199,255.954z"/>
	<path style="fill:#3A3847;" d="M224.196,271.951c-2.207,0-4.038-1.789-4.038-3.999c0-2.211,1.75-3.999,3.96-3.999h0.078
		c2.211,0,3.999,1.788,3.999,3.999C228.195,270.162,226.407,271.951,224.196,271.951z"/>
	<path style="fill:#3A3847;" d="M288.184,335.939c-2.202,0-4.038-1.788-4.038-3.999c0-2.21,1.75-3.999,3.96-3.999h0.078
		c2.211,0,3.999,1.789,3.999,3.999C292.183,334.151,290.395,335.939,288.184,335.939z"/>
	<path style="fill:#3A3847;" d="M304.182,351.937c-2.202,0-4.038-1.789-4.038-4s1.75-3.999,3.96-3.999h0.078
		c2.211,0,4,1.788,4,3.999S306.392,351.937,304.182,351.937z"/>
	<path style="fill:#3A3847;" d="M320.179,367.933c-2.202,0-4.038-1.788-4.038-3.999c0-2.21,1.75-3.999,3.96-3.999h0.078
		c2.211,0,3.999,1.789,3.999,3.999C324.178,366.145,322.39,367.933,320.179,367.933z"/>
	<path style="fill:#3A3847;" d="M336.176,383.932c-2.202,0-4.038-1.789-4.038-4c0-2.21,1.75-3.999,3.96-3.999h0.078
		c2.211,0,4,1.789,4,3.999S338.387,383.932,336.176,383.932z"/>
	<path style="fill:#3A3847;" d="M352.174,399.928c-2.203,0-4.039-1.788-4.039-3.999c0-2.21,1.75-3.999,3.961-3.999h0.078
		c2.21,0,3.999,1.789,3.999,3.999C356.173,398.14,354.384,399.928,352.174,399.928z"/>
	<path style="fill:#3A3847;" d="M368.17,415.926c-2.202,0-4.038-1.789-4.038-4c0-2.21,1.75-3.999,3.96-3.999h0.078
		c2.211,0,4,1.789,4,3.999C372.17,414.137,370.381,415.926,368.17,415.926z"/>
	<path style="fill:#3A3847;" d="M384.168,431.923c-2.203,0-4.039-1.789-4.039-3.999c0-2.211,1.75-4,3.961-4h0.078
		c2.21,0,3.999,1.789,3.999,4C388.167,430.134,386.378,431.923,384.168,431.923z"/>
	<path style="fill:#3A3847;" d="M400.164,447.92c-2.202,0-4.038-1.789-4.038-4c0-2.21,1.75-3.999,3.96-3.999h0.078
		c2.211,0,4,1.789,4,3.999C404.164,446.131,402.375,447.92,400.164,447.92z"/>
	<path style="fill:#3A3847;" d="M416.162,463.917c-2.203,0-4.039-1.789-4.039-3.999c0-2.211,1.75-4,3.961-4h0.078
		c2.21,0,3.999,1.789,3.999,4C420.161,462.128,418.372,463.917,416.162,463.917z"/>
	<path style="fill:#3A3847;" d="M96.22,111.98c-2.207,0-4.039-1.789-4.039-4c0-2.21,1.75-3.999,3.96-3.999h0.078
		c2.21,0,3.999,1.789,3.999,3.999C100.219,110.191,98.43,111.98,96.22,111.98z"/>
	<path style="fill:#3A3847;" d="M112.217,127.977c-2.207,0-4.039-1.789-4.039-4c0-2.21,1.75-3.999,3.96-3.999h0.078
		c2.21,0,3.999,1.789,3.999,3.999C116.216,126.188,114.427,127.977,112.217,127.977z"/>
	<path style="fill:#3A3847;" d="M128.214,143.975c-2.207,0-4.039-1.789-4.039-4c0-2.21,1.75-3.999,3.96-3.999h0.078
		c2.21,0,3.999,1.789,3.999,3.999C132.213,142.185,130.424,143.975,128.214,143.975z"/>
	<path style="fill:#3A3847;" d="M144.211,159.972c-2.207,0-4.039-1.789-4.039-3.999c0-2.211,1.75-4,3.96-4h0.078
		c2.21,0,3.999,1.789,3.999,4C148.21,158.183,146.421,159.972,144.211,159.972z"/>
	<path style="fill:#3A3847;" d="M160.208,175.969c-2.207,0-4.039-1.789-4.039-3.999c0-2.211,1.75-4,3.96-4h0.078
		c2.21,0,3.999,1.789,3.999,4C164.207,174.18,162.418,175.969,160.208,175.969z"/>
	<path style="fill:#3A3847;" d="M176.205,191.966c-2.207,0-4.038-1.789-4.038-3.999c0-2.211,1.749-4,3.96-4h0.078
		c2.21,0,3.999,1.789,3.999,4C180.204,190.177,178.415,191.966,176.205,191.966z"/>
	<path style="fill:#3A3847;" d="M192.202,207.963c-2.207,0-4.038-1.789-4.038-3.999c0-2.211,1.75-4,3.96-4h0.078
		c2.21,0,3.999,1.789,3.999,4C196.201,206.174,194.412,207.963,192.202,207.963z"/>
	<path style="fill:#3A3847;" d="M208.199,223.96c-2.207,0-4.038-1.789-4.038-3.999c0-2.211,1.75-4,3.96-4h0.078
		c2.21,0,3.999,1.789,3.999,4C212.198,222.171,210.41,223.96,208.199,223.96z"/>
	<path style="fill:#3A3847;" d="M224.196,239.957c-2.207,0-4.038-1.789-4.038-3.999c0-2.211,1.75-4,3.96-4h0.078
		c2.211,0,3.999,1.789,3.999,4C228.195,238.168,226.407,239.957,224.196,239.957z"/>
	<path style="fill:#3A3847;" d="M240.193,255.954c-2.207,0-4.038-1.789-4.038-3.999c0-2.211,1.75-3.999,3.96-3.999h0.078
		c2.211,0,3.999,1.788,3.999,3.999C244.192,254.165,242.404,255.954,240.193,255.954z"/>
	<path style="fill:#3A3847;" d="M256.19,271.951c-2.207,0-4.038-1.789-4.038-3.999c0-2.211,1.75-3.999,3.96-3.999h0.078
		c2.211,0,3.999,1.788,3.999,3.999C260.189,270.162,258.401,271.951,256.19,271.951z"/>
	<path style="fill:#3A3847;" d="M288.184,303.945c-2.202,0-4.038-1.788-4.038-3.999c0-2.21,1.75-3.999,3.96-3.999h0.078
		c2.211,0,3.999,1.789,3.999,3.999C292.183,302.157,290.395,303.945,288.184,303.945z"/>
	<path style="fill:#3A3847;" d="M304.182,319.942c-2.202,0-4.038-1.788-4.038-3.999s1.75-3.999,3.96-3.999h0.078
		c2.211,0,4,1.788,4,3.999S306.392,319.942,304.182,319.942z"/>
	<path style="fill:#3A3847;" d="M320.179,335.939c-2.202,0-4.038-1.788-4.038-3.999c0-2.21,1.75-3.999,3.96-3.999h0.078
		c2.211,0,3.999,1.789,3.999,3.999C324.178,334.151,322.39,335.939,320.179,335.939z"/>
	<path style="fill:#3A3847;" d="M336.176,351.937c-2.202,0-4.038-1.789-4.038-4s1.75-3.999,3.96-3.999h0.078
		c2.211,0,4,1.788,4,3.999S338.387,351.937,336.176,351.937z"/>
	<path style="fill:#3A3847;" d="M352.174,367.933c-2.203,0-4.039-1.788-4.039-3.999c0-2.21,1.75-3.999,3.961-3.999h0.078
		c2.21,0,3.999,1.789,3.999,3.999C356.173,366.145,354.384,367.933,352.174,367.933z"/>
	<path style="fill:#3A3847;" d="M368.17,383.932c-2.202,0-4.038-1.789-4.038-4c0-2.21,1.75-3.999,3.96-3.999h0.078
		c2.211,0,4,1.789,4,3.999S370.381,383.932,368.17,383.932z"/>
	<path style="fill:#3A3847;" d="M384.168,399.928c-2.203,0-4.039-1.788-4.039-3.999c0-2.21,1.75-3.999,3.961-3.999h0.078
		c2.21,0,3.999,1.789,3.999,3.999C388.167,398.14,386.378,399.928,384.168,399.928z"/>
	<path style="fill:#3A3847;" d="M400.164,415.926c-2.202,0-4.038-1.789-4.038-4c0-2.21,1.75-3.999,3.96-3.999h0.078
		c2.211,0,4,1.789,4,3.999C404.164,414.137,402.375,415.926,400.164,415.926z"/>
	<path style="fill:#3A3847;" d="M416.162,431.923c-2.203,0-4.039-1.789-4.039-3.999c0-2.211,1.75-4,3.961-4h0.078
		c2.21,0,3.999,1.789,3.999,4C420.161,430.134,418.372,431.923,416.162,431.923z"/>
	<path style="fill:#3A3847;" d="M432.159,447.92c-2.203,0-4.038-1.789-4.038-4c0-2.21,1.749-3.999,3.96-3.999h0.078
		c2.21,0,3.999,1.789,3.999,3.999C436.158,446.131,434.369,447.92,432.159,447.92z"/>
	<path style="fill:#3A3847;" d="M128.214,111.98c-2.207,0-4.039-1.789-4.039-4c0-2.21,1.75-3.999,3.96-3.999h0.078
		c2.21,0,3.999,1.789,3.999,3.999C132.213,110.191,130.424,111.98,128.214,111.98z"/>
	<path style="fill:#3A3847;" d="M144.211,127.977c-2.207,0-4.039-1.789-4.039-4c0-2.21,1.75-3.999,3.96-3.999h0.078
		c2.21,0,3.999,1.789,3.999,3.999C148.21,126.188,146.421,127.977,144.211,127.977z"/>
	<path style="fill:#3A3847;" d="M160.208,143.975c-2.207,0-4.039-1.789-4.039-4c0-2.21,1.75-3.999,3.96-3.999h0.078
		c2.21,0,3.999,1.789,3.999,3.999C164.207,142.185,162.418,143.975,160.208,143.975z"/>
	<path style="fill:#3A3847;" d="M176.205,159.972c-2.207,0-4.038-1.789-4.038-3.999c0-2.211,1.749-4,3.96-4h0.078
		c2.21,0,3.999,1.789,3.999,4C180.204,158.183,178.415,159.972,176.205,159.972z"/>
	<path style="fill:#3A3847;" d="M192.202,175.969c-2.207,0-4.038-1.789-4.038-3.999c0-2.211,1.75-4,3.96-4h0.078
		c2.21,0,3.999,1.789,3.999,4C196.201,174.18,194.412,175.969,192.202,175.969z"/>
	<path style="fill:#3A3847;" d="M208.199,191.966c-2.207,0-4.038-1.789-4.038-3.999c0-2.211,1.75-4,3.96-4h0.078
		c2.21,0,3.999,1.789,3.999,4C212.198,190.177,210.41,191.966,208.199,191.966z"/>
	<path style="fill:#3A3847;" d="M224.196,207.963c-2.207,0-4.038-1.789-4.038-3.999c0-2.211,1.75-4,3.96-4h0.078
		c2.211,0,3.999,1.789,3.999,4C228.195,206.174,226.407,207.963,224.196,207.963z"/>
	<path style="fill:#3A3847;" d="M240.193,223.96c-2.207,0-4.038-1.789-4.038-3.999c0-2.211,1.75-4,3.96-4h0.078
		c2.211,0,3.999,1.789,3.999,4C244.192,222.171,242.404,223.96,240.193,223.96z"/>
	<path style="fill:#3A3847;" d="M256.19,239.957c-2.207,0-4.038-1.789-4.038-3.999c0-2.211,1.75-4,3.96-4h0.078
		c2.211,0,3.999,1.789,3.999,4C260.189,238.168,258.401,239.957,256.19,239.957z"/>
	<path style="fill:#3A3847;" d="M272.187,255.954c-2.203,0-4.038-1.789-4.038-3.999c0-2.211,1.749-3.999,3.96-3.999h0.078
		c2.211,0,4,1.788,4,3.999C276.187,254.165,274.398,255.954,272.187,255.954z"/>
	<path style="fill:#3A3847;" d="M288.184,271.951c-2.202,0-4.038-1.789-4.038-3.999c0-2.211,1.75-3.999,3.96-3.999h0.078
		c2.211,0,3.999,1.788,3.999,3.999C292.183,270.162,290.395,271.951,288.184,271.951z"/>
	<path style="fill:#3A3847;" d="M304.182,287.948c-2.202,0-4.038-1.788-4.038-3.999s1.75-3.999,3.96-3.999h0.078
		c2.211,0,4,1.788,4,3.999S306.392,287.948,304.182,287.948z"/>
	<path style="fill:#3A3847;" d="M320.179,303.945c-2.202,0-4.038-1.788-4.038-3.999c0-2.21,1.75-3.999,3.96-3.999h0.078
		c2.211,0,3.999,1.789,3.999,3.999C324.178,302.157,322.39,303.945,320.179,303.945z"/>
	<path style="fill:#3A3847;" d="M336.176,319.942c-2.202,0-4.038-1.788-4.038-3.999s1.75-3.999,3.96-3.999h0.078
		c2.211,0,4,1.788,4,3.999S338.387,319.942,336.176,319.942z"/>
	<path style="fill:#3A3847;" d="M352.174,335.939c-2.203,0-4.039-1.788-4.039-3.999c0-2.21,1.75-3.999,3.961-3.999h0.078
		c2.21,0,3.999,1.789,3.999,3.999C356.173,334.151,354.384,335.939,352.174,335.939z"/>
	<path style="fill:#3A3847;" d="M368.17,351.937c-2.202,0-4.038-1.789-4.038-4s1.75-3.999,3.96-3.999h0.078c2.211,0,4,1.788,4,3.999
		S370.381,351.937,368.17,351.937z"/>
	<path style="fill:#3A3847;" d="M384.168,367.933c-2.203,0-4.039-1.788-4.039-3.999c0-2.21,1.75-3.999,3.961-3.999h0.078
		c2.21,0,3.999,1.789,3.999,3.999C388.167,366.145,386.378,367.933,384.168,367.933z"/>
	<path style="fill:#3A3847;" d="M400.164,383.932c-2.202,0-4.038-1.789-4.038-4c0-2.21,1.75-3.999,3.96-3.999h0.078
		c2.211,0,4,1.789,4,3.999S402.375,383.932,400.164,383.932z"/>
	<path style="fill:#3A3847;" d="M416.162,399.928c-2.203,0-4.039-1.788-4.039-3.999c0-2.21,1.75-3.999,3.961-3.999h0.078
		c2.21,0,3.999,1.789,3.999,3.999C420.161,398.14,418.372,399.928,416.162,399.928z"/>
	<path style="fill:#3A3847;" d="M432.159,415.926c-2.203,0-4.038-1.789-4.038-4c0-2.21,1.749-3.999,3.96-3.999h0.078
		c2.21,0,3.999,1.789,3.999,3.999C436.158,414.137,434.369,415.926,432.159,415.926z"/>
	<path style="fill:#3A3847;" d="M160.208,111.98c-2.207,0-4.039-1.789-4.039-4c0-2.21,1.75-3.999,3.96-3.999h0.078
		c2.21,0,3.999,1.789,3.999,3.999C164.207,110.191,162.418,111.98,160.208,111.98z"/>
	<path style="fill:#3A3847;" d="M176.205,127.977c-2.207,0-4.038-1.789-4.038-4c0-2.21,1.749-3.999,3.96-3.999h0.078
		c2.21,0,3.999,1.789,3.999,3.999C180.204,126.188,178.415,127.977,176.205,127.977z"/>
	<path style="fill:#3A3847;" d="M192.202,143.975c-2.207,0-4.038-1.789-4.038-4c0-2.21,1.75-3.999,3.96-3.999h0.078
		c2.21,0,3.999,1.789,3.999,3.999C196.201,142.185,194.412,143.975,192.202,143.975z"/>
	<path style="fill:#3A3847;" d="M208.199,159.972c-2.207,0-4.038-1.789-4.038-3.999c0-2.211,1.75-4,3.96-4h0.078
		c2.21,0,3.999,1.789,3.999,4C212.198,158.183,210.41,159.972,208.199,159.972z"/>
	<path style="fill:#3A3847;" d="M224.196,175.969c-2.207,0-4.038-1.789-4.038-3.999c0-2.211,1.75-4,3.96-4h0.078
		c2.211,0,3.999,1.789,3.999,4C228.195,174.18,226.407,175.969,224.196,175.969z"/>
	<path style="fill:#3A3847;" d="M240.193,191.966c-2.207,0-4.038-1.789-4.038-3.999c0-2.211,1.75-4,3.96-4h0.078
		c2.211,0,3.999,1.789,3.999,4C244.192,190.177,242.404,191.966,240.193,191.966z"/>
	<path style="fill:#3A3847;" d="M256.19,207.963c-2.207,0-4.038-1.789-4.038-3.999c0-2.211,1.75-4,3.96-4h0.078
		c2.211,0,3.999,1.789,3.999,4C260.189,206.174,258.401,207.963,256.19,207.963z"/>
	<path style="fill:#3A3847;" d="M272.187,223.96c-2.203,0-4.038-1.789-4.038-3.999c0-2.211,1.749-4,3.96-4h0.078
		c2.211,0,4,1.789,4,4C276.187,222.171,274.398,223.96,272.187,223.96z"/>
	<path style="fill:#3A3847;" d="M288.184,239.957c-2.202,0-4.038-1.789-4.038-3.999c0-2.211,1.75-4,3.96-4h0.078
		c2.211,0,3.999,1.789,3.999,4C292.183,238.168,290.395,239.957,288.184,239.957z"/>
	<path style="fill:#3A3847;" d="M304.182,255.954c-2.202,0-4.038-1.789-4.038-3.999c0-2.211,1.75-3.999,3.96-3.999h0.078
		c2.211,0,4,1.788,4,3.999C308.182,254.165,306.392,255.954,304.182,255.954z"/>
	<path style="fill:#3A3847;" d="M320.179,271.951c-2.202,0-4.038-1.789-4.038-3.999c0-2.211,1.75-3.999,3.96-3.999h0.078
		c2.211,0,3.999,1.788,3.999,3.999C324.178,270.162,322.39,271.951,320.179,271.951z"/>
	<path style="fill:#3A3847;" d="M336.176,287.948c-2.202,0-4.038-1.788-4.038-3.999s1.75-3.999,3.96-3.999h0.078
		c2.211,0,4,1.788,4,3.999S338.387,287.948,336.176,287.948z"/>
	<path style="fill:#3A3847;" d="M352.174,303.945c-2.203,0-4.039-1.788-4.039-3.999c0-2.21,1.75-3.999,3.961-3.999h0.078
		c2.21,0,3.999,1.789,3.999,3.999C356.173,302.157,354.384,303.945,352.174,303.945z"/>
	<path style="fill:#3A3847;" d="M368.17,319.942c-2.202,0-4.038-1.788-4.038-3.999s1.75-3.999,3.96-3.999h0.078
		c2.211,0,4,1.788,4,3.999S370.381,319.942,368.17,319.942z"/>
	<path style="fill:#3A3847;" d="M384.168,335.939c-2.203,0-4.039-1.788-4.039-3.999c0-2.21,1.75-3.999,3.961-3.999h0.078
		c2.21,0,3.999,1.789,3.999,3.999C388.167,334.151,386.378,335.939,384.168,335.939z"/>
	<path style="fill:#3A3847;" d="M400.164,351.937c-2.202,0-4.038-1.789-4.038-4s1.75-3.999,3.96-3.999h0.078
		c2.211,0,4,1.788,4,3.999S402.375,351.937,400.164,351.937z"/>
	<path style="fill:#3A3847;" d="M416.162,367.933c-2.203,0-4.039-1.788-4.039-3.999c0-2.21,1.75-3.999,3.961-3.999h0.078
		c2.21,0,3.999,1.789,3.999,3.999C420.161,366.145,418.372,367.933,416.162,367.933z"/>
	<path style="fill:#3A3847;" d="M432.159,383.932c-2.203,0-4.038-1.789-4.038-4c0-2.21,1.749-3.999,3.96-3.999h0.078
		c2.21,0,3.999,1.789,3.999,3.999C436.158,382.142,434.369,383.932,432.159,383.932z"/>
	<path style="fill:#3A3847;" d="M192.202,111.98c-2.207,0-4.038-1.789-4.038-4c0-2.21,1.75-3.999,3.96-3.999h0.078
		c2.21,0,3.999,1.789,3.999,3.999C196.201,110.191,194.412,111.98,192.202,111.98z"/>
	<path style="fill:#3A3847;" d="M208.199,127.977c-2.207,0-4.038-1.789-4.038-4c0-2.21,1.75-3.999,3.96-3.999h0.078
		c2.21,0,3.999,1.789,3.999,3.999C212.198,126.188,210.41,127.977,208.199,127.977z"/>
	<path style="fill:#3A3847;" d="M224.196,143.975c-2.207,0-4.038-1.789-4.038-4c0-2.21,1.75-3.999,3.96-3.999h0.078
		c2.211,0,3.999,1.789,3.999,3.999C228.195,142.185,226.407,143.975,224.196,143.975z"/>
	<path style="fill:#3A3847;" d="M256.19,175.969c-2.207,0-4.038-1.789-4.038-3.999c0-2.211,1.75-4,3.96-4h0.078
		c2.211,0,3.999,1.789,3.999,4C260.189,174.18,258.401,175.969,256.19,175.969z"/>
	<path style="fill:#3A3847;" d="M272.187,191.966c-2.203,0-4.038-1.789-4.038-3.999c0-2.211,1.749-4,3.96-4h0.078
		c2.211,0,4,1.789,4,4C276.187,190.177,274.398,191.966,272.187,191.966z"/>
	<path style="fill:#3A3847;" d="M288.184,207.963c-2.202,0-4.038-1.789-4.038-3.999c0-2.211,1.75-4,3.96-4h0.078
		c2.211,0,3.999,1.789,3.999,4C292.183,206.174,290.395,207.963,288.184,207.963z"/>
	<path style="fill:#3A3847;" d="M304.182,223.96c-2.202,0-4.038-1.789-4.038-3.999c0-2.211,1.75-4,3.96-4h0.078c2.211,0,4,1.789,4,4
		C308.182,222.171,306.392,223.96,304.182,223.96z"/>
	<path style="fill:#3A3847;" d="M320.179,239.957c-2.202,0-4.038-1.789-4.038-3.999c0-2.211,1.75-4,3.96-4h0.078
		c2.211,0,3.999,1.789,3.999,4C324.178,238.168,322.39,239.957,320.179,239.957z"/>
	<path style="fill:#3A3847;" d="M336.176,255.954c-2.202,0-4.038-1.789-4.038-3.999c0-2.211,1.75-3.999,3.96-3.999h0.078
		c2.211,0,4,1.788,4,3.999C340.176,254.165,338.387,255.954,336.176,255.954z"/>
	<path style="fill:#3A3847;" d="M352.174,271.951c-2.203,0-4.039-1.789-4.039-3.999c0-2.211,1.75-3.999,3.961-3.999h0.078
		c2.21,0,3.999,1.788,3.999,3.999C356.173,270.162,354.384,271.951,352.174,271.951z"/>
	<path style="fill:#3A3847;" d="M368.17,287.948c-2.202,0-4.038-1.788-4.038-3.999s1.75-3.999,3.96-3.999h0.078
		c2.211,0,4,1.788,4,3.999S370.381,287.948,368.17,287.948z"/>
	<path style="fill:#3A3847;" d="M384.168,303.945c-2.203,0-4.039-1.788-4.039-3.999c0-2.21,1.75-3.999,3.961-3.999h0.078
		c2.21,0,3.999,1.789,3.999,3.999C388.167,302.157,386.378,303.945,384.168,303.945z"/>
	<path style="fill:#3A3847;" d="M400.164,319.942c-2.202,0-4.038-1.788-4.038-3.999s1.75-3.999,3.96-3.999h0.078
		c2.211,0,4,1.788,4,3.999S402.375,319.942,400.164,319.942z"/>
	<path style="fill:#3A3847;" d="M416.162,335.939c-2.203,0-4.039-1.788-4.039-3.999c0-2.21,1.75-3.999,3.961-3.999h0.078
		c2.21,0,3.999,1.789,3.999,3.999C420.161,334.151,418.372,335.939,416.162,335.939z"/>
	<path style="fill:#3A3847;" d="M432.159,351.937c-2.203,0-4.038-1.789-4.038-4s1.749-3.999,3.96-3.999h0.078
		c2.21,0,3.999,1.788,3.999,3.999S434.369,351.937,432.159,351.937z"/>
	<path style="fill:#3A3847;" d="M224.196,111.98c-2.207,0-4.038-1.789-4.038-4c0-2.21,1.75-3.999,3.96-3.999h0.078
		c2.211,0,3.999,1.789,3.999,3.999C228.195,110.191,226.407,111.98,224.196,111.98z"/>
	<path style="fill:#3A3847;" d="M288.184,175.969c-2.202,0-4.038-1.789-4.038-3.999c0-2.211,1.75-4,3.96-4h0.078
		c2.211,0,3.999,1.789,3.999,4C292.183,174.18,290.395,175.969,288.184,175.969z"/>
	<path style="fill:#3A3847;" d="M304.182,191.966c-2.202,0-4.038-1.789-4.038-3.999c0-2.211,1.75-4,3.96-4h0.078
		c2.211,0,4,1.789,4,4C308.182,190.177,306.392,191.966,304.182,191.966z"/>
	<path style="fill:#3A3847;" d="M320.179,207.963c-2.202,0-4.038-1.789-4.038-3.999c0-2.211,1.75-4,3.96-4h0.078
		c2.211,0,3.999,1.789,3.999,4C324.178,206.174,322.39,207.963,320.179,207.963z"/>
	<path style="fill:#3A3847;" d="M336.176,223.96c-2.202,0-4.038-1.789-4.038-3.999c0-2.211,1.75-4,3.96-4h0.078c2.211,0,4,1.789,4,4
		C340.176,222.171,338.387,223.96,336.176,223.96z"/>
	<path style="fill:#3A3847;" d="M352.174,239.957c-2.203,0-4.039-1.789-4.039-3.999c0-2.211,1.75-4,3.961-4h0.078
		c2.21,0,3.999,1.789,3.999,4C356.173,238.168,354.384,239.957,352.174,239.957z"/>
	<path style="fill:#3A3847;" d="M368.17,255.954c-2.202,0-4.038-1.789-4.038-3.999c0-2.211,1.75-3.999,3.96-3.999h0.078
		c2.211,0,4,1.788,4,3.999C372.17,254.165,370.381,255.954,368.17,255.954z"/>
	<path style="fill:#3A3847;" d="M384.168,271.951c-2.203,0-4.039-1.789-4.039-3.999c0-2.211,1.75-3.999,3.961-3.999h0.078
		c2.21,0,3.999,1.788,3.999,3.999C388.167,270.162,386.378,271.951,384.168,271.951z"/>
	<path style="fill:#3A3847;" d="M400.164,287.948c-2.202,0-4.038-1.788-4.038-3.999s1.75-3.999,3.96-3.999h0.078
		c2.211,0,4,1.788,4,3.999S402.375,287.948,400.164,287.948z"/>
	<path style="fill:#3A3847;" d="M416.162,303.945c-2.203,0-4.039-1.788-4.039-3.999c0-2.21,1.75-3.999,3.961-3.999h0.078
		c2.21,0,3.999,1.789,3.999,3.999C420.161,302.157,418.372,303.945,416.162,303.945z"/>
	<path style="fill:#3A3847;" d="M432.159,319.942c-2.203,0-4.038-1.788-4.038-3.999s1.749-3.999,3.96-3.999h0.078
		c2.21,0,3.999,1.788,3.999,3.999S434.369,319.942,432.159,319.942z"/>
	<path style="fill:#3A3847;" d="M288.184,143.975c-2.202,0-4.038-1.789-4.038-4c0-2.21,1.75-3.999,3.96-3.999h0.078
		c2.211,0,3.999,1.789,3.999,3.999C292.183,142.185,290.395,143.975,288.184,143.975z"/>
	<path style="fill:#3A3847;" d="M304.182,159.972c-2.202,0-4.038-1.789-4.038-3.999c0-2.211,1.75-4,3.96-4h0.078
		c2.211,0,4,1.789,4,4C308.182,158.183,306.392,159.972,304.182,159.972z"/>
	<path style="fill:#3A3847;" d="M320.179,175.969c-2.202,0-4.038-1.789-4.038-3.999c0-2.211,1.75-4,3.96-4h0.078
		c2.211,0,3.999,1.789,3.999,4C324.178,174.18,322.39,175.969,320.179,175.969z"/>
	<path style="fill:#3A3847;" d="M336.176,191.966c-2.202,0-4.038-1.789-4.038-3.999c0-2.211,1.75-4,3.96-4h0.078
		c2.211,0,4,1.789,4,4C340.176,190.177,338.387,191.966,336.176,191.966z"/>
	<path style="fill:#3A3847;" d="M352.174,207.963c-2.203,0-4.039-1.789-4.039-3.999c0-2.211,1.75-4,3.961-4h0.078
		c2.21,0,3.999,1.789,3.999,4C356.173,206.174,354.384,207.963,352.174,207.963z"/>
	<path style="fill:#3A3847;" d="M368.17,223.96c-2.202,0-4.038-1.789-4.038-3.999c0-2.211,1.75-4,3.96-4h0.078c2.211,0,4,1.789,4,4
		C372.17,222.171,370.381,223.96,368.17,223.96z"/>
	<path style="fill:#3A3847;" d="M384.168,239.957c-2.203,0-4.039-1.789-4.039-3.999c0-2.211,1.75-4,3.961-4h0.078
		c2.21,0,3.999,1.789,3.999,4C388.167,238.168,386.378,239.957,384.168,239.957z"/>
	<path style="fill:#3A3847;" d="M400.164,255.954c-2.202,0-4.038-1.789-4.038-3.999c0-2.211,1.75-3.999,3.96-3.999h0.078
		c2.211,0,4,1.788,4,3.999C404.164,254.165,402.375,255.954,400.164,255.954z"/>
	<path style="fill:#3A3847;" d="M416.162,271.951c-2.203,0-4.039-1.789-4.039-3.999c0-2.211,1.75-3.999,3.961-3.999h0.078
		c2.21,0,3.999,1.788,3.999,3.999C420.161,270.162,418.372,271.951,416.162,271.951z"/>
	<path style="fill:#3A3847;" d="M432.159,287.948c-2.203,0-4.038-1.788-4.038-3.999s1.749-3.999,3.96-3.999h0.078
		c2.21,0,3.999,1.788,3.999,3.999S434.369,287.948,432.159,287.948z"/>
	<path style="fill:#3A3847;" d="M288.184,111.98c-2.202,0-4.038-1.789-4.038-4c0-2.21,1.75-3.999,3.96-3.999h0.078
		c2.211,0,3.999,1.789,3.999,3.999C292.183,110.191,290.395,111.98,288.184,111.98z"/>
	<path style="fill:#3A3847;" d="M304.182,127.977c-2.202,0-4.038-1.789-4.038-4c0-2.21,1.75-3.999,3.96-3.999h0.078
		c2.211,0,4,1.789,4,3.999C308.182,126.188,306.392,127.977,304.182,127.977z"/>
	<path style="fill:#3A3847;" d="M320.179,143.975c-2.202,0-4.038-1.789-4.038-4c0-2.21,1.75-3.999,3.96-3.999h0.078
		c2.211,0,3.999,1.789,3.999,3.999C324.178,142.185,322.39,143.975,320.179,143.975z"/>
	<path style="fill:#3A3847;" d="M336.176,159.972c-2.202,0-4.038-1.789-4.038-3.999c0-2.211,1.75-4,3.96-4h0.078
		c2.211,0,4,1.789,4,4C340.176,158.183,338.387,159.972,336.176,159.972z"/>
	<path style="fill:#3A3847;" d="M352.174,175.969c-2.203,0-4.039-1.789-4.039-3.999c0-2.211,1.75-4,3.961-4h0.078
		c2.21,0,3.999,1.789,3.999,4C356.173,174.18,354.384,175.969,352.174,175.969z"/>
	<path style="fill:#3A3847;" d="M368.17,191.966c-2.202,0-4.038-1.789-4.038-3.999c0-2.211,1.75-4,3.96-4h0.078c2.211,0,4,1.789,4,4
		C372.17,190.177,370.381,191.966,368.17,191.966z"/>
	<path style="fill:#3A3847;" d="M384.168,207.963c-2.203,0-4.039-1.789-4.039-3.999c0-2.211,1.75-4,3.961-4h0.078
		c2.21,0,3.999,1.789,3.999,4C388.167,206.174,386.378,207.963,384.168,207.963z"/>
	<path style="fill:#3A3847;" d="M400.164,223.96c-2.202,0-4.038-1.789-4.038-3.999c0-2.211,1.75-4,3.96-4h0.078c2.211,0,4,1.789,4,4
		C404.164,222.171,402.375,223.96,400.164,223.96z"/>
	<path style="fill:#3A3847;" d="M416.162,239.957c-2.203,0-4.039-1.789-4.039-3.999c0-2.211,1.75-4,3.961-4h0.078
		c2.21,0,3.999,1.789,3.999,4C420.161,238.168,418.372,239.957,416.162,239.957z"/>
	<path style="fill:#3A3847;" d="M432.159,255.954c-2.203,0-4.038-1.789-4.038-3.999c0-2.211,1.749-3.999,3.96-3.999h0.078
		c2.21,0,3.999,1.788,3.999,3.999C436.158,254.165,434.369,255.954,432.159,255.954z"/>
	<path style="fill:#3A3847;" d="M320.179,111.98c-2.202,0-4.038-1.789-4.038-4c0-2.21,1.75-3.999,3.96-3.999h0.078
		c2.211,0,3.999,1.789,3.999,3.999C324.178,110.191,322.39,111.98,320.179,111.98z"/>
	<path style="fill:#3A3847;" d="M336.176,127.977c-2.202,0-4.038-1.789-4.038-4c0-2.21,1.75-3.999,3.96-3.999h0.078
		c2.211,0,4,1.789,4,3.999C340.176,126.188,338.387,127.977,336.176,127.977z"/>
	<path style="fill:#3A3847;" d="M352.174,143.975c-2.203,0-4.039-1.789-4.039-4c0-2.21,1.75-3.999,3.961-3.999h0.078
		c2.21,0,3.999,1.789,3.999,3.999C356.173,142.185,354.384,143.975,352.174,143.975z"/>
	<path style="fill:#3A3847;" d="M368.17,159.972c-2.202,0-4.038-1.789-4.038-3.999c0-2.211,1.75-4,3.96-4h0.078c2.211,0,4,1.789,4,4
		C372.17,158.183,370.381,159.972,368.17,159.972z"/>
	<path style="fill:#3A3847;" d="M384.168,175.969c-2.203,0-4.039-1.789-4.039-3.999c0-2.211,1.75-4,3.961-4h0.078
		c2.21,0,3.999,1.789,3.999,4C388.167,174.18,386.378,175.969,384.168,175.969z"/>
	<path style="fill:#3A3847;" d="M400.164,191.966c-2.202,0-4.038-1.789-4.038-3.999c0-2.211,1.75-4,3.96-4h0.078
		c2.211,0,4,1.789,4,4C404.164,190.177,402.375,191.966,400.164,191.966z"/>
	<path style="fill:#3A3847;" d="M416.162,207.963c-2.203,0-4.039-1.789-4.039-3.999c0-2.211,1.75-4,3.961-4h0.078
		c2.21,0,3.999,1.789,3.999,4C420.161,206.174,418.372,207.963,416.162,207.963z"/>
	<path style="fill:#3A3847;" d="M432.159,223.96c-2.203,0-4.038-1.789-4.038-3.999c0-2.211,1.749-4,3.96-4h0.078
		c2.21,0,3.999,1.789,3.999,4C436.158,222.171,434.369,223.96,432.159,223.96z"/>
	<path style="fill:#3A3847;" d="M352.174,111.98c-2.203,0-4.039-1.789-4.039-4c0-2.21,1.75-3.999,3.961-3.999h0.078
		c2.21,0,3.999,1.789,3.999,3.999C356.173,110.191,354.384,111.98,352.174,111.98z"/>
	<path style="fill:#3A3847;" d="M368.17,127.977c-2.202,0-4.038-1.789-4.038-4c0-2.21,1.75-3.999,3.96-3.999h0.078
		c2.211,0,4,1.789,4,3.999C372.17,126.188,370.381,127.977,368.17,127.977z"/>
	<path style="fill:#3A3847;" d="M384.168,143.975c-2.203,0-4.039-1.789-4.039-4c0-2.21,1.75-3.999,3.961-3.999h0.078
		c2.21,0,3.999,1.789,3.999,3.999C388.167,142.185,386.378,143.975,384.168,143.975z"/>
	<path style="fill:#3A3847;" d="M400.164,159.972c-2.202,0-4.038-1.789-4.038-3.999c0-2.211,1.75-4,3.96-4h0.078
		c2.211,0,4,1.789,4,4C404.164,158.183,402.375,159.972,400.164,159.972z"/>
	<path style="fill:#3A3847;" d="M416.162,175.969c-2.203,0-4.039-1.789-4.039-3.999c0-2.211,1.75-4,3.961-4h0.078
		c2.21,0,3.999,1.789,3.999,4C420.161,174.18,418.372,175.969,416.162,175.969z"/>
	<path style="fill:#3A3847;" d="M432.159,191.966c-2.203,0-4.038-1.789-4.038-3.999c0-2.211,1.749-4,3.96-4h0.078
		c2.21,0,3.999,1.789,3.999,4C436.158,190.177,434.369,191.966,432.159,191.966z"/>
	<path style="fill:#3A3847;" d="M384.168,111.98c-2.203,0-4.039-1.789-4.039-4c0-2.21,1.75-3.999,3.961-3.999h0.078
		c2.21,0,3.999,1.789,3.999,3.999C388.167,110.191,386.378,111.98,384.168,111.98z"/>
	<path style="fill:#3A3847;" d="M400.164,127.977c-2.202,0-4.038-1.789-4.038-4c0-2.21,1.75-3.999,3.96-3.999h0.078
		c2.211,0,4,1.789,4,3.999C404.164,126.188,402.375,127.977,400.164,127.977z"/>
	<path style="fill:#3A3847;" d="M416.162,143.975c-2.203,0-4.039-1.789-4.039-4c0-2.21,1.75-3.999,3.961-3.999h0.078
		c2.21,0,3.999,1.789,3.999,3.999C420.161,142.185,418.372,143.975,416.162,143.975z"/>
	<path style="fill:#3A3847;" d="M432.159,159.972c-2.203,0-4.038-1.789-4.038-3.999c0-2.211,1.749-4,3.96-4h0.078
		c2.21,0,3.999,1.789,3.999,4C436.158,158.183,434.369,159.972,432.159,159.972z"/>
	<path style="fill:#3A3847;" d="M416.162,111.98c-2.203,0-4.039-1.789-4.039-4c0-2.21,1.75-3.999,3.961-3.999h0.078
		c2.21,0,3.999,1.789,3.999,3.999C420.161,110.191,418.372,111.98,416.162,111.98z"/>
	<path style="fill:#3A3847;" d="M432.159,127.977c-2.203,0-4.038-1.789-4.038-4c0-2.21,1.749-3.999,3.96-3.999h0.078
		c2.21,0,3.999,1.789,3.999,3.999C436.158,126.188,434.369,127.977,432.159,127.977z"/>
	<path style="fill:#3A3847;" d="M267.954,299.962c-2.203,0-3.999-1.788-3.999-3.999c0-4.414-3.586-7.999-7.995-7.999
		c-4.413,0-8.002,3.585-8.002,7.999c0,2.211-1.789,3.999-4,3.999s-4-1.788-4-3.999c0-8.818,7.179-15.997,16.001-15.997
		c8.823,0,15.993,7.179,15.993,15.997C271.953,298.174,270.172,299.962,267.954,299.962z"/>
	<path style="fill:#3A3847;" d="M243.958,487.912c-2.21,0-4-1.788-4-3.999v-187.95c0-2.211,1.789-4,4-4s4,1.789,4,4v187.95
		C247.958,486.124,246.169,487.912,243.958,487.912z"/>
	<path style="fill:#3A3847;" d="M59.987,487.912c-2.21,0-3.999-1.788-3.999-3.999V19.997c0-2.211,1.789-4,3.999-4
		c2.211,0,4,1.789,4,4v463.916C63.987,486.124,62.198,487.912,59.987,487.912z"/>
	<path style="fill:#3A3847;" d="M151.971,511.908c-47.699,0-95.983-9.615-95.983-27.995c0-2.21,1.789-3.999,3.999-3.999
		c2.211,0,4,1.789,4,3.999c0,8.155,34.274,19.997,87.984,19.997c53.713,0,87.988-11.842,87.988-19.997c0-2.21,1.789-3.999,4-3.999
		s4,1.789,4,3.999C247.958,502.293,199.669,511.908,151.971,511.908z"/>
	<path style="fill:#3A3847;" d="M151.971,495.911c-37.427,0-70.374-5.64-85.981-14.731c-1.91-1.109-2.554-3.555-1.445-5.469
		c1.109-1.905,3.562-2.554,5.468-1.444c14.24,8.287,46.41,13.646,81.958,13.646c35.568,0,67.75-5.358,81.989-13.646
		c1.902-1.141,4.351-0.469,5.468,1.437c1.109,1.914,0.465,4.359-1.445,5.469C222.376,490.264,189.417,495.911,151.971,495.911z"/>
	<path style="fill:#3A3847;" d="M359.922,495.911c-37.431,0-70.378-5.64-85.984-14.731c-1.906-1.109-2.555-3.555-1.445-5.469
		c1.109-1.905,3.555-2.554,5.468-1.444c14.239,8.287,46.405,13.646,81.962,13.646c35.564,0,67.746-5.358,81.985-13.646
		c1.905-1.141,4.358-0.469,5.468,1.437c1.109,1.914,0.469,4.359-1.445,5.469C430.323,490.264,397.368,495.911,359.922,495.911z"/>
	<path style="fill:#3A3847;" d="M267.954,487.912c-2.203,0-3.999-1.788-3.999-3.999v-187.95c0-2.211,1.796-4,3.999-4
		c2.218,0,3.999,1.789,3.999,4v187.95C271.953,486.124,270.172,487.912,267.954,487.912z"/>
	<path style="fill:#3A3847;" d="M451.921,487.912c-2.202,0-3.999-1.788-3.999-3.999V19.997c0-2.211,1.797-4,3.999-4
		c2.218,0,3.999,1.789,3.999,4v463.916C455.92,486.124,454.139,487.912,451.921,487.912z"/>
	<path style="fill:#3A3847;" d="M359.937,511.908c-47.694,0-95.982-9.615-95.982-27.995c0-2.21,1.796-3.999,3.999-3.999
		c2.218,0,3.999,1.789,3.999,3.999c0,8.155,34.275,19.997,87.984,19.997s87.984-11.842,87.984-19.997
		c0-2.21,1.797-3.999,3.999-3.999c2.218,0,3.999,1.789,3.999,3.999C455.92,502.293,407.64,511.908,359.937,511.908z"/>
	<path style="fill:#3A3847;" d="M75.985,39.993c-11.025,0-19.997-8.971-19.997-19.996S64.959,0,75.985,0c2.21,0,4,1.789,4,4
		c0,2.21-1.789,3.999-4,3.999c-6.616,0-11.998,5.382-11.998,11.998c0,6.615,5.382,11.997,11.998,11.997c2.21,0,4,1.789,4,4
		C79.984,38.204,78.195,39.993,75.985,39.993z"/>
	<path style="fill:#3A3847;" d="M435.924,39.993c-2.219,0-3.999-1.789-3.999-3.999c0-2.211,1.78-4,3.999-4
		c6.608,0,11.998-5.382,11.998-11.997c0-6.616-5.39-11.998-11.998-11.998c-2.219,0-3.999-1.789-3.999-3.999c0-2.211,1.78-4,3.999-4
		c11.021,0,19.996,8.972,19.996,19.997S446.945,39.993,435.924,39.993z"/>
	<path style="fill:#3A3847;" d="M435.924,39.993H75.985c-2.21,0-4-1.789-4-3.999c0-2.211,1.789-4,4-4h359.939
		c2.203,0,3.999,1.789,3.999,4C439.923,38.204,438.127,39.993,435.924,39.993z"/>
	<path style="fill:#3A3847;" d="M75.985,87.984c-11.025,0-19.997-8.971-19.997-19.996c0-2.211,1.789-3.999,3.999-3.999
		c2.211,0,4,1.788,4,3.999c0,6.616,5.382,11.998,11.998,11.998c2.21,0,4,1.788,4,3.999C79.984,86.195,78.195,87.984,75.985,87.984z"
		/>
	<path style="fill:#3A3847;" d="M435.924,87.984c-2.219,0-3.999-1.789-3.999-3.999c0-2.211,1.78-3.999,3.999-3.999
		c6.608,0,11.998-5.382,11.998-11.998c0-2.211,1.781-3.999,3.999-3.999c2.202,0,3.999,1.788,3.999,3.999
		C455.92,79.014,446.945,87.984,435.924,87.984z"/>
	<path style="fill:#3A3847;" d="M227.957,87.984H75.985c-2.21,0-4-1.789-4-3.999c0-2.211,1.789-3.999,4-3.999h151.972
		c2.211,0,4,1.788,4,3.999C231.956,86.195,230.168,87.984,227.957,87.984z"/>
	<path style="fill:#3A3847;" d="M439.923,87.984H279.952c-2.219,0-3.999-1.789-3.999-3.999c0-2.211,1.78-3.999,3.999-3.999h159.971
		c2.203,0,3.999,1.788,3.999,3.999C443.922,86.195,442.126,87.984,439.923,87.984z"/>
	<path style="fill:#3A3847;" d="M435.924,7.999H75.985c-2.21,0-4-1.789-4-3.999c0-2.211,1.789-4,4-4h359.939
		c2.203,0,3.999,1.789,3.999,4C439.923,6.21,438.127,7.999,435.924,7.999z"/>
	<path style="fill:#3A3847;" d="M91.982,71.987c-2.21,0-4-1.789-4-3.999V51.991c0-2.211,1.789-4,4-4s4,1.789,4,4v15.997
		C95.981,70.198,94.192,71.987,91.982,71.987z"/>
	<path style="fill:#3A3847;" d="M147.972,71.987c-2.21,0-3.999-1.789-3.999-3.999V51.991c0-2.211,1.789-4,3.999-4
		c2.211,0,4,1.789,4,4v15.997C151.971,70.198,150.183,71.987,147.972,71.987z"/>
	<path style="fill:#3A3847;" d="M203.962,71.987c-2.211,0-4-1.789-4-3.999V51.991c0-2.211,1.789-4,4-4c2.21,0,3.999,1.789,3.999,4
		v15.997C207.961,70.198,206.172,71.987,203.962,71.987z"/>
	<path style="fill:#3A3847;" d="M307.947,71.987c-2.219,0-4-1.789-4-3.999V51.991c0-2.211,1.781-4,4-4c2.202,0,3.999,1.789,3.999,4
		v15.997C311.946,70.198,310.149,71.987,307.947,71.987z"/>
	<path style="fill:#3A3847;" d="M363.936,71.987c-2.218,0-3.999-1.789-3.999-3.999V51.991c0-2.211,1.781-4,3.999-4
		c2.203,0,3.999,1.789,3.999,4v15.997C367.935,70.198,366.14,71.987,363.936,71.987z"/>
	<path style="fill:#3A3847;" d="M419.927,71.987c-2.219,0-3.999-1.789-3.999-3.999V51.991c0-2.211,1.78-4,3.999-4
		c2.202,0,3.999,1.789,3.999,4v15.997C423.926,70.198,422.129,71.987,419.927,71.987z"/>
	<path style="fill:#3A3847;" d="M243.954,159.972c-2.21,0-4-1.789-4-3.999V59.989c0-2.21,1.789-3.999,4-3.999s4,1.789,4,3.999
		v95.983C247.954,158.183,246.165,159.972,243.954,159.972z"/>
	<path style="fill:#3A3847;" d="M267.954,159.972c-2.219,0-4.003-1.789-4.003-3.999V59.989c0-2.21,1.784-3.999,4.003-3.999
		c2.202,0,3.999,1.789,3.999,3.999v95.983C271.953,158.183,270.156,159.972,267.954,159.972z"/>
</g>
<g>
</g>
<g>
</g>
<g>
</g>
<g>
</g>
<g>
</g>
<g>
</g>
<g>
</g>
<g>
</g>
<g>
</g>
<g>
</g>
<g>
</g>
<g>
</g>
<g>
</g>
<g>
</g>
<g>
</g>
</svg>
