<?xml version="1.0" encoding="iso-8859-1"?>
<!-- Generator: Adobe Illustrator 19.0.0, SVG Export Plug-In . SVG Version: 6.00 Build 0)  -->
<svg version="1.1" id="Capa_1" xmlns="http://www.w3.org/2000/svg" xmlns:xlink="http://www.w3.org/1999/xlink" x="0px" y="0px"
	 viewBox="0 0 511.91 511.91" style="enable-background:new 0 0 511.91 511.91;" xml:space="preserve">
<g>
	<path style="fill:#E6E9ED;" d="M337.862,487.273c33.189-3.921,60.146-9.756,81.024-15.677
		c21.598-5.999,36.634-12.075,45.031-15.833l5.757-2.96c1.523,9.678,2.241,15.114,2.241,15.114s-71.986,39.994-215.96,39.994
		S39.994,467.918,39.994,467.918s0.719-5.28,2.164-14.794l5.834,2.64c2.164,1.039,4.882,2.156,7.999,3.438
		c20.161,8.154,59.513,21.191,118.057,28.072c23.996,2.797,51.272,4.641,81.751,4.641c0.078,0,0.078,0,0.156,0
		C286.512,491.914,313.788,490.07,337.862,487.273z"/>
	<polygon style="fill:#E6E9ED;" points="347.938,20.003 351.938,36 327.942,36 291.947,36 255.955,36 219.961,36 159.972,36 
		163.971,20.003 167.971,4.006 343.939,4.006 	"/>
</g>
<polygon style="fill:#FFFFFF;" points="167.971,4.006 165.971,12.004 219.961,12.004 255.955,12.004 291.947,12.004 327.942,12.004 
	345.938,12.004 343.939,4.006 "/>
<g style="opacity:0.2;">
	<polygon points="327.942,28.001 291.947,28.001 255.955,28.001 219.961,28.001 161.972,28.001 159.972,36 219.961,36 255.955,36 
		291.947,36 327.942,36 351.938,36 349.938,28.001 	"/>
</g>
<path style="fill:#4FC1E9;" d="M351.938,43.998V36h-23.996h-35.995h-35.992h-35.993h-59.989v7.998
	C90.704,154.858,51.429,391.775,42.158,453.124l5.834,2.64c2.164,1.039,4.882,2.156,7.999,3.438
	c20.161,8.154,59.513,21.191,118.057,28.072c23.996,2.797,51.272,4.641,81.751,4.641c0.078,0,0.078,0,0.156,0
	c30.557,0,57.833-1.844,81.908-4.641c33.189-3.921,60.146-9.756,81.024-15.677c21.598-5.999,36.634-12.075,45.031-15.833l5.757-2.96
	C460.403,390.893,421.129,154.698,351.938,43.998z"/>
<g style="opacity:0.5;">
	<path style="fill:#FFFFFF;" d="M58.155,453.124c9.271-61.349,48.546-298.266,117.814-409.125h-15.997
		C90.704,154.858,51.429,391.775,42.158,453.124l5.834,2.64c2.164,1.039,5.858,2.156,8.975,3.438L58.155,453.124z"/>
</g>
<g style="opacity:0.2;">
	<rect x="159.975" y="36.005" width="191.97" height="7.998"/>
</g>
<path style="fill:#FFFFFF;" d="M57.084,459.623c-0.336-0.133-0.766-0.289-1.094-0.422c-3.116-1.281-5.835-2.398-7.999-3.438
	l-5.834-2.64c-1.445,9.514-2.164,14.794-2.164,14.794s4.976,2.734,14.708,6.733L57.084,459.623z"/>
<g style="opacity:0.2;">
	<path d="M453.756,452.944c-9.272-61.349-48.546-298.266-117.815-409.125h15.998c69.269,110.859,108.543,347.777,117.814,409.125
		l-5.835,2.64c-2.164,1.039-5.858,2.156-8.976,3.438L453.756,452.944z"/>
</g>
<g style="opacity:0.2;">
	<path d="M454.825,459.443c0.336-0.133,0.766-0.289,1.094-0.422c3.117-1.281,5.835-2.398,7.999-3.438l5.835-2.64
		c1.445,9.514,2.163,14.794,2.163,14.794s-4.976,2.734-14.708,6.733L454.825,459.443z"/>
</g>
<g>
	<path style="fill:#3A3847;" d="M343.939,8.001H167.971c-2.21,0-4-1.789-4-3.999c0-2.211,1.789-4,4-4H343.94
		c2.21,0,3.999,1.789,3.999,4C347.938,6.212,346.149,8.001,343.939,8.001z"/>
	<path style="fill:#3A3847;" d="M351.938,39.996c-1.797,0-3.43-1.211-3.883-3.031l-7.998-31.994
		c-0.531-2.14,0.766-4.312,2.913-4.847c2.102-0.547,4.319,0.761,4.851,2.91l7.999,31.994c0.531,2.14-0.766,4.312-2.914,4.847
		C352.586,39.956,352.259,39.996,351.938,39.996z"/>
	<path style="fill:#3A3847;" d="M159.972,39.996c-0.32,0-0.641-0.039-0.969-0.121c-2.148-0.535-3.444-2.707-2.914-4.847
		l7.999-31.994c0.531-2.148,2.664-3.449,4.851-2.91c2.148,0.535,3.445,2.707,2.914,4.847l-7.999,31.994
		C163.401,38.785,161.768,39.996,159.972,39.996z"/>
	<path style="fill:#3A3847;" d="M351.938,39.996H159.972c-2.211,0-3.999-1.789-3.999-3.999c0-2.211,1.788-4,3.999-4h191.966
		c2.21,0,3.999,1.789,3.999,4C355.937,38.207,354.148,39.996,351.938,39.996z"/>
	<path style="fill:#3A3847;" d="M40.001,471.917c-0.18,0-0.359-0.008-0.547-0.039c-2.187-0.289-3.718-2.304-3.421-4.499
		c0.398-2.968,41.023-298.27,120.548-425.504c1.171-1.871,3.648-2.438,5.507-1.27c1.875,1.168,2.445,3.636,1.273,5.511
		C84.751,171.89,44.352,465.504,43.954,468.457C43.688,470.465,41.97,471.917,40.001,471.917z"/>
	<path style="fill:#3A3847;" d="M471.908,471.917c-1.968,0-3.687-1.452-3.952-3.46c-0.398-2.953-40.797-296.567-119.408-422.341
		c-1.172-1.875-0.602-4.343,1.273-5.511c1.859-1.168,4.335-0.602,5.507,1.27c79.524,127.234,120.15,422.537,120.548,425.504
		c0.297,2.195-1.233,4.21-3.421,4.499C472.267,471.909,472.088,471.917,471.908,471.917z"/>
	<path style="fill:#3A3847;" d="M255.955,511.91c-143.364,0-214.93-38.845-217.906-40.492c-1.929-1.078-2.625-3.508-1.554-5.438
		c1.07-1.937,3.515-2.616,5.437-1.562c0.718,0.397,72.963,39.493,214.023,39.493c141.061,0,213.306-39.096,214.025-39.493
		c1.913-1.055,4.358-0.375,5.437,1.562c1.069,1.93,0.374,4.359-1.555,5.438C470.886,473.065,399.32,511.91,255.955,511.91z"/>
	<path style="fill:#3A3847;" d="M255.955,495.913c-104.2,0-170.945-20.676-201.463-33.002c-3.171-1.289-5.89-2.46-8.131-3.46
		c-2.023-0.898-2.929-3.266-2.031-5.281c0.898-2.022,3.289-2.921,5.28-2.03c2.18,0.969,4.804,2.108,7.882,3.351
		c29.971,12.107,95.615,32.424,198.464,32.424c114.191,0,182.328-25.011,206.331-35.767c2-0.93,4.374,0,5.28,2.015
		c0.906,2.016,0,4.383-2.016,5.281C441.086,470.41,371.684,495.913,255.955,495.913z"/>
	<path style="fill:#3A3847;" d="M95.984,461.45c-0.078,0-0.164,0-0.242-0.008c-2.211-0.133-3.882-2.03-3.75-4.233
		c0.164-2.625,16.872-263.956,88.398-407.004c0.992-1.98,3.398-2.761,5.366-1.789c1.977,0.988,2.773,3.39,1.789,5.366
		c-70.8,141.607-87.414,401.31-87.57,403.911C99.842,459.818,98.084,461.45,95.984,461.45z"/>
	<path style="fill:#3A3847;" d="M255.955,479.916c-2.21,0-3.999-1.789-3.999-4V51.994c0-2.211,1.789-4,3.999-4
		c2.21,0,3.999,1.789,3.999,4v423.922C259.953,478.127,258.165,479.916,255.955,479.916z"/>
	<path style="fill:#3A3847;" d="M175.969,475.603c-2.18,0-3.96-1.749-3.999-3.937c-0.039-2.522-3.461-254.161,44.148-420.771
		c0.602-2.125,2.789-3.347,4.944-2.75c2.125,0.609,3.351,2.824,2.742,4.945c-47.272,165.466-43.875,415.936-43.836,418.451
		c0.031,2.211-1.726,4.023-3.937,4.062C176.008,475.603,175.993,475.603,175.969,475.603z"/>
	<path style="fill:#3A3847;" d="M415.927,461.45c-2.102,0-3.859-1.632-3.992-3.757c-0.156-2.602-16.777-262.328-87.57-403.911
		c-0.983-1.976-0.188-4.378,1.789-5.366c1.977-0.98,4.375-0.191,5.366,1.789c71.526,143.049,88.234,404.379,88.398,407.004
		c0.133,2.203-1.539,4.101-3.749,4.233C416.091,461.45,416.005,461.45,415.927,461.45z"/>
	<path style="fill:#3A3847;" d="M335.94,475.603c-0.023,0-0.039,0-0.062,0c-2.21-0.038-3.968-1.851-3.937-4.062
		c0.039-2.515,3.437-252.985-43.837-418.451c-0.609-2.121,0.617-4.335,2.742-4.945c2.132-0.593,4.344,0.629,4.945,2.75
		c47.608,166.61,44.188,418.249,44.148,420.771C339.901,473.854,338.12,475.603,335.94,475.603z"/>
	<path style="fill:#3A3847;" d="M207.963,23.998h-43.992c-2.21,0-3.999-1.789-3.999-3.999c0-2.211,1.789-4,3.999-4h43.992
		c2.211,0,3.999,1.789,3.999,4C211.962,22.209,210.174,23.998,207.963,23.998z"/>
	<path style="fill:#3A3847;" d="M347.938,23.998h-43.992c-2.21,0-3.999-1.789-3.999-3.999c0-2.211,1.789-4,3.999-4h43.992
		c2.211,0,4,1.789,4,4C351.938,22.209,350.149,23.998,347.938,23.998z"/>
</g>
<g>
</g>
<g>
</g>
<g>
</g>
<g>
</g>
<g>
</g>
<g>
</g>
<g>
</g>
<g>
</g>
<g>
</g>
<g>
</g>
<g>
</g>
<g>
</g>
<g>
</g>
<g>
</g>
<g>
</g>
</svg>
