<?xml version="1.0" encoding="iso-8859-1"?>
<!-- Generator: Adobe Illustrator 19.0.0, SVG Export Plug-In . SVG Version: 6.00 Build 0)  -->
<svg version="1.1" id="Capa_1" xmlns="http://www.w3.org/2000/svg" xmlns:xlink="http://www.w3.org/1999/xlink" x="0px" y="0px"
	 viewBox="0 0 511.908 511.908" style="enable-background:new 0 0 511.908 511.908;" xml:space="preserve">
<path style="fill:#E6E9ED;" d="M331.762,493.833l-121.26-113.261c-1.125-1.039-2.164-2.078-3.203-3.116l4.96-13.521
	c0,0,23.996-63.988-31.994-95.982l-7.998-3.679V67.988h127.977v191.965c0,15.998,9.842,31.198,23.995,45.352l95.663,95.74
	l-5.835,5.843c-6.241-4.077-14.638-3.358-20.082,2.078l-5.679,5.679l-11.279,11.357l-11.271,11.279l-11.357,11.357l-11.279,11.279
	l-5.679,5.678c-6.241,6.241-6.241,16.318,0,22.559L331.762,493.833z"/>
<polygon style="fill:#AAB2BD;" points="300.243,67.988 172.266,67.988 172.266,4 300.243,4 300.243,11.998 300.243,51.991 "/>
<g style="opacity:0.1;">
	<polygon points="300.243,67.988 172.266,67.988 172.266,4 300.243,4 300.243,11.998 300.243,51.991 	"/>
</g>
<g>
	<path style="fill:#ED5565;" d="M388.306,414.644l5.679-5.679c5.444-5.437,13.841-6.155,20.082-2.078l5.835-5.843l2.319,2.32
		c11.756,11.678,16.162,27.995,13.201,43.031c-1.766,9.123-6.163,17.763-13.201,24.801l-8.639,8.639l-13.997,13.997
		c-18.716,18.794-49.108,18.794-67.824,0l5.679-5.679c-6.241-6.24-6.241-16.317,0-22.559l5.679-5.678l11.279-11.279l11.357-11.357
		l11.271-11.279L388.306,414.644z"/>
	<path style="fill:#ED5565;" d="M212.259,363.934l-4.96,13.521c-21.355-21.363-35.032-46.633-35.032-69.511v-43.672l7.998,3.679
		C236.255,299.946,212.259,363.934,212.259,363.934z"/>
</g>
<g style="opacity:0.1;">
	<path d="M422.221,403.365l-2.319-2.32l-95.663-95.74c-14.153-14.153-23.995-29.354-23.995-45.352V67.988H172.266v196.285v43.672
		c0,22.878,13.677,48.147,35.032,69.511c1.039,1.038,2.078,2.077,3.203,3.116L331.76,493.833c18.716,18.794,49.108,18.794,67.824,0
		l13.997-13.997l8.639-8.639c7.038-7.038,11.436-15.678,13.201-24.801C438.383,431.36,433.977,415.043,422.221,403.365z"/>
</g>
<g style="opacity:0.3;">
	<path style="fill:#FFFFFF;" d="M213.798,358.967c-15.778-18.879-25.534-39.781-25.534-59.021V273.17
		c-2.477-1.812-5.109-3.562-7.999-5.218l-7.998-3.679v43.672c0,22.878,13.677,48.147,35.032,69.511l4.96-13.521
		C212.259,363.934,212.938,362.107,213.798,358.967z"/>
</g>
<g style="opacity:0.2;">
	<rect x="172.264" y="4" style="fill:#FFFFFF;" width="15.997" height="63.988"/>
</g>
<g style="opacity:0.2;">
	<rect x="284.245" y="4" width="15.997" height="63.988"/>
</g>
<g style="opacity:0.2;">
	<path d="M422.221,403.365l-2.319-2.32l-95.663-95.74c-14.153-14.153-23.995-29.354-23.995-45.352V67.988h-15.997v199.964
		c0,15.997,9.842,31.197,23.996,45.351l95.662,95.741l2.32,2.319c11.755,11.678,16.16,27.995,13.2,43.031
		c-1.766,9.124-6.163,17.763-13.2,24.801l-8.64,8.639l-13.997,13.998c-1.555,1.562-3.297,2.796-5,4.101
		c7.671-2.155,14.967-6.046,20.997-12.1l13.997-13.997l8.639-8.639c7.038-7.038,11.436-15.678,13.201-24.801
		C438.383,431.36,433.977,415.043,422.221,403.365z"/>
</g>
<path style="fill:#E6E9ED;" d="M235.419,493.833l-121.26-113.261c-1.125-1.039-2.163-2.078-3.202-3.116l4.96-13.521
	c0,0,23.996-63.988-31.994-95.982l-7.999-3.679V67.988h127.977v191.965c0,15.998,9.842,31.198,23.995,45.352l95.663,95.74
	l-5.835,5.843c-6.241-4.077-14.639-3.358-20.082,2.078l-5.68,5.679l-11.279,11.357l-11.271,11.279l-11.357,11.357l-11.279,11.279
	l-5.679,5.678c-6.241,6.241-6.241,16.318,0,22.559L235.419,493.833z"/>
<path style="fill:#FFFFFF;" d="M251.417,485.835L130.158,372.574c-1.125-1.039-2.164-2.078-3.203-3.117
	c-21.355-21.363-35.033-46.632-35.033-69.511v-43.672V67.988H75.924v196.285v43.672c0,22.878,13.677,48.147,35.033,69.511
	c1.039,1.038,2.078,2.077,3.202,3.116l121.26,113.261c17.161,17.231,44.031,18.466,62.824,4.101
	C282.099,502.465,264.102,498.574,251.417,485.835z"/>
<polygon style="fill:#AAB2BD;" points="203.902,67.988 75.924,67.988 75.924,4 203.902,4 203.902,11.998 203.902,51.991 "/>
<path style="fill:#ED5565;" d="M291.964,414.644l5.68-5.679c5.443-5.437,13.841-6.155,20.082-2.078l5.835-5.843l2.319,2.32
	c11.756,11.678,16.161,27.995,13.201,43.031c-1.766,9.123-6.163,17.763-13.201,24.801l-8.639,8.639l-13.998,13.997
	c-18.715,18.794-49.108,18.794-67.823,0l5.679-5.679c-6.241-6.24-6.241-16.317,0-22.559l5.679-5.678l11.279-11.279l11.357-11.357
	l11.271-11.279L291.964,414.644z"/>
<g style="opacity:0.2;">
	<path d="M325.879,403.365l-2.319-2.32l-95.663-95.74c-14.153-14.153-23.995-29.354-23.995-45.352V67.988h-15.998v199.964
		c0,15.997,9.842,31.197,23.995,45.351l95.663,95.741l2.319,2.319c11.756,11.678,16.161,27.995,13.201,43.031
		c-1.766,9.124-6.163,17.763-13.201,24.801l-8.639,8.639l-13.997,13.998c-1.555,1.562-3.297,2.796-5,4.101
		c7.671-2.155,14.967-6.046,20.996-12.1l13.998-13.997l8.639-8.639c7.038-7.038,11.436-15.678,13.201-24.801
		C342.04,431.36,337.635,415.043,325.879,403.365z"/>
</g>
<path style="fill:#ED5565;" d="M115.917,363.934l-4.96,13.521c-21.355-21.363-35.033-46.633-35.033-69.511v-43.672l7.999,3.679
	C139.912,299.946,115.917,363.934,115.917,363.934z"/>
<g style="opacity:0.3;">
	<path style="fill:#FFFFFF;" d="M117.456,358.967c-15.778-18.879-25.535-39.781-25.535-59.021V273.17
		c-2.476-1.812-5.108-3.562-7.999-5.218l-7.999-3.679v43.672c0,22.878,13.677,48.147,35.033,69.511l4.96-13.521
		C115.917,363.934,116.597,362.107,117.456,358.967z"/>
</g>
<g style="opacity:0.3;">
	<path style="fill:#FFFFFF;" d="M242.622,499.738c0.992,0.664,2.054,1.141,3.085,1.719c1.57,0.898,3.132,1.82,4.78,2.531
		c1.445,0.608,2.945,1.03,4.429,1.499c1.266,0.398,2.516,0.836,3.797,1.125c1.835,0.406,3.694,0.641,5.554,0.828
		c0.93,0.102,1.851,0.227,2.78,0.266c2.164,0.094,4.335,0.023,6.491-0.18c0.586-0.055,1.172-0.102,1.758-0.172
		c2.405-0.312,4.796-0.797,7.139-1.477c0.297-0.086,0.594-0.18,0.891-0.266c2.523-0.789,4.999-1.757,7.39-2.968
		c0.109-0.055,0.203-0.109,0.312-0.164c2.499-1.289,4.913-2.789,7.209-4.539c0,0,0-0.008,0.008-0.008
		c-16.146,4.531-34.142,0.641-46.827-12.099l-14.302-13.357c-1.555,5.39-0.273,11.42,3.983,15.677l-5.679,5.679
		C237.661,496.083,240.09,498.027,242.622,499.738z"/>
</g>
<g style="opacity:0.2;">
	<rect x="75.924" y="4" style="fill:#FFFFFF;" width="15.997" height="63.988"/>
</g>
<g style="opacity:0.2;">
	<rect x="187.904" y="4" width="15.997" height="63.988"/>
</g>
<g>
	<path style="fill:#3A3847;" d="M75.924,311.944c-2.21,0-4-1.789-4-3.999V67.988c0-2.211,1.789-3.999,4-3.999s4,1.788,4,3.999
		v239.957C79.924,310.155,78.135,311.944,75.924,311.944z"/>
	<path style="fill:#3A3847;" d="M203.902,263.953c-2.211,0-4-1.789-4-4V67.996c0-2.211,1.789-3.999,4-3.999
		c2.21,0,3.999,1.788,3.999,3.999v191.957C207.9,262.164,206.113,263.953,203.902,263.953z"/>
	<path style="fill:#3A3847;" d="M203.902,71.995L203.902,71.995L75.924,71.987c-2.21,0-4-1.789-4-3.999c0-2.211,1.789-3.999,4-3.999
		l0,0l127.977,0.008c2.21,0,3.999,1.788,3.999,3.999C207.9,70.206,206.113,71.995,203.902,71.995z"/>
	<path style="fill:#3A3847;" d="M235.443,497.832c-0.977,0-1.961-0.359-2.726-1.077l-121.29-113.284
		c-1.617-1.508-1.703-4.039-0.195-5.647c1.508-1.617,4.046-1.695,5.647-0.195l121.291,113.284c1.617,1.508,1.703,4.038,0.195,5.647
		C237.576,497.402,236.514,497.832,235.443,497.832z"/>
	<path style="fill:#3A3847;" d="M325.926,407.341c-1.023,0-2.046-0.391-2.827-1.171l-98.029-98.029
		c-1.562-1.562-1.562-4.094,0-5.656s4.093-1.562,5.655,0l98.029,98.029c1.562,1.562,1.562,4.094,0,5.656
		C327.974,406.95,326.949,407.341,325.926,407.341z"/>
	<path style="fill:#3A3847;" d="M269.366,511.908c-13.881,0-26.933-5.421-36.751-15.247c-1.562-1.562-1.562-4.093,0-5.655
		s4.093-1.562,5.655,0c8.311,8.318,19.356,12.904,31.096,12.904c11.747,0,22.792-4.586,31.111-12.904
		c1.562-1.562,4.093-1.562,5.655,0s1.562,4.093,0,5.655C296.307,506.487,283.246,511.908,269.366,511.908z"/>
	<path style="fill:#3A3847;" d="M325.926,475.212c-1.023,0-2.046-0.391-2.827-1.172c-1.562-1.562-1.562-4.093,0-5.655
		c8.318-8.318,12.903-19.363,12.903-31.111c0-11.74-4.585-22.785-12.903-31.104c-1.562-1.562-1.562-4.094,0-5.656
		s4.093-1.562,5.655,0c9.826,9.827,15.247,22.879,15.247,36.76c0,13.888-5.421,26.94-15.247,36.767
		C327.974,474.821,326.949,475.212,325.926,475.212z"/>
	<path style="fill:#3A3847;" d="M303.306,497.832c-1.023,0-2.046-0.391-2.827-1.171c-1.562-1.562-1.562-4.093,0-5.655l22.621-22.621
		c1.562-1.562,4.093-1.562,5.655,0s1.562,4.093,0,5.655l-22.621,22.621C305.352,497.441,304.328,497.832,303.306,497.832z"/>
	<path style="fill:#3A3847;" d="M241.098,492.178c-1.023,0-2.047-0.391-2.828-1.172c-3.781-3.781-5.858-8.795-5.858-14.139
		c-0.008-5.343,2.078-10.365,5.858-14.138c1.562-1.562,4.093-1.562,5.655,0s1.562,4.093,0,5.655
		c-2.273,2.266-3.515,5.28-3.515,8.482c0,3.203,1.25,6.218,3.515,8.483c1.562,1.562,1.562,4.093,0,5.655
		C243.145,491.787,242.122,492.178,241.098,492.178z"/>
	<path style="fill:#3A3847;" d="M320.271,412.996c-1.022,0-2.046-0.391-2.827-1.172c-4.671-4.671-12.295-4.671-16.966,0
		c-1.562,1.562-4.093,1.562-5.655,0s-1.562-4.093,0-5.654c7.795-7.796,20.48-7.796,28.276,0c1.562,1.562,1.562,4.093,0,5.654
		C322.318,412.605,321.294,412.996,320.271,412.996z"/>
	<path style="fill:#3A3847;" d="M241.098,469.557c-1.023,0-2.047-0.391-2.828-1.172c-1.562-1.562-1.562-4.093,0-5.655l56.552-56.56
		c1.562-1.562,4.093-1.562,5.655,0s1.562,4.093,0,5.654l-56.552,56.561C243.145,469.166,242.122,469.557,241.098,469.557z"/>
	<path style="fill:#3A3847;" d="M249.581,466.728c-1.023,0-2.046-0.391-2.827-1.172l-5.655-5.654c-1.562-1.562-1.562-4.094,0-5.656
		s4.093-1.562,5.655,0l5.655,5.656c1.562,1.562,1.562,4.093,0,5.654C251.628,466.338,250.604,466.728,249.581,466.728z"/>
	<path style="fill:#3A3847;" d="M260.892,455.418c-1.023,0-2.046-0.391-2.827-1.172l-5.655-5.654c-1.562-1.562-1.562-4.094,0-5.655
		c1.562-1.562,4.093-1.562,5.655,0l5.655,5.655c1.562,1.562,1.562,4.093,0,5.654C262.938,455.027,261.914,455.418,260.892,455.418z"
		/>
	<path style="fill:#3A3847;" d="M272.21,444.1c-1.023,0-2.047-0.391-2.827-1.171l-5.663-5.655c-1.562-1.562-1.562-4.094,0-5.655
		c1.562-1.562,4.093-1.562,5.655,0l5.663,5.655c1.562,1.562,1.562,4.093,0,5.655C274.257,443.709,273.233,444.1,272.21,444.1z"/>
	<path style="fill:#3A3847;" d="M283.513,432.789c-1.023,0-2.047-0.391-2.828-1.171l-5.646-5.655c-1.562-1.562-1.562-4.094,0-5.655
		c1.562-1.562,4.093-1.562,5.654,0l5.648,5.655c1.562,1.562,1.562,4.093,0,5.655C285.559,432.398,284.535,432.789,283.513,432.789z"
		/>
	<path style="fill:#3A3847;" d="M294.823,421.478c-1.023,0-2.047-0.39-2.828-1.171l-5.654-5.655c-1.562-1.562-1.562-4.093,0-5.655
		s4.093-1.562,5.654,0l5.656,5.655c1.562,1.562,1.562,4.093,0,5.655C296.87,421.089,295.846,421.478,294.823,421.478z"/>
	<path style="fill:#3A3847;" d="M114.151,384.549c-0.992,0-1.976-0.367-2.749-1.094c-25.089-23.785-39.478-51.312-39.478-75.51
		c0-2.211,1.789-4,4-4s4,1.789,4,4c0,22.02,13.481,47.421,36.978,69.698c1.601,1.522,1.671,4.054,0.156,5.655
		C116.268,384.127,115.214,384.549,114.151,384.549z"/>
	<path style="fill:#3A3847;" d="M227.896,309.311c-1.023,0-2.046-0.39-2.827-1.171c-16.935-16.942-25.167-32.705-25.167-48.188
		c0-2.21,1.789-3.999,4-3.999c2.21,0,3.999,1.789,3.999,3.999c0,13.256,7.468,27.168,22.824,42.531c1.562,1.562,1.562,4.094,0,5.656
		C229.943,308.922,228.921,309.311,227.896,309.311z"/>
	<path style="fill:#3A3847;" d="M75.924,63.989c-2.21,0-4-1.789-4-4V4c0-2.211,1.789-4,4-4s4,1.789,4,4v55.989
		C79.924,62.2,78.135,63.989,75.924,63.989z"/>
	<path style="fill:#3A3847;" d="M203.902,7.999H75.924c-2.21,0-4-1.789-4-3.999c0-2.211,1.789-4,4-4h127.977
		c2.21,0,3.999,1.789,3.999,4C207.9,6.21,206.113,7.999,203.902,7.999z"/>
	<path style="fill:#3A3847;" d="M203.902,63.989c-2.211,0-4-1.789-4-4V4c0-2.211,1.789-4,4-4c2.21,0,3.999,1.789,3.999,4v55.989
		C207.9,62.2,206.113,63.989,203.902,63.989z"/>
</g>
<path id="SVGCleanerId_0" style="fill:#3A3847;" d="M187.904,55.99c-2.211,0-4-1.789-4-3.999V11.998c0-2.21,1.789-3.999,4-3.999
	c2.21,0,3.999,1.789,3.999,3.999v39.993C191.904,54.201,190.115,55.99,187.904,55.99z"/>
<g>
	<path style="fill:#3A3847;" d="M171.908,55.99c-2.211,0-4-1.789-4-3.999V11.998c0-2.21,1.789-3.999,4-3.999
		c2.21,0,3.999,1.789,3.999,3.999v39.993C175.906,54.201,174.117,55.99,171.908,55.99z"/>
	<path style="fill:#3A3847;" d="M155.91,55.99c-2.211,0-4-1.789-4-3.999V11.998c0-2.21,1.789-3.999,4-3.999
		c2.21,0,3.999,1.789,3.999,3.999v39.993C159.91,54.201,158.12,55.99,155.91,55.99z"/>
	<path style="fill:#3A3847;" d="M139.912,55.99c-2.21,0-4-1.789-4-3.999V11.998c0-2.21,1.789-3.999,4-3.999s4,1.789,4,3.999v39.993
		C143.912,54.201,142.124,55.99,139.912,55.99z"/>
	<path style="fill:#3A3847;" d="M123.915,55.99c-2.21,0-4-1.789-4-3.999V11.998c0-2.21,1.789-3.999,4-3.999s4,1.789,4,3.999v39.993
		C127.915,54.201,126.126,55.99,123.915,55.99z"/>
	<path style="fill:#3A3847;" d="M107.918,55.99c-2.21,0-4-1.789-4-3.999V11.998c0-2.21,1.789-3.999,4-3.999s4,1.789,4,3.999v39.993
		C111.918,54.201,110.129,55.99,107.918,55.99z"/>
	<path style="fill:#3A3847;" d="M91.921,55.99c-2.21,0-4-1.789-4-3.999V11.998c0-2.21,1.789-3.999,4-3.999s4,1.789,4,3.999v39.993
		C95.921,54.201,94.132,55.99,91.921,55.99z"/>
	<path style="fill:#3A3847;" d="M299.884,263.953c-2.21,0-3.999-1.789-3.999-4V67.996c0-2.211,1.789-3.999,3.999-3.999
		c2.211,0,3.999,1.788,3.999,3.999v191.957C303.883,262.164,302.095,263.953,299.884,263.953z"/>
	<path style="fill:#3A3847;" d="M299.884,71.995L299.884,71.995l-79.985-0.008c-2.211,0-4-1.789-4-3.999
		c0-2.211,1.789-3.999,4-3.999l0,0l79.985,0.008c2.211,0,3.999,1.788,3.999,3.999C303.883,70.206,302.095,71.995,299.884,71.995z"/>
	<path style="fill:#3A3847;" d="M331.426,497.832c-0.976,0-1.96-0.359-2.726-1.077l-2.828-2.641
		c-1.617-1.507-1.703-4.038-0.195-5.647c1.516-1.609,4.047-1.703,5.647-0.195l2.828,2.641c1.616,1.508,1.702,4.038,0.195,5.647
		C333.559,497.402,332.495,497.832,331.426,497.832z"/>
	<path style="fill:#3A3847;" d="M421.909,407.341c-1.022,0-2.046-0.391-2.827-1.171l-98.029-98.029
		c-1.562-1.562-1.562-4.094,0-5.656s4.093-1.562,5.655,0l98.029,98.029c1.562,1.562,1.562,4.094,0,5.656
		C423.956,406.95,422.932,407.341,421.909,407.341z"/>
	<path style="fill:#3A3847;" d="M365.349,511.908c-13.88,0-26.933-5.421-36.751-15.247c-1.562-1.562-1.562-4.093,0-5.655
		s4.093-1.562,5.655,0c8.311,8.318,19.355,12.904,31.096,12.904c11.748,0,22.793-4.586,31.111-12.904
		c1.562-1.562,4.093-1.562,5.655,0s1.562,4.093,0,5.655C392.289,506.487,379.228,511.908,365.349,511.908z"/>
	<path style="fill:#3A3847;" d="M421.909,475.212c-1.022,0-2.046-0.391-2.827-1.172c-1.562-1.562-1.562-4.093,0-5.655
		c8.319-8.318,12.904-19.363,12.904-31.111c0-11.74-4.585-22.785-12.904-31.104c-1.562-1.562-1.562-4.094,0-5.656
		s4.093-1.562,5.655,0c9.826,9.827,15.247,22.879,15.247,36.76c0,13.888-5.421,26.94-15.247,36.767
		C423.956,474.821,422.932,475.212,421.909,475.212z"/>
	<path style="fill:#3A3847;" d="M399.289,497.832c-1.023,0-2.047-0.391-2.828-1.171c-1.562-1.562-1.562-4.093,0-5.655l22.621-22.621
		c1.562-1.562,4.093-1.562,5.655,0s1.562,4.093,0,5.655l-22.621,22.621C401.335,497.441,400.31,497.832,399.289,497.832z"/>
	<path style="fill:#3A3847;" d="M416.254,412.996c-1.023,0-2.047-0.391-2.828-1.172c-4.671-4.671-12.295-4.671-16.966,0
		c-1.562,1.562-4.093,1.562-5.655,0s-1.562-4.093,0-5.654c7.796-7.796,20.48-7.796,28.276,0c1.562,1.562,1.562,4.093,0,5.654
		C418.301,412.605,417.277,412.996,416.254,412.996z"/>
	<path style="fill:#3A3847;" d="M355.202,451.434c-1.023,0-2.047-0.391-2.828-1.172c-1.562-1.562-1.562-4.093,0-5.655l38.431-38.438
		c1.562-1.562,4.094-1.562,5.655,0c1.562,1.562,1.562,4.093,0,5.654l-38.431,38.438
		C357.249,451.044,356.225,451.434,355.202,451.434z"/>
	<path style="fill:#3A3847;" d="M368.184,444.1c-1.022,0-2.046-0.391-2.827-1.171l-5.655-5.655c-1.562-1.562-1.562-4.094,0-5.655
		c1.562-1.562,4.093-1.562,5.655,0l5.655,5.655c1.562,1.562,1.562,4.093,0,5.655C370.23,443.709,369.207,444.1,368.184,444.1z"/>
	<path style="fill:#3A3847;" d="M379.495,432.789c-1.023,0-2.046-0.391-2.827-1.171l-5.655-5.655c-1.562-1.562-1.562-4.094,0-5.655
		c1.562-1.562,4.093-1.562,5.655,0l5.655,5.655c1.562,1.562,1.562,4.093,0,5.655C381.542,432.398,380.517,432.789,379.495,432.789z"
		/>
	<path style="fill:#3A3847;" d="M390.806,421.478c-1.023,0-2.046-0.39-2.827-1.171l-5.655-5.655c-1.562-1.562-1.562-4.093,0-5.655
		s4.093-1.562,5.655,0l5.655,5.655c1.562,1.562,1.562,4.093,0,5.655C392.852,421.089,391.828,421.478,390.806,421.478z"/>
	<path style="fill:#3A3847;" d="M323.88,309.311c-1.023,0-2.047-0.39-2.828-1.171c-16.935-16.935-25.167-32.697-25.167-48.188
		c0-2.21,1.789-3.999,3.999-3.999c2.211,0,3.999,1.789,3.999,3.999c0,13.264,7.468,27.176,22.824,42.531
		c1.562,1.562,1.562,4.094,0,5.656C325.926,308.922,324.902,309.311,323.88,309.311z"/>
	<path style="fill:#3A3847;" d="M299.884,7.999h-79.985c-2.211,0-4-1.789-4-3.999c0-2.211,1.789-4,4-4h79.985
		c2.211,0,3.999,1.789,3.999,4C303.883,6.21,302.095,7.999,299.884,7.999z"/>
	<path style="fill:#3A3847;" d="M299.884,63.989c-2.21,0-3.999-1.789-3.999-4V4c0-2.211,1.789-4,3.999-4
		c2.211,0,3.999,1.789,3.999,4v55.989C303.883,62.2,302.095,63.989,299.884,63.989z"/>
	<path style="fill:#3A3847;" d="M283.888,55.99c-2.211,0-3.999-1.789-3.999-3.999V11.998c0-2.21,1.788-3.999,3.999-3.999
		s3.999,1.789,3.999,3.999v39.993C287.887,54.201,286.099,55.99,283.888,55.99z"/>
	<path style="fill:#3A3847;" d="M267.891,55.99c-2.21,0-3.999-1.789-3.999-3.999V11.998c0-2.21,1.789-3.999,3.999-3.999
		s3.999,1.789,3.999,3.999v39.993C271.889,54.201,270.1,55.99,267.891,55.99z"/>
	<path style="fill:#3A3847;" d="M251.893,55.99c-2.211,0-3.999-1.789-3.999-3.999V11.998c0-2.21,1.788-3.999,3.999-3.999
		c2.21,0,3.999,1.789,3.999,3.999v39.993C255.893,54.201,254.104,55.99,251.893,55.99z"/>
	<path style="fill:#3A3847;" d="M235.895,55.99c-2.211,0-4-1.789-4-3.999V11.998c0-2.21,1.789-3.999,4-3.999
		c2.21,0,3.999,1.789,3.999,3.999v39.993C239.895,54.201,238.106,55.99,235.895,55.99z"/>
	<path style="fill:#3A3847;" d="M219.898,55.99c-2.211,0-4-1.789-4-3.999V11.998c0-2.21,1.789-3.999,4-3.999
		c2.21,0,3.999,1.789,3.999,3.999v39.993C223.897,54.201,222.109,55.99,219.898,55.99z"/>
	<path style="fill:#3A3847;" d="M203.902,55.99c-2.211,0-4-1.789-4-3.999V11.998c0-2.21,1.789-3.999,4-3.999
		c2.21,0,3.999,1.789,3.999,3.999v39.993C207.9,54.201,206.113,55.99,203.902,55.99z"/>
</g>
<g>
	<path id="SVGCleanerId_0_1_" style="fill:#3A3847;" d="M187.904,55.99c-2.211,0-4-1.789-4-3.999V11.998c0-2.21,1.789-3.999,4-3.999
		c2.21,0,3.999,1.789,3.999,3.999v39.993C191.904,54.201,190.115,55.99,187.904,55.99z"/>
</g>
<path style="fill:#3A3847;" d="M115.917,367.933c-0.461,0-0.938-0.086-1.398-0.258c-2.069-0.772-3.116-3.069-2.351-5.139
	c0.929-2.484,22.082-61.224-30.229-91.109c-1.921-1.102-2.585-3.546-1.492-5.46c1.102-1.929,3.554-2.562,5.46-1.491
	c58.271,33.299,34.009,100.192,33.751,100.864C119.057,366.942,117.534,367.933,115.917,367.933z"/>
<g>
</g>
<g>
</g>
<g>
</g>
<g>
</g>
<g>
</g>
<g>
</g>
<g>
</g>
<g>
</g>
<g>
</g>
<g>
</g>
<g>
</g>
<g>
</g>
<g>
</g>
<g>
</g>
<g>
</g>
</svg>
