<?xml version="1.0" encoding="iso-8859-1"?>
<!-- Generator: Adobe Illustrator 19.0.0, SVG Export Plug-In . SVG Version: 6.00 Build 0)  -->
<svg version="1.1" id="Capa_1" xmlns="http://www.w3.org/2000/svg" xmlns:xlink="http://www.w3.org/1999/xlink" x="0px" y="0px"
	 viewBox="0 0 511.908 511.908" style="enable-background:new 0 0 511.908 511.908;" xml:space="preserve">
<path style="fill:#ED5564;" d="M419.925,31.994c0,5.913-10.795,11.436-29.12,15.997h-0.078c-9.279-2.319-20.551-4.319-33.354-6.084
	c-2.476-0.32-4.952-0.641-7.514-0.961c-4.718-0.555-9.6-1.117-14.717-1.594c-9.201-0.805-18.957-1.523-29.119-2.086
	c-3.203-0.156-6.397-0.32-9.592-0.476c-6.483-0.32-13.123-0.484-19.841-0.641c-3.358-0.078-6.796-0.156-10.232-0.156
	c-3.444-0.086-6.886-0.086-10.404-0.086s-6.959,0-10.396,0.086c-3.44,0-6.882,0.078-10.24,0.156
	c-10.158,0.156-19.996,0.562-29.432,1.116c-5.679,0.242-11.119,0.641-16.478,1.039c-2.402,0.164-4.8,0.406-7.12,0.562
	c-24.477,2.078-45.434,5.202-60.95,9.037c-18.477-4.473-29.354-9.996-29.354-15.909C91.984,16.552,165.412,4,255.954,4
	C346.5,4,419.925,16.552,419.925,31.994z"/>
<g style="opacity:0.2;">
	<path d="M419.925,31.994c0,5.913-10.795,11.436-29.12,15.997h-0.078c-9.279-2.319-20.551-4.319-33.354-6.084
		c-2.476-0.32-4.952-0.641-7.514-0.961c-4.718-0.555-9.6-1.117-14.717-1.594c-9.201-0.805-18.957-1.523-29.119-2.086
		c-3.203-0.156-6.397-0.32-9.592-0.476c-6.483-0.32-13.123-0.484-19.841-0.641c-3.358-0.078-6.796-0.156-10.232-0.156
		c-3.444-0.086-6.886-0.086-10.404-0.086s-6.959,0-10.396,0.086c-3.44,0-6.882,0.078-10.24,0.156
		c-10.158,0.156-19.996,0.562-29.432,1.116c-5.679,0.242-11.119,0.641-16.478,1.039c-2.402,0.164-4.8,0.406-7.12,0.562
		c-24.477,2.078-45.434,5.202-60.95,9.037c-18.477-4.473-29.354-9.996-29.354-15.909C91.984,16.552,165.412,4,255.954,4
		C346.5,4,419.925,16.552,419.925,31.994z"/>
</g>
<g>
	<path style="fill:#ED5564;" d="M205.162,58.068c2.082,9.514,6.959,29.033,15.919,48.39l-1.121,0.562h-7.999
		c-69.186-3.281-119.977-14.162-119.977-27.034V31.994c0,5.913,10.877,11.436,29.354,15.911
		c18.317,4.562,44.312,8.163,74.627,10.163H205.162z"/>
	<path style="fill:#ED5564;" d="M419.925,79.986c0,12.872-50.788,23.753-119.979,27.034h-9.357
		c9.123-19.599,14.075-39.353,16.153-48.952h9.201c30.4-2.078,56.475-5.601,74.783-10.077h0.078
		c18.325-4.562,29.12-10.084,29.12-15.997v47.992H419.925z"/>
</g>
<g style="opacity:0.1;">
	<path d="M205.162,58.068c2.082,9.514,6.959,29.033,15.919,48.39l-1.121,0.562h-7.999c-69.186-3.281-119.977-14.162-119.977-27.034
		V31.994c0,5.913,10.877,11.436,29.354,15.911c18.317,4.562,44.312,8.163,74.627,10.163H205.162z"/>
</g>
<g style="opacity:0.1;">
	<path d="M419.925,79.986c0,12.872-50.788,23.753-119.979,27.034h-9.357c9.123-19.599,14.075-39.353,16.153-48.952h9.201
		c30.4-2.078,56.475-5.601,74.783-10.077h0.078c18.325-4.562,29.12-10.084,29.12-15.997v47.992H419.925z"/>
</g>
<polygon style="fill:#ED5564;" points="291.947,203.964 330.582,379.932 315.943,403.928 291.947,379.932 "/>
<g style="opacity:0.1;">
	<polygon points="291.947,203.964 330.582,379.932 315.943,403.928 291.947,379.932 	"/>
</g>
<path style="fill:#ED5564;" d="M291.947,203.964v175.968v79.986l-35.993,47.991l-35.993-47.991V195.965
	c0-23.995,15.997-55.99,15.997-55.99v-7.998h19.996h19.997v7.998C275.951,139.975,291.947,179.968,291.947,203.964z"/>
<g style="opacity:0.3;">
	<path style="fill:#FFFFFF;" d="M227.959,456.746V194.957c0-19.332,14.806-54.982,14.806-54.982h-6.807
		c0,0-15.997,31.995-15.997,55.99v263.953l35.993,47.991v-11.842L227.959,456.746z"/>
</g>
<g style="opacity:0.2;">
	<path d="M283.949,456.746V194.957c0-19.332-14.81-54.982-14.81-54.982h6.812c0,0,15.996,31.995,15.996,55.99v263.953
		l-35.993,47.991v-11.842L283.949,456.746z"/>
</g>
<g style="opacity:0.1;">
	<polygon points="291.947,203.964 291.947,379.932 299.946,387.931 299.946,379.932 299.946,240.394 	"/>
</g>
<path id="SVGCleanerId_0" style="fill:#ED5564;" d="M203.964,51.991h103.981c0,0-0.398,2.233-1.203,6.077
	c-2.078,9.6-7.03,29.354-16.153,48.952c-3.999,8.639-8.874,17.27-14.638,24.956h-19.997h-19.996
	c-5.917-7.843-10.799-16.638-14.876-25.519c-8.959-19.356-13.837-38.876-15.919-48.39C204.366,54.225,203.964,51.991,203.964,51.991
	z"/>
<g>
	<path id="SVGCleanerId_0_1_" style="fill:#ED5564;" d="M203.964,51.991h103.981c0,0-0.398,2.233-1.203,6.077
		c-2.078,9.6-7.03,29.354-16.153,48.952c-3.999,8.639-8.874,17.27-14.638,24.956h-19.997h-19.996
		c-5.917-7.843-10.799-16.638-14.876-25.519c-8.959-19.356-13.837-38.876-15.919-48.39
		C204.366,54.225,203.964,51.991,203.964,51.991z"/>
</g>
<g style="opacity:0.2;">
	<path d="M302.118,98.904c-1.102,2.688-2.266,5.397-3.531,8.116h1.359c69.19-3.281,119.979-14.162,119.979-27.034v-7.999
		C419.925,84.72,370.183,95.499,302.118,98.904z"/>
</g>
<g style="opacity:0.2;">
	<path d="M213.083,106.458c-1.168-2.523-2.261-5.046-3.292-7.554C141.732,95.499,91.984,84.72,91.984,71.987v7.999
		c0,12.872,50.792,23.753,119.978,27.034h1.41C213.282,106.833,213.169,106.645,213.083,106.458z"/>
</g>
<g style="opacity:0.3;">
	<path style="fill:#FFFFFF;" d="M390.805,47.991h-0.078c-18.309,4.477-44.383,7.999-74.783,10.077h-1.203
		c-0.469,2.171-1.109,4.913-1.882,7.998h3.085c30.4-2.077,56.475-5.601,74.783-10.076h0.078c18.325-4.562,29.12-10.084,29.12-15.997
		v-7.999C419.925,37.907,409.13,43.43,390.805,47.991z"/>
</g>
<g style="opacity:0.3;">
	<path style="fill:#FFFFFF;" d="M121.1,47.991h0.078c18.317,4.477,44.391,7.999,74.787,10.077h1.199
		c0.469,2.171,1.109,4.913,1.887,7.998h-3.086c-30.396-2.077-56.47-5.601-74.787-10.076H121.1
		c-18.317-4.561-29.116-10.084-29.116-15.997v-7.999C91.984,37.907,102.783,43.43,121.1,47.991z"/>
</g>
<g style="opacity:0.3;">
	<path style="fill:#FFFFFF;" d="M213.161,58.068c-0.797-3.844-1.199-6.077-1.199-6.077h-7.998c0,0,0.402,2.233,1.199,6.077
		c2.082,9.514,6.959,29.033,15.919,48.39c4.078,8.881,8.959,17.676,14.876,25.519h7.999c-5.917-7.843-10.799-16.638-14.876-25.519
		C220.121,87.101,215.243,67.582,213.161,58.068z"/>
</g>
<g style="opacity:0.2;">
	<path d="M298.743,58.068c0.797-3.844,1.203-6.077,1.203-6.077h7.999c0,0-0.406,2.233-1.203,6.077
		c-2.078,9.514-6.952,29.033-15.919,48.39c-4.077,8.881-8.952,17.676-14.872,25.519h-7.999c5.921-7.843,10.795-16.638,14.872-25.519
		C291.791,87.101,296.666,67.582,298.743,58.068z"/>
</g>
<g style="opacity:0.2;">
	<path d="M306.742,58.068c-2.078,9.6-7.03,29.354-16.153,48.952h7.998c9.124-19.599,14.076-39.353,16.153-48.952
		C314.74,58.068,306.742,58.068,306.742,58.068z"/>
</g>
<g style="opacity:0.2;">
	<path d="M197.164,58.068c2.082,9.514,6.96,29.033,15.919,48.39c0.086,0.188,0.199,0.375,0.289,0.562h6.589l1.121-0.562
		c-8.959-19.356-13.837-38.876-15.919-48.39H197.164z"/>
</g>
<g style="opacity:0.2;">
	<rect x="235.954" y="131.974" width="39.993" height="7.998"/>
</g>
<g>
	<path style="fill:#3A3847;" d="M256.192,471.79c-2.207,0-4.038-1.788-4.038-3.999s1.75-3.999,3.96-3.999h0.078
		c2.211,0,3.999,1.788,3.999,3.999S258.403,471.79,256.192,471.79z"/>
	<path style="fill:#3A3847;" d="M272.185,455.793c-2.203,0-4.03-1.789-4.03-3.999s1.749-3.999,3.952-3.999h0.078
		c2.219,0,4,1.789,4,3.999S274.404,455.793,272.185,455.793z"/>
	<path style="fill:#3A3847;" d="M240.195,455.793c-2.207,0-4.038-1.789-4.038-3.999s1.75-3.999,3.96-3.999h0.078
		c2.211,0,3.999,1.789,3.999,3.999S242.406,455.793,240.195,455.793z"/>
	<path style="fill:#3A3847;" d="M256.192,439.796c-2.207,0-4.038-1.788-4.038-3.999s1.75-3.999,3.96-3.999h0.078
		c2.211,0,3.999,1.788,3.999,3.999S258.403,439.796,256.192,439.796z"/>
	<path style="fill:#3A3847;" d="M272.185,423.799c-2.203,0-4.03-1.789-4.03-3.999c0-2.211,1.749-3.999,3.952-3.999h0.078
		c2.219,0,4,1.788,4,3.999C276.185,422.01,274.404,423.799,272.185,423.799z"/>
	<path style="fill:#3A3847;" d="M320.177,375.808c-2.202,0-4.03-1.788-4.03-3.999s1.75-4,3.952-4h0.078c2.219,0,3.999,1.789,3.999,4
		S322.395,375.808,320.177,375.808z"/>
	<path style="fill:#3A3847;" d="M240.195,423.799c-2.207,0-4.038-1.789-4.038-3.999c0-2.211,1.75-3.999,3.96-3.999h0.078
		c2.211,0,3.999,1.788,3.999,3.999C244.194,422.01,242.406,423.799,240.195,423.799z"/>
	<path style="fill:#3A3847;" d="M256.192,407.802c-2.207,0-4.038-1.788-4.038-3.999s1.75-4,3.96-4h0.078
		c2.211,0,3.999,1.789,3.999,4S258.403,407.802,256.192,407.802z"/>
	<path style="fill:#3A3847;" d="M272.185,391.805c-2.203,0-4.03-1.789-4.03-3.999c0-2.211,1.749-3.999,3.952-3.999h0.078
		c2.219,0,4,1.788,4,3.999C276.185,390.016,274.404,391.805,272.185,391.805z"/>
	<path style="fill:#3A3847;" d="M304.18,359.81c-2.202,0-4.03-1.789-4.03-3.999c0-2.211,1.75-3.999,3.952-3.999h0.078
		c2.219,0,4,1.788,4,3.999C308.18,358.021,306.398,359.81,304.18,359.81z"/>
	<path style="fill:#3A3847;" d="M240.195,391.805c-2.207,0-4.038-1.789-4.038-3.999c0-2.211,1.75-3.999,3.96-3.999h0.078
		c2.211,0,3.999,1.788,3.999,3.999C244.194,390.016,242.406,391.805,240.195,391.805z"/>
	<path style="fill:#3A3847;" d="M256.192,375.808c-2.207,0-4.038-1.788-4.038-3.999s1.75-4,3.96-4h0.078
		c2.211,0,3.999,1.789,3.999,4S258.403,375.808,256.192,375.808z"/>
	<path style="fill:#3A3847;" d="M272.185,359.81c-2.203,0-4.03-1.789-4.03-3.999c0-2.211,1.749-3.999,3.952-3.999h0.078
		c2.219,0,4,1.788,4,3.999C276.185,358.021,274.404,359.81,272.185,359.81z"/>
	<path style="fill:#3A3847;" d="M304.18,327.816c-2.202,0-4.03-1.789-4.03-3.999c0-2.211,1.75-3.999,3.952-3.999h0.078
		c2.219,0,4,1.788,4,3.999C308.18,326.027,306.398,327.816,304.18,327.816z"/>
	<path style="fill:#3A3847;" d="M240.195,359.81c-2.207,0-4.038-1.789-4.038-3.999c0-2.211,1.75-3.999,3.96-3.999h0.078
		c2.211,0,3.999,1.788,3.999,3.999C244.194,358.021,242.406,359.81,240.195,359.81z"/>
	<path style="fill:#3A3847;" d="M256.192,343.813c-2.207,0-4.038-1.789-4.038-3.999c0-2.211,1.75-4,3.96-4h0.078
		c2.211,0,3.999,1.789,3.999,4C260.191,342.024,258.403,343.813,256.192,343.813z"/>
	<path style="fill:#3A3847;" d="M272.185,327.816c-2.203,0-4.03-1.789-4.03-3.999c0-2.211,1.749-3.999,3.952-3.999h0.078
		c2.219,0,4,1.788,4,3.999C276.185,326.027,274.404,327.816,272.185,327.816z"/>
	<path style="fill:#3A3847;" d="M240.195,327.816c-2.207,0-4.038-1.789-4.038-3.999c0-2.211,1.75-3.999,3.96-3.999h0.078
		c2.211,0,3.999,1.788,3.999,3.999C244.194,326.027,242.406,327.816,240.195,327.816z"/>
	<path style="fill:#3A3847;" d="M256.192,311.819c-2.207,0-4.038-1.789-4.038-3.999c0-2.211,1.75-4,3.96-4h0.078
		c2.211,0,3.999,1.789,3.999,4C260.191,310.03,258.403,311.819,256.192,311.819z"/>
	<path style="fill:#3A3847;" d="M272.185,295.822c-2.203,0-4.03-1.789-4.03-4c0-2.21,1.749-3.999,3.952-3.999h0.078
		c2.219,0,4,1.789,4,3.999C276.185,294.033,274.404,295.822,272.185,295.822z"/>
	<path style="fill:#3A3847;" d="M240.195,295.822c-2.207,0-4.038-1.789-4.038-4c0-2.21,1.75-3.999,3.96-3.999h0.078
		c2.211,0,3.999,1.789,3.999,3.999C244.194,294.033,242.406,295.822,240.195,295.822z"/>
	<path style="fill:#3A3847;" d="M256.192,279.825c-2.207,0-4.038-1.789-4.038-3.999c0-2.211,1.75-4,3.96-4h0.078
		c2.211,0,3.999,1.789,3.999,4C260.191,278.036,258.403,279.825,256.192,279.825z"/>
	<path style="fill:#3A3847;" d="M272.185,263.828c-2.203,0-4.03-1.789-4.03-4c0-2.21,1.749-3.999,3.952-3.999h0.078
		c2.219,0,4,1.789,4,3.999C276.185,262.039,274.404,263.828,272.185,263.828z"/>
	<path style="fill:#3A3847;" d="M240.195,263.828c-2.207,0-4.038-1.789-4.038-4c0-2.21,1.75-3.999,3.96-3.999h0.078
		c2.211,0,3.999,1.789,3.999,3.999C244.194,262.039,242.406,263.828,240.195,263.828z"/>
	<path style="fill:#3A3847;" d="M256.192,247.831c-2.207,0-4.038-1.789-4.038-4c0-2.21,1.75-3.999,3.96-3.999h0.078
		c2.211,0,3.999,1.789,3.999,3.999C260.191,246.042,258.403,247.831,256.192,247.831z"/>
	<path style="fill:#3A3847;" d="M272.185,231.834c-2.203,0-4.03-1.789-4.03-4c0-2.21,1.749-3.999,3.952-3.999h0.078
		c2.219,0,4,1.789,4,3.999C276.185,230.045,274.404,231.834,272.185,231.834z"/>
	<path style="fill:#3A3847;" d="M240.195,231.834c-2.207,0-4.038-1.789-4.038-4c0-2.21,1.75-3.999,3.96-3.999h0.078
		c2.211,0,3.999,1.789,3.999,3.999C244.194,230.045,242.406,231.834,240.195,231.834z"/>
	<path style="fill:#3A3847;" d="M256.192,215.836c-2.207,0-4.038-1.788-4.038-3.999c0-2.21,1.75-3.999,3.96-3.999h0.078
		c2.211,0,3.999,1.789,3.999,3.999C260.191,214.048,258.403,215.836,256.192,215.836z"/>
	<path style="fill:#3A3847;" d="M272.185,199.839c-2.203,0-4.03-1.788-4.03-3.999c0-2.21,1.749-3.999,3.952-3.999h0.078
		c2.219,0,4,1.789,4,3.999C276.185,198.051,274.404,199.839,272.185,199.839z"/>
	<path style="fill:#3A3847;" d="M384.166,87.859c-2.203,0-4.031-1.789-4.031-3.999c0-2.211,1.75-3.999,3.953-3.999h0.078
		c2.218,0,3.999,1.788,3.999,3.999C388.165,86.07,386.384,87.859,384.166,87.859z"/>
	<path style="fill:#3A3847;" d="M400.162,71.862c-2.202,0-4.03-1.789-4.03-3.999c0-2.211,1.75-3.999,3.952-3.999h0.078
		c2.219,0,4,1.788,4,3.999C404.162,70.073,402.381,71.862,400.162,71.862z"/>
	<path style="fill:#3A3847;" d="M240.195,199.839c-2.207,0-4.038-1.788-4.038-3.999c0-2.21,1.75-3.999,3.96-3.999h0.078
		c2.211,0,3.999,1.789,3.999,3.999C244.194,198.051,242.406,199.839,240.195,199.839z"/>
	<path style="fill:#3A3847;" d="M256.192,183.842c-2.207,0-4.038-1.788-4.038-3.999c0-2.21,1.75-3.999,3.96-3.999h0.078
		c2.211,0,3.999,1.789,3.999,3.999C260.191,182.054,258.403,183.842,256.192,183.842z"/>
	<path style="fill:#3A3847;" d="M272.185,167.845c-2.203,0-4.03-1.788-4.03-3.999s1.749-3.999,3.952-3.999h0.078
		c2.219,0,4,1.788,4,3.999S274.404,167.845,272.185,167.845z"/>
	<path style="fill:#3A3847;" d="M352.172,87.859c-2.203,0-4.031-1.789-4.031-3.999c0-2.211,1.75-3.999,3.953-3.999h0.078
		c2.218,0,3.999,1.788,3.999,3.999C356.171,86.07,354.39,87.859,352.172,87.859z"/>
	<path style="fill:#3A3847;" d="M368.168,71.862c-2.202,0-4.03-1.789-4.03-3.999c0-2.211,1.75-3.999,3.952-3.999h0.078
		c2.219,0,4,1.788,4,3.999C372.168,70.073,370.387,71.862,368.168,71.862z"/>
	<path style="fill:#3A3847;" d="M400.162,39.868c-2.202,0-4.03-1.789-4.03-3.999c0-2.211,1.75-4,3.952-4h0.078c2.219,0,4,1.789,4,4
		C404.162,38.079,402.381,39.868,400.162,39.868z"/>
	<path style="fill:#3A3847;" d="M240.195,167.845c-2.207,0-4.038-1.788-4.038-3.999s1.75-3.999,3.96-3.999h0.078
		c2.211,0,3.999,1.788,3.999,3.999S242.406,167.845,240.195,167.845z"/>
	<path style="fill:#3A3847;" d="M320.177,87.859c-2.202,0-4.03-1.789-4.03-3.999c0-2.211,1.75-3.999,3.952-3.999h0.078
		c2.219,0,3.999,1.788,3.999,3.999C324.176,86.07,322.395,87.859,320.177,87.859z"/>
	<path style="fill:#3A3847;" d="M336.174,71.862c-2.202,0-4.03-1.789-4.03-3.999c0-2.211,1.75-3.999,3.952-3.999h0.078
		c2.219,0,4,1.788,4,3.999C340.174,70.073,338.392,71.862,336.174,71.862z"/>
	<path style="fill:#3A3847;" d="M368.168,39.868c-2.202,0-4.03-1.789-4.03-3.999c0-2.211,1.75-4,3.952-4h0.078c2.219,0,4,1.789,4,4
		C372.168,38.079,370.387,39.868,368.168,39.868z"/>
	<path style="fill:#3A3847;" d="M256.192,119.853c-2.207,0-4.038-1.788-4.038-3.999s1.75-3.999,3.96-3.999h0.078
		c2.211,0,3.999,1.788,3.999,3.999S258.403,119.853,256.192,119.853z"/>
	<path style="fill:#3A3847;" d="M272.185,103.856c-2.203,0-4.03-1.789-4.03-3.999c0-2.211,1.749-3.999,3.952-3.999h0.078
		c2.219,0,4,1.788,4,3.999C276.185,102.067,274.404,103.856,272.185,103.856z"/>
	<path style="fill:#3A3847;" d="M288.183,87.859c-2.202,0-4.03-1.789-4.03-3.999c0-2.211,1.75-3.999,3.952-3.999h0.078
		c2.219,0,3.999,1.788,3.999,3.999C292.182,86.07,290.401,87.859,288.183,87.859z"/>
	<path style="fill:#3A3847;" d="M304.18,71.862c-2.202,0-4.03-1.789-4.03-3.999c0-2.211,1.75-3.999,3.952-3.999h0.078
		c2.219,0,4,1.788,4,3.999C308.18,70.073,306.398,71.862,304.18,71.862z"/>
	<path style="fill:#3A3847;" d="M352.172,23.871c-2.203,0-4.031-1.789-4.031-3.999c0-2.211,1.75-4,3.953-4h0.078
		c2.218,0,3.999,1.789,3.999,4C356.171,22.082,354.39,23.871,352.172,23.871z"/>
	<path style="fill:#3A3847;" d="M240.195,103.856c-2.207,0-4.038-1.789-4.038-3.999c0-2.211,1.75-3.999,3.96-3.999h0.078
		c2.211,0,3.999,1.788,3.999,3.999C244.194,102.067,242.406,103.856,240.195,103.856z"/>
	<path style="fill:#3A3847;" d="M256.192,87.859c-2.207,0-4.038-1.789-4.038-3.999c0-2.211,1.75-3.999,3.96-3.999h0.078
		c2.211,0,3.999,1.788,3.999,3.999C260.191,86.07,258.403,87.859,256.192,87.859z"/>
	<path style="fill:#3A3847;" d="M272.185,71.862c-2.203,0-4.03-1.789-4.03-3.999c0-2.211,1.749-3.999,3.952-3.999h0.078
		c2.219,0,4,1.788,4,3.999C276.185,70.073,274.404,71.862,272.185,71.862z"/>
	<path style="fill:#3A3847;" d="M320.177,23.871c-2.202,0-4.03-1.789-4.03-3.999c0-2.211,1.75-4,3.952-4h0.078
		c2.219,0,3.999,1.789,3.999,4C324.176,22.082,322.395,23.871,320.177,23.871z"/>
	<path style="fill:#3A3847;" d="M224.198,87.859c-2.207,0-4.038-1.789-4.038-3.999c0-2.211,1.75-3.999,3.96-3.999h0.078
		c2.211,0,3.999,1.788,3.999,3.999C228.197,86.07,226.409,87.859,224.198,87.859z"/>
	<path style="fill:#3A3847;" d="M240.195,71.862c-2.207,0-4.038-1.789-4.038-3.999c0-2.211,1.75-3.999,3.96-3.999h0.078
		c2.211,0,3.999,1.788,3.999,3.999C244.194,70.073,242.406,71.862,240.195,71.862z"/>
	<path style="fill:#3A3847;" d="M288.183,23.871c-2.202,0-4.03-1.789-4.03-3.999c0-2.211,1.75-4,3.952-4h0.078
		c2.219,0,3.999,1.789,3.999,4C292.182,22.082,290.401,23.871,288.183,23.871z"/>
	<path style="fill:#3A3847;" d="M192.204,87.859c-2.207,0-4.038-1.789-4.038-3.999c0-2.211,1.749-3.999,3.96-3.999h0.078
		c2.21,0,3.999,1.788,3.999,3.999C196.203,86.07,194.414,87.859,192.204,87.859z"/>
	<path style="fill:#3A3847;" d="M256.192,23.871c-2.207,0-4.038-1.789-4.038-3.999c0-2.211,1.75-4,3.96-4h0.078
		c2.211,0,3.999,1.789,3.999,4C260.191,22.082,258.403,23.871,256.192,23.871z"/>
	<path style="fill:#3A3847;" d="M160.21,87.859c-2.207,0-4.039-1.789-4.039-3.999c0-2.211,1.75-3.999,3.96-3.999h0.078
		c2.21,0,3.999,1.788,3.999,3.999C164.209,86.07,162.42,87.859,160.21,87.859z"/>
	<path style="fill:#3A3847;" d="M176.207,71.862c-2.207,0-4.038-1.789-4.038-3.999c0-2.211,1.749-3.999,3.96-3.999h0.078
		c2.21,0,3.999,1.788,3.999,3.999C180.206,70.073,178.417,71.862,176.207,71.862z"/>
	<path style="fill:#3A3847;" d="M224.198,23.871c-2.207,0-4.038-1.789-4.038-3.999c0-2.211,1.75-4,3.96-4h0.078
		c2.211,0,3.999,1.789,3.999,4C228.197,22.082,226.409,23.871,224.198,23.871z"/>
	<path style="fill:#3A3847;" d="M128.216,87.859c-2.207,0-4.039-1.789-4.039-3.999c0-2.211,1.75-3.999,3.96-3.999h0.078
		c2.21,0,3.999,1.788,3.999,3.999C132.215,86.07,130.426,87.859,128.216,87.859z"/>
	<path style="fill:#3A3847;" d="M144.213,71.862c-2.207,0-4.039-1.789-4.039-3.999c0-2.211,1.75-3.999,3.96-3.999h0.078
		c2.21,0,3.999,1.788,3.999,3.999C148.212,70.073,146.423,71.862,144.213,71.862z"/>
	<path style="fill:#3A3847;" d="M192.204,23.871c-2.207,0-4.038-1.789-4.038-3.999c0-2.211,1.749-4,3.96-4h0.078
		c2.21,0,3.999,1.789,3.999,4C196.203,22.082,194.414,23.871,192.204,23.871z"/>
	<path style="fill:#3A3847;" d="M112.219,71.862c-2.207,0-4.039-1.789-4.039-3.999c0-2.211,1.75-3.999,3.96-3.999h0.078
		c2.21,0,3.999,1.788,3.999,3.999C116.218,70.073,114.429,71.862,112.219,71.862z"/>
	<path style="fill:#3A3847;" d="M144.213,39.868c-2.207,0-4.039-1.789-4.039-3.999c0-2.211,1.75-4,3.96-4h0.078
		c2.21,0,3.999,1.789,3.999,4C148.212,38.079,146.423,39.868,144.213,39.868z"/>
	<path style="fill:#3A3847;" d="M160.21,23.871c-2.207,0-4.039-1.789-4.039-3.999c0-2.211,1.75-4,3.96-4h0.078
		c2.21,0,3.999,1.789,3.999,4C164.209,22.082,162.42,23.871,160.21,23.871z"/>
	<path style="fill:#3A3847;" d="M112.219,39.868c-2.207,0-4.039-1.789-4.039-3.999c0-2.211,1.75-4,3.96-4h0.078
		c2.21,0,3.999,1.789,3.999,4C116.218,38.079,114.429,39.868,112.219,39.868z"/>
	<path style="fill:#3A3847;" d="M235.962,135.975c-1.219,0-2.418-0.555-3.203-1.601c-24.3-32.401-32.408-79.729-32.74-81.728
		c-0.363-2.18,1.109-4.234,3.285-4.602c2.191-0.374,4.241,1.102,4.604,3.289c0.078,0.469,8.135,47.429,31.248,78.243
		c1.328,1.766,0.969,4.273-0.8,5.601C237.637,135.718,236.798,135.975,235.962,135.975z"/>
	<path style="fill:#3A3847;" d="M275.951,135.975c-0.844,0-1.68-0.258-2.398-0.797c-1.773-1.327-2.133-3.835-0.805-5.601
		C295.893,98.716,303.922,51.803,304,51.334c0.367-2.188,2.43-3.671,4.602-3.289c2.179,0.359,3.655,2.422,3.288,4.602
		c-0.336,1.999-8.444,49.326-32.736,81.728C278.364,135.421,277.169,135.975,275.951,135.975z"/>
	<path style="fill:#3A3847;" d="M307.945,55.99H203.964c-2.211,0-4-1.789-4-3.999c0-2.211,1.789-4,4-4h103.981
		c2.21,0,3.999,1.789,3.999,4C311.944,54.201,310.155,55.99,307.945,55.99z"/>
	<path style="fill:#3A3847;" d="M275.951,135.975h-39.993c-2.211,0-4-1.788-4-3.999s1.789-3.999,4-3.999h39.993
		c2.21,0,3.999,1.788,3.999,3.999S278.161,135.975,275.951,135.975z"/>
	<path style="fill:#3A3847;" d="M315.943,62.052c-2.094,0-3.843-1.617-3.991-3.733c-0.148-2.203,1.522-4.109,3.726-4.258
		c75.002-5.03,100.248-17.262,100.248-22.066C415.926,23.622,360.983,8,255.954,8C150.926,8,95.983,23.622,95.983,31.995
		c0,4.805,25.245,17.036,100.267,22.066c2.203,0.148,3.871,2.055,3.722,4.258c-0.152,2.21-1.957,3.983-4.261,3.726
		c-32.389-2.173-107.727-9.452-107.727-30.051C87.984,6.686,197.855,0,255.954,0s167.97,6.686,167.97,31.994
		c0,20.599-75.33,27.878-107.715,30.05C316.115,62.052,316.029,62.052,315.943,62.052z"/>
	<path style="fill:#3A3847;" d="M357.404,45.867c-0.172,0-0.352-0.008-0.531-0.039c-28.979-3.897-63.879-5.96-100.919-5.96
		c-36.61,0-71.21,2.023-100.056,5.858c-2.211,0.273-4.203-1.25-4.492-3.444c-0.293-2.188,1.25-4.195,3.437-4.492
		c29.194-3.874,64.156-5.921,101.11-5.921c37.392,0,72.659,2.086,101.981,6.038c2.188,0.289,3.727,2.305,3.438,4.491
		C361.1,44.406,359.381,45.867,357.404,45.867z"/>
	<path style="fill:#3A3847;" d="M211.966,110.965c-0.066,0-0.129,0-0.195-0.008c-29.037-1.375-123.786-7.687-123.786-30.971
		c0-2.211,1.789-4,4-4s4,1.789,4,4c0,6.092,34.076,19.082,116.17,22.987c2.207,0.102,3.91,1.977,3.804,4.18
		C215.856,109.293,214.087,110.965,211.966,110.965z"/>
	<path style="fill:#3A3847;" d="M299.946,110.965c-2.124,0-3.89-1.672-3.999-3.812c-0.102-2.203,1.609-4.078,3.812-4.18
		c82.095-3.897,116.167-16.896,116.167-22.987c0-2.211,1.788-4,3.999-4c2.21,0,3.999,1.789,3.999,4
		c0,23.292-94.748,29.596-123.79,30.971C300.071,110.965,300.009,110.965,299.946,110.965z"/>
	<path style="fill:#3A3847;" d="M219.961,199.964c-2.211,0-4-1.788-4-3.999c0-24.659,15.748-56.435,16.419-57.778
		c0.984-1.969,3.39-2.781,5.366-1.789c1.976,0.984,2.777,3.391,1.789,5.366c-0.156,0.312-15.575,31.447-15.575,54.201
		C223.96,198.176,222.171,199.964,219.961,199.964z"/>
	<path style="fill:#3A3847;" d="M291.947,207.963c-2.21,0-3.999-1.789-3.999-3.999c0-22.957-15.56-62.114-15.716-62.505
		c-0.812-2.046,0.188-4.374,2.234-5.194c2.031-0.828,4.382,0.18,5.202,2.227c0.656,1.663,16.278,40.984,16.278,65.473
		C295.947,206.174,294.158,207.963,291.947,207.963z"/>
	<path style="fill:#3A3847;" d="M219.961,463.917c-2.211,0-4-1.789-4-3.999V195.965c0-2.21,1.789-3.999,4-3.999
		c2.21,0,3.999,1.789,3.999,3.999v263.953C223.96,462.128,222.171,463.917,219.961,463.917z"/>
	<path style="fill:#3A3847;" d="M291.947,463.917c-2.21,0-3.999-1.789-3.999-3.999V203.964c0-2.211,1.789-4,3.999-4
		c2.211,0,4,1.789,4,4v255.954C295.947,462.128,294.158,463.917,291.947,463.917z"/>
	<path style="fill:#3A3847;" d="M255.958,511.908c-1.218,0-2.417-0.555-3.202-1.602l-35.994-47.991
		c-1.328-1.765-0.969-4.272,0.8-5.601c1.766-1.328,4.273-0.961,5.597,0.805l35.993,47.991c1.328,1.766,0.969,4.272-0.8,5.601
		C257.634,511.65,256.794,511.908,255.958,511.908z"/>
	<path style="fill:#3A3847;" d="M255.95,511.908c-0.836,0-1.675-0.258-2.394-0.797c-1.769-1.328-2.128-3.835-0.8-5.601
		l35.989-47.991c1.328-1.758,3.835-2.125,5.601-0.805c1.773,1.328,2.133,3.836,0.805,5.601l-35.998,47.991
		C258.368,511.353,257.169,511.908,255.95,511.908z"/>
	<path style="fill:#3A3847;" d="M419.925,83.985c-2.211,0-3.999-1.789-3.999-3.999V31.994c0-2.21,1.788-3.999,3.999-3.999
		c2.21,0,3.999,1.789,3.999,3.999v47.992C423.924,82.196,422.135,83.985,419.925,83.985z"/>
	<path style="fill:#3A3847;" d="M91.984,83.985c-2.21,0-4-1.789-4-3.999V31.994c0-2.21,1.789-3.999,4-3.999s4,1.789,4,3.999v47.992
		C95.983,82.196,94.194,83.985,91.984,83.985z"/>
	<path style="fill:#3A3847;" d="M330.551,383.932c-1.844,0-3.5-1.273-3.906-3.141l-38.603-175.969
		c-0.469-2.155,0.891-4.296,3.047-4.765c2.124-0.469,4.288,0.891,4.765,3.047l38.603,175.968c0.468,2.156-0.891,4.297-3.047,4.766
		C331.12,383.9,330.831,383.932,330.551,383.932z"/>
	<path style="fill:#3A3847;" d="M315.943,407.927c-1.023,0-2.047-0.391-2.828-1.172l-15.996-15.997
		c-1.562-1.562-1.562-4.093,0-5.655s4.093-1.562,5.654,0l15.998,15.997c1.562,1.562,1.562,4.094,0,5.655
		C317.99,407.536,316.967,407.927,315.943,407.927z"/>
	<path style="fill:#3A3847;" d="M315.943,407.927c-0.711,0-1.43-0.188-2.078-0.586c-1.89-1.147-2.483-3.608-1.343-5.491
		l14.606-23.995c1.156-1.891,3.608-2.5,5.499-1.336c1.891,1.148,2.483,3.608,1.344,5.491l-14.606,23.996
		C318.607,407.247,317.287,407.927,315.943,407.927z"/>
	<path style="fill:#3A3847;" d="M255.954,183.967c-2.21,0-3.999-1.788-3.999-3.999v-47.991c0-2.211,1.789-3.999,3.999-3.999
		c2.211,0,3.999,1.788,3.999,3.999v47.991C259.953,182.179,258.165,183.967,255.954,183.967z"/>
</g>
<g>
</g>
<g>
</g>
<g>
</g>
<g>
</g>
<g>
</g>
<g>
</g>
<g>
</g>
<g>
</g>
<g>
</g>
<g>
</g>
<g>
</g>
<g>
</g>
<g>
</g>
<g>
</g>
<g>
</g>
</svg>
