<?xml version="1.0" encoding="iso-8859-1"?>
<!-- Generator: Adobe Illustrator 19.0.0, SVG Export Plug-In . SVG Version: 6.00 Build 0)  -->
<svg version="1.1" id="Capa_1" xmlns="http://www.w3.org/2000/svg" xmlns:xlink="http://www.w3.org/1999/xlink" x="0px" y="0px"
	 viewBox="0 0 511.912 511.912" style="enable-background:new 0 0 511.912 511.912;" xml:space="preserve">
<path style="fill:#FFCE54;" d="M443.523,43.994C425.684,27.997,323.546,4.002,323.546,4.002c0,15.997-15.997,47.991-67.988,47.991
	c-51.99,0-67.987-31.994-67.987-47.991c0,0-102.138,23.995-119.979,39.992c-13.92,12.479-45.032,88.223-58.068,120.94l0.234,0.078
	l80.228,47.671l17.598-40.711v327.94c0,4.397,3.601,7.999,7.999,7.999h279.95c4.396,0,7.998-3.602,7.998-7.999v-327.94
	l17.599,40.711l80.462-47.749C488.555,132.217,457.443,56.473,443.523,43.994z"/>
<g style="opacity:0.5;">
	<path style="fill:#FFFFFF;" d="M115.583,499.912v-327.94h-7.999v327.94c0,4.397,3.601,7.999,7.999,7.999h7.999
		C119.184,507.911,115.583,504.31,115.583,499.912z"/>
</g>
<g style="opacity:0.2;">
	<path d="M395.533,499.912v-327.94h7.998v327.94c0,4.397-3.602,7.999-7.998,7.999h-7.999
		C391.932,507.911,395.533,504.31,395.533,499.912z"/>
</g>
<g style="opacity:0.5;">
	<path style="fill:#FFFFFF;" d="M17.522,172.932C30.56,140.215,61.671,64.471,75.59,51.993
		c15.138-13.576,90.953-32.9,113.573-38.446c-1.07-3.492-1.593-6.769-1.593-9.545c0,0-102.138,23.995-119.979,39.992
		C53.672,56.473,22.56,132.217,9.524,164.934c-3.68,9.197-5.921,15.036-5.921,15.036l9.021,5.358
		C13.625,182.77,15.304,178.477,17.522,172.932z"/>
</g>
<path style="fill:#ED5565;" d="M89.986,212.683l-6.397,14.798L3.603,179.97c0,0,2.241-5.839,5.921-15.036l0.234,0.078
	L89.986,212.683z"/>
<path style="fill:#FFCE54;" d="M187.57,4.002h135.976c0,15.997-15.997,47.991-67.988,47.991
	C203.567,51.993,187.57,19.999,187.57,4.002z"/>
<g style="opacity:0.1;">
	<path d="M187.57,4.002h135.976c0,15.997-15.997,47.991-67.988,47.991C203.567,51.993,187.57,19.999,187.57,4.002z"/>
</g>
<g style="opacity:0.2;">
	<path d="M255.558,43.994c-44.32,0-62.426-23.223-66.824-39.992h-1.164c0,15.997,15.997,47.991,67.987,47.991
		c51.991,0,67.988-31.994,67.988-47.991h-1.164C317.984,20.771,299.878,43.994,255.558,43.994z"/>
</g>
<path style="fill:#ED5565;" d="M507.513,179.97l-79.985,47.511l-6.397-14.798l80.462-47.749
	C505.27,174.131,507.513,179.97,507.513,179.97z"/>
<g style="opacity:0.3;">
	<path style="fill:#FFFFFF;" d="M17.522,172.932c0.328-0.827,0.719-1.792,1.07-2.671l-8.834-5.249l-0.234-0.078
		c-3.68,9.197-5.921,15.036-5.921,15.036l9.021,5.358C13.625,182.77,15.304,178.477,17.522,172.932z"/>
</g>
<circle style="fill:#ED5565;" cx="251.556" cy="219.966" r="71.987"/>
<g style="opacity:0.3;">
	<path style="fill:#FFFFFF;" d="M187.57,219.963c0-38.407,30.104-69.698,67.987-71.784c-1.328-0.074-2.647-0.203-3.999-0.203
		c-39.759,0-71.987,32.229-71.987,71.987s32.229,71.986,71.987,71.986c1.352,0,2.671-0.125,3.999-0.203
		C217.674,289.661,187.57,258.37,187.57,219.963z"/>
</g>
<g style="opacity:0.2;">
	<path d="M315.547,219.963c0,38.407-30.104,69.698-67.987,71.783c1.328,0.078,2.647,0.203,3.999,0.203
		c39.759,0,71.987-32.229,71.987-71.986c0-39.759-32.229-71.987-71.987-71.987c-1.352,0-2.671,0.129-3.999,0.203
		C285.443,150.265,315.547,181.556,315.547,219.963z"/>
</g>
<g style="opacity:0.2;">
	<path d="M494.39,172.932c-13.036-32.717-44.148-108.461-58.067-120.938c-15.138-13.576-90.952-32.9-113.573-38.446
		c1.07-3.492,1.593-6.769,1.593-9.545c0,0,102.139,23.995,119.979,39.992c13.92,12.479,45.031,88.223,58.068,120.939
		c3.679,9.197,5.92,15.036,5.92,15.036l-9.021,5.358C498.287,182.77,496.608,178.477,494.39,172.932z"/>
</g>
<g>
	<path style="fill:#3A3847;" d="M307.947,8.001H203.966c-2.211,0-4-1.789-4-3.999c0-2.211,1.789-4,4-4h103.981
		c2.21,0,3.999,1.789,3.999,4C311.946,6.212,310.157,8.001,307.947,8.001z"/>
	<path style="fill:#3A3847;" d="M255.956,55.992c-52.443,0-71.987-31.889-71.987-51.99c0-2.211,1.789-4,4-4
		c2.21,0,3.999,1.789,3.999,4c0,11.411,11.756,43.991,63.988,43.991c52.233,0,63.988-32.58,63.988-43.991c0-2.211,1.789-4,3.999-4
		c2.211,0,4,1.789,4,4C327.943,24.103,308.4,55.992,255.956,55.992z"/>
	<path style="fill:#3A3847;" d="M403.93,503.912c-2.211,0-4-1.789-4-4v-327.94c0-2.211,1.789-4,4-4s3.999,1.789,3.999,4v327.94
		C407.929,502.123,406.141,503.912,403.93,503.912z"/>
	<path style="fill:#3A3847;" d="M507.911,183.969c-1.609,0-3.125-0.972-3.734-2.562c-12.739-33.123-48.89-121.842-62.926-134.437
		C427.254,34.406,351.166,14.504,323.03,7.895c-2.148-0.504-3.483-2.66-2.977-4.808c0.5-2.141,2.641-3.473,4.804-2.98
		c4.211,0.988,103.364,24.422,121.736,40.911c18.332,16.45,63.152,132.581,65.051,137.514c0.789,2.062-0.234,4.379-2.297,5.171
		C508.871,183.883,508.387,183.969,507.911,183.969z"/>
	<path style="fill:#3A3847;" d="M427.926,231.461c-1.359,0-2.695-0.699-3.438-1.957c-1.133-1.898-0.508-4.354,1.398-5.479
		l79.985-47.491c1.898-1.129,4.358-0.508,5.476,1.394c1.133,1.898,0.508,4.355-1.398,5.479l-79.985,47.492
		C429.323,231.281,428.62,231.461,427.926,231.461z"/>
	<path style="fill:#3A3847;" d="M427.926,231.461c-1.547,0-3.016-0.902-3.672-2.414l-23.996-55.49
		c-0.874-2.026,0.055-4.378,2.086-5.257c2.023-0.867,4.382,0.055,5.257,2.086l23.996,55.49c0.874,2.026-0.055,4.378-2.086,5.257
		C428.995,231.355,428.456,231.461,427.926,231.461z"/>
	<path style="fill:#3A3847;" d="M395.931,511.91c-2.21,0-3.999-1.789-3.999-3.999c0-2.211,1.789-3.999,3.999-3.999
		c2.203,0,3.999-1.797,3.999-4c0-2.211,1.789-3.999,4-3.999s3.999,1.788,3.999,3.999C407.929,506.528,402.547,511.91,395.931,511.91
		z"/>
	<path style="fill:#3A3847;" d="M107.983,503.912c-2.21,0-4-1.789-4-4v-327.94c0-2.211,1.789-4,4-4s4,1.789,4,4v327.94
		C111.982,502.123,110.193,503.912,107.983,503.912z"/>
	<path style="fill:#3A3847;" d="M4.002,183.969c-0.477,0-0.961-0.086-1.438-0.266c-2.062-0.792-3.085-3.108-2.296-5.171
		C2.166,173.6,46.986,57.469,65.319,41.018C83.69,24.529,182.845,1.096,187.055,0.107c2.171-0.492,4.304,0.84,4.804,2.98
		c0.508,2.147-0.828,4.304-2.976,4.808C160.747,14.504,84.659,34.41,70.662,46.971C56.625,59.565,20.476,148.284,7.735,181.407
		C7.126,182.997,5.611,183.969,4.002,183.969z"/>
	<path style="fill:#3A3847;" d="M83.987,231.461c-0.695,0-1.398-0.18-2.039-0.562L1.963,183.406
		c-1.906-1.124-2.531-3.581-1.398-5.479c1.117-1.901,3.586-2.522,5.476-1.394l79.986,47.491c1.906,1.125,2.531,3.581,1.398,5.479
		C86.682,230.762,85.347,231.461,83.987,231.461z"/>
	<path style="fill:#3A3847;" d="M83.987,231.461c-0.531,0-1.07-0.105-1.586-0.328c-2.031-0.879-2.96-3.23-2.085-5.257l23.996-55.49
		c0.875-2.031,3.234-2.957,5.257-2.086c2.031,0.879,2.961,3.23,2.086,5.257l-23.996,55.49
		C87.002,230.559,85.534,231.461,83.987,231.461z"/>
	<path style="fill:#3A3847;" d="M115.981,511.91c-6.616,0-11.998-5.382-11.998-11.998c0-2.211,1.789-3.999,4-3.999s4,1.788,4,3.999
		c0,2.203,1.796,4,3.999,4c2.21,0,3.999,1.788,3.999,3.999C119.98,510.121,118.192,511.91,115.981,511.91z"/>
	<path style="fill:#3A3847;" d="M395.931,511.91h-279.95c-2.21,0-3.999-1.789-3.999-3.999c0-2.211,1.789-3.999,3.999-3.999H395.93
		c2.211,0,3.999,1.788,3.999,3.999C399.93,510.121,398.142,511.91,395.931,511.91z"/>
	<path style="fill:#3A3847;" d="M387.933,495.913H123.98c-2.21,0-4-1.789-4-3.999c0-2.211,1.789-4,4-4h263.953
		c2.21,0,3.999,1.789,3.999,4C391.932,494.124,390.143,495.913,387.933,495.913z"/>
	<path style="fill:#3A3847;" d="M90.393,216.666c-0.695,0-1.398-0.18-2.039-0.562l-80.22-47.632
		c-1.906-1.125-2.531-3.581-1.398-5.479c1.125-1.901,3.585-2.522,5.476-1.395l80.22,47.633c1.906,1.124,2.531,3.581,1.398,5.479
		C93.087,215.967,91.751,216.666,90.393,216.666z"/>
	<path style="fill:#3A3847;" d="M421.519,216.658c-1.358,0-2.694-0.699-3.437-1.956c-1.132-1.902-0.508-4.355,1.398-5.483
		l80.438-47.749c1.891-1.117,4.351-0.504,5.476,1.397c1.133,1.902,0.508,4.354-1.397,5.483l-80.439,47.749
		C422.918,216.478,422.215,216.658,421.519,216.658z"/>
	<path style="fill:#3A3847;" d="M204.153,277.78c-0.945,0-1.898-0.328-2.656-1.008c-16.224-14.415-25.526-35.118-25.526-56.81
		c0-41.899,34.088-75.986,75.986-75.986c5.679,0,11.334,0.629,16.817,1.862c2.155,0.488,3.507,2.629,3.015,4.781
		c-0.477,2.151-2.585,3.53-4.78,3.022c-4.897-1.105-9.967-1.668-15.052-1.668c-37.485,0-67.988,30.499-67.988,67.988
		c0,19.406,8.327,37.935,22.839,50.826c1.648,1.469,1.805,3.992,0.336,5.648C206.355,277.327,205.254,277.78,204.153,277.78z"/>
	<path style="fill:#3A3847;" d="M251.957,295.949c-5.726,0-11.412-0.633-16.896-1.883c-2.148-0.492-3.499-2.632-3.007-4.788
		c0.484-2.14,2.554-3.53,4.789-3.007c4.897,1.117,9.982,1.679,15.114,1.679c37.485,0,67.987-30.498,67.987-67.987
		c0-19.306-8.256-37.771-22.651-50.667c-1.641-1.477-1.781-4.003-0.305-5.647c1.483-1.648,4.007-1.781,5.646-0.312
		c16.084,14.411,25.309,35.053,25.309,56.627C327.943,261.861,293.855,295.949,251.957,295.949z"/>
	<path style="fill:#3A3847;" d="M267.954,239.959c-1.023,0-2.047-0.391-2.827-1.172l-31.995-31.994
		c-1.562-1.562-1.562-4.093,0-5.655s4.093-1.562,5.655,0l31.994,31.994c1.562,1.562,1.562,4.094,0,5.655
		C270,239.568,268.977,239.959,267.954,239.959z"/>
	<path style="fill:#3A3847;" d="M235.96,207.965c-1.023,0-2.047-0.391-2.828-1.172c-1.562-1.562-1.562-4.093,0-5.655l79.985-79.985
		c1.562-1.562,4.094-1.562,5.656,0s1.562,4.093,0,5.655l-79.986,79.985C238.006,207.574,236.983,207.965,235.96,207.965z"/>
	<path style="fill:#3A3847;" d="M195.967,311.946c-1.023,0-2.046-0.391-2.827-1.172c-1.562-1.562-1.562-4.093,0-5.655l71.987-71.987
		c1.562-1.562,4.093-1.562,5.654,0c1.562,1.562,1.562,4.094,0,5.655l-71.986,71.987C198.014,311.556,196.99,311.946,195.967,311.946
		z"/>
	<path style="fill:#3A3847;" d="M267.954,23.998h-24.003c-2.21,0-4-1.789-4-3.999c0-2.211,1.789-4,4-4h24.003
		c2.21,0,3.999,1.789,3.999,4C271.953,22.209,270.164,23.998,267.954,23.998z"/>
</g>
<g>
</g>
<g>
</g>
<g>
</g>
<g>
</g>
<g>
</g>
<g>
</g>
<g>
</g>
<g>
</g>
<g>
</g>
<g>
</g>
<g>
</g>
<g>
</g>
<g>
</g>
<g>
</g>
<g>
</g>
</svg>
