<?xml version="1.0" encoding="iso-8859-1"?>
<!-- Generator: Adobe Illustrator 19.0.0, SVG Export Plug-In . SVG Version: 6.00 Build 0)  -->
<svg version="1.1" id="Capa_1" xmlns="http://www.w3.org/2000/svg" xmlns:xlink="http://www.w3.org/1999/xlink" x="0px" y="0px"
	 viewBox="0 0 511.908 511.908" style="enable-background:new 0 0 511.908 511.908;" xml:space="preserve">
<g>
	<path style="fill:#EC87C0;" d="M127.961,387.931c63.988,0,95.982,47.991,95.982,111.979v7.999h-7.999
		c-15.997,0-95.983-87.984-95.983-111.98v-7.998H127.961z"/>
	<path style="fill:#EC87C0;" d="M287.933,499.91c0-63.988,31.994-111.979,95.983-111.979h7.998v7.998
		c0,23.996-79.985,111.98-95.982,111.98h-7.999V499.91z"/>
</g>
<g style="opacity:0.2;">
	<path d="M127.961,387.931c63.988,0,95.982,47.991,95.982,111.979v7.999h-7.999c-15.997,0-95.983-87.984-95.983-111.98v-7.998
		H127.961z"/>
</g>
<g style="opacity:0.2;">
	<path d="M287.933,499.91c0-63.988,31.994-111.979,95.983-111.979h7.998v7.998c0,23.996-79.985,111.98-95.982,111.98h-7.999V499.91z
		"/>
</g>
<path style="fill:#E6E9ED;" d="M175.953,347.937c0,4.398-3.601,7.999-7.999,7.999s-7.999-3.601-7.999-7.999
	c0,4.398-3.601,7.999-7.999,7.999s-7.999-3.601-7.999-7.999c0,4.398-3.601,7.999-7.999,7.999c-4.397,0-7.998-3.601-7.998-7.999
	c0,4.398-3.601,7.999-7.999,7.999v-15.997h271.953v15.997c-4.397,0-7.998-3.601-7.998-7.999c0,4.398-3.602,7.999-7.999,7.999
	s-7.999-3.601-7.999-7.999c0,4.398-3.601,7.999-7.998,7.999s-7.998-3.601-7.998-7.999c0,4.398-3.602,7.999-7.999,7.999
	s-7.999-3.601-7.999-7.999c0,4.398-3.601,7.999-7.998,7.999s-7.999-3.601-7.999-7.999c0,4.398-3.601,7.999-7.998,7.999
	s-7.999-3.601-7.999-7.999c0,4.398-3.601,7.999-7.998,7.999c-4.398,0-7.999-3.601-7.999-7.999c0,4.398-3.601,7.999-7.998,7.999
	s-7.999-3.601-7.999-7.999c0,4.398-3.601,7.999-7.998,7.999c-4.398,0-8-3.601-8-7.999c0,4.398-3.601,7.999-7.998,7.999
	c-4.398,0-7.999-3.601-7.999-7.999c0,4.398-3.601,7.999-7.999,7.999c-4.397,0-7.999-3.601-7.999-7.999
	c0,4.398-3.601,7.999-7.999,7.999c-4.397,0-7.999-3.601-7.999-7.999c0,4.398-3.601,7.999-7.999,7.999s-7.999-3.601-7.999-7.999
	c0,4.398-3.601,7.999-7.999,7.999S175.953,352.336,175.953,347.937z"/>
<path style="fill:#EC87C0;" d="M223.944,499.91c0-63.988-31.994-111.979-95.982-111.979h-7.999v-31.994
	c4.398,0,7.999-3.601,7.999-7.999c0,4.398,3.601,7.999,7.998,7.999c4.398,0,7.999-3.601,7.999-7.999
	c0,4.398,3.601,7.999,7.999,7.999c4.397,0,7.999-3.601,7.999-7.999c0,4.398,3.601,7.999,7.999,7.999
	c4.397,0,7.999-3.601,7.999-7.999c0,4.398,3.601,7.999,7.999,7.999s7.999-3.601,7.999-7.999c0,4.398,3.601,7.999,7.999,7.999
	s7.999-3.601,7.999-7.999c0,4.398,3.601,7.999,7.999,7.999s7.999-3.601,7.999-7.999c0,4.398,3.601,7.999,7.999,7.999
	s7.999-3.601,7.999-7.999c0,4.398,3.601,7.999,7.999,7.999c4.397,0,7.998-3.601,7.998-7.999c0,4.398,3.601,7.999,8,7.999
	c4.397,0,7.998-3.601,7.998-7.999c0,4.398,3.602,7.999,7.999,7.999s7.998-3.601,7.998-7.999c0,4.398,3.601,7.999,7.999,7.999
	c4.397,0,7.998-3.601,7.998-7.999c0,4.398,3.602,7.999,7.999,7.999s7.998-3.601,7.998-7.999c0,4.398,3.602,7.999,7.999,7.999
	s7.998-3.601,7.998-7.999c0,4.398,3.602,7.999,7.999,7.999s7.999-3.601,7.999-7.999c0,4.398,3.601,7.999,7.998,7.999
	s7.998-3.601,7.998-7.999c0,4.398,3.602,7.999,7.999,7.999s7.999-3.601,7.999-7.999c0,4.398,3.601,7.999,7.998,7.999v31.994h-7.998
	c-63.989,0-95.983,47.991-95.983,111.979v7.999h-63.995V499.91z"/>
<g style="opacity:0.3;">
	<path style="fill:#FFFFFF;" d="M231.942,491.912c0-63.988-31.994-108.98-95.983-111.98h-7.998v-31.994
		c0,4.398-3.601,7.999-7.999,7.999v31.994h7.999c63.988,0,95.982,47.991,95.982,111.979v7.999h7.999V491.912z"/>
</g>
<g style="opacity:0.2;">
	<path d="M279.934,491.912c0-63.988,31.994-108.98,95.982-111.98h7.999v-31.994c0,4.398,3.601,7.999,7.998,7.999v31.994h-7.998
		c-63.989,0-95.983,47.991-95.983,111.979v7.999h-7.998V491.912z"/>
</g>
<rect x="367.914" y="4" style="fill:#E6E9ED;" width="15.998" height="63.988"/>
<rect x="367.914" y="67.984" style="fill:#656D78;" width="15.998" height="15.997"/>
<path style="fill:#E6E9ED;" d="M383.916,115.979c0,0-6.241,0.156-15.998,1.117V83.985h15.998V115.979z"/>
<rect x="127.964" y="67.984" style="fill:#656D78;" width="15.997" height="15.997"/>
<g>
	<rect x="127.964" y="4" style="fill:#E6E9ED;" width="15.997" height="63.988"/>
	<path style="fill:#E6E9ED;" d="M143.958,83.985v33.111c-9.756-0.961-15.997-1.117-15.997-1.117V83.985H143.958z"/>
	<path style="fill:#E6E9ED;" d="M201.705,240.996l-37.509,4.718c-37.438,6.64-66.871,14.239-66.871,14.239h-1.281l-5.358-23.995
		l-5.28-23.996l-5.358-23.995c-1.68-8.64,21.199-10.795,31.994-23.996l7.92-8.881c0,0.32,0,0.562,0,0.883
		c0.797,59.513,44.555,87.187,81.509,83.023L201.705,240.996z"/>
</g>
<path style="fill:#FFFFFF;" d="M98.685,235.958l-5.28-23.996l-6.717-31.955c0,0-8.319-0.68-6.639,7.96l5.358,23.995l5.28,23.996
	l5.358,23.995h1.281c0,0,2.32-0.594,6.366-1.577L98.685,235.958z"/>
<g>
	<path style="fill:#E6E9ED;" d="M249.057,199.886c1.281,2.398,3.921,4.078,6.881,4.078c2.961,0,5.523-1.602,6.882-4h0.078
		c1.359,4.882,3.202,9.757,5.835,13.756c9.365,14.958,24.8,23.441,41.594,25.276l-0.234,2l-36.634-4.562
		c-5.999-0.32-11.842-0.477-17.521-0.477c-5.679,0-11.521,0.156-17.52,0.477l-36.712,4.562l-0.234-2
		c16.872-1.835,32.314-10.318,41.672-25.354l0.078,0.078c2.64-3.999,4.476-8.874,5.757-13.756
		C248.978,199.964,249.057,199.964,249.057,199.886z"/>
	<path style="fill:#E6E9ED;" d="M310.327,238.996c35.438,3.999,77.025-21.277,81.267-75.666l8.318,0.641
		c10.795,13.201,33.674,15.356,31.995,23.996l-5.358,23.995l-5.28,23.996l-5.358,23.995h-1.281c0,0-29.511-7.6-66.863-14.239
		l-37.673-4.718L310.327,238.996z"/>
</g>
<g>
	<path style="fill:#EC87C0;" d="M279.934,203.964v-15.997l-17.114,3.999c-0.484-0.883-1.203-1.68-2-2.32
		c-1.125-7.521-1.125-13.278-1.125-13.278c5.359-44.312,75.908-56.146,108.223-59.271c9.757-0.961,15.998-1.117,15.998-1.117
		s8.318,16.153,7.998,39.993c0,2.476-0.156,4.96-0.32,7.357c-4.241,54.389-45.828,79.665-81.267,75.666
		c-16.794-1.835-32.229-10.318-41.594-25.276c-2.633-3.999-4.476-8.874-5.835-13.756L279.934,203.964z"/>
	<path style="fill:#EC87C0;" d="M252.259,176.367c0,0,0,5.757-1.039,13.2c-0.883,0.641-1.68,1.438-2.164,2.398h-0.078l-17.036-3.999
		v15.997l17.036-4c-1.281,4.882-3.117,9.757-5.757,13.756l-0.078-0.078c-9.358,15.036-24.8,23.52-41.672,25.354
		c-36.954,4.163-80.712-23.511-81.509-83.023c0-0.32,0-0.562,0-0.883c-0.078-23.355,7.999-39.11,7.999-39.11
		s6.241,0.156,15.997,1.117c26.956,2.562,80.462,11.279,100.622,39.758c4,5.679,6.64,12.154,7.601,19.513L252.259,176.367
		L252.259,176.367z"/>
</g>
<g style="opacity:0.3;">
	<path style="fill:#FFFFFF;" d="M217.468,230.998c-36.954,4.163-80.712-23.512-81.509-83.024c0-0.32,0-0.562,0-0.883
		c-0.047-12.95,2.414-23.426,4.617-30.307c-7.788-0.68-12.615-0.805-12.615-0.805s-8.077,15.755-7.999,39.11c0,0.32,0,0.562,0,0.883
		c0.797,59.513,44.555,87.187,81.509,83.023c10.092-1.102,19.637-4.624,27.714-10.459
		C225.397,229.725,221.475,230.56,217.468,230.998z"/>
</g>
<g style="opacity:0.2;">
	<path d="M294.416,230.998c36.954,4.163,80.712-23.512,81.509-83.024c0-0.32,0-0.562,0-0.883c0.047-12.95-2.413-23.426-4.616-30.307
		c7.787-0.68,12.615-0.805,12.615-0.805s8.076,15.755,7.998,39.11c0,0.32,0,0.562,0,0.883
		c-0.797,59.513-44.555,87.187-81.509,83.023c-10.092-1.102-19.637-4.624-27.714-10.459
		C286.488,229.725,290.409,230.56,294.416,230.998z"/>
</g>
<g style="opacity:0.2;">
	<path d="M413.129,235.958l5.28-23.996l6.718-31.955c0,0,8.318-0.68,6.64,7.96l-5.358,23.995l-5.28,23.996l-5.358,23.995h-1.281
		c0,0-2.32-0.594-6.366-1.577L413.129,235.958z"/>
</g>
<g>
	<path style="fill:#F6BB42;" d="M279.895,187.967v15.997l-17.036-4h-0.086c0.727-1.202,1.125-2.562,1.125-3.999
		s-0.398-2.796-1.125-3.999h0.086L279.895,187.967z"/>
	<path style="fill:#F6BB42;" d="M247.901,195.965c0,1.438,0.398,2.797,1.117,3.999l-17.114,4v-15.997l17.114,3.999
		C248.299,193.169,247.901,194.527,247.901,195.965z"/>
</g>
<path style="fill:#FFCE54;" d="M263.898,195.965c0,1.438-0.398,2.797-1.125,3.999c-1.273,2.398-3.913,4-6.875,4
	c-2.96,0-5.522-1.602-6.881-4c-0.719-1.202-1.117-2.562-1.117-3.999s0.398-2.796,1.117-3.999c1.359-2.398,3.921-3.999,6.881-3.999
	c2.961,0,5.601,1.601,6.875,3.999C263.5,193.169,263.898,194.527,263.898,195.965z"/>
<g>
	<rect x="127.964" y="4" style="fill:#FFFFFF;" width="7.998" height="63.988"/>
	<rect x="127.964" y="83.984" style="fill:#FFFFFF;" width="7.998" height="32.19"/>
</g>
<g style="opacity:0.2;">
	<rect x="127.964" y="67.984" style="fill:#FFFFFF;" width="7.998" height="15.997"/>
</g>
<g>
	<rect x="367.914" y="4" style="fill:#FFFFFF;" width="7.999" height="63.988"/>
	<rect x="367.914" y="83.984" style="fill:#FFFFFF;" width="7.999" height="32.799"/>
</g>
<g style="opacity:0.2;">
	<rect x="367.914" y="67.984" style="fill:#FFFFFF;" width="7.999" height="15.997"/>
</g>
<g>
	<path style="fill:#3A3847;" d="M194.191,243.433c-6.444,0-13.052-0.89-19.661-2.726c-27.847-7.757-57.864-34.08-58.599-84.68
		c-0.352-24.59,8.084-41.188,8.444-41.884c0.703-1.367,2.14-2.226,3.648-2.163c3.726,0.094,91.522,2.647,119.775,42.57
		c4.577,6.468,7.365,13.638,8.295,21.316c0.266,2.194-1.296,4.187-3.483,4.452c-2.18,0.273-4.195-1.297-4.453-3.483
		c-0.773-6.351-3.085-12.295-6.889-17.661c-23.371-33.025-96.03-38.345-110.809-39.087c-2.116,5.093-6.78,18.341-6.53,35.83
		c0.664,46.187,27.683,70.097,52.749,77.079c25.308,7.046,50.624-1.569,63.027-21.441c1.18-1.874,3.656-2.437,5.507-1.273
		c1.875,1.164,2.445,3.633,1.273,5.507C235.481,233.434,215.789,243.433,194.191,243.433z"/>
	<path style="fill:#3A3847;" d="M317.631,243.433c-21.59,0-41.266-9.982-52.271-27.612c-1.172-1.874-0.602-4.335,1.272-5.507
		c1.859-1.163,4.335-0.608,5.507,1.273c12.404,19.864,37.735,28.472,63.012,21.402c25.059-6.982,52.069-30.9,52.733-77.071
		c0.25-17.575-4.405-30.761-6.53-35.83c-17.091,0.867-111.792,7.866-117.697,56.74c-0.258,2.202-2.359,3.804-4.445,3.491
		c-2.194-0.266-3.757-2.258-3.492-4.444c7.281-60.302,123.142-63.777,128.072-63.895c1.694-0.031,2.944,0.804,3.647,2.163
		c0.359,0.695,8.795,17.294,8.443,41.884c-0.733,50.584-30.736,76.907-58.583,84.672
		C330.691,242.543,324.074,243.433,317.631,243.433z"/>
	<path style="fill:#3A3847;" d="M179.905,225.436c-0.352,0-0.711-0.047-1.07-0.148c-22.277-6.194-46.296-27.706-46.906-69.487
		c-0.031-2.203,1.734-4.023,3.944-4.055c0.016,0,0.039,0,0.055,0c2.18,0,3.968,1.75,4,3.945
		c0.547,37.36,21.559,56.474,41.047,61.895c2.133,0.594,3.375,2.797,2.781,4.921C183.264,224.28,181.655,225.436,179.905,225.436z"
		/>
	<path style="fill:#3A3847;" d="M331.94,225.436c-1.749,0-3.358-1.156-3.851-2.922c-0.594-2.132,0.648-4.335,2.772-4.929
		c19.474-5.437,40.478-24.55,41.024-61.895c0.031-2.211,1.586-4.094,4.054-3.945c2.21,0.031,3.976,1.852,3.944,4.055
		c-0.609,41.758-24.612,63.277-46.866,69.487C332.659,225.39,332.292,225.436,331.94,225.436z"/>
	<path style="fill:#3A3847;" d="M127.93,111.98c-2.211,0-4-1.789-4-4V4c0-2.211,1.789-4,4-4c2.21,0,3.999,1.789,3.999,4v103.98
		C131.929,110.191,130.141,111.98,127.93,111.98z"/>
	<path style="fill:#3A3847;" d="M143.927,7.999H127.93c-2.211,0-4-1.789-4-3.999c0-2.211,1.789-4,4-4h15.997
		c2.21,0,3.999,1.789,3.999,4C147.926,6.21,146.138,7.999,143.927,7.999z"/>
	<path style="fill:#3A3847;" d="M143.927,111.98c-2.211,0-4-1.789-4-4V4c0-2.211,1.789-4,4-4c2.21,0,3.999,1.789,3.999,4v103.98
		C147.926,110.191,146.138,111.98,143.927,111.98z"/>
	<path style="fill:#3A3847;" d="M143.927,71.987H127.93c-2.211,0-4-1.789-4-3.999c0-2.211,1.789-3.999,4-3.999h15.997
		c2.21,0,3.999,1.788,3.999,3.999C147.926,70.198,146.138,71.987,143.927,71.987z"/>
	<path style="fill:#3A3847;" d="M143.927,87.984H127.93c-2.211,0-4-1.789-4-3.999c0-2.211,1.789-3.999,4-3.999h15.997
		c2.21,0,3.999,1.788,3.999,3.999C147.926,86.195,146.138,87.984,143.927,87.984z"/>
	<path style="fill:#3A3847;" d="M367.887,111.98c-2.21,0-3.999-1.789-3.999-4V4c0-2.211,1.789-4,3.999-4c2.211,0,4,1.789,4,4v103.98
		C371.887,110.191,370.098,111.98,367.887,111.98z"/>
	<path style="fill:#3A3847;" d="M383.885,7.999h-15.998c-2.21,0-3.999-1.789-3.999-3.999c0-2.211,1.789-4,3.999-4h15.998
		c2.21,0,3.999,1.789,3.999,4C387.884,6.21,386.095,7.999,383.885,7.999z"/>
	<path style="fill:#3A3847;" d="M383.885,111.98c-2.211,0-4-1.789-4-4V4c0-2.211,1.789-4,4-4c2.21,0,3.999,1.789,3.999,4v103.98
		C387.884,110.191,386.095,111.98,383.885,111.98z"/>
	<path style="fill:#3A3847;" d="M383.885,71.987h-15.998c-2.21,0-3.999-1.789-3.999-3.999c0-2.211,1.789-3.999,3.999-3.999h15.998
		c2.21,0,3.999,1.788,3.999,3.999C387.884,70.198,386.095,71.987,383.885,71.987z"/>
	<path style="fill:#3A3847;" d="M383.885,87.984h-15.998c-2.21,0-3.999-1.789-3.999-3.999c0-2.211,1.789-3.999,3.999-3.999h15.998
		c2.21,0,3.999,1.788,3.999,3.999C387.884,86.195,386.095,87.984,383.885,87.984z"/>
	<path style="fill:#3A3847;" d="M415.879,263.953c-0.281,0-0.578-0.031-0.867-0.094c-2.156-0.484-3.516-2.617-3.039-4.773
		l15.998-71.986c0.476-2.148,2.593-3.508,4.771-3.039c2.156,0.484,3.516,2.617,3.039,4.772l-15.997,71.987
		C419.37,262.687,417.714,263.953,415.879,263.953z"/>
	<path style="fill:#3A3847;" d="M431.884,191.966c-0.258,0-0.508-0.023-0.766-0.07c-2.172-0.422-3.585-2.516-3.171-4.687
		c0.288-1.477-6.133-4.53-9.968-6.351c-6.874-3.28-15.435-7.351-21.184-14.349c-1.405-1.703-1.163-4.227,0.547-5.624
		c1.695-1.414,4.218-1.156,5.624,0.547c4.624,5.615,11.975,9.115,18.457,12.2c8.14,3.883,15.834,7.538,14.381,15.091
		C435.43,190.638,433.758,191.966,431.884,191.966z"/>
	<path style="fill:#3A3847;" d="M273.404,240.465c-0.07,0-0.141,0-0.219-0.008c-11.795-0.641-22.692-0.633-34.564-0.008
		c-2.195,0.328-4.093-1.578-4.203-3.78c-0.117-2.203,1.57-4.086,3.781-4.203c12.154-0.663,23.316-0.655,35.424,0.008
		c2.203,0.117,3.897,2.008,3.772,4.211C277.278,238.816,275.514,240.465,273.404,240.465z"/>
	<path style="fill:#3A3847;" d="M414.629,263.953c-0.328,0-0.664-0.039-0.992-0.125c-0.297-0.078-29.799-7.616-66.613-14.146
		c-2.179-0.383-3.624-2.46-3.241-4.632c0.383-2.188,2.491-3.593,4.632-3.241c37.142,6.584,66.91,14.192,67.207,14.271
		c2.14,0.547,3.429,2.734,2.882,4.866C418.042,262.758,416.41,263.953,414.629,263.953z"/>
	<path style="fill:#3A3847;" d="M255.907,207.963c-6.616,0-11.998-5.382-11.998-11.998s5.382-11.998,11.998-11.998
		c6.617,0,11.999,5.382,11.999,11.998S262.523,207.963,255.907,207.963z M255.907,191.966c-2.203,0-3.999,1.797-3.999,3.999
		c0,2.203,1.796,3.999,3.999,3.999c2.204,0,4-1.796,4-3.999C259.906,193.763,258.11,191.966,255.907,191.966z"/>
	<path style="fill:#3A3847;" d="M248.986,195.965c-0.297,0-0.602-0.031-0.914-0.102l-17.075-3.999
		c-2.148-0.508-3.484-2.656-2.984-4.812c0.508-2.141,2.602-3.484,4.812-2.984l17.075,4c2.148,0.507,3.484,2.655,2.984,4.812
		C252.447,194.723,250.806,195.965,248.986,195.965z"/>
	<path style="fill:#3A3847;" d="M231.911,207.963c-1.82,0-3.46-1.242-3.898-3.086c-0.5-2.155,0.836-4.304,2.984-4.812l17.075-3.999
		c2.179-0.492,4.304,0.844,4.812,2.984c0.5,2.155-0.836,4.304-2.984,4.812l-17.075,3.999
		C232.52,207.932,232.208,207.963,231.911,207.963z"/>
	<path style="fill:#3A3847;" d="M231.911,207.963c-2.21,0-4-1.789-4-3.999v-15.997c0-2.211,1.789-4,4-4s4,1.789,4,4v15.997
		C235.911,206.174,234.121,207.963,231.911,207.963z"/>
	<path style="fill:#3A3847;" d="M279.903,207.963c-0.297,0-0.602-0.031-0.914-0.102l-17.091-3.999
		c-2.148-0.508-3.483-2.656-2.983-4.812c0.507-2.141,2.593-3.477,4.812-2.984l17.09,3.999c2.148,0.508,3.484,2.656,2.984,4.812
		C283.363,206.721,281.723,207.963,279.903,207.963z"/>
	<path style="fill:#3A3847;" d="M262.812,195.965c-1.82,0-3.461-1.242-3.897-3.085c-0.5-2.156,0.835-4.305,2.983-4.812l17.091-4
		c2.233-0.5,4.304,0.844,4.812,2.984c0.5,2.155-0.836,4.304-2.984,4.812l-17.09,3.999
		C263.414,195.933,263.109,195.965,262.812,195.965z"/>
	<path style="fill:#3A3847;" d="M279.903,207.963c-2.211,0-3.999-1.789-3.999-3.999v-15.997c0-2.211,1.788-4,3.999-4
		c2.21,0,3.999,1.789,3.999,4v15.997C283.902,206.174,282.113,207.963,279.903,207.963z"/>
	<path style="fill:#3A3847;" d="M295.9,511.908h-79.986c-2.21,0-4-1.789-4-3.999c0-2.211,1.789-3.999,4-3.999H295.9
		c2.211,0,3.999,1.788,3.999,3.999C299.899,510.119,298.111,511.908,295.9,511.908z"/>
	<path style="fill:#3A3847;" d="M271.904,495.911h-31.995c-2.21,0-3.999-1.789-3.999-3.999c0-2.211,1.789-4,3.999-4h31.995
		c2.211,0,4,1.789,4,4C275.904,494.122,274.115,495.911,271.904,495.911z"/>
	<path style="fill:#3A3847;" d="M295.9,511.908c-2.211,0-4-1.789-4-3.999c0-2.211,1.789-3.999,4-3.999
		c13.466,0,91.983-85.712,91.983-107.981c0-2.21,1.788-3.999,3.999-3.999s3.999,1.789,3.999,3.999
		C395.882,422.971,313.506,511.908,295.9,511.908z"/>
	<path style="fill:#3A3847;" d="M215.914,511.908c-17.606,0-99.982-88.938-99.982-115.979c0-2.21,1.789-3.999,3.999-3.999
		c2.211,0,4,1.789,4,3.999c0,22.27,78.517,107.981,91.983,107.981c2.21,0,4,1.788,4,3.999
		C219.913,510.119,218.124,511.908,215.914,511.908z"/>
	<path style="fill:#3A3847;" d="M391.883,399.928c-2.211,0-3.999-1.788-3.999-3.999V339.94c0-2.211,1.788-4,3.999-4
		s3.999,1.789,3.999,4v55.989C395.882,398.14,394.094,399.928,391.883,399.928z"/>
	<path style="fill:#3A3847;" d="M119.931,399.928c-2.21,0-3.999-1.788-3.999-3.999V339.94c0-2.211,1.789-4,3.999-4
		c2.211,0,4,1.789,4,4v55.989C123.931,398.14,122.142,399.928,119.931,399.928z"/>
	<path style="fill:#3A3847;" d="M391.883,343.938H119.931c-2.21,0-3.999-1.789-3.999-3.999c0-2.211,1.789-4,3.999-4h271.952
		c2.211,0,3.999,1.789,3.999,4C395.882,342.149,394.094,343.938,391.883,343.938z"/>
	<path style="fill:#3A3847;" d="M287.901,503.91c-2.21,0-3.999-1.789-3.999-4c0-71.542,38.313-115.979,99.982-115.979
		c2.21,0,3.999,1.788,3.999,3.999c0,2.21-1.789,3.999-3.999,3.999c-57.6,0-91.984,40.367-91.984,107.98
		C291.9,502.121,290.112,503.91,287.901,503.91z"/>
	<path style="fill:#3A3847;" d="M223.912,503.91c-2.21,0-3.999-1.789-3.999-4c0-67.613-34.385-107.98-91.983-107.98
		c-2.211,0-4-1.789-4-3.999c0-2.211,1.789-3.999,4-3.999c61.668,0,99.981,44.437,99.981,115.979
		C227.912,502.121,226.123,503.91,223.912,503.91z"/>
	<path style="fill:#3A3847;" d="M135.928,359.935c-6.616,0-11.998-5.382-11.998-11.998c0-2.211,1.789-3.999,4-3.999
		c2.21,0,3.999,1.788,3.999,3.999c0,2.203,1.797,4,3.999,4c2.203,0,4-1.797,4-4c0-2.211,1.789-3.999,4-3.999
		c2.21,0,3.999,1.788,3.999,3.999C147.926,354.554,142.544,359.935,135.928,359.935z"/>
	<path style="fill:#3A3847;" d="M151.926,359.935c-6.616,0-11.998-5.382-11.998-11.998c0-2.211,1.789-3.999,4-3.999
		c2.21,0,3.999,1.788,3.999,3.999c0,2.203,1.797,4,4,4s4-1.797,4-4c0-2.211,1.788-3.999,3.999-3.999c2.21,0,3.999,1.788,3.999,3.999
		C163.923,354.554,158.541,359.935,151.926,359.935z"/>
	<path style="fill:#3A3847;" d="M167.923,359.935c-6.616,0-11.998-5.382-11.998-11.998c0-2.211,1.788-3.999,3.999-3.999
		c2.21,0,3.999,1.788,3.999,3.999c0,2.203,1.797,4,4,4s4-1.797,4-4c0-2.211,1.788-3.999,3.999-3.999c2.21,0,3.999,1.788,3.999,3.999
		C179.92,354.554,174.538,359.935,167.923,359.935z"/>
	<path style="fill:#3A3847;" d="M183.92,359.935c-6.616,0-11.998-5.382-11.998-11.998c0-2.211,1.788-3.999,3.999-3.999
		c2.21,0,3.999,1.788,3.999,3.999c0,2.203,1.797,4,4,4s4-1.797,4-4c0-2.211,1.789-3.999,3.999-3.999s3.999,1.788,3.999,3.999
		C195.917,354.554,190.536,359.935,183.92,359.935z"/>
	<path style="fill:#3A3847;" d="M199.917,359.935c-6.616,0-11.998-5.382-11.998-11.998c0-2.211,1.789-3.999,3.999-3.999
		s3.999,1.788,3.999,3.999c0,2.203,1.797,4,4,4s4-1.797,4-4c0-2.211,1.789-3.999,3.999-3.999c2.211,0,3.999,1.788,3.999,3.999
		C211.914,354.554,206.533,359.935,199.917,359.935z"/>
	<path style="fill:#3A3847;" d="M215.914,359.935c-6.616,0-11.998-5.382-11.998-11.998c0-2.211,1.789-3.999,3.999-3.999
		c2.211,0,3.999,1.788,3.999,3.999c0,2.203,1.797,4,4,4s4-1.797,4-4c0-2.211,1.789-3.999,3.999-3.999
		c2.211,0,3.999,1.788,3.999,3.999C227.912,354.554,222.53,359.935,215.914,359.935z"/>
	<path style="fill:#3A3847;" d="M231.911,359.935c-6.616,0-11.998-5.382-11.998-11.998c0-2.211,1.789-3.999,3.999-3.999
		c2.211,0,3.999,1.788,3.999,3.999c0,2.203,1.797,4,4,4s4-1.797,4-4c0-2.211,1.789-3.999,3.999-3.999c2.211,0,4,1.788,4,3.999
		C243.909,354.554,238.527,359.935,231.911,359.935z"/>
	<path style="fill:#3A3847;" d="M247.909,359.935c-6.616,0-11.998-5.382-11.998-11.998c0-2.211,1.789-3.999,3.999-3.999
		c2.211,0,4,1.788,4,3.999c0,2.203,1.796,4,4,4c2.202,0,3.999-1.797,3.999-4c0-2.211,1.789-3.999,3.999-3.999
		c2.211,0,4,1.788,4,3.999C259.906,354.554,254.524,359.935,247.909,359.935z"/>
	<path style="fill:#3A3847;" d="M263.906,359.935c-6.616,0-11.999-5.382-11.999-11.998c0-2.211,1.789-3.999,3.999-3.999
		c2.211,0,4,1.788,4,3.999c0,2.203,1.797,4,4,4c2.202,0,3.999-1.797,3.999-4c0-2.211,1.789-3.999,3.999-3.999
		c2.211,0,4,1.788,4,3.999C275.904,354.554,270.521,359.935,263.906,359.935z"/>
	<path style="fill:#3A3847;" d="M279.903,359.935c-6.616,0-11.998-5.382-11.998-11.998c0-2.211,1.789-3.999,3.999-3.999
		c2.211,0,4,1.788,4,3.999c0,2.203,1.796,4,3.999,4c2.202,0,3.999-1.797,3.999-4c0-2.211,1.789-3.999,3.999-3.999
		c2.211,0,3.999,1.788,3.999,3.999C291.9,354.554,286.519,359.935,279.903,359.935z"/>
	<path style="fill:#3A3847;" d="M295.9,359.935c-6.616,0-11.998-5.382-11.998-11.998c0-2.211,1.789-3.999,3.999-3.999
		c2.211,0,3.999,1.788,3.999,3.999c0,2.203,1.797,4,4,4s3.999-1.797,3.999-4c0-2.211,1.789-3.999,3.999-3.999
		c2.211,0,4,1.788,4,3.999C307.898,354.554,302.516,359.935,295.9,359.935z"/>
	<path style="fill:#3A3847;" d="M311.897,359.935c-6.616,0-11.998-5.382-11.998-11.998c0-2.211,1.789-3.999,3.999-3.999
		c2.211,0,4,1.788,4,3.999c0,2.203,1.796,4,3.999,4c2.202,0,3.999-1.797,3.999-4c0-2.211,1.789-3.999,3.999-3.999
		c2.211,0,4,1.788,4,3.999C323.895,354.554,318.514,359.935,311.897,359.935z"/>
	<path style="fill:#3A3847;" d="M327.894,359.935c-6.616,0-11.998-5.382-11.998-11.998c0-2.211,1.789-3.999,3.999-3.999
		c2.211,0,4,1.788,4,3.999c0,2.203,1.796,4,3.999,4s3.999-1.797,3.999-4c0-2.211,1.789-3.999,3.999-3.999c2.211,0,4,1.788,4,3.999
		C339.892,354.554,334.511,359.935,327.894,359.935z"/>
	<path style="fill:#3A3847;" d="M343.892,359.935c-6.616,0-11.998-5.382-11.998-11.998c0-2.211,1.789-3.999,3.999-3.999
		c2.211,0,4,1.788,4,3.999c0,2.203,1.796,4,3.999,4c2.202,0,3.999-1.797,3.999-4c0-2.211,1.789-3.999,4-3.999
		c2.21,0,3.999,1.788,3.999,3.999C355.89,354.554,350.508,359.935,343.892,359.935z"/>
	<path style="fill:#3A3847;" d="M359.889,359.935c-6.616,0-11.998-5.382-11.998-11.998c0-2.211,1.789-3.999,4-3.999
		c2.21,0,3.999,1.788,3.999,3.999c0,2.203,1.796,4,3.999,4s3.999-1.797,3.999-4c0-2.211,1.789-3.999,3.999-3.999
		c2.211,0,4,1.788,4,3.999C371.887,354.554,366.505,359.935,359.889,359.935z"/>
	<path style="fill:#3A3847;" d="M375.886,359.935c-6.616,0-11.998-5.382-11.998-11.998c0-2.211,1.789-3.999,3.999-3.999
		c2.211,0,4,1.788,4,3.999c0,2.203,1.797,4,3.999,4c2.203,0,3.999-1.797,3.999-4c0-2.211,1.789-3.999,4-3.999
		c2.21,0,3.999,1.788,3.999,3.999C387.884,354.554,382.502,359.935,375.886,359.935z"/>
	<path style="fill:#3A3847;" d="M430.501,215.961h-3.952c-2.211,0-4-1.788-4-3.999c0-2.21,1.789-3.999,4-3.999h3.952
		c2.21,0,3.999,1.789,3.999,3.999C434.5,214.173,432.711,215.961,430.501,215.961z"/>
	<path style="fill:#3A3847;" d="M425.252,239.957h-4.03c-2.211,0-3.999-1.789-3.999-3.999c0-2.211,1.788-4,3.999-4h4.03
		c2.211,0,3.999,1.789,3.999,4C429.251,238.168,427.463,239.957,425.252,239.957z"/>
	<path style="fill:#3A3847;" d="M96.03,263.953c-1.836,0-3.492-1.266-3.906-3.133l-15.997-71.987
		c-0.477-2.155,0.882-4.288,3.039-4.772c2.187-0.469,4.296,0.891,4.772,3.039l15.997,71.986c0.477,2.156-0.883,4.289-3.039,4.773
		C96.607,263.922,96.311,263.953,96.03,263.953z"/>
	<path style="fill:#3A3847;" d="M80.025,191.966c-1.875,0-3.547-1.328-3.921-3.242c-1.453-7.553,6.241-11.208,14.38-15.091
		c6.483-3.085,13.833-6.585,18.457-12.2c1.406-1.703,3.921-1.961,5.624-0.547c1.711,1.397,1.953,3.921,0.547,5.624
		c-5.749,6.998-14.31,11.068-21.184,14.349c-3.835,1.82-10.256,4.874-9.967,6.351c0.414,2.171-1,4.265-3.171,4.687
		C80.532,191.942,80.282,191.966,80.025,191.966z"/>
	<path style="fill:#3A3847;" d="M97.279,263.953c-1.781,0-3.414-1.195-3.875-3.008c-0.547-2.132,0.742-4.319,2.883-4.866
		c0.296-0.078,30.064-7.687,67.206-14.271c2.125-0.359,4.242,1.054,4.632,3.241c0.382,2.172-1.062,4.249-3.242,4.632
		c-36.837,6.53-66.316,14.068-66.613,14.146C97.943,263.914,97.607,263.953,97.279,263.953z"/>
	<path style="fill:#3A3847;" d="M85.36,215.961h-3.953c-2.21,0-4-1.788-4-3.999c0-2.21,1.789-3.999,4-3.999h3.953
		c2.21,0,3.999,1.789,3.999,3.999C89.359,214.173,87.57,215.961,85.36,215.961z"/>
	<path style="fill:#3A3847;" d="M90.687,239.957h-4.031c-2.21,0-4-1.789-4-3.999c0-2.211,1.789-4,4-4h4.031
		c2.21,0,3.999,1.789,3.999,4C94.686,238.168,92.897,239.957,90.687,239.957z"/>
</g>
<g>
</g>
<g>
</g>
<g>
</g>
<g>
</g>
<g>
</g>
<g>
</g>
<g>
</g>
<g>
</g>
<g>
</g>
<g>
</g>
<g>
</g>
<g>
</g>
<g>
</g>
<g>
</g>
<g>
</g>
</svg>
