<?xml version="1.0" encoding="iso-8859-1"?>
<!-- Generator: Adobe Illustrator 19.0.0, SVG Export Plug-In . SVG Version: 6.00 Build 0)  -->
<svg version="1.1" id="Capa_1" xmlns="http://www.w3.org/2000/svg" xmlns:xlink="http://www.w3.org/1999/xlink" x="0px" y="0px"
	 viewBox="0 0 511.909 511.909" style="enable-background:new 0 0 511.909 511.909;" xml:space="preserve">
<path style="fill:#656D78;" d="M491.913,43.991h-223.96H19.998c-8.874,0-15.997,7.194-15.997,15.997
	c0,8.874,7.123,15.998,15.997,15.998h223.959h247.956c8.803,0,15.997-7.124,15.997-15.998
	C507.91,51.185,500.716,43.991,491.913,43.991z"/>
<rect x="243.955" y="43.995" style="fill:#5D9CEC;" width="23.996" height="15.997"/>
<g style="opacity:0.2;">
	<path d="M491.913,43.991h-223.96H19.998c-8.874,0-15.997,7.194-15.997,15.997c0,8.874,7.123,15.998,15.997,15.998h223.959h247.956
		c8.803,0,15.997-7.124,15.997-15.998C507.91,51.185,500.716,43.991,491.913,43.991z"/>
</g>
<path style="fill:#656D78;" d="M4.001,91.983V59.988c0,8.874,7.123,15.998,15.997,15.998h223.959h247.956
	c8.803,0,15.997-7.124,15.997-15.998v31.995c0,8.874-7.194,15.997-15.997,15.997H355.937H155.974H19.998
	C11.124,107.98,4.001,100.856,4.001,91.983z"/>
<g style="opacity:0.2;">
	<path style="fill:#FFFFFF;" d="M19.998,91.983V75.986c-8.874,0-15.997-7.124-15.997-15.998v31.995
		c0,8.874,7.123,15.997,15.997,15.997C19.998,107.98,19.998,100.856,19.998,91.983z"/>
</g>
<g style="opacity:0.2;">
	<path d="M491.913,91.983V75.986c8.881,0,15.997-7.124,15.997-15.998v31.995c0,8.874-7.116,15.997-15.997,15.997
		C491.913,107.98,491.913,100.856,491.913,91.983z"/>
</g>
<g style="opacity:0.2;">
	<path d="M491.913,67.987H243.957H19.998c-7.483,0-13.662-5.085-15.436-11.99C4.235,57.286,4,58.606,4,59.988
		c0,8.874,7.123,15.998,15.997,15.998h223.959h247.956c8.803,0,15.997-7.124,15.997-15.998c0-1.382-0.234-2.702-0.562-3.991
		C505.551,62.902,499.333,67.987,491.913,67.987z"/>
</g>
<g>
	<path style="fill:#E6E9ED;" d="M11.999,431.438c17.278,11.997,60.95,20.48,111.979,20.48c51.038,0,94.624-8.483,111.98-20.48
		l7.998-5.593v10.076c0,17.685-53.748,31.994-119.979,31.994c-66.308,0-119.978-14.31-119.978-31.994v-9.279L11.999,431.438z"/>
	<path style="fill:#E6E9ED;" d="M267.953,435.922v-9.279l7.999,4.796c17.277,11.997,60.949,20.48,111.979,20.48
		c51.038,0,94.623-8.483,111.979-20.48l7.999-5.593v10.076c0,17.685-53.749,31.994-119.979,31.994
		C321.623,467.915,267.953,453.605,267.953,435.922z"/>
</g>
<g>
	<path style="fill:#5D9CEC;" d="M507.91,91.983v333.862l-7.999,5.593c-17.356,11.997-60.941,20.48-111.979,20.48
		c-51.03,0-94.702-8.483-111.979-20.48l-7.999-4.796V369.7l15.997-5.765c87.984-39.993,71.987-239.957,71.987-239.957V107.98
		h135.976C500.716,107.98,507.91,100.856,507.91,91.983z"/>
	<path style="fill:#5D9CEC;" d="M267.953,369.699v-17.762c0-6.562-5.358-11.998-11.998-11.998c-6.64,0-11.998,5.437-11.998,11.998
		v17.762l-15.997-5.765c-87.984-39.993-71.986-239.957-71.986-239.957v-15.997h199.964v15.997c0,0,15.997,199.963-71.987,239.957
		L267.953,369.699z"/>
</g>
<g style="opacity:0.2;">
	<path style="fill:#FFFFFF;" d="M267.953,369.699v-17.762c0-6.562-5.358-11.998-11.998-11.998c-6.64,0-11.998,5.437-11.998,11.998
		v17.762l-15.997-5.765c-87.984-39.993-71.986-239.957-71.986-239.957v-15.997h199.964v15.997c0,0,15.997,199.963-71.987,239.957
		L267.953,369.699z"/>
</g>
<path style="fill:#5D9CEC;" d="M4.001,426.643V91.983c0,8.874,7.123,15.997,15.997,15.997h135.976v15.997
	c0,0-15.998,199.963,71.986,239.957l15.997,5.765v56.146l-7.998,5.593c-17.356,11.997-60.942,20.48-111.98,20.48
	c-51.029,0-94.701-8.483-111.979-20.48L4.001,426.643z"/>
<g style="opacity:0.3;">
	<path style="fill:#FFFFFF;" d="M19.998,451.919v-25.276V107.98c-8.874,0-15.997-7.124-15.997-15.997v334.659v9.279
		C5.781,446.889,19.998,451.919,19.998,451.919z"/>
</g>
<path style="fill:#FFFFFF;" d="M19.998,451.855v-15.95c-3.07-1.422-5.765-2.922-7.999-4.468l-7.998-4.796v9.279
	c0.663,4.062,3.03,7.295,5.741,9.779C12.343,447.857,15.826,449.919,19.998,451.855z"/>
<g style="opacity:0.2;">
	<path d="M491.913,451.919v-25.276V107.98c8.881,0,15.997-7.124,15.997-15.997v334.659v9.279
		C506.129,446.889,491.913,451.919,491.913,451.919z"/>
</g>
<g style="opacity:0.2;">
	<path d="M491.913,451.855v-15.95c3.077-1.422,5.764-2.922,7.998-4.468l7.999-4.796v9.279c-0.656,4.062-3.023,7.295-5.741,9.779
		C499.567,447.857,496.092,449.919,491.913,451.855z"/>
</g>
<g>
	<path style="fill:#3A3847;" d="M387.932,455.918c-50.804,0-95.655-8.311-114.261-21.199c-1.82-1.25-2.273-3.749-1.016-5.562
		c1.25-1.827,3.75-2.28,5.569-1.015c17.091,11.825,61.177,19.777,109.707,19.777s92.624-7.952,109.714-19.777
		c1.812-1.266,4.297-0.812,5.562,1.015c1.257,1.812,0.804,4.312-1.008,5.562C483.586,447.607,438.735,455.918,387.932,455.918z"/>
	<path style="fill:#3A3847;" d="M387.932,471.915c-60.099,0-123.978-12.622-123.978-35.993c0-2.219,1.788-3.999,3.999-3.999
		c2.21,0,3.999,1.78,3.999,3.999c0,11.686,44.125,27.995,115.979,27.995c71.862,0,115.979-16.31,115.979-27.995
		c0-2.219,1.788-3.999,3.999-3.999c2.21,0,3.999,1.78,3.999,3.999C511.909,459.293,448.038,471.915,387.932,471.915z"/>
	<path style="fill:#3A3847;" d="M123.978,455.918c-50.803,0-95.654-8.311-114.26-21.199c-1.82-1.25-2.273-3.749-1.016-5.562
		c1.257-1.827,3.749-2.28,5.569-1.015c17.091,11.825,61.176,19.777,109.706,19.777s92.624-7.952,109.715-19.777
		c1.805-1.266,4.296-0.812,5.562,1.015c1.258,1.812,0.805,4.312-1.008,5.562C219.634,447.607,174.782,455.918,123.978,455.918z"/>
	<path style="fill:#3A3847;" d="M123.978,471.915C63.88,471.915,0,459.293,0,435.922c0-2.219,1.789-3.999,4-3.999
		c2.21,0,3.999,1.78,3.999,3.999c0,11.686,44.125,27.995,115.979,27.995c71.862,0,115.979-16.31,115.979-27.995
		c0-2.219,1.789-3.999,3.999-3.999c2.211,0,4,1.78,4,3.999C247.957,459.293,184.085,471.915,123.978,471.915z"/>
	<path style="fill:#3A3847;" d="M267.953,439.921c-2.211,0-3.999-1.78-3.999-3.999v-83.984c0-2.203,1.788-4,3.999-4
		c2.21,0,3.999,1.797,3.999,4v83.984C271.952,438.141,270.163,439.921,267.953,439.921z"/>
	<path style="fill:#3A3847;" d="M507.91,439.921c-2.211,0-3.999-1.78-3.999-3.999V59.992c0-2.21,1.788-3.999,3.999-3.999
		c2.21,0,3.999,1.789,3.999,3.999v375.929C511.909,438.141,510.12,439.921,507.91,439.921z"/>
	<path style="fill:#3A3847;" d="M243.957,439.921c-2.21,0-3.999-1.78-3.999-3.999v-83.984c0-2.203,1.789-4,3.999-4
		c2.211,0,4,1.797,4,4v83.984C247.957,438.141,246.168,439.921,243.957,439.921z"/>
	<path style="fill:#3A3847;" d="M4.001,439.921c-2.211,0-4-1.78-4-3.999V59.992c0-2.21,1.789-3.999,4-3.999
		c2.21,0,3.999,1.789,3.999,3.999v375.929C8,438.141,6.211,439.921,4.001,439.921z"/>
	<path style="fill:#3A3847;" d="M491.913,79.989c-2.211,0-4-1.789-4-4s1.789-4,4-4c6.615,0,11.998-5.382,11.998-11.998
		s-5.383-11.998-11.998-11.998c-2.211,0-4-1.789-4-4c0-2.21,1.789-3.999,4-3.999c11.029,0,19.996,8.971,19.996,19.996
		C511.909,71.017,502.942,79.989,491.913,79.989z"/>
	<path style="fill:#3A3847;" d="M19.998,79.989c-11.029,0-19.997-8.972-19.997-19.997s8.968-19.996,19.997-19.996
		c2.21,0,3.999,1.789,3.999,3.999c0,2.211-1.789,4-3.999,4C13.382,47.995,8,53.377,8,59.993s5.382,11.998,11.998,11.998
		c2.21,0,3.999,1.789,3.999,4S22.208,79.989,19.998,79.989z"/>
	<path style="fill:#3A3847;" d="M491.913,79.989H19.998c-2.211,0-4-1.789-4-4s1.789-4,4-4h471.915c2.21,0,3.999,1.789,3.999,4
		S494.123,79.989,491.913,79.989z"/>
	<path style="fill:#3A3847;" d="M491.913,111.983H19.998c-2.211,0-4-1.789-4-4s1.789-4,4-4h471.915c2.21,0,3.999,1.789,3.999,4
		S494.123,111.983,491.913,111.983z"/>
	<path style="fill:#3A3847;" d="M491.913,47.995H19.998c-2.211,0-4-1.789-4-4c0-2.21,1.789-3.999,4-3.999h471.915
		c2.21,0,3.999,1.789,3.999,3.999C495.912,46.206,494.123,47.995,491.913,47.995z"/>
	<path style="fill:#3A3847;" d="M267.953,355.936c-2.211,0-3.999-1.781-3.999-3.999c0-4.406-3.586-7.999-7.999-7.999
		c-4.405,0-7.998,3.593-7.998,7.999c0,2.218-1.789,3.999-4,3.999c-2.21,0-3.999-1.781-3.999-3.999
		c0-8.812,7.179-15.998,15.997-15.998c8.827,0,15.997,7.187,15.997,15.998C271.952,354.155,270.163,355.936,267.953,355.936z"/>
	<path style="fill:#3A3847;" d="M491.913,111.983c-2.211,0-4-1.789-4-4s1.789-4,4-4c6.615,0,11.998-5.382,11.998-11.998
		c0-2.21,1.788-4,3.999-4c2.21,0,3.999,1.789,3.999,4C511.909,103.012,502.942,111.983,491.913,111.983z"/>
	<path style="fill:#3A3847;" d="M19.998,111.983c-11.029,0-19.997-8.971-19.997-19.997c0-2.21,1.789-4,4-4
		c2.21,0,3.999,1.789,3.999,4c0,6.616,5.382,11.998,11.998,11.998c2.21,0,3.999,1.789,3.999,4S22.208,111.983,19.998,111.983z"/>
	<path style="fill:#3A3847;" d="M35.995,103.984c-2.211,0-4-1.789-4-3.999V83.988c0-2.211,1.789-3.999,4-3.999
		c2.21,0,3.999,1.788,3.999,3.999v15.997C39.994,102.196,38.205,103.984,35.995,103.984z"/>
	<path style="fill:#3A3847;" d="M75.987,103.984c-2.21,0-3.999-1.789-3.999-3.999V83.988c0-2.211,1.789-3.999,3.999-3.999
		c2.211,0,4,1.788,4,3.999v15.997C79.987,102.196,78.198,103.984,75.987,103.984z"/>
	<path style="fill:#3A3847;" d="M115.98,103.984c-2.211,0-3.999-1.789-3.999-3.999V83.988c0-2.211,1.788-3.999,3.999-3.999
		c2.21,0,3.999,1.788,3.999,3.999v15.997C119.979,102.196,118.19,103.984,115.98,103.984z"/>
	<path style="fill:#3A3847;" d="M155.974,103.984c-2.211,0-4-1.789-4-3.999V83.988c0-2.211,1.789-3.999,4-3.999
		c2.21,0,3.999,1.788,3.999,3.999v15.997C159.973,102.196,158.184,103.984,155.974,103.984z"/>
	<path style="fill:#3A3847;" d="M195.966,103.984c-2.21,0-3.999-1.789-3.999-3.999V83.988c0-2.211,1.789-3.999,3.999-3.999
		c2.211,0,3.999,1.788,3.999,3.999v15.997C199.965,102.196,198.177,103.984,195.966,103.984z"/>
	<path style="fill:#3A3847;" d="M235.959,103.984c-2.211,0-4-1.789-4-3.999V83.988c0-2.211,1.789-3.999,4-3.999
		c2.21,0,3.999,1.788,3.999,3.999v15.997C239.958,102.196,238.169,103.984,235.959,103.984z"/>
	<path style="fill:#3A3847;" d="M275.952,103.984c-2.211,0-4-1.789-4-3.999V83.988c0-2.211,1.789-3.999,4-3.999
		c2.21,0,3.999,1.788,3.999,3.999v15.997C279.951,102.196,278.162,103.984,275.952,103.984z"/>
	<path style="fill:#3A3847;" d="M315.944,103.984c-2.211,0-3.999-1.789-3.999-3.999V83.988c0-2.211,1.788-3.999,3.999-3.999
		s3.999,1.788,3.999,3.999v15.997C319.943,102.196,318.155,103.984,315.944,103.984z"/>
	<path style="fill:#3A3847;" d="M355.937,103.984c-2.211,0-3.999-1.789-3.999-3.999V83.988c0-2.211,1.788-3.999,3.999-3.999
		c2.21,0,3.999,1.788,3.999,3.999v15.997C359.936,102.196,358.147,103.984,355.937,103.984z"/>
	<path style="fill:#3A3847;" d="M395.93,103.984c-2.21,0-3.999-1.789-3.999-3.999V83.988c0-2.211,1.789-3.999,3.999-3.999
		c2.211,0,3.999,1.788,3.999,3.999v15.997C399.929,102.196,398.141,103.984,395.93,103.984z"/>
	<path style="fill:#3A3847;" d="M435.923,103.984c-2.211,0-3.999-1.789-3.999-3.999V83.988c0-2.211,1.788-3.999,3.999-3.999
		s3.999,1.788,3.999,3.999v15.997C439.922,102.196,438.134,103.984,435.923,103.984z"/>
	<path style="fill:#3A3847;" d="M475.915,103.984c-2.21,0-3.999-1.789-3.999-3.999V83.988c0-2.211,1.789-3.999,3.999-3.999
		c2.211,0,4,1.788,4,3.999v15.997C479.915,102.196,478.126,103.984,475.915,103.984z"/>
	<path style="fill:#3A3847;" d="M227.96,367.934c-0.555,0-1.117-0.109-1.655-0.359c-89.508-40.68-74.979-235.633-74.315-243.913
		c0.172-2.199,2.031-3.781,4.304-3.667c2.203,0.176,3.844,2.105,3.672,4.308c-0.164,1.968-14.771,197.625,69.651,235.993
		c2.016,0.922,2.897,3.28,1.984,5.296C230.936,367.074,229.483,367.934,227.96,367.934z"/>
	<path style="fill:#3A3847;" d="M283.958,367.934c-1.523,0-2.977-0.858-3.647-2.343c-0.914-2.016-0.023-4.374,1.983-5.296
		c84.454-38.384,69.816-234.024,69.66-235.993c-0.18-2.203,1.468-4.132,3.663-4.308c2.28-0.117,4.132,1.469,4.312,3.667
		c0.656,8.28,15.192,203.233-74.322,243.913C285.067,367.824,284.505,367.934,283.958,367.934z"/>
	<path style="fill:#3A3847;" d="M243.957,63.993c-2.21,0-3.999-1.789-3.999-4v-7.998c0-2.211,1.789-4,3.999-4c2.211,0,4,1.789,4,4
		v7.998C247.957,62.203,246.168,63.993,243.957,63.993z"/>
	<path style="fill:#3A3847;" d="M267.953,63.993h-23.996c-2.21,0-3.999-1.789-3.999-4c0-2.21,1.789-3.999,3.999-3.999h23.996
		c2.21,0,3.999,1.789,3.999,3.999C271.952,62.203,270.163,63.993,267.953,63.993z"/>
	<path style="fill:#3A3847;" d="M267.953,63.993c-2.211,0-3.999-1.789-3.999-4v-7.998c0-2.211,1.788-4,3.999-4
		c2.21,0,3.999,1.789,3.999,4v7.998C271.952,62.203,270.163,63.993,267.953,63.993z"/>
</g>
<g>
</g>
<g>
</g>
<g>
</g>
<g>
</g>
<g>
</g>
<g>
</g>
<g>
</g>
<g>
</g>
<g>
</g>
<g>
</g>
<g>
</g>
<g>
</g>
<g>
</g>
<g>
</g>
<g>
</g>
</svg>
